%
M48
M72
T01C0.02000
T02C0.02362
T03C0.02756
T04C0.03200
T05C0.03600
T06C0.12598
%
T01
X27069Y16131
X51131Y42069
X55037Y45037
X59100Y48319
X63006Y51912
X66756Y43475
X70819Y45975
X70819Y40819
X78475Y43475
X82694Y46287
X86600Y40819
X90662Y43475
X94569Y45975
X98319Y40819
X113631Y62850
X113631Y74881
X113631Y87069
X109256Y90975
X112225Y94256
X110194Y98162
X111600Y102069
X145038Y129569
X129412Y145506
X72225Y82069
X43944Y82538
X41131Y87225
X38319Y82381
X41131Y74725
X38319Y70663
X43944Y70506
X41131Y63006
X38319Y58787
X43944Y58787
X25819Y90350
X22694Y94100
X19725Y98162
X16756Y101912
X7694Y129412
X23631Y145350
X125194Y16131
T02
X71444Y105037
T03
X12381Y105819
X36756Y38006
T04
X41444Y142538
X81444Y142538
T05
X81600Y131600
X81600Y121600
X91600Y121600
X91600Y131600
X101600Y131600
X101600Y121600
X111600Y121600
X111600Y131600
X71600Y131600
X71600Y121600
X61600Y121600
X61600Y131600
X51600Y131600
X51600Y121600
X41600Y121600
X41600Y131600
T06
X11600Y11600
X11600Y141600
X141600Y141600
X141600Y11600
M30
