G75*
%MOIN*%
%OFA0B0*%
%FSLAX25Y25*%
%IPPOS*%
%LPD*%
%AMOC8*
5,1,8,0,0,1.08239X$1,22.5*
%
%ADD10C,0.13398*%
%ADD11R,0.04737X0.05131*%
%ADD12R,0.05131X0.04737*%
%ADD13R,0.06312X0.03556*%
%ADD14R,0.10643X0.08674*%
%ADD15R,0.03556X0.06312*%
%ADD16R,0.08674X0.10643*%
%ADD17OC8,0.06400*%
%ADD18OC8,0.07400*%
%ADD19R,0.05512X0.06299*%
%ADD20C,0.04400*%
D10*
X0011600Y0011600D03*
X0011600Y0141600D03*
X0141600Y0141600D03*
X0141600Y0011600D03*
D11*
X0027225Y0024816D03*
X0027225Y0031509D03*
X0019100Y0031509D03*
X0019100Y0024816D03*
D12*
X0024660Y0126600D03*
X0031353Y0126600D03*
X0031353Y0134725D03*
X0024660Y0134725D03*
D13*
X0032850Y0106034D03*
X0032850Y0102097D03*
X0032850Y0098160D03*
X0032850Y0094223D03*
X0032850Y0090286D03*
X0032850Y0086349D03*
X0032850Y0082412D03*
X0032850Y0078475D03*
X0032850Y0074538D03*
X0032850Y0070601D03*
X0032850Y0066664D03*
X0032850Y0062727D03*
X0032850Y0058790D03*
X0032850Y0054853D03*
X0032850Y0050916D03*
D14*
X0019858Y0041467D03*
X0019858Y0115483D03*
D15*
X0047166Y0033475D03*
X0051103Y0033475D03*
X0055040Y0033475D03*
X0058977Y0033475D03*
X0062914Y0033475D03*
X0066851Y0033475D03*
X0070788Y0033475D03*
X0074725Y0033475D03*
X0078662Y0033475D03*
X0082599Y0033475D03*
X0086536Y0033475D03*
X0090473Y0033475D03*
X0094410Y0033475D03*
X0098347Y0033475D03*
X0102284Y0033475D03*
D16*
X0111733Y0020483D03*
X0037717Y0020483D03*
D17*
X0041600Y0121600D03*
X0041600Y0131600D03*
X0051600Y0131600D03*
X0051600Y0121600D03*
X0061600Y0121600D03*
X0061600Y0131600D03*
X0071600Y0131600D03*
X0071600Y0121600D03*
X0081600Y0121600D03*
X0081600Y0131600D03*
X0091600Y0131600D03*
X0091600Y0121600D03*
X0101600Y0121600D03*
X0101600Y0131600D03*
X0111600Y0131600D03*
X0111600Y0121600D03*
D18*
X0081444Y0142538D03*
X0041444Y0142538D03*
D19*
X0057407Y0142538D03*
X0065481Y0142538D03*
D20*
X0043944Y0082538D03*
X0038319Y0082381D03*
X0038319Y0070663D03*
X0043944Y0070506D03*
X0043944Y0058787D03*
X0038319Y0058787D03*
X0070819Y0045975D03*
X0070819Y0040819D03*
X0082694Y0046287D03*
X0086600Y0040819D03*
X0094569Y0045975D03*
X0098319Y0040819D03*
M02*
