G75*
%MOIN*%
%OFA0B0*%
%FSLAX25Y25*%
%IPPOS*%
%LPD*%
%AMOC8*
5,1,8,0,0,1.08239X$1,22.5*
%
%ADD10R,0.03937X0.04331*%
%ADD11R,0.04331X0.03937*%
%ADD12R,0.05512X0.02756*%
%ADD13R,0.09843X0.07874*%
%ADD14R,0.02756X0.05512*%
%ADD15R,0.07874X0.09843*%
%ADD16OC8,0.05600*%
%ADD17C,0.01200*%
%ADD18OC8,0.06600*%
%ADD19R,0.04724X0.05512*%
%ADD20C,0.03600*%
%ADD21C,0.00800*%
%ADD22C,0.03962*%
%ADD23C,0.01600*%
%ADD24C,0.04356*%
%ADD25C,0.01000*%
D10*
X0019100Y0024816D03*
X0019100Y0031509D03*
X0027225Y0031509D03*
X0027225Y0024816D03*
D11*
X0024660Y0126600D03*
X0031353Y0126600D03*
X0031353Y0134725D03*
X0024660Y0134725D03*
D12*
X0032850Y0106034D03*
X0032850Y0102097D03*
X0032850Y0098160D03*
X0032850Y0094223D03*
X0032850Y0090286D03*
X0032850Y0086349D03*
X0032850Y0082412D03*
X0032850Y0078475D03*
X0032850Y0074538D03*
X0032850Y0070601D03*
X0032850Y0066664D03*
X0032850Y0062727D03*
X0032850Y0058790D03*
X0032850Y0054853D03*
X0032850Y0050916D03*
D13*
X0019858Y0041467D03*
X0019858Y0115483D03*
D14*
X0047166Y0033475D03*
X0051103Y0033475D03*
X0055040Y0033475D03*
X0058977Y0033475D03*
X0062914Y0033475D03*
X0066851Y0033475D03*
X0070788Y0033475D03*
X0074725Y0033475D03*
X0078662Y0033475D03*
X0082599Y0033475D03*
X0086536Y0033475D03*
X0090473Y0033475D03*
X0094410Y0033475D03*
X0098347Y0033475D03*
X0102284Y0033475D03*
D15*
X0111733Y0020483D03*
X0037717Y0020483D03*
D16*
X0041600Y0121600D03*
X0041600Y0131600D03*
X0051600Y0131600D03*
X0051600Y0121600D03*
X0061600Y0121600D03*
X0061600Y0131600D03*
X0071600Y0131600D03*
X0071600Y0121600D03*
X0081600Y0121600D03*
X0081600Y0131600D03*
X0091600Y0131600D03*
X0091600Y0121600D03*
X0101600Y0121600D03*
X0101600Y0131600D03*
X0111600Y0131600D03*
X0111600Y0121600D03*
D17*
X0032380Y0019578D02*
X0019036Y0019578D01*
X0018292Y0020322D02*
X0017029Y0021051D01*
X0018716Y0021051D01*
X0018716Y0024432D01*
X0019484Y0024432D01*
X0019484Y0021051D01*
X0021279Y0021051D01*
X0021686Y0021160D01*
X0022051Y0021370D01*
X0022349Y0021668D01*
X0022559Y0022033D01*
X0022668Y0022440D01*
X0022668Y0024432D01*
X0019484Y0024432D01*
X0019484Y0025200D01*
X0022668Y0025200D01*
X0022668Y0027192D01*
X0022559Y0027599D01*
X0022349Y0027964D01*
X0022051Y0028262D01*
X0021997Y0028293D01*
X0022468Y0028764D01*
X0022468Y0029309D01*
X0023856Y0029309D01*
X0023856Y0028764D01*
X0024328Y0028293D01*
X0024274Y0028262D01*
X0023976Y0027964D01*
X0023766Y0027599D01*
X0023656Y0027192D01*
X0023656Y0025200D01*
X0026841Y0025200D01*
X0026841Y0024432D01*
X0027609Y0024432D01*
X0027609Y0021051D01*
X0029404Y0021051D01*
X0029811Y0021160D01*
X0030176Y0021370D01*
X0030474Y0021668D01*
X0030684Y0022033D01*
X0030793Y0022440D01*
X0030793Y0024432D01*
X0027609Y0024432D01*
X0027609Y0025200D01*
X0030793Y0025200D01*
X0030793Y0027192D01*
X0030684Y0027599D01*
X0030474Y0027964D01*
X0030176Y0028262D01*
X0030122Y0028293D01*
X0030593Y0028764D01*
X0030593Y0029309D01*
X0041951Y0029309D01*
X0043918Y0031275D01*
X0044388Y0031275D01*
X0044388Y0030139D01*
X0045208Y0029319D01*
X0049124Y0029319D01*
X0049134Y0029330D01*
X0049145Y0029319D01*
X0053061Y0029319D01*
X0053071Y0029330D01*
X0053082Y0029319D01*
X0056998Y0029319D01*
X0057008Y0029330D01*
X0057019Y0029319D01*
X0060935Y0029319D01*
X0060945Y0029330D01*
X0060956Y0029319D01*
X0064698Y0029319D01*
X0064855Y0029228D01*
X0065262Y0029119D01*
X0066762Y0029119D01*
X0066762Y0033386D01*
X0066940Y0033386D01*
X0066940Y0029119D01*
X0068440Y0029119D01*
X0068847Y0029228D01*
X0069004Y0029319D01*
X0072746Y0029319D01*
X0072756Y0029330D01*
X0072767Y0029319D01*
X0076509Y0029319D01*
X0076666Y0029228D01*
X0077073Y0029119D01*
X0078573Y0029119D01*
X0078573Y0033386D01*
X0078751Y0033386D01*
X0078751Y0029119D01*
X0080251Y0029119D01*
X0080658Y0029228D01*
X0080815Y0029319D01*
X0084557Y0029319D01*
X0084568Y0029330D01*
X0084578Y0029319D01*
X0088320Y0029319D01*
X0088477Y0029228D01*
X0088884Y0029119D01*
X0090384Y0029119D01*
X0090384Y0033386D01*
X0090562Y0033386D01*
X0090562Y0029119D01*
X0092062Y0029119D01*
X0092469Y0029228D01*
X0092626Y0029319D01*
X0096368Y0029319D01*
X0096379Y0029330D01*
X0096389Y0029319D01*
X0100131Y0029319D01*
X0100289Y0029228D01*
X0100695Y0029119D01*
X0102195Y0029119D01*
X0102195Y0033386D01*
X0102373Y0033386D01*
X0102373Y0029119D01*
X0103873Y0029119D01*
X0104280Y0029228D01*
X0104644Y0029439D01*
X0104942Y0029737D01*
X0105153Y0030102D01*
X0105262Y0030508D01*
X0105262Y0033386D01*
X0102373Y0033386D01*
X0102373Y0033564D01*
X0102195Y0033564D01*
X0102195Y0037831D01*
X0100695Y0037831D01*
X0100289Y0037722D01*
X0100147Y0037640D01*
X0100147Y0038122D01*
X0101032Y0039006D01*
X0101519Y0040182D01*
X0101519Y0041455D01*
X0101032Y0042631D01*
X0100131Y0043532D01*
X0098955Y0044019D01*
X0097682Y0044019D01*
X0096753Y0043634D01*
X0097282Y0044162D01*
X0097769Y0045338D01*
X0097769Y0046612D01*
X0097282Y0047788D01*
X0096381Y0048688D01*
X0095205Y0049175D01*
X0093932Y0049175D01*
X0092756Y0048688D01*
X0091856Y0047788D01*
X0091369Y0046612D01*
X0091369Y0045338D01*
X0091856Y0044162D01*
X0092756Y0043262D01*
X0092769Y0043257D01*
X0092769Y0037631D01*
X0092626Y0037631D01*
X0092469Y0037722D01*
X0092062Y0037831D01*
X0090562Y0037831D01*
X0090562Y0033564D01*
X0090384Y0033564D01*
X0090384Y0037831D01*
X0088884Y0037831D01*
X0088477Y0037722D01*
X0088400Y0037677D01*
X0088400Y0038101D01*
X0088413Y0038106D01*
X0089313Y0039006D01*
X0089800Y0040182D01*
X0089800Y0041455D01*
X0089313Y0042631D01*
X0088413Y0043532D01*
X0087237Y0044019D01*
X0085963Y0044019D01*
X0084787Y0043532D01*
X0084494Y0043238D01*
X0084494Y0043569D01*
X0084506Y0043575D01*
X0085407Y0044475D01*
X0085894Y0045651D01*
X0085894Y0046924D01*
X0085407Y0048100D01*
X0084506Y0049000D01*
X0083330Y0049487D01*
X0082057Y0049487D01*
X0080881Y0049000D01*
X0079981Y0048100D01*
X0079494Y0046924D01*
X0079494Y0045651D01*
X0079981Y0044475D01*
X0080881Y0043575D01*
X0080894Y0043569D01*
X0080894Y0037631D01*
X0080815Y0037631D01*
X0080658Y0037722D01*
X0080251Y0037831D01*
X0078751Y0037831D01*
X0078751Y0033564D01*
X0078573Y0033564D01*
X0078573Y0037831D01*
X0077073Y0037831D01*
X0076666Y0037722D01*
X0076525Y0037640D01*
X0076525Y0042814D01*
X0075471Y0043869D01*
X0074013Y0045326D01*
X0074019Y0045338D01*
X0074019Y0046612D01*
X0073532Y0047788D01*
X0072631Y0048688D01*
X0071455Y0049175D01*
X0070182Y0049175D01*
X0069006Y0048688D01*
X0068106Y0047788D01*
X0067619Y0046612D01*
X0067619Y0045338D01*
X0068106Y0044162D01*
X0068871Y0043397D01*
X0068106Y0042631D01*
X0067619Y0041455D01*
X0067619Y0040182D01*
X0068106Y0039006D01*
X0068988Y0038124D01*
X0068988Y0037640D01*
X0068847Y0037722D01*
X0068440Y0037831D01*
X0066940Y0037831D01*
X0066940Y0033564D01*
X0066762Y0033564D01*
X0066762Y0037831D01*
X0065262Y0037831D01*
X0064855Y0037722D01*
X0064714Y0037640D01*
X0064714Y0049156D01*
X0064819Y0049200D01*
X0065719Y0050100D01*
X0066206Y0051276D01*
X0066206Y0052549D01*
X0065719Y0053725D01*
X0064819Y0054625D01*
X0063643Y0055112D01*
X0062370Y0055112D01*
X0061194Y0054625D01*
X0060293Y0053725D01*
X0059806Y0052549D01*
X0059806Y0051490D01*
X0059737Y0051519D01*
X0058463Y0051519D01*
X0057287Y0051032D01*
X0056387Y0050131D01*
X0055900Y0048955D01*
X0055900Y0048144D01*
X0055674Y0048237D01*
X0054401Y0048237D01*
X0053225Y0047750D01*
X0052325Y0046850D01*
X0051837Y0045674D01*
X0051837Y0045240D01*
X0051768Y0045269D01*
X0050495Y0045269D01*
X0049319Y0044782D01*
X0048418Y0043881D01*
X0047931Y0042705D01*
X0047931Y0041432D01*
X0048418Y0040256D01*
X0049303Y0039372D01*
X0049303Y0038980D01*
X0048077Y0040206D01*
X0039616Y0040206D01*
X0038783Y0041039D01*
X0037468Y0041584D01*
X0036045Y0041584D01*
X0034730Y0041039D01*
X0033723Y0040033D01*
X0033178Y0038718D01*
X0033178Y0037295D01*
X0033723Y0035980D01*
X0034730Y0034973D01*
X0036045Y0034428D01*
X0037468Y0034428D01*
X0038783Y0034973D01*
X0039616Y0035806D01*
X0044388Y0035806D01*
X0044388Y0035675D01*
X0042095Y0035675D01*
X0040806Y0034386D01*
X0040129Y0033709D01*
X0030593Y0033709D01*
X0030593Y0034254D01*
X0029773Y0035074D01*
X0024677Y0035074D01*
X0023856Y0034254D01*
X0023856Y0033709D01*
X0022468Y0033709D01*
X0022468Y0034254D01*
X0021648Y0035074D01*
X0016552Y0035074D01*
X0015731Y0034254D01*
X0015731Y0028764D01*
X0016203Y0028293D01*
X0016149Y0028262D01*
X0015851Y0027964D01*
X0015641Y0027599D01*
X0015531Y0027192D01*
X0015531Y0025200D01*
X0018716Y0025200D01*
X0018716Y0024432D01*
X0015531Y0024432D01*
X0015531Y0022440D01*
X0015641Y0022033D01*
X0015799Y0021759D01*
X0013035Y0022499D01*
X0010165Y0022499D01*
X0007393Y0021756D01*
X0006200Y0021068D01*
X0006200Y0132132D01*
X0007393Y0131444D01*
X0010165Y0130701D01*
X0013035Y0130701D01*
X0015807Y0131444D01*
X0018292Y0132878D01*
X0020322Y0134908D01*
X0021094Y0136246D01*
X0021094Y0132177D01*
X0021915Y0131356D01*
X0022460Y0131356D01*
X0022460Y0129968D01*
X0021915Y0129968D01*
X0021094Y0129148D01*
X0021094Y0124052D01*
X0021915Y0123231D01*
X0024917Y0123231D01*
X0030650Y0117499D01*
X0030650Y0108812D01*
X0029514Y0108812D01*
X0028721Y0108019D01*
X0015241Y0108019D01*
X0014408Y0108852D01*
X0013093Y0109397D01*
X0011670Y0109397D01*
X0010355Y0108852D01*
X0009348Y0107845D01*
X0008803Y0106530D01*
X0008803Y0105107D01*
X0009348Y0103792D01*
X0010355Y0102786D01*
X0011670Y0102241D01*
X0013093Y0102241D01*
X0013556Y0102433D01*
X0013556Y0101276D01*
X0014043Y0100100D01*
X0014944Y0099200D01*
X0016120Y0098712D01*
X0016525Y0098712D01*
X0016525Y0097526D01*
X0017012Y0096350D01*
X0017912Y0095450D01*
X0019088Y0094962D01*
X0019587Y0094962D01*
X0019494Y0094737D01*
X0019494Y0093463D01*
X0019981Y0092287D01*
X0020881Y0091387D01*
X0022057Y0090900D01*
X0022619Y0090900D01*
X0022619Y0089713D01*
X0023106Y0088537D01*
X0024006Y0087637D01*
X0025182Y0087150D01*
X0026455Y0087150D01*
X0027631Y0087637D01*
X0028532Y0088537D01*
X0028537Y0088550D01*
X0028694Y0088550D01*
X0028694Y0088502D01*
X0028603Y0088345D01*
X0028494Y0087938D01*
X0028494Y0086438D01*
X0032761Y0086438D01*
X0032761Y0086260D01*
X0028494Y0086260D01*
X0028494Y0084760D01*
X0028603Y0084353D01*
X0028694Y0084196D01*
X0028694Y0080454D01*
X0028705Y0080443D01*
X0028694Y0080433D01*
X0028694Y0076691D01*
X0028603Y0076534D01*
X0028494Y0076127D01*
X0028494Y0074627D01*
X0032761Y0074627D01*
X0032761Y0074449D01*
X0028494Y0074449D01*
X0028494Y0072949D01*
X0028603Y0072542D01*
X0028694Y0072385D01*
X0028694Y0068643D01*
X0028705Y0068632D01*
X0028694Y0068622D01*
X0028694Y0064880D01*
X0028603Y0064722D01*
X0028494Y0064316D01*
X0028494Y0062816D01*
X0032761Y0062816D01*
X0032761Y0062638D01*
X0028494Y0062638D01*
X0028494Y0061138D01*
X0028603Y0060731D01*
X0028694Y0060574D01*
X0028694Y0056832D01*
X0028705Y0056821D01*
X0028694Y0056811D01*
X0028694Y0053069D01*
X0028603Y0052911D01*
X0028494Y0052505D01*
X0028494Y0051005D01*
X0032761Y0051005D01*
X0032761Y0050827D01*
X0028494Y0050827D01*
X0028494Y0049327D01*
X0028603Y0048920D01*
X0028814Y0048556D01*
X0029112Y0048258D01*
X0029477Y0048047D01*
X0029883Y0047938D01*
X0032761Y0047938D01*
X0032761Y0050827D01*
X0032939Y0050827D01*
X0032939Y0051005D01*
X0037206Y0051005D01*
X0037206Y0052505D01*
X0037097Y0052911D01*
X0037015Y0053053D01*
X0040755Y0053053D01*
X0041809Y0054107D01*
X0043295Y0055593D01*
X0043307Y0055587D01*
X0044580Y0055587D01*
X0045756Y0056075D01*
X0046657Y0056975D01*
X0047144Y0058151D01*
X0047144Y0059424D01*
X0046657Y0060600D01*
X0045756Y0061500D01*
X0044580Y0061987D01*
X0043307Y0061987D01*
X0042131Y0061500D01*
X0041231Y0060600D01*
X0041131Y0060359D01*
X0041032Y0060600D01*
X0040131Y0061500D01*
X0038955Y0061987D01*
X0037682Y0061987D01*
X0037206Y0061790D01*
X0037206Y0062638D01*
X0032939Y0062638D01*
X0032939Y0062816D01*
X0037206Y0062816D01*
X0037206Y0064316D01*
X0037097Y0064722D01*
X0037015Y0064864D01*
X0040847Y0064864D01*
X0041901Y0065918D01*
X0043295Y0067311D01*
X0043307Y0067306D01*
X0044580Y0067306D01*
X0045756Y0067793D01*
X0046657Y0068694D01*
X0047144Y0069870D01*
X0047144Y0071143D01*
X0046657Y0072319D01*
X0045756Y0073219D01*
X0044580Y0073706D01*
X0043307Y0073706D01*
X0042131Y0073219D01*
X0041231Y0072319D01*
X0041164Y0072156D01*
X0041032Y0072475D01*
X0040131Y0073375D01*
X0038955Y0073862D01*
X0037682Y0073862D01*
X0037206Y0073665D01*
X0037206Y0074449D01*
X0032939Y0074449D01*
X0032939Y0074627D01*
X0037206Y0074627D01*
X0037206Y0076127D01*
X0037097Y0076534D01*
X0037015Y0076675D01*
X0040627Y0076675D01*
X0041681Y0077729D01*
X0043295Y0079343D01*
X0043307Y0079338D01*
X0044580Y0079338D01*
X0045756Y0079825D01*
X0046657Y0080725D01*
X0047144Y0081901D01*
X0047144Y0083174D01*
X0046657Y0084350D01*
X0045756Y0085250D01*
X0044580Y0085737D01*
X0043307Y0085737D01*
X0042131Y0085250D01*
X0041231Y0084350D01*
X0041099Y0084031D01*
X0041032Y0084194D01*
X0040131Y0085094D01*
X0038955Y0085581D01*
X0037682Y0085581D01*
X0037206Y0085384D01*
X0037206Y0086260D01*
X0032939Y0086260D01*
X0032939Y0086438D01*
X0037206Y0086438D01*
X0037206Y0087938D01*
X0037097Y0088345D01*
X0037015Y0088486D01*
X0039157Y0088486D01*
X0040211Y0089540D01*
X0044846Y0094175D01*
X0103511Y0094175D01*
X0106062Y0091624D01*
X0106056Y0091612D01*
X0106056Y0090338D01*
X0106543Y0089162D01*
X0107444Y0088262D01*
X0108620Y0087775D01*
X0109893Y0087775D01*
X0111069Y0088262D01*
X0111969Y0089162D01*
X0112456Y0090338D01*
X0112456Y0091056D01*
X0112862Y0091056D01*
X0114038Y0091543D01*
X0114938Y0092444D01*
X0115425Y0093620D01*
X0115425Y0094893D01*
X0114938Y0096069D01*
X0114038Y0096969D01*
X0113291Y0097278D01*
X0113394Y0097526D01*
X0113394Y0098799D01*
X0113200Y0099268D01*
X0113413Y0099356D01*
X0114313Y0100256D01*
X0114800Y0101432D01*
X0114800Y0102705D01*
X0114313Y0103881D01*
X0113413Y0104782D01*
X0112237Y0105269D01*
X0110963Y0105269D01*
X0109787Y0104782D01*
X0108887Y0103881D01*
X0108882Y0103869D01*
X0074619Y0103869D01*
X0074825Y0104365D01*
X0074825Y0105710D01*
X0074310Y0106953D01*
X0073359Y0107904D01*
X0072116Y0108419D01*
X0070771Y0108419D01*
X0069529Y0107904D01*
X0068577Y0106953D01*
X0068571Y0106937D01*
X0058949Y0106937D01*
X0045800Y0120087D01*
X0045800Y0123340D01*
X0043800Y0125340D01*
X0043800Y0127860D01*
X0045800Y0129860D01*
X0045800Y0133340D01*
X0043800Y0135340D01*
X0043800Y0138247D01*
X0046091Y0140538D01*
X0053645Y0140538D01*
X0053645Y0139202D01*
X0054465Y0138382D01*
X0060349Y0138382D01*
X0061169Y0139202D01*
X0061169Y0145873D01*
X0060349Y0146693D01*
X0054465Y0146693D01*
X0053645Y0145873D01*
X0053645Y0144537D01*
X0046091Y0144537D01*
X0043628Y0147000D01*
X0078977Y0147000D01*
X0076544Y0144567D01*
X0076544Y0144537D01*
X0069243Y0144537D01*
X0069243Y0145873D01*
X0068423Y0146693D01*
X0062539Y0146693D01*
X0061719Y0145873D01*
X0061719Y0139202D01*
X0062539Y0138382D01*
X0068423Y0138382D01*
X0069243Y0139202D01*
X0069243Y0140538D01*
X0076544Y0140538D01*
X0076544Y0140508D01*
X0079414Y0137638D01*
X0081244Y0137638D01*
X0081244Y0140538D01*
X0081644Y0140538D01*
X0081644Y0137638D01*
X0083473Y0137638D01*
X0086344Y0140508D01*
X0086344Y0142337D01*
X0083522Y0142337D01*
X0083522Y0142738D01*
X0086344Y0142738D01*
X0086344Y0144567D01*
X0083911Y0147000D01*
X0132132Y0147000D01*
X0131444Y0145807D01*
X0130701Y0143035D01*
X0130701Y0140165D01*
X0131444Y0137393D01*
X0132878Y0134908D01*
X0134908Y0132878D01*
X0137393Y0131444D01*
X0140165Y0130701D01*
X0143035Y0130701D01*
X0145807Y0131444D01*
X0147000Y0132132D01*
X0147000Y0021068D01*
X0145807Y0021756D01*
X0143035Y0022499D01*
X0140165Y0022499D01*
X0137393Y0021756D01*
X0134908Y0020322D01*
X0132878Y0018292D01*
X0131444Y0015807D01*
X0130701Y0013035D01*
X0130701Y0010165D01*
X0131444Y0007393D01*
X0132132Y0006200D01*
X0021068Y0006200D01*
X0021756Y0007393D01*
X0022499Y0010165D01*
X0022499Y0013035D01*
X0021756Y0015807D01*
X0020322Y0018292D01*
X0018292Y0020322D01*
X0017505Y0020776D02*
X0032380Y0020776D01*
X0032380Y0021975D02*
X0030651Y0021975D01*
X0030793Y0023173D02*
X0032380Y0023173D01*
X0032380Y0024372D02*
X0030793Y0024372D01*
X0030793Y0025570D02*
X0032380Y0025570D01*
X0032380Y0025984D02*
X0033200Y0026804D01*
X0042234Y0026804D01*
X0043054Y0025984D01*
X0043054Y0014982D01*
X0042234Y0014162D01*
X0033200Y0014162D01*
X0032380Y0014982D01*
X0032380Y0025984D01*
X0033165Y0026769D02*
X0030793Y0026769D01*
X0030470Y0027967D02*
X0147000Y0027967D01*
X0147000Y0026769D02*
X0116285Y0026769D01*
X0116250Y0026804D02*
X0107216Y0026804D01*
X0106396Y0025984D01*
X0106396Y0014982D01*
X0107216Y0014162D01*
X0116250Y0014162D01*
X0117070Y0014982D01*
X0117070Y0025984D01*
X0116250Y0026804D01*
X0117070Y0025570D02*
X0147000Y0025570D01*
X0147000Y0024372D02*
X0117070Y0024372D01*
X0117070Y0023173D02*
X0147000Y0023173D01*
X0147000Y0021975D02*
X0144992Y0021975D01*
X0138208Y0021975D02*
X0117070Y0021975D01*
X0117070Y0020776D02*
X0135695Y0020776D01*
X0134164Y0019578D02*
X0117070Y0019578D01*
X0117070Y0018379D02*
X0132965Y0018379D01*
X0132237Y0017181D02*
X0117070Y0017181D01*
X0117070Y0015982D02*
X0131545Y0015982D01*
X0131169Y0014784D02*
X0116872Y0014784D01*
X0106594Y0014784D02*
X0042856Y0014784D01*
X0043054Y0015982D02*
X0106396Y0015982D01*
X0106396Y0017181D02*
X0043054Y0017181D01*
X0043054Y0018379D02*
X0106396Y0018379D01*
X0106396Y0019578D02*
X0043054Y0019578D01*
X0043054Y0020776D02*
X0106396Y0020776D01*
X0106396Y0021975D02*
X0043054Y0021975D01*
X0043054Y0023173D02*
X0106396Y0023173D01*
X0106396Y0024372D02*
X0043054Y0024372D01*
X0043054Y0025570D02*
X0106396Y0025570D01*
X0107181Y0026769D02*
X0042269Y0026769D01*
X0043007Y0030364D02*
X0044388Y0030364D01*
X0040380Y0033960D02*
X0030593Y0033960D01*
X0033567Y0036357D02*
X0025586Y0036357D01*
X0025359Y0036130D02*
X0026179Y0036950D01*
X0026179Y0045984D01*
X0025359Y0046804D01*
X0014357Y0046804D01*
X0013537Y0045984D01*
X0013537Y0036950D01*
X0014357Y0036130D01*
X0025359Y0036130D01*
X0026179Y0037555D02*
X0033178Y0037555D01*
X0033193Y0038754D02*
X0026179Y0038754D01*
X0026179Y0039952D02*
X0033690Y0039952D01*
X0034998Y0041151D02*
X0026179Y0041151D01*
X0026179Y0042349D02*
X0047931Y0042349D01*
X0048048Y0041151D02*
X0038514Y0041151D01*
X0038968Y0035158D02*
X0041578Y0035158D01*
X0040806Y0034386D02*
X0040806Y0034386D01*
X0034544Y0035158D02*
X0006200Y0035158D01*
X0006200Y0033960D02*
X0015731Y0033960D01*
X0015731Y0032761D02*
X0006200Y0032761D01*
X0006200Y0031563D02*
X0015731Y0031563D01*
X0015731Y0030364D02*
X0006200Y0030364D01*
X0006200Y0029166D02*
X0015731Y0029166D01*
X0015855Y0027967D02*
X0006200Y0027967D01*
X0006200Y0026769D02*
X0015531Y0026769D01*
X0015531Y0025570D02*
X0006200Y0025570D01*
X0006200Y0024372D02*
X0015531Y0024372D01*
X0015531Y0023173D02*
X0006200Y0023173D01*
X0006200Y0021975D02*
X0008208Y0021975D01*
X0014992Y0021975D02*
X0015674Y0021975D01*
X0018716Y0021975D02*
X0019484Y0021975D01*
X0019484Y0023173D02*
X0018716Y0023173D01*
X0018716Y0024372D02*
X0019484Y0024372D01*
X0022668Y0024372D02*
X0023656Y0024372D01*
X0023656Y0024432D02*
X0023656Y0022440D01*
X0023766Y0022033D01*
X0023976Y0021668D01*
X0024274Y0021370D01*
X0024639Y0021160D01*
X0025046Y0021051D01*
X0026841Y0021051D01*
X0026841Y0024432D01*
X0023656Y0024432D01*
X0023656Y0025570D02*
X0022668Y0025570D01*
X0022668Y0026769D02*
X0023656Y0026769D01*
X0023980Y0027967D02*
X0022345Y0027967D01*
X0022468Y0029166D02*
X0023856Y0029166D01*
X0023856Y0033960D02*
X0022468Y0033960D01*
X0014130Y0036357D02*
X0006200Y0036357D01*
X0006200Y0037555D02*
X0013537Y0037555D01*
X0013537Y0038754D02*
X0006200Y0038754D01*
X0006200Y0039952D02*
X0013537Y0039952D01*
X0013537Y0041151D02*
X0006200Y0041151D01*
X0006200Y0042349D02*
X0013537Y0042349D01*
X0013537Y0043548D02*
X0006200Y0043548D01*
X0006200Y0044746D02*
X0013537Y0044746D01*
X0013537Y0045945D02*
X0006200Y0045945D01*
X0006200Y0047143D02*
X0052618Y0047143D01*
X0051950Y0045945D02*
X0026179Y0045945D01*
X0026179Y0044746D02*
X0049283Y0044746D01*
X0048280Y0043548D02*
X0026179Y0043548D01*
X0029027Y0048342D02*
X0006200Y0048342D01*
X0006200Y0049540D02*
X0028494Y0049540D01*
X0028494Y0050739D02*
X0006200Y0050739D01*
X0006200Y0051937D02*
X0028494Y0051937D01*
X0028694Y0053136D02*
X0006200Y0053136D01*
X0006200Y0054334D02*
X0028694Y0054334D01*
X0028694Y0055533D02*
X0006200Y0055533D01*
X0006200Y0056732D02*
X0028694Y0056732D01*
X0028694Y0057930D02*
X0006200Y0057930D01*
X0006200Y0059129D02*
X0028694Y0059129D01*
X0028694Y0060327D02*
X0006200Y0060327D01*
X0006200Y0061526D02*
X0028494Y0061526D01*
X0028494Y0063923D02*
X0006200Y0063923D01*
X0006200Y0065121D02*
X0028694Y0065121D01*
X0028694Y0066320D02*
X0006200Y0066320D01*
X0006200Y0067518D02*
X0028694Y0067518D01*
X0028694Y0068717D02*
X0006200Y0068717D01*
X0006200Y0069915D02*
X0028694Y0069915D01*
X0028694Y0071114D02*
X0006200Y0071114D01*
X0006200Y0072312D02*
X0028694Y0072312D01*
X0028494Y0073511D02*
X0006200Y0073511D01*
X0006200Y0074709D02*
X0028494Y0074709D01*
X0028494Y0075908D02*
X0006200Y0075908D01*
X0006200Y0077106D02*
X0028694Y0077106D01*
X0028694Y0078305D02*
X0006200Y0078305D01*
X0006200Y0079503D02*
X0028694Y0079503D01*
X0028694Y0080702D02*
X0006200Y0080702D01*
X0006200Y0081900D02*
X0028694Y0081900D01*
X0028694Y0083099D02*
X0006200Y0083099D01*
X0006200Y0084297D02*
X0028636Y0084297D01*
X0028494Y0085496D02*
X0006200Y0085496D01*
X0006200Y0086694D02*
X0028494Y0086694D01*
X0028494Y0087893D02*
X0027887Y0087893D01*
X0023750Y0087893D02*
X0006200Y0087893D01*
X0006200Y0089091D02*
X0022876Y0089091D01*
X0022619Y0090290D02*
X0006200Y0090290D01*
X0006200Y0091488D02*
X0020780Y0091488D01*
X0019815Y0092687D02*
X0006200Y0092687D01*
X0006200Y0093885D02*
X0019494Y0093885D01*
X0018795Y0095084D02*
X0006200Y0095084D01*
X0006200Y0096282D02*
X0017080Y0096282D01*
X0016544Y0097481D02*
X0006200Y0097481D01*
X0006200Y0098679D02*
X0016525Y0098679D01*
X0014265Y0099878D02*
X0006200Y0099878D01*
X0006200Y0101076D02*
X0013639Y0101076D01*
X0013556Y0102275D02*
X0013175Y0102275D01*
X0011587Y0102275D02*
X0006200Y0102275D01*
X0006200Y0103473D02*
X0009667Y0103473D01*
X0008984Y0104672D02*
X0006200Y0104672D01*
X0006200Y0105870D02*
X0008803Y0105870D01*
X0009026Y0107069D02*
X0006200Y0107069D01*
X0006200Y0108268D02*
X0009770Y0108268D01*
X0006200Y0109466D02*
X0030650Y0109466D01*
X0030650Y0110665D02*
X0025878Y0110665D01*
X0026179Y0110966D02*
X0025359Y0110146D01*
X0014357Y0110146D01*
X0013537Y0110966D01*
X0013537Y0120000D01*
X0014357Y0120820D01*
X0025359Y0120820D01*
X0026179Y0120000D01*
X0026179Y0110966D01*
X0026179Y0111863D02*
X0030650Y0111863D01*
X0030650Y0113062D02*
X0026179Y0113062D01*
X0026179Y0114260D02*
X0030650Y0114260D01*
X0030650Y0115459D02*
X0026179Y0115459D01*
X0026179Y0116657D02*
X0030650Y0116657D01*
X0030293Y0117856D02*
X0026179Y0117856D01*
X0026179Y0119054D02*
X0029094Y0119054D01*
X0027896Y0120253D02*
X0025926Y0120253D01*
X0026697Y0121451D02*
X0006200Y0121451D01*
X0006200Y0120253D02*
X0013789Y0120253D01*
X0013537Y0119054D02*
X0006200Y0119054D01*
X0006200Y0117856D02*
X0013537Y0117856D01*
X0013537Y0116657D02*
X0006200Y0116657D01*
X0006200Y0115459D02*
X0013537Y0115459D01*
X0013537Y0114260D02*
X0006200Y0114260D01*
X0006200Y0113062D02*
X0013537Y0113062D01*
X0013537Y0111863D02*
X0006200Y0111863D01*
X0006200Y0110665D02*
X0013838Y0110665D01*
X0014992Y0108268D02*
X0028970Y0108268D01*
X0035050Y0108812D02*
X0035050Y0119321D01*
X0033761Y0120610D01*
X0030968Y0123403D01*
X0030968Y0126216D01*
X0031737Y0126216D01*
X0031737Y0126984D01*
X0035118Y0126984D01*
X0035118Y0128779D01*
X0035009Y0129186D01*
X0034798Y0129551D01*
X0034500Y0129849D01*
X0034136Y0130059D01*
X0033729Y0130168D01*
X0031737Y0130168D01*
X0031737Y0126984D01*
X0030968Y0126984D01*
X0030968Y0130168D01*
X0028977Y0130168D01*
X0028570Y0130059D01*
X0028205Y0129849D01*
X0027907Y0129551D01*
X0027876Y0129497D01*
X0027405Y0129968D01*
X0026860Y0129968D01*
X0026860Y0131356D01*
X0027405Y0131356D01*
X0027876Y0131828D01*
X0027907Y0131774D01*
X0028205Y0131476D01*
X0028570Y0131266D01*
X0028977Y0131156D01*
X0030968Y0131156D01*
X0030968Y0134341D01*
X0031737Y0134341D01*
X0031737Y0135109D01*
X0035118Y0135109D01*
X0035118Y0136904D01*
X0035009Y0137311D01*
X0034798Y0137676D01*
X0034500Y0137974D01*
X0034136Y0138184D01*
X0033729Y0138293D01*
X0031737Y0138293D01*
X0031737Y0135109D01*
X0030968Y0135109D01*
X0030968Y0138293D01*
X0028977Y0138293D01*
X0028570Y0138184D01*
X0028205Y0137974D01*
X0027907Y0137676D01*
X0027876Y0137622D01*
X0027405Y0138093D01*
X0021944Y0138093D01*
X0022499Y0140165D01*
X0022499Y0143035D01*
X0021756Y0145807D01*
X0021068Y0147000D01*
X0039259Y0147000D01*
X0036744Y0144484D01*
X0036744Y0140591D01*
X0039400Y0137934D01*
X0039400Y0135340D01*
X0037400Y0133340D01*
X0037400Y0129860D01*
X0039400Y0127860D01*
X0039400Y0125340D01*
X0037400Y0123340D01*
X0037400Y0119860D01*
X0039400Y0117860D01*
X0039400Y0108234D01*
X0036764Y0108234D01*
X0036186Y0108812D01*
X0035050Y0108812D01*
X0035050Y0109466D02*
X0039400Y0109466D01*
X0039400Y0108268D02*
X0036730Y0108268D01*
X0035050Y0110665D02*
X0039400Y0110665D01*
X0039400Y0111863D02*
X0035050Y0111863D01*
X0035050Y0113062D02*
X0039400Y0113062D01*
X0039400Y0114260D02*
X0035050Y0114260D01*
X0035050Y0115459D02*
X0039400Y0115459D01*
X0039400Y0116657D02*
X0035050Y0116657D01*
X0035050Y0117856D02*
X0039400Y0117856D01*
X0038206Y0119054D02*
X0035050Y0119054D01*
X0034118Y0120253D02*
X0037400Y0120253D01*
X0037400Y0121451D02*
X0032920Y0121451D01*
X0031721Y0122650D02*
X0037400Y0122650D01*
X0037908Y0123848D02*
X0034913Y0123848D01*
X0035009Y0124014D02*
X0035118Y0124421D01*
X0035118Y0126216D01*
X0031737Y0126216D01*
X0031737Y0123031D01*
X0033729Y0123031D01*
X0034136Y0123141D01*
X0034500Y0123351D01*
X0034798Y0123649D01*
X0035009Y0124014D01*
X0035118Y0125047D02*
X0039107Y0125047D01*
X0039400Y0126245D02*
X0031737Y0126245D01*
X0031737Y0125047D02*
X0030968Y0125047D01*
X0030968Y0123848D02*
X0031737Y0123848D01*
X0031737Y0127444D02*
X0030968Y0127444D01*
X0030968Y0128642D02*
X0031737Y0128642D01*
X0031737Y0129841D02*
X0030968Y0129841D01*
X0031737Y0131156D02*
X0033729Y0131156D01*
X0034136Y0131266D01*
X0034500Y0131476D01*
X0034798Y0131774D01*
X0035009Y0132139D01*
X0035118Y0132546D01*
X0035118Y0134341D01*
X0031737Y0134341D01*
X0031737Y0131156D01*
X0031737Y0132238D02*
X0030968Y0132238D01*
X0030968Y0133436D02*
X0031737Y0133436D01*
X0031737Y0134635D02*
X0038695Y0134635D01*
X0039400Y0135833D02*
X0035118Y0135833D01*
X0035084Y0137032D02*
X0039400Y0137032D01*
X0039104Y0138230D02*
X0033965Y0138230D01*
X0036744Y0140627D02*
X0022499Y0140627D01*
X0022499Y0141826D02*
X0036744Y0141826D01*
X0036744Y0143024D02*
X0022499Y0143024D01*
X0022181Y0144223D02*
X0036744Y0144223D01*
X0037681Y0145421D02*
X0021860Y0145421D01*
X0021287Y0146620D02*
X0038879Y0146620D01*
X0044008Y0146620D02*
X0054391Y0146620D01*
X0053645Y0145421D02*
X0045207Y0145421D01*
X0043727Y0142538D02*
X0057113Y0142538D01*
X0061169Y0143024D02*
X0061719Y0143024D01*
X0061719Y0141826D02*
X0061169Y0141826D01*
X0061169Y0140627D02*
X0061719Y0140627D01*
X0061719Y0139429D02*
X0061169Y0139429D01*
X0059860Y0135800D02*
X0057400Y0133340D01*
X0057400Y0129860D01*
X0059860Y0127400D01*
X0063340Y0127400D01*
X0065800Y0129860D01*
X0065800Y0133340D01*
X0063340Y0135800D01*
X0059860Y0135800D01*
X0058695Y0134635D02*
X0054788Y0134635D01*
X0053589Y0135833D02*
X0132344Y0135833D01*
X0131652Y0137032D02*
X0043800Y0137032D01*
X0043800Y0138230D02*
X0078821Y0138230D01*
X0077623Y0139429D02*
X0069243Y0139429D01*
X0069860Y0135800D02*
X0067400Y0133340D01*
X0067400Y0129860D01*
X0069860Y0127400D01*
X0073340Y0127400D01*
X0075800Y0129860D01*
X0075800Y0133340D01*
X0073340Y0135800D01*
X0069860Y0135800D01*
X0068695Y0134635D02*
X0064505Y0134635D01*
X0065703Y0133436D02*
X0067497Y0133436D01*
X0067400Y0132238D02*
X0065800Y0132238D01*
X0065800Y0131039D02*
X0067400Y0131039D01*
X0067420Y0129841D02*
X0065780Y0129841D01*
X0064582Y0128642D02*
X0068618Y0128642D01*
X0069817Y0127444D02*
X0063383Y0127444D01*
X0063340Y0125800D02*
X0059860Y0125800D01*
X0057400Y0123340D01*
X0057400Y0119860D01*
X0059860Y0117400D01*
X0063340Y0117400D01*
X0065800Y0119860D01*
X0065800Y0123340D01*
X0063340Y0125800D01*
X0064093Y0125047D02*
X0069107Y0125047D01*
X0069860Y0125800D02*
X0067400Y0123340D01*
X0067400Y0119860D01*
X0069860Y0117400D01*
X0073340Y0117400D01*
X0075800Y0119860D01*
X0075800Y0123340D01*
X0073340Y0125800D01*
X0069860Y0125800D01*
X0067908Y0123848D02*
X0065292Y0123848D01*
X0065800Y0122650D02*
X0067400Y0122650D01*
X0067400Y0121451D02*
X0065800Y0121451D01*
X0065800Y0120253D02*
X0067400Y0120253D01*
X0068206Y0119054D02*
X0064994Y0119054D01*
X0063795Y0117856D02*
X0069405Y0117856D01*
X0073795Y0117856D02*
X0079405Y0117856D01*
X0079860Y0117400D02*
X0083340Y0117400D01*
X0085800Y0119860D01*
X0085800Y0123340D01*
X0083340Y0125800D01*
X0079860Y0125800D01*
X0077400Y0123340D01*
X0077400Y0119860D01*
X0079860Y0117400D01*
X0078206Y0119054D02*
X0074994Y0119054D01*
X0075800Y0120253D02*
X0077400Y0120253D01*
X0077400Y0121451D02*
X0075800Y0121451D01*
X0075800Y0122650D02*
X0077400Y0122650D01*
X0077908Y0123848D02*
X0075292Y0123848D01*
X0074093Y0125047D02*
X0079107Y0125047D01*
X0079860Y0127400D02*
X0083340Y0127400D01*
X0085800Y0129860D01*
X0085800Y0133340D01*
X0083340Y0135800D01*
X0079860Y0135800D01*
X0077400Y0133340D01*
X0077400Y0129860D01*
X0079860Y0127400D01*
X0079817Y0127444D02*
X0073383Y0127444D01*
X0074582Y0128642D02*
X0078618Y0128642D01*
X0077420Y0129841D02*
X0075780Y0129841D01*
X0075800Y0131039D02*
X0077400Y0131039D01*
X0077400Y0132238D02*
X0075800Y0132238D01*
X0075703Y0133436D02*
X0077497Y0133436D01*
X0078695Y0134635D02*
X0074505Y0134635D01*
X0081244Y0138230D02*
X0081644Y0138230D01*
X0081644Y0139429D02*
X0081244Y0139429D01*
X0084066Y0138230D02*
X0131219Y0138230D01*
X0130898Y0139429D02*
X0085265Y0139429D01*
X0086344Y0140627D02*
X0130701Y0140627D01*
X0130701Y0141826D02*
X0086344Y0141826D01*
X0086344Y0143024D02*
X0130701Y0143024D01*
X0131019Y0144223D02*
X0086344Y0144223D01*
X0085490Y0145421D02*
X0131340Y0145421D01*
X0131913Y0146620D02*
X0084291Y0146620D01*
X0081522Y0142538D02*
X0065381Y0142538D01*
X0061719Y0144223D02*
X0061169Y0144223D01*
X0061169Y0145421D02*
X0061719Y0145421D01*
X0062465Y0146620D02*
X0060422Y0146620D01*
X0053645Y0139429D02*
X0044982Y0139429D01*
X0043800Y0135833D02*
X0049611Y0135833D01*
X0049777Y0136000D02*
X0047200Y0133423D01*
X0047200Y0131900D01*
X0051300Y0131900D01*
X0051300Y0136000D01*
X0049777Y0136000D01*
X0051300Y0135833D02*
X0051900Y0135833D01*
X0051900Y0136000D02*
X0053423Y0136000D01*
X0056000Y0133423D01*
X0056000Y0131900D01*
X0051900Y0131900D01*
X0051900Y0131300D01*
X0056000Y0131300D01*
X0056000Y0129777D01*
X0053423Y0127200D01*
X0051900Y0127200D01*
X0051900Y0131300D01*
X0051300Y0131300D01*
X0051300Y0127200D01*
X0049777Y0127200D01*
X0047200Y0129777D01*
X0047200Y0131300D01*
X0051300Y0131300D01*
X0051300Y0131900D01*
X0051900Y0131900D01*
X0051900Y0136000D01*
X0051900Y0134635D02*
X0051300Y0134635D01*
X0051300Y0133436D02*
X0051900Y0133436D01*
X0051900Y0132238D02*
X0051300Y0132238D01*
X0051300Y0131039D02*
X0051900Y0131039D01*
X0051900Y0129841D02*
X0051300Y0129841D01*
X0051300Y0128642D02*
X0051900Y0128642D01*
X0051900Y0127444D02*
X0051300Y0127444D01*
X0051300Y0126000D02*
X0049777Y0126000D01*
X0047200Y0123423D01*
X0047200Y0121900D01*
X0051300Y0121900D01*
X0051300Y0126000D01*
X0051900Y0126000D02*
X0053423Y0126000D01*
X0056000Y0123423D01*
X0056000Y0121900D01*
X0051900Y0121900D01*
X0051900Y0121300D01*
X0056000Y0121300D01*
X0056000Y0119777D01*
X0053423Y0117200D01*
X0051900Y0117200D01*
X0051900Y0121300D01*
X0051300Y0121300D01*
X0051300Y0117200D01*
X0049777Y0117200D01*
X0047200Y0119777D01*
X0047200Y0121300D01*
X0051300Y0121300D01*
X0051300Y0121900D01*
X0051900Y0121900D01*
X0051900Y0126000D01*
X0051900Y0125047D02*
X0051300Y0125047D01*
X0051300Y0123848D02*
X0051900Y0123848D01*
X0051900Y0122650D02*
X0051300Y0122650D01*
X0051300Y0121451D02*
X0045800Y0121451D01*
X0045800Y0120253D02*
X0047200Y0120253D01*
X0046833Y0119054D02*
X0047923Y0119054D01*
X0048031Y0117856D02*
X0049122Y0117856D01*
X0049230Y0116657D02*
X0147000Y0116657D01*
X0147000Y0115459D02*
X0050428Y0115459D01*
X0051627Y0114260D02*
X0147000Y0114260D01*
X0147000Y0113062D02*
X0052825Y0113062D01*
X0054024Y0111863D02*
X0147000Y0111863D01*
X0147000Y0110665D02*
X0055222Y0110665D01*
X0056421Y0109466D02*
X0147000Y0109466D01*
X0147000Y0108268D02*
X0072481Y0108268D01*
X0074194Y0107069D02*
X0147000Y0107069D01*
X0147000Y0105870D02*
X0074758Y0105870D01*
X0074825Y0104672D02*
X0109678Y0104672D01*
X0113522Y0104672D02*
X0147000Y0104672D01*
X0147000Y0103473D02*
X0114482Y0103473D01*
X0114800Y0102275D02*
X0147000Y0102275D01*
X0147000Y0101076D02*
X0114653Y0101076D01*
X0113935Y0099878D02*
X0147000Y0099878D01*
X0147000Y0098679D02*
X0113394Y0098679D01*
X0113375Y0097481D02*
X0147000Y0097481D01*
X0147000Y0096282D02*
X0114724Y0096282D01*
X0115346Y0095084D02*
X0147000Y0095084D01*
X0147000Y0093885D02*
X0115425Y0093885D01*
X0115039Y0092687D02*
X0147000Y0092687D01*
X0147000Y0091488D02*
X0113905Y0091488D01*
X0112436Y0090290D02*
X0147000Y0090290D01*
X0147000Y0089091D02*
X0111898Y0089091D01*
X0110177Y0087893D02*
X0147000Y0087893D01*
X0147000Y0086694D02*
X0037206Y0086694D01*
X0037206Y0085496D02*
X0037476Y0085496D01*
X0039162Y0085496D02*
X0042724Y0085496D01*
X0041209Y0084297D02*
X0040928Y0084297D01*
X0037206Y0087893D02*
X0108335Y0087893D01*
X0106614Y0089091D02*
X0039762Y0089091D01*
X0040960Y0090290D02*
X0106076Y0090290D01*
X0106056Y0091488D02*
X0042159Y0091488D01*
X0043357Y0092687D02*
X0104999Y0092687D01*
X0103800Y0093885D02*
X0044556Y0093885D01*
X0045164Y0085496D02*
X0147000Y0085496D01*
X0147000Y0084297D02*
X0046678Y0084297D01*
X0047144Y0083099D02*
X0147000Y0083099D01*
X0147000Y0081900D02*
X0047143Y0081900D01*
X0046633Y0080702D02*
X0147000Y0080702D01*
X0147000Y0079503D02*
X0044980Y0079503D01*
X0042257Y0078305D02*
X0147000Y0078305D01*
X0147000Y0077106D02*
X0041058Y0077106D01*
X0041681Y0077729D02*
X0041681Y0077729D01*
X0042835Y0073511D02*
X0039805Y0073511D01*
X0041099Y0072312D02*
X0041228Y0072312D01*
X0037206Y0074709D02*
X0147000Y0074709D01*
X0147000Y0073511D02*
X0045052Y0073511D01*
X0046659Y0072312D02*
X0147000Y0072312D01*
X0147000Y0071114D02*
X0047144Y0071114D01*
X0047144Y0069915D02*
X0147000Y0069915D01*
X0147000Y0068717D02*
X0046666Y0068717D01*
X0045092Y0067518D02*
X0147000Y0067518D01*
X0147000Y0066320D02*
X0042303Y0066320D01*
X0041104Y0065121D02*
X0147000Y0065121D01*
X0147000Y0063923D02*
X0037206Y0063923D01*
X0040070Y0061526D02*
X0042192Y0061526D01*
X0045695Y0061526D02*
X0147000Y0061526D01*
X0147000Y0062724D02*
X0032939Y0062724D01*
X0032761Y0062724D02*
X0006200Y0062724D01*
X0032761Y0050739D02*
X0032939Y0050739D01*
X0032939Y0050827D02*
X0032939Y0047938D01*
X0035817Y0047938D01*
X0036223Y0048047D01*
X0036588Y0048258D01*
X0036886Y0048556D01*
X0037097Y0048920D01*
X0037206Y0049327D01*
X0037206Y0050827D01*
X0032939Y0050827D01*
X0032939Y0049540D02*
X0032761Y0049540D01*
X0032761Y0048342D02*
X0032939Y0048342D01*
X0036673Y0048342D02*
X0055900Y0048342D01*
X0056142Y0049540D02*
X0037206Y0049540D01*
X0037206Y0050739D02*
X0056995Y0050739D01*
X0059806Y0051937D02*
X0037206Y0051937D01*
X0040838Y0053136D02*
X0060049Y0053136D01*
X0060903Y0054334D02*
X0042036Y0054334D01*
X0043235Y0055533D02*
X0147000Y0055533D01*
X0147000Y0054334D02*
X0065110Y0054334D01*
X0065963Y0053136D02*
X0147000Y0053136D01*
X0147000Y0051937D02*
X0066206Y0051937D01*
X0065984Y0050739D02*
X0147000Y0050739D01*
X0147000Y0049540D02*
X0065160Y0049540D01*
X0064714Y0048342D02*
X0068660Y0048342D01*
X0067839Y0047143D02*
X0064714Y0047143D01*
X0064714Y0045945D02*
X0067619Y0045945D01*
X0067864Y0044746D02*
X0064714Y0044746D01*
X0064714Y0043548D02*
X0068720Y0043548D01*
X0067989Y0042349D02*
X0064714Y0042349D01*
X0064714Y0041151D02*
X0067619Y0041151D01*
X0067714Y0039952D02*
X0064714Y0039952D01*
X0064714Y0038754D02*
X0068358Y0038754D01*
X0066940Y0037555D02*
X0066762Y0037555D01*
X0066762Y0036357D02*
X0066940Y0036357D01*
X0066940Y0035158D02*
X0066762Y0035158D01*
X0066762Y0033960D02*
X0066940Y0033960D01*
X0066940Y0032761D02*
X0066762Y0032761D01*
X0066762Y0031563D02*
X0066940Y0031563D01*
X0066940Y0030364D02*
X0066762Y0030364D01*
X0066762Y0029166D02*
X0066940Y0029166D01*
X0068614Y0029166D02*
X0076899Y0029166D01*
X0078573Y0029166D02*
X0078751Y0029166D01*
X0078751Y0030364D02*
X0078573Y0030364D01*
X0078573Y0031563D02*
X0078751Y0031563D01*
X0078751Y0032761D02*
X0078573Y0032761D01*
X0078573Y0033960D02*
X0078751Y0033960D01*
X0078751Y0035158D02*
X0078573Y0035158D01*
X0078573Y0036357D02*
X0078751Y0036357D01*
X0078751Y0037555D02*
X0078573Y0037555D01*
X0076525Y0038754D02*
X0080894Y0038754D01*
X0080894Y0039952D02*
X0076525Y0039952D01*
X0076525Y0041151D02*
X0080894Y0041151D01*
X0080894Y0042349D02*
X0076525Y0042349D01*
X0075791Y0043548D02*
X0080894Y0043548D01*
X0079868Y0044746D02*
X0074593Y0044746D01*
X0074019Y0045945D02*
X0079494Y0045945D01*
X0079585Y0047143D02*
X0073798Y0047143D01*
X0072977Y0048342D02*
X0080223Y0048342D01*
X0085165Y0048342D02*
X0092410Y0048342D01*
X0091589Y0047143D02*
X0085803Y0047143D01*
X0085894Y0045945D02*
X0091369Y0045945D01*
X0091614Y0044746D02*
X0085519Y0044746D01*
X0084827Y0043548D02*
X0084494Y0043548D01*
X0088373Y0043548D02*
X0092470Y0043548D01*
X0092769Y0042349D02*
X0089430Y0042349D01*
X0089800Y0041151D02*
X0092769Y0041151D01*
X0092769Y0039952D02*
X0089705Y0039952D01*
X0089061Y0038754D02*
X0092769Y0038754D01*
X0090562Y0037555D02*
X0090384Y0037555D01*
X0090384Y0036357D02*
X0090562Y0036357D01*
X0090562Y0035158D02*
X0090384Y0035158D01*
X0090384Y0033960D02*
X0090562Y0033960D01*
X0090562Y0032761D02*
X0090384Y0032761D01*
X0090384Y0031563D02*
X0090562Y0031563D01*
X0090562Y0030364D02*
X0090384Y0030364D01*
X0090384Y0029166D02*
X0090562Y0029166D01*
X0092236Y0029166D02*
X0100521Y0029166D01*
X0102195Y0029166D02*
X0102373Y0029166D01*
X0102373Y0030364D02*
X0102195Y0030364D01*
X0102195Y0031563D02*
X0102373Y0031563D01*
X0102373Y0032761D02*
X0102195Y0032761D01*
X0102373Y0033564D02*
X0105262Y0033564D01*
X0105262Y0036442D01*
X0105153Y0036848D01*
X0104942Y0037213D01*
X0104644Y0037511D01*
X0104280Y0037722D01*
X0103873Y0037831D01*
X0102373Y0037831D01*
X0102373Y0033564D01*
X0102373Y0033960D02*
X0102195Y0033960D01*
X0102195Y0035158D02*
X0102373Y0035158D01*
X0102373Y0036357D02*
X0102195Y0036357D01*
X0102195Y0037555D02*
X0102373Y0037555D01*
X0100779Y0038754D02*
X0147000Y0038754D01*
X0147000Y0039952D02*
X0101424Y0039952D01*
X0101519Y0041151D02*
X0147000Y0041151D01*
X0147000Y0042349D02*
X0101148Y0042349D01*
X0100092Y0043548D02*
X0147000Y0043548D01*
X0147000Y0044746D02*
X0097523Y0044746D01*
X0097769Y0045945D02*
X0147000Y0045945D01*
X0147000Y0047143D02*
X0097548Y0047143D01*
X0096727Y0048342D02*
X0147000Y0048342D01*
X0147000Y0056732D02*
X0046413Y0056732D01*
X0047052Y0057930D02*
X0147000Y0057930D01*
X0147000Y0059129D02*
X0047144Y0059129D01*
X0046770Y0060327D02*
X0147000Y0060327D01*
X0147000Y0075908D02*
X0037206Y0075908D01*
X0058818Y0107069D02*
X0068694Y0107069D01*
X0070406Y0108268D02*
X0057619Y0108268D01*
X0059405Y0117856D02*
X0054078Y0117856D01*
X0055277Y0119054D02*
X0058206Y0119054D01*
X0057400Y0120253D02*
X0056000Y0120253D01*
X0057400Y0121451D02*
X0051900Y0121451D01*
X0051900Y0120253D02*
X0051300Y0120253D01*
X0051300Y0119054D02*
X0051900Y0119054D01*
X0051900Y0117856D02*
X0051300Y0117856D01*
X0047200Y0122650D02*
X0045800Y0122650D01*
X0045292Y0123848D02*
X0047626Y0123848D01*
X0048824Y0125047D02*
X0044093Y0125047D01*
X0043800Y0126245D02*
X0147000Y0126245D01*
X0147000Y0125047D02*
X0114093Y0125047D01*
X0113340Y0125800D02*
X0109860Y0125800D01*
X0107400Y0123340D01*
X0107400Y0119860D01*
X0109860Y0117400D01*
X0113340Y0117400D01*
X0115800Y0119860D01*
X0115800Y0123340D01*
X0113340Y0125800D01*
X0113340Y0127400D02*
X0115800Y0129860D01*
X0115800Y0133340D01*
X0113340Y0135800D01*
X0109860Y0135800D01*
X0107400Y0133340D01*
X0107400Y0129860D01*
X0109860Y0127400D01*
X0113340Y0127400D01*
X0113383Y0127444D02*
X0147000Y0127444D01*
X0147000Y0128642D02*
X0114582Y0128642D01*
X0115780Y0129841D02*
X0147000Y0129841D01*
X0147000Y0131039D02*
X0144298Y0131039D01*
X0138902Y0131039D02*
X0115800Y0131039D01*
X0115800Y0132238D02*
X0136017Y0132238D01*
X0134350Y0133436D02*
X0115703Y0133436D01*
X0114505Y0134635D02*
X0133151Y0134635D01*
X0147000Y0123848D02*
X0115292Y0123848D01*
X0115800Y0122650D02*
X0147000Y0122650D01*
X0147000Y0121451D02*
X0115800Y0121451D01*
X0115800Y0120253D02*
X0147000Y0120253D01*
X0147000Y0119054D02*
X0114994Y0119054D01*
X0113795Y0117856D02*
X0147000Y0117856D01*
X0109405Y0117856D02*
X0103795Y0117856D01*
X0103340Y0117400D02*
X0105800Y0119860D01*
X0105800Y0123340D01*
X0103340Y0125800D01*
X0099860Y0125800D01*
X0097400Y0123340D01*
X0097400Y0119860D01*
X0099860Y0117400D01*
X0103340Y0117400D01*
X0104994Y0119054D02*
X0108206Y0119054D01*
X0107400Y0120253D02*
X0105800Y0120253D01*
X0105800Y0121451D02*
X0107400Y0121451D01*
X0107400Y0122650D02*
X0105800Y0122650D01*
X0105292Y0123848D02*
X0107908Y0123848D01*
X0109107Y0125047D02*
X0104093Y0125047D01*
X0103340Y0127400D02*
X0099860Y0127400D01*
X0097400Y0129860D01*
X0097400Y0133340D01*
X0099860Y0135800D01*
X0103340Y0135800D01*
X0105800Y0133340D01*
X0105800Y0129860D01*
X0103340Y0127400D01*
X0103383Y0127444D02*
X0109817Y0127444D01*
X0108618Y0128642D02*
X0104582Y0128642D01*
X0105780Y0129841D02*
X0107420Y0129841D01*
X0107400Y0131039D02*
X0105800Y0131039D01*
X0105800Y0132238D02*
X0107400Y0132238D01*
X0107497Y0133436D02*
X0105703Y0133436D01*
X0104505Y0134635D02*
X0108695Y0134635D01*
X0099817Y0127444D02*
X0093383Y0127444D01*
X0093340Y0127400D02*
X0095800Y0129860D01*
X0095800Y0133340D01*
X0093340Y0135800D01*
X0089860Y0135800D01*
X0087400Y0133340D01*
X0087400Y0129860D01*
X0089860Y0127400D01*
X0093340Y0127400D01*
X0093340Y0125800D02*
X0089860Y0125800D01*
X0087400Y0123340D01*
X0087400Y0119860D01*
X0089860Y0117400D01*
X0093340Y0117400D01*
X0095800Y0119860D01*
X0095800Y0123340D01*
X0093340Y0125800D01*
X0094093Y0125047D02*
X0099107Y0125047D01*
X0097908Y0123848D02*
X0095292Y0123848D01*
X0095800Y0122650D02*
X0097400Y0122650D01*
X0097400Y0121451D02*
X0095800Y0121451D01*
X0095800Y0120253D02*
X0097400Y0120253D01*
X0098206Y0119054D02*
X0094994Y0119054D01*
X0093795Y0117856D02*
X0099405Y0117856D01*
X0089405Y0117856D02*
X0083795Y0117856D01*
X0084994Y0119054D02*
X0088206Y0119054D01*
X0087400Y0120253D02*
X0085800Y0120253D01*
X0085800Y0121451D02*
X0087400Y0121451D01*
X0087400Y0122650D02*
X0085800Y0122650D01*
X0085292Y0123848D02*
X0087908Y0123848D01*
X0089107Y0125047D02*
X0084093Y0125047D01*
X0083383Y0127444D02*
X0089817Y0127444D01*
X0088618Y0128642D02*
X0084582Y0128642D01*
X0085780Y0129841D02*
X0087420Y0129841D01*
X0087400Y0131039D02*
X0085800Y0131039D01*
X0085800Y0132238D02*
X0087400Y0132238D01*
X0087497Y0133436D02*
X0085703Y0133436D01*
X0084505Y0134635D02*
X0088695Y0134635D01*
X0094505Y0134635D02*
X0098695Y0134635D01*
X0097497Y0133436D02*
X0095703Y0133436D01*
X0095800Y0132238D02*
X0097400Y0132238D01*
X0097400Y0131039D02*
X0095800Y0131039D01*
X0095780Y0129841D02*
X0097420Y0129841D01*
X0098618Y0128642D02*
X0094582Y0128642D01*
X0077398Y0145421D02*
X0069243Y0145421D01*
X0068496Y0146620D02*
X0078596Y0146620D01*
X0059817Y0127444D02*
X0053666Y0127444D01*
X0054865Y0128642D02*
X0058618Y0128642D01*
X0057420Y0129841D02*
X0056000Y0129841D01*
X0056000Y0131039D02*
X0057400Y0131039D01*
X0057400Y0132238D02*
X0056000Y0132238D01*
X0055986Y0133436D02*
X0057497Y0133436D01*
X0049534Y0127444D02*
X0043800Y0127444D01*
X0044582Y0128642D02*
X0048335Y0128642D01*
X0047200Y0129841D02*
X0045780Y0129841D01*
X0045800Y0131039D02*
X0047200Y0131039D01*
X0047200Y0132238D02*
X0045800Y0132238D01*
X0045703Y0133436D02*
X0047214Y0133436D01*
X0048412Y0134635D02*
X0044505Y0134635D01*
X0038618Y0128642D02*
X0035118Y0128642D01*
X0035118Y0127444D02*
X0039400Y0127444D01*
X0037420Y0129841D02*
X0034509Y0129841D01*
X0035035Y0132238D02*
X0037400Y0132238D01*
X0037400Y0131039D02*
X0026860Y0131039D01*
X0027533Y0129841D02*
X0028197Y0129841D01*
X0022460Y0131039D02*
X0014298Y0131039D01*
X0017182Y0132238D02*
X0021094Y0132238D01*
X0021094Y0133436D02*
X0018850Y0133436D01*
X0020049Y0134635D02*
X0021094Y0134635D01*
X0021094Y0135833D02*
X0020856Y0135833D01*
X0021981Y0138230D02*
X0028741Y0138230D01*
X0030968Y0138230D02*
X0031737Y0138230D01*
X0031737Y0137032D02*
X0030968Y0137032D01*
X0030968Y0135833D02*
X0031737Y0135833D01*
X0035118Y0133436D02*
X0037497Y0133436D01*
X0037906Y0139429D02*
X0022302Y0139429D01*
X0021787Y0129841D02*
X0006200Y0129841D01*
X0006200Y0131039D02*
X0008902Y0131039D01*
X0006200Y0128642D02*
X0021094Y0128642D01*
X0021094Y0127444D02*
X0006200Y0127444D01*
X0006200Y0126245D02*
X0021094Y0126245D01*
X0021094Y0125047D02*
X0006200Y0125047D01*
X0006200Y0123848D02*
X0021298Y0123848D01*
X0025499Y0122650D02*
X0006200Y0122650D01*
X0054376Y0125047D02*
X0059107Y0125047D01*
X0057908Y0123848D02*
X0055574Y0123848D01*
X0056000Y0122650D02*
X0057400Y0122650D01*
X0048722Y0039952D02*
X0048331Y0039952D01*
X0065088Y0029166D02*
X0030593Y0029166D01*
X0027609Y0024372D02*
X0026841Y0024372D01*
X0026841Y0023173D02*
X0027609Y0023173D01*
X0027609Y0021975D02*
X0026841Y0021975D01*
X0023799Y0021975D02*
X0022526Y0021975D01*
X0022668Y0023173D02*
X0023656Y0023173D01*
X0020235Y0018379D02*
X0032380Y0018379D01*
X0032380Y0017181D02*
X0020963Y0017181D01*
X0021655Y0015982D02*
X0032380Y0015982D01*
X0032578Y0014784D02*
X0022031Y0014784D01*
X0022352Y0013585D02*
X0130848Y0013585D01*
X0130701Y0012387D02*
X0022499Y0012387D01*
X0022499Y0011188D02*
X0130701Y0011188D01*
X0130748Y0009990D02*
X0022452Y0009990D01*
X0022131Y0008791D02*
X0131069Y0008791D01*
X0131390Y0007593D02*
X0021810Y0007593D01*
X0021180Y0006394D02*
X0132020Y0006394D01*
X0147000Y0029166D02*
X0104047Y0029166D01*
X0105223Y0030364D02*
X0147000Y0030364D01*
X0147000Y0031563D02*
X0105262Y0031563D01*
X0105262Y0032761D02*
X0147000Y0032761D01*
X0147000Y0033960D02*
X0105262Y0033960D01*
X0105262Y0035158D02*
X0147000Y0035158D01*
X0147000Y0036357D02*
X0105262Y0036357D01*
X0104568Y0037555D02*
X0147000Y0037555D01*
X0088710Y0029166D02*
X0080425Y0029166D01*
D18*
X0081444Y0142538D03*
X0041444Y0142538D03*
D19*
X0057407Y0142538D03*
X0065481Y0142538D03*
D20*
X0023631Y0145350D03*
X0007694Y0129412D03*
X0016756Y0101912D03*
X0019725Y0098162D03*
X0022694Y0094100D03*
X0025819Y0090350D03*
X0038319Y0082381D03*
X0041131Y0087225D03*
X0043944Y0082538D03*
X0041131Y0074725D03*
X0038319Y0070663D03*
X0043944Y0070506D03*
X0041131Y0063006D03*
X0038319Y0058787D03*
X0043944Y0058787D03*
X0055037Y0045037D03*
X0051131Y0042069D03*
X0059100Y0048319D03*
X0063006Y0051912D03*
X0066756Y0043475D03*
X0070819Y0045975D03*
X0070819Y0040819D03*
X0078475Y0043475D03*
X0082694Y0046287D03*
X0086600Y0040819D03*
X0090662Y0043475D03*
X0094569Y0045975D03*
X0098319Y0040819D03*
X0113631Y0062850D03*
X0113631Y0074881D03*
X0113631Y0087069D03*
X0109256Y0090975D03*
X0112225Y0094256D03*
X0110194Y0098162D03*
X0111600Y0102069D03*
X0145038Y0129569D03*
X0129412Y0145506D03*
X0072225Y0082069D03*
X0027069Y0016131D03*
X0125194Y0016131D03*
D21*
X0098347Y0033475D02*
X0098347Y0040790D01*
X0098319Y0040819D01*
X0094569Y0045975D02*
X0094569Y0033634D01*
X0094410Y0033475D01*
X0086600Y0033539D02*
X0086600Y0040819D01*
X0082694Y0046287D02*
X0082694Y0033570D01*
X0082599Y0033475D01*
X0086536Y0033475D02*
X0086600Y0033539D01*
X0074725Y0033475D02*
X0074725Y0042069D01*
X0070819Y0045975D01*
X0070819Y0040819D02*
X0070788Y0040163D01*
X0070788Y0033475D01*
X0062914Y0033475D02*
X0062914Y0051912D01*
X0063006Y0051912D01*
X0059100Y0048319D02*
X0058977Y0048319D01*
X0058977Y0033475D01*
X0055040Y0033475D02*
X0055040Y0045037D01*
X0055037Y0045037D01*
X0051103Y0042225D02*
X0051131Y0042069D01*
X0051103Y0042225D02*
X0051103Y0033475D01*
X0040009Y0054853D02*
X0032850Y0054853D01*
X0032852Y0058787D02*
X0032850Y0058790D01*
X0032852Y0058787D02*
X0038319Y0058787D01*
X0040009Y0054853D02*
X0043944Y0058787D01*
X0040101Y0066664D02*
X0032850Y0066664D01*
X0032850Y0070601D02*
X0038257Y0070601D01*
X0038319Y0070663D01*
X0040101Y0066664D02*
X0043944Y0070506D01*
X0039881Y0078475D02*
X0032850Y0078475D01*
X0032850Y0082412D02*
X0038288Y0082412D01*
X0038319Y0082381D01*
X0039881Y0078475D02*
X0043944Y0082538D01*
X0038411Y0090286D02*
X0032850Y0090286D01*
X0032850Y0090350D01*
X0025819Y0090350D01*
X0022694Y0094100D02*
X0032850Y0094100D01*
X0032850Y0094223D01*
X0032883Y0094256D01*
X0038475Y0094256D01*
X0042381Y0098162D01*
X0105975Y0098162D01*
X0109881Y0094256D01*
X0112225Y0094256D01*
X0109256Y0090975D02*
X0104256Y0095975D01*
X0044100Y0095975D01*
X0038411Y0090286D01*
X0039410Y0098160D02*
X0032850Y0098160D01*
X0024881Y0098160D01*
X0019725Y0098162D01*
X0016756Y0101912D02*
X0032850Y0101912D01*
X0032850Y0102097D01*
X0032878Y0102069D01*
X0111600Y0102069D01*
X0108006Y0100350D02*
X0110194Y0098162D01*
X0108006Y0100350D02*
X0041600Y0100350D01*
X0039410Y0098160D01*
D22*
X0071444Y0105037D03*
D23*
X0041600Y0106034D02*
X0032850Y0106034D01*
X0032850Y0118410D01*
X0024660Y0126600D01*
X0024660Y0134725D01*
X0041600Y0131600D02*
X0041600Y0121600D01*
X0041600Y0106034D01*
X0032850Y0106034D02*
X0032850Y0105819D01*
X0012381Y0105819D01*
X0032290Y0106034D02*
X0032850Y0106034D01*
X0041600Y0131600D02*
X0041600Y0142538D01*
X0041444Y0142538D01*
X0036756Y0038006D02*
X0047166Y0038006D01*
X0047166Y0033475D01*
X0043006Y0033475D01*
X0041040Y0031509D01*
X0027225Y0031509D01*
X0019100Y0031509D01*
D24*
X0036756Y0038006D03*
X0012381Y0105819D03*
D25*
X0041600Y0121600D02*
X0058162Y0105037D01*
X0071444Y0105037D01*
M02*
