G75*
%MOIN*%
%OFA0B0*%
%FSLAX25Y25*%
%IPPOS*%
%LPD*%
%AMOC8*
5,1,8,0,0,1.08239X$1,22.5*
%
%ADD10R,0.02610X0.00886*%
%ADD11R,0.03004X0.00886*%
%ADD12R,0.00886X0.02610*%
%ADD13R,0.00886X0.02374*%
%ADD14R,0.05512X0.02756*%
%ADD15R,0.09843X0.07874*%
%ADD16R,0.04331X0.03937*%
%ADD17OC8,0.05600*%
%ADD18OC8,0.06600*%
%ADD19C,0.01200*%
%ADD20C,0.03600*%
%ADD21C,0.01000*%
%ADD22C,0.00800*%
%ADD23C,0.03962*%
%ADD24C,0.04356*%
%ADD25C,0.01600*%
D10*
X0067821Y0077507D03*
X0067821Y0079082D03*
X0067821Y0080656D03*
X0067821Y0082231D03*
X0067821Y0083806D03*
X0067821Y0085381D03*
X0076629Y0085381D03*
X0076629Y0083806D03*
X0076629Y0082231D03*
X0076629Y0080656D03*
X0076629Y0079082D03*
D11*
X0076432Y0077507D03*
D12*
X0073012Y0075269D03*
X0071438Y0075269D03*
X0069863Y0075269D03*
X0069863Y0087619D03*
X0071438Y0087619D03*
X0073012Y0087619D03*
X0074587Y0087619D03*
D13*
X0076162Y0087619D03*
X0068288Y0087619D03*
X0068288Y0075269D03*
X0074587Y0075150D03*
X0076162Y0075150D03*
D14*
X0120194Y0074694D03*
X0120194Y0070757D03*
X0120194Y0066820D03*
X0120194Y0062883D03*
X0120194Y0058946D03*
X0120194Y0055009D03*
X0120194Y0051072D03*
X0120194Y0078631D03*
X0120194Y0082568D03*
X0120194Y0086505D03*
X0120194Y0090442D03*
X0120194Y0094379D03*
X0120194Y0098316D03*
X0120194Y0102253D03*
X0120194Y0106190D03*
D15*
X0133186Y0115639D03*
X0133186Y0041623D03*
D16*
X0096600Y0063254D03*
X0096600Y0069946D03*
X0096600Y0075285D03*
X0096600Y0081978D03*
X0096600Y0087316D03*
X0096600Y0094009D03*
D17*
X0091600Y0121600D03*
X0091600Y0131600D03*
X0081600Y0131600D03*
X0081600Y0121600D03*
X0071600Y0121600D03*
X0071600Y0131600D03*
X0061600Y0131600D03*
X0061600Y0121600D03*
X0051600Y0121600D03*
X0051600Y0131600D03*
X0041600Y0131600D03*
X0041600Y0121600D03*
X0101600Y0121600D03*
X0101600Y0131600D03*
X0111600Y0131600D03*
X0111600Y0121600D03*
D18*
X0081444Y0142538D03*
X0041444Y0142538D03*
D19*
X0019036Y0019578D02*
X0134164Y0019578D01*
X0134908Y0020322D02*
X0132878Y0018292D01*
X0131444Y0015807D01*
X0130701Y0013035D01*
X0130701Y0010165D01*
X0131444Y0007393D01*
X0132132Y0006200D01*
X0021068Y0006200D01*
X0021756Y0007393D01*
X0022499Y0010165D01*
X0022499Y0013035D01*
X0021756Y0015807D01*
X0020322Y0018292D01*
X0018292Y0020322D01*
X0015807Y0021756D01*
X0013035Y0022499D01*
X0010165Y0022499D01*
X0007393Y0021756D01*
X0006200Y0021068D01*
X0006200Y0132132D01*
X0007393Y0131444D01*
X0010165Y0130701D01*
X0013035Y0130701D01*
X0015807Y0131444D01*
X0018292Y0132878D01*
X0020322Y0134908D01*
X0021756Y0137393D01*
X0022499Y0140165D01*
X0022499Y0143035D01*
X0021756Y0145807D01*
X0021068Y0147000D01*
X0039259Y0147000D01*
X0036744Y0144484D01*
X0036744Y0140591D01*
X0039497Y0137838D01*
X0043391Y0137838D01*
X0046144Y0140591D01*
X0046144Y0144484D01*
X0043628Y0147000D01*
X0078977Y0147000D01*
X0076544Y0144567D01*
X0076544Y0142738D01*
X0081244Y0142738D01*
X0081244Y0142337D01*
X0081644Y0142337D01*
X0081644Y0137638D01*
X0083473Y0137638D01*
X0086344Y0140508D01*
X0086344Y0142337D01*
X0081644Y0142337D01*
X0081644Y0142738D01*
X0086344Y0142738D01*
X0086344Y0144567D01*
X0083911Y0147000D01*
X0132132Y0147000D01*
X0131444Y0145807D01*
X0130701Y0143035D01*
X0130701Y0140165D01*
X0131444Y0137393D01*
X0132878Y0134908D01*
X0134908Y0132878D01*
X0137393Y0131444D01*
X0140165Y0130701D01*
X0143035Y0130701D01*
X0145807Y0131444D01*
X0147000Y0132132D01*
X0147000Y0021068D01*
X0145807Y0021756D01*
X0143035Y0022499D01*
X0140165Y0022499D01*
X0137393Y0021756D01*
X0134908Y0020322D01*
X0135695Y0020776D02*
X0017505Y0020776D01*
X0014992Y0021975D02*
X0138208Y0021975D01*
X0132965Y0018379D02*
X0020235Y0018379D01*
X0020963Y0017181D02*
X0132237Y0017181D01*
X0131545Y0015982D02*
X0021655Y0015982D01*
X0022031Y0014784D02*
X0131169Y0014784D01*
X0130848Y0013585D02*
X0022352Y0013585D01*
X0022499Y0012387D02*
X0130701Y0012387D01*
X0130701Y0011188D02*
X0022499Y0011188D01*
X0022452Y0009990D02*
X0130748Y0009990D01*
X0131069Y0008791D02*
X0022131Y0008791D01*
X0021810Y0007593D02*
X0131390Y0007593D01*
X0132020Y0006394D02*
X0021180Y0006394D01*
X0008208Y0021975D02*
X0006200Y0021975D01*
X0006200Y0023173D02*
X0147000Y0023173D01*
X0147000Y0021975D02*
X0144992Y0021975D01*
X0147000Y0024372D02*
X0006200Y0024372D01*
X0006200Y0025570D02*
X0147000Y0025570D01*
X0147000Y0026769D02*
X0006200Y0026769D01*
X0006200Y0027967D02*
X0147000Y0027967D01*
X0147000Y0029166D02*
X0006200Y0029166D01*
X0006200Y0030364D02*
X0147000Y0030364D01*
X0147000Y0031563D02*
X0006200Y0031563D01*
X0006200Y0032761D02*
X0147000Y0032761D01*
X0147000Y0033960D02*
X0006200Y0033960D01*
X0006200Y0035158D02*
X0034544Y0035158D01*
X0034730Y0034973D02*
X0036045Y0034428D01*
X0037468Y0034428D01*
X0038783Y0034973D01*
X0039789Y0035980D01*
X0040334Y0037295D01*
X0040334Y0038718D01*
X0039789Y0040033D01*
X0039554Y0040269D01*
X0048413Y0040269D01*
X0048418Y0040256D01*
X0049319Y0039356D01*
X0050495Y0038869D01*
X0051768Y0038869D01*
X0052944Y0039356D01*
X0053844Y0040256D01*
X0054331Y0041432D01*
X0054331Y0041866D01*
X0054401Y0041838D01*
X0055674Y0041838D01*
X0056850Y0042325D01*
X0057750Y0043225D01*
X0058237Y0044401D01*
X0058237Y0045212D01*
X0058463Y0045119D01*
X0059737Y0045119D01*
X0060913Y0045606D01*
X0061813Y0046506D01*
X0062300Y0047682D01*
X0062300Y0048741D01*
X0062370Y0048712D01*
X0063643Y0048712D01*
X0064819Y0049200D01*
X0065719Y0050100D01*
X0066206Y0051276D01*
X0066206Y0052549D01*
X0065719Y0053725D01*
X0064819Y0054625D01*
X0063643Y0055112D01*
X0062370Y0055112D01*
X0061194Y0054625D01*
X0060293Y0053725D01*
X0060288Y0053712D01*
X0050164Y0053712D01*
X0050431Y0053979D01*
X0052487Y0056036D01*
X0052487Y0064179D01*
X0060244Y0071935D01*
X0060244Y0059960D01*
X0069028Y0051176D01*
X0069028Y0048697D01*
X0069006Y0048688D01*
X0068106Y0047788D01*
X0067619Y0046612D01*
X0067619Y0045338D01*
X0068106Y0044162D01*
X0068871Y0043397D01*
X0068106Y0042631D01*
X0067619Y0041455D01*
X0067619Y0040182D01*
X0068106Y0039006D01*
X0069006Y0038106D01*
X0070182Y0037619D01*
X0071455Y0037619D01*
X0072631Y0038106D01*
X0073532Y0039006D01*
X0073537Y0039019D01*
X0074377Y0039019D01*
X0075431Y0040073D01*
X0076525Y0041167D01*
X0076525Y0050609D01*
X0075471Y0051663D01*
X0065144Y0061990D01*
X0065144Y0072616D01*
X0065996Y0073469D01*
X0066478Y0073469D01*
X0067265Y0072682D01*
X0068063Y0072682D01*
X0068063Y0064329D01*
X0080894Y0051498D01*
X0080894Y0049006D01*
X0080881Y0049000D01*
X0079981Y0048100D01*
X0079494Y0046924D01*
X0079494Y0045651D01*
X0079981Y0044475D01*
X0080881Y0043575D01*
X0082057Y0043088D01*
X0083330Y0043088D01*
X0084506Y0043575D01*
X0084800Y0043868D01*
X0084800Y0043537D01*
X0084787Y0043532D01*
X0083887Y0042631D01*
X0083400Y0041455D01*
X0083400Y0040182D01*
X0083887Y0039006D01*
X0084787Y0038106D01*
X0085963Y0037619D01*
X0087237Y0037619D01*
X0088413Y0038106D01*
X0089313Y0039006D01*
X0089800Y0040182D01*
X0089800Y0041455D01*
X0089313Y0042631D01*
X0088413Y0043532D01*
X0088400Y0043537D01*
X0088400Y0050921D01*
X0087346Y0051975D01*
X0073238Y0066083D01*
X0073238Y0069779D01*
X0092778Y0050239D01*
X0092778Y0048697D01*
X0092756Y0048688D01*
X0091856Y0047788D01*
X0091369Y0046612D01*
X0091369Y0045338D01*
X0091856Y0044162D01*
X0092756Y0043262D01*
X0093932Y0042775D01*
X0095205Y0042775D01*
X0096134Y0043160D01*
X0095606Y0042631D01*
X0095119Y0041455D01*
X0095119Y0040182D01*
X0095606Y0039006D01*
X0096506Y0038106D01*
X0097682Y0037619D01*
X0098955Y0037619D01*
X0100131Y0038106D01*
X0101032Y0039006D01*
X0101519Y0040182D01*
X0101519Y0041455D01*
X0101032Y0042631D01*
X0100131Y0043532D01*
X0100119Y0043537D01*
X0100119Y0049827D01*
X0099064Y0050882D01*
X0077284Y0072662D01*
X0078005Y0073384D01*
X0078005Y0075664D01*
X0078116Y0075664D01*
X0091206Y0062573D01*
X0092261Y0061519D01*
X0093035Y0061519D01*
X0093035Y0060705D01*
X0093855Y0059885D01*
X0099345Y0059885D01*
X0100165Y0060705D01*
X0100165Y0064239D01*
X0110141Y0054264D01*
X0111195Y0053209D01*
X0116029Y0053209D01*
X0115947Y0053068D01*
X0115838Y0052661D01*
X0115838Y0051161D01*
X0120105Y0051161D01*
X0120105Y0050983D01*
X0120283Y0050983D01*
X0120283Y0051161D01*
X0124550Y0051161D01*
X0124550Y0052661D01*
X0124441Y0053068D01*
X0124350Y0053225D01*
X0124350Y0056967D01*
X0124339Y0056978D01*
X0124350Y0056988D01*
X0124350Y0060730D01*
X0124441Y0060888D01*
X0124550Y0061295D01*
X0124550Y0062794D01*
X0120283Y0062794D01*
X0120283Y0062972D01*
X0124550Y0062972D01*
X0124550Y0064472D01*
X0124441Y0064879D01*
X0124350Y0065036D01*
X0124350Y0068778D01*
X0124339Y0068789D01*
X0124350Y0068799D01*
X0124350Y0072541D01*
X0124441Y0072699D01*
X0124550Y0073106D01*
X0124550Y0074605D01*
X0120283Y0074605D01*
X0120283Y0074783D01*
X0124550Y0074783D01*
X0124550Y0076283D01*
X0124441Y0076690D01*
X0124350Y0076847D01*
X0124350Y0080589D01*
X0124339Y0080600D01*
X0124350Y0080610D01*
X0124350Y0084352D01*
X0124441Y0084510D01*
X0124550Y0084917D01*
X0124550Y0086416D01*
X0120283Y0086416D01*
X0120283Y0086594D01*
X0124550Y0086594D01*
X0124550Y0088094D01*
X0124441Y0088501D01*
X0124350Y0088658D01*
X0124350Y0092400D01*
X0124339Y0092411D01*
X0124350Y0092421D01*
X0124350Y0096337D01*
X0124339Y0096348D01*
X0124350Y0096358D01*
X0124350Y0100274D01*
X0124339Y0100285D01*
X0124350Y0100295D01*
X0124350Y0104211D01*
X0124339Y0104222D01*
X0124350Y0104232D01*
X0124350Y0108148D01*
X0123530Y0108968D01*
X0116858Y0108968D01*
X0116038Y0108148D01*
X0116038Y0104232D01*
X0116048Y0104222D01*
X0116038Y0104211D01*
X0116038Y0104053D01*
X0114141Y0104053D01*
X0113413Y0104782D01*
X0113400Y0104787D01*
X0113400Y0117460D01*
X0115800Y0119860D01*
X0115800Y0123340D01*
X0113400Y0125740D01*
X0113400Y0127460D01*
X0115800Y0129860D01*
X0115800Y0133340D01*
X0113340Y0135800D01*
X0109860Y0135800D01*
X0107400Y0133340D01*
X0107400Y0129860D01*
X0109800Y0127460D01*
X0109800Y0125740D01*
X0107400Y0123340D01*
X0107400Y0119860D01*
X0109800Y0117460D01*
X0109800Y0104787D01*
X0109787Y0104782D01*
X0108887Y0103881D01*
X0108400Y0102705D01*
X0108400Y0102502D01*
X0103400Y0107502D01*
X0103400Y0117460D01*
X0105800Y0119860D01*
X0105800Y0123340D01*
X0103400Y0125740D01*
X0103400Y0127460D01*
X0105800Y0129860D01*
X0105800Y0133340D01*
X0103340Y0135800D01*
X0099860Y0135800D01*
X0097400Y0133340D01*
X0097400Y0129860D01*
X0099800Y0127460D01*
X0099800Y0125740D01*
X0097400Y0123340D01*
X0097400Y0119860D01*
X0099800Y0117460D01*
X0099800Y0106883D01*
X0093400Y0113283D01*
X0093400Y0117460D01*
X0095800Y0119860D01*
X0095800Y0123340D01*
X0093400Y0125740D01*
X0093400Y0127460D01*
X0095800Y0129860D01*
X0095800Y0133340D01*
X0093340Y0135800D01*
X0089860Y0135800D01*
X0087400Y0133340D01*
X0087400Y0129860D01*
X0089800Y0127460D01*
X0089800Y0125740D01*
X0087400Y0123340D01*
X0087400Y0119860D01*
X0089800Y0117460D01*
X0089800Y0112977D01*
X0084358Y0118419D01*
X0085800Y0119860D01*
X0085800Y0123340D01*
X0083400Y0125740D01*
X0083400Y0127460D01*
X0085800Y0129860D01*
X0085800Y0133340D01*
X0083340Y0135800D01*
X0079860Y0135800D01*
X0077400Y0133340D01*
X0077400Y0129860D01*
X0079800Y0127460D01*
X0079800Y0125740D01*
X0077400Y0123340D01*
X0077400Y0119860D01*
X0079860Y0117400D01*
X0080286Y0117400D01*
X0101877Y0095809D01*
X0100165Y0095809D01*
X0100165Y0096557D01*
X0099345Y0097377D01*
X0093855Y0097377D01*
X0093035Y0096557D01*
X0093035Y0092462D01*
X0092573Y0092462D01*
X0091519Y0091408D01*
X0087291Y0087181D01*
X0078556Y0087181D01*
X0078514Y0087224D01*
X0078005Y0087224D01*
X0078005Y0089386D01*
X0077185Y0090206D01*
X0076387Y0090206D01*
X0076387Y0097904D01*
X0078127Y0099644D01*
X0079181Y0100698D01*
X0079181Y0116564D01*
X0078127Y0117619D01*
X0075800Y0119946D01*
X0075800Y0123340D01*
X0073400Y0125740D01*
X0073400Y0127460D01*
X0075800Y0129860D01*
X0075800Y0133340D01*
X0073340Y0135800D01*
X0069860Y0135800D01*
X0067400Y0133340D01*
X0067400Y0129860D01*
X0069800Y0127460D01*
X0069800Y0125740D01*
X0067400Y0123340D01*
X0067400Y0119860D01*
X0069860Y0117400D01*
X0073254Y0117400D01*
X0075581Y0115073D01*
X0075581Y0102189D01*
X0073341Y0099949D01*
X0073342Y0102164D01*
X0073359Y0102171D01*
X0074310Y0103122D01*
X0074825Y0104365D01*
X0074825Y0105710D01*
X0074310Y0106953D01*
X0073359Y0107904D01*
X0072116Y0108419D01*
X0070771Y0108419D01*
X0069529Y0107904D01*
X0068577Y0106953D01*
X0068063Y0105710D01*
X0068063Y0104365D01*
X0068577Y0103122D01*
X0069529Y0102171D01*
X0069542Y0102165D01*
X0069538Y0093864D01*
X0063556Y0099846D01*
X0063556Y0117617D01*
X0065800Y0119860D01*
X0065800Y0123340D01*
X0063400Y0125740D01*
X0063400Y0127460D01*
X0065800Y0129860D01*
X0065800Y0133340D01*
X0063340Y0135800D01*
X0059860Y0135800D01*
X0057400Y0133340D01*
X0057400Y0129860D01*
X0059800Y0127460D01*
X0059800Y0125740D01*
X0057400Y0123340D01*
X0057400Y0119860D01*
X0059860Y0117400D01*
X0059956Y0117400D01*
X0059956Y0098354D01*
X0061011Y0097300D01*
X0068063Y0090248D01*
X0068063Y0090206D01*
X0067265Y0090206D01*
X0066478Y0089419D01*
X0051267Y0089419D01*
X0046427Y0084580D01*
X0045756Y0085250D01*
X0044580Y0085737D01*
X0043307Y0085737D01*
X0042131Y0085250D01*
X0041231Y0084350D01*
X0041099Y0084031D01*
X0041032Y0084194D01*
X0040131Y0085094D01*
X0038955Y0085581D01*
X0037682Y0085581D01*
X0036506Y0085094D01*
X0035606Y0084194D01*
X0035119Y0083018D01*
X0035119Y0081745D01*
X0035606Y0080569D01*
X0036506Y0079668D01*
X0036519Y0079663D01*
X0036519Y0079292D01*
X0037573Y0078238D01*
X0039136Y0076675D01*
X0045452Y0076675D01*
X0046507Y0077729D01*
X0052358Y0083581D01*
X0060741Y0083581D01*
X0049466Y0072306D01*
X0046662Y0072306D01*
X0046657Y0072319D01*
X0045756Y0073219D01*
X0044580Y0073706D01*
X0043307Y0073706D01*
X0042131Y0073219D01*
X0041231Y0072319D01*
X0041164Y0072156D01*
X0041032Y0072475D01*
X0040131Y0073375D01*
X0038955Y0073862D01*
X0037682Y0073862D01*
X0036506Y0073375D01*
X0035606Y0072475D01*
X0035119Y0071299D01*
X0035119Y0070026D01*
X0035606Y0068850D01*
X0036506Y0067950D01*
X0036685Y0067876D01*
X0037573Y0066988D01*
X0039604Y0064956D01*
X0047587Y0064956D01*
X0047587Y0060587D01*
X0046662Y0060587D01*
X0046657Y0060600D01*
X0045756Y0061500D01*
X0044580Y0061987D01*
X0043307Y0061987D01*
X0042131Y0061500D01*
X0041231Y0060600D01*
X0041131Y0060359D01*
X0041032Y0060600D01*
X0040131Y0061500D01*
X0038955Y0061987D01*
X0037682Y0061987D01*
X0036506Y0061500D01*
X0035606Y0060600D01*
X0035119Y0059424D01*
X0035119Y0058151D01*
X0035606Y0056975D01*
X0036506Y0056075D01*
X0036519Y0056069D01*
X0036519Y0055698D01*
X0038504Y0053712D01*
X0027619Y0053712D01*
X0027619Y0087632D01*
X0027631Y0087637D01*
X0028532Y0088537D01*
X0029019Y0089713D01*
X0029019Y0090987D01*
X0028532Y0092163D01*
X0027631Y0093063D01*
X0026455Y0093550D01*
X0025894Y0093550D01*
X0025894Y0094737D01*
X0025407Y0095913D01*
X0024506Y0096813D01*
X0023330Y0097300D01*
X0022831Y0097300D01*
X0022925Y0097526D01*
X0022925Y0098799D01*
X0022438Y0099975D01*
X0021538Y0100875D01*
X0020362Y0101362D01*
X0019956Y0101362D01*
X0019956Y0102549D01*
X0019469Y0103725D01*
X0018569Y0104625D01*
X0017393Y0105112D01*
X0016120Y0105112D01*
X0015929Y0105033D01*
X0015959Y0105107D01*
X0015959Y0106530D01*
X0015414Y0107845D01*
X0014408Y0108852D01*
X0013093Y0109397D01*
X0011670Y0109397D01*
X0010355Y0108852D01*
X0009348Y0107845D01*
X0008803Y0106530D01*
X0008803Y0105107D01*
X0009348Y0103792D01*
X0010181Y0102959D01*
X0010181Y0037095D01*
X0011470Y0035806D01*
X0033896Y0035806D01*
X0034730Y0034973D01*
X0038968Y0035158D02*
X0147000Y0035158D01*
X0147000Y0036357D02*
X0138757Y0036357D01*
X0138687Y0036286D02*
X0139507Y0037106D01*
X0139507Y0046140D01*
X0138687Y0046960D01*
X0127685Y0046960D01*
X0126865Y0046140D01*
X0126865Y0037106D01*
X0127685Y0036286D01*
X0138687Y0036286D01*
X0139507Y0037555D02*
X0147000Y0037555D01*
X0147000Y0038754D02*
X0139507Y0038754D01*
X0139507Y0039952D02*
X0147000Y0039952D01*
X0147000Y0041151D02*
X0139507Y0041151D01*
X0139507Y0042349D02*
X0147000Y0042349D01*
X0147000Y0043548D02*
X0139507Y0043548D01*
X0139507Y0044746D02*
X0147000Y0044746D01*
X0147000Y0045945D02*
X0139507Y0045945D01*
X0147000Y0047143D02*
X0100119Y0047143D01*
X0100119Y0045945D02*
X0126865Y0045945D01*
X0126865Y0044746D02*
X0100119Y0044746D01*
X0100119Y0043548D02*
X0126865Y0043548D01*
X0126865Y0042349D02*
X0101148Y0042349D01*
X0101519Y0041151D02*
X0126865Y0041151D01*
X0126865Y0039952D02*
X0101424Y0039952D01*
X0100779Y0038754D02*
X0126865Y0038754D01*
X0126865Y0037555D02*
X0040334Y0037555D01*
X0040319Y0038754D02*
X0068358Y0038754D01*
X0067714Y0039952D02*
X0053540Y0039952D01*
X0054215Y0041151D02*
X0067619Y0041151D01*
X0067989Y0042349D02*
X0056875Y0042349D01*
X0057884Y0043548D02*
X0068720Y0043548D01*
X0067864Y0044746D02*
X0058237Y0044746D01*
X0061252Y0045945D02*
X0067619Y0045945D01*
X0067839Y0047143D02*
X0062077Y0047143D01*
X0062300Y0048342D02*
X0068660Y0048342D01*
X0069028Y0049540D02*
X0065160Y0049540D01*
X0065984Y0050739D02*
X0069028Y0050739D01*
X0068266Y0051937D02*
X0066206Y0051937D01*
X0065963Y0053136D02*
X0067068Y0053136D01*
X0065869Y0054334D02*
X0065110Y0054334D01*
X0064671Y0055533D02*
X0051985Y0055533D01*
X0052487Y0056732D02*
X0063472Y0056732D01*
X0062274Y0057930D02*
X0052487Y0057930D01*
X0052487Y0059129D02*
X0061075Y0059129D01*
X0060244Y0060327D02*
X0052487Y0060327D01*
X0052487Y0061526D02*
X0060244Y0061526D01*
X0060244Y0062724D02*
X0052487Y0062724D01*
X0052487Y0063923D02*
X0060244Y0063923D01*
X0060244Y0065121D02*
X0053430Y0065121D01*
X0054628Y0066320D02*
X0060244Y0066320D01*
X0060244Y0067518D02*
X0055827Y0067518D01*
X0057025Y0068717D02*
X0060244Y0068717D01*
X0060244Y0069915D02*
X0058224Y0069915D01*
X0059422Y0071114D02*
X0060244Y0071114D01*
X0065144Y0071114D02*
X0068063Y0071114D01*
X0068063Y0072312D02*
X0065144Y0072312D01*
X0065144Y0069915D02*
X0068063Y0069915D01*
X0068063Y0068717D02*
X0065144Y0068717D01*
X0065144Y0067518D02*
X0068063Y0067518D01*
X0068063Y0066320D02*
X0065144Y0066320D01*
X0065144Y0065121D02*
X0068063Y0065121D01*
X0068469Y0063923D02*
X0065144Y0063923D01*
X0065144Y0062724D02*
X0069667Y0062724D01*
X0070866Y0061526D02*
X0065608Y0061526D01*
X0066807Y0060327D02*
X0072064Y0060327D01*
X0073263Y0059129D02*
X0068005Y0059129D01*
X0069204Y0057930D02*
X0074461Y0057930D01*
X0075660Y0056732D02*
X0070402Y0056732D01*
X0071601Y0055533D02*
X0076858Y0055533D01*
X0078057Y0054334D02*
X0072799Y0054334D01*
X0073998Y0053136D02*
X0079255Y0053136D01*
X0080454Y0051937D02*
X0075196Y0051937D01*
X0076395Y0050739D02*
X0080894Y0050739D01*
X0080894Y0049540D02*
X0076525Y0049540D01*
X0076525Y0048342D02*
X0080223Y0048342D01*
X0079585Y0047143D02*
X0076525Y0047143D01*
X0076525Y0045945D02*
X0079494Y0045945D01*
X0079868Y0044746D02*
X0076525Y0044746D01*
X0076525Y0043548D02*
X0080946Y0043548D01*
X0083770Y0042349D02*
X0076525Y0042349D01*
X0076509Y0041151D02*
X0083400Y0041151D01*
X0083495Y0039952D02*
X0075310Y0039952D01*
X0073279Y0038754D02*
X0084139Y0038754D01*
X0084442Y0043548D02*
X0084800Y0043548D01*
X0088400Y0043548D02*
X0092470Y0043548D01*
X0091614Y0044746D02*
X0088400Y0044746D01*
X0088400Y0045945D02*
X0091369Y0045945D01*
X0091589Y0047143D02*
X0088400Y0047143D01*
X0088400Y0048342D02*
X0092410Y0048342D01*
X0092778Y0049540D02*
X0088400Y0049540D01*
X0088400Y0050739D02*
X0092277Y0050739D01*
X0091079Y0051937D02*
X0087384Y0051937D01*
X0086185Y0053136D02*
X0089880Y0053136D01*
X0088682Y0054334D02*
X0084987Y0054334D01*
X0083788Y0055533D02*
X0087483Y0055533D01*
X0086285Y0056732D02*
X0082590Y0056732D01*
X0081391Y0057930D02*
X0085086Y0057930D01*
X0083888Y0059129D02*
X0080193Y0059129D01*
X0078994Y0060327D02*
X0082689Y0060327D01*
X0081491Y0061526D02*
X0077795Y0061526D01*
X0076597Y0062724D02*
X0080292Y0062724D01*
X0079094Y0063923D02*
X0075398Y0063923D01*
X0074200Y0065121D02*
X0077895Y0065121D01*
X0076697Y0066320D02*
X0073238Y0066320D01*
X0073238Y0067518D02*
X0075498Y0067518D01*
X0074300Y0068717D02*
X0073238Y0068717D01*
X0077634Y0072312D02*
X0081467Y0072312D01*
X0080269Y0073511D02*
X0078005Y0073511D01*
X0078005Y0074709D02*
X0079070Y0074709D01*
X0078832Y0071114D02*
X0082666Y0071114D01*
X0083864Y0069915D02*
X0080031Y0069915D01*
X0081229Y0068717D02*
X0085063Y0068717D01*
X0086261Y0067518D02*
X0082428Y0067518D01*
X0083626Y0066320D02*
X0087460Y0066320D01*
X0088658Y0065121D02*
X0084825Y0065121D01*
X0086023Y0063923D02*
X0089857Y0063923D01*
X0091055Y0062724D02*
X0087222Y0062724D01*
X0088420Y0061526D02*
X0092254Y0061526D01*
X0093413Y0060327D02*
X0089619Y0060327D01*
X0090818Y0059129D02*
X0105276Y0059129D01*
X0104077Y0060327D02*
X0099787Y0060327D01*
X0100165Y0061526D02*
X0102879Y0061526D01*
X0101680Y0062724D02*
X0100165Y0062724D01*
X0100165Y0063923D02*
X0100482Y0063923D01*
X0104529Y0068717D02*
X0107250Y0068717D01*
X0106052Y0069915D02*
X0103330Y0069915D01*
X0102132Y0071114D02*
X0104853Y0071114D01*
X0103655Y0072312D02*
X0100165Y0072312D01*
X0100165Y0072495D02*
X0100045Y0072616D01*
X0100165Y0072736D01*
X0100165Y0075802D01*
X0110112Y0065854D01*
X0111167Y0064800D01*
X0115926Y0064800D01*
X0115838Y0064472D01*
X0115838Y0062972D01*
X0120105Y0062972D01*
X0120105Y0062794D01*
X0115838Y0062794D01*
X0115838Y0061295D01*
X0115947Y0060888D01*
X0116029Y0060746D01*
X0112499Y0060746D01*
X0101499Y0071746D01*
X0100165Y0071746D01*
X0100165Y0072495D01*
X0100165Y0073511D02*
X0102456Y0073511D01*
X0101258Y0074709D02*
X0100165Y0074709D01*
X0105513Y0080702D02*
X0109015Y0080702D01*
X0107817Y0081900D02*
X0104314Y0081900D01*
X0103116Y0083099D02*
X0106618Y0083099D01*
X0105420Y0084297D02*
X0100165Y0084297D01*
X0100165Y0084526D02*
X0100045Y0084647D01*
X0100165Y0084768D01*
X0100165Y0088862D01*
X0100854Y0088862D01*
X0111831Y0077886D01*
X0112886Y0076831D01*
X0116029Y0076831D01*
X0115947Y0076690D01*
X0115838Y0076283D01*
X0115838Y0074783D01*
X0120105Y0074783D01*
X0120105Y0074605D01*
X0115838Y0074605D01*
X0115838Y0073106D01*
X0115947Y0072699D01*
X0116038Y0072541D01*
X0116038Y0072462D01*
X0113752Y0072462D01*
X0102437Y0083778D01*
X0100165Y0083778D01*
X0100165Y0084526D01*
X0100165Y0085496D02*
X0104221Y0085496D01*
X0103023Y0086694D02*
X0100165Y0086694D01*
X0100165Y0087893D02*
X0101824Y0087893D01*
X0101403Y0096282D02*
X0100165Y0096282D01*
X0100205Y0097481D02*
X0076387Y0097481D01*
X0076387Y0096282D02*
X0093035Y0096282D01*
X0093035Y0095084D02*
X0076387Y0095084D01*
X0076387Y0093885D02*
X0093035Y0093885D01*
X0093035Y0092687D02*
X0076387Y0092687D01*
X0076387Y0091488D02*
X0091599Y0091488D01*
X0090401Y0090290D02*
X0076387Y0090290D01*
X0078005Y0089091D02*
X0089202Y0089091D01*
X0088003Y0087893D02*
X0078005Y0087893D01*
X0073923Y0084783D02*
X0073923Y0084358D01*
X0073923Y0083254D01*
X0073923Y0078923D01*
X0073530Y0078530D01*
X0073530Y0077974D01*
X0070527Y0077974D01*
X0070527Y0084914D01*
X0071794Y0084914D01*
X0071952Y0084823D01*
X0072359Y0084714D01*
X0073012Y0084714D01*
X0073012Y0085466D01*
X0073012Y0085466D01*
X0073012Y0085466D01*
X0073012Y0084714D01*
X0073666Y0084714D01*
X0073923Y0084783D01*
X0073923Y0084297D02*
X0070527Y0084297D01*
X0070527Y0083099D02*
X0073923Y0083099D01*
X0073923Y0081900D02*
X0070527Y0081900D01*
X0070527Y0080702D02*
X0073923Y0080702D01*
X0073923Y0079503D02*
X0070527Y0079503D01*
X0070527Y0078305D02*
X0073530Y0078305D01*
X0068021Y0090290D02*
X0029019Y0090290D01*
X0028811Y0091488D02*
X0066822Y0091488D01*
X0065624Y0092687D02*
X0028007Y0092687D01*
X0025894Y0093885D02*
X0064425Y0093885D01*
X0063227Y0095084D02*
X0025750Y0095084D01*
X0025037Y0096282D02*
X0062028Y0096282D01*
X0060830Y0097481D02*
X0022906Y0097481D01*
X0022925Y0098679D02*
X0059956Y0098679D01*
X0059956Y0099878D02*
X0022478Y0099878D01*
X0021052Y0101076D02*
X0059956Y0101076D01*
X0059956Y0102275D02*
X0019956Y0102275D01*
X0019573Y0103473D02*
X0059956Y0103473D01*
X0059956Y0104672D02*
X0018456Y0104672D01*
X0015959Y0105870D02*
X0059956Y0105870D01*
X0059956Y0107069D02*
X0015736Y0107069D01*
X0014992Y0108268D02*
X0059956Y0108268D01*
X0059956Y0109466D02*
X0006200Y0109466D01*
X0006200Y0108268D02*
X0009770Y0108268D01*
X0009026Y0107069D02*
X0006200Y0107069D01*
X0006200Y0105870D02*
X0008803Y0105870D01*
X0008984Y0104672D02*
X0006200Y0104672D01*
X0006200Y0103473D02*
X0009667Y0103473D01*
X0010181Y0102275D02*
X0006200Y0102275D01*
X0006200Y0101076D02*
X0010181Y0101076D01*
X0010181Y0099878D02*
X0006200Y0099878D01*
X0006200Y0098679D02*
X0010181Y0098679D01*
X0010181Y0097481D02*
X0006200Y0097481D01*
X0006200Y0096282D02*
X0010181Y0096282D01*
X0010181Y0095084D02*
X0006200Y0095084D01*
X0006200Y0093885D02*
X0010181Y0093885D01*
X0010181Y0092687D02*
X0006200Y0092687D01*
X0006200Y0091488D02*
X0010181Y0091488D01*
X0010181Y0090290D02*
X0006200Y0090290D01*
X0006200Y0089091D02*
X0010181Y0089091D01*
X0010181Y0087893D02*
X0006200Y0087893D01*
X0006200Y0086694D02*
X0010181Y0086694D01*
X0010181Y0085496D02*
X0006200Y0085496D01*
X0006200Y0084297D02*
X0010181Y0084297D01*
X0010181Y0083099D02*
X0006200Y0083099D01*
X0006200Y0081900D02*
X0010181Y0081900D01*
X0010181Y0080702D02*
X0006200Y0080702D01*
X0006200Y0079503D02*
X0010181Y0079503D01*
X0010181Y0078305D02*
X0006200Y0078305D01*
X0006200Y0077106D02*
X0010181Y0077106D01*
X0010181Y0075908D02*
X0006200Y0075908D01*
X0006200Y0074709D02*
X0010181Y0074709D01*
X0010181Y0073511D02*
X0006200Y0073511D01*
X0006200Y0072312D02*
X0010181Y0072312D01*
X0010181Y0071114D02*
X0006200Y0071114D01*
X0006200Y0069915D02*
X0010181Y0069915D01*
X0010181Y0068717D02*
X0006200Y0068717D01*
X0006200Y0067518D02*
X0010181Y0067518D01*
X0010181Y0066320D02*
X0006200Y0066320D01*
X0006200Y0065121D02*
X0010181Y0065121D01*
X0010181Y0063923D02*
X0006200Y0063923D01*
X0006200Y0062724D02*
X0010181Y0062724D01*
X0010181Y0061526D02*
X0006200Y0061526D01*
X0006200Y0060327D02*
X0010181Y0060327D01*
X0010181Y0059129D02*
X0006200Y0059129D01*
X0006200Y0057930D02*
X0010181Y0057930D01*
X0010181Y0056732D02*
X0006200Y0056732D01*
X0006200Y0055533D02*
X0010181Y0055533D01*
X0010181Y0054334D02*
X0006200Y0054334D01*
X0006200Y0053136D02*
X0010181Y0053136D01*
X0010181Y0051937D02*
X0006200Y0051937D01*
X0006200Y0050739D02*
X0010181Y0050739D01*
X0010181Y0049540D02*
X0006200Y0049540D01*
X0006200Y0048342D02*
X0010181Y0048342D01*
X0010181Y0047143D02*
X0006200Y0047143D01*
X0006200Y0045945D02*
X0010181Y0045945D01*
X0010181Y0044746D02*
X0006200Y0044746D01*
X0006200Y0043548D02*
X0010181Y0043548D01*
X0010181Y0042349D02*
X0006200Y0042349D01*
X0006200Y0041151D02*
X0010181Y0041151D01*
X0010181Y0039952D02*
X0006200Y0039952D01*
X0006200Y0038754D02*
X0010181Y0038754D01*
X0010181Y0037555D02*
X0006200Y0037555D01*
X0006200Y0036357D02*
X0010919Y0036357D01*
X0027619Y0054334D02*
X0037882Y0054334D01*
X0036684Y0055533D02*
X0027619Y0055533D01*
X0027619Y0056732D02*
X0035849Y0056732D01*
X0035210Y0057930D02*
X0027619Y0057930D01*
X0027619Y0059129D02*
X0035119Y0059129D01*
X0035493Y0060327D02*
X0027619Y0060327D01*
X0027619Y0061526D02*
X0036567Y0061526D01*
X0039440Y0065121D02*
X0027619Y0065121D01*
X0027619Y0063923D02*
X0047587Y0063923D01*
X0047587Y0062724D02*
X0027619Y0062724D01*
X0027619Y0066320D02*
X0038241Y0066320D01*
X0037043Y0067518D02*
X0027619Y0067518D01*
X0027619Y0068717D02*
X0035739Y0068717D01*
X0035165Y0069915D02*
X0027619Y0069915D01*
X0027619Y0071114D02*
X0035119Y0071114D01*
X0035538Y0072312D02*
X0027619Y0072312D01*
X0027619Y0073511D02*
X0036833Y0073511D01*
X0039805Y0073511D02*
X0042835Y0073511D01*
X0041228Y0072312D02*
X0041099Y0072312D01*
X0045052Y0073511D02*
X0050671Y0073511D01*
X0051869Y0074709D02*
X0027619Y0074709D01*
X0027619Y0075908D02*
X0053068Y0075908D01*
X0054266Y0077106D02*
X0045884Y0077106D01*
X0047082Y0078305D02*
X0055465Y0078305D01*
X0056663Y0079503D02*
X0048281Y0079503D01*
X0049479Y0080702D02*
X0057862Y0080702D01*
X0059060Y0081900D02*
X0050678Y0081900D01*
X0051876Y0083099D02*
X0060259Y0083099D01*
X0050939Y0089091D02*
X0028761Y0089091D01*
X0027887Y0087893D02*
X0049741Y0087893D01*
X0048542Y0086694D02*
X0027619Y0086694D01*
X0027619Y0085496D02*
X0037476Y0085496D01*
X0039162Y0085496D02*
X0042724Y0085496D01*
X0041209Y0084297D02*
X0040928Y0084297D01*
X0045164Y0085496D02*
X0047343Y0085496D01*
X0038704Y0077106D02*
X0027619Y0077106D01*
X0027619Y0078305D02*
X0037506Y0078305D01*
X0036519Y0079503D02*
X0027619Y0079503D01*
X0027619Y0080702D02*
X0035551Y0080702D01*
X0035119Y0081900D02*
X0027619Y0081900D01*
X0027619Y0083099D02*
X0035152Y0083099D01*
X0035709Y0084297D02*
X0027619Y0084297D01*
X0046659Y0072312D02*
X0049472Y0072312D01*
X0047587Y0061526D02*
X0045695Y0061526D01*
X0042192Y0061526D02*
X0040070Y0061526D01*
X0050786Y0054334D02*
X0060903Y0054334D01*
X0048722Y0039952D02*
X0039823Y0039952D01*
X0039946Y0036357D02*
X0127614Y0036357D01*
X0123567Y0048203D02*
X0123932Y0048414D01*
X0124230Y0048712D01*
X0124441Y0049077D01*
X0124550Y0049484D01*
X0124550Y0050983D01*
X0120283Y0050983D01*
X0120283Y0048094D01*
X0123160Y0048094D01*
X0123567Y0048203D01*
X0123807Y0048342D02*
X0147000Y0048342D01*
X0147000Y0049540D02*
X0124550Y0049540D01*
X0124550Y0050739D02*
X0147000Y0050739D01*
X0147000Y0051937D02*
X0124550Y0051937D01*
X0124401Y0053136D02*
X0147000Y0053136D01*
X0147000Y0054334D02*
X0124350Y0054334D01*
X0124350Y0055533D02*
X0147000Y0055533D01*
X0147000Y0056732D02*
X0124350Y0056732D01*
X0124350Y0057930D02*
X0147000Y0057930D01*
X0147000Y0059129D02*
X0124350Y0059129D01*
X0124350Y0060327D02*
X0147000Y0060327D01*
X0147000Y0061526D02*
X0124550Y0061526D01*
X0124550Y0062724D02*
X0147000Y0062724D01*
X0147000Y0063923D02*
X0124550Y0063923D01*
X0124350Y0065121D02*
X0147000Y0065121D01*
X0147000Y0066320D02*
X0124350Y0066320D01*
X0124350Y0067518D02*
X0147000Y0067518D01*
X0147000Y0068717D02*
X0124350Y0068717D01*
X0124350Y0069915D02*
X0147000Y0069915D01*
X0147000Y0071114D02*
X0124350Y0071114D01*
X0124350Y0072312D02*
X0147000Y0072312D01*
X0147000Y0073511D02*
X0124550Y0073511D01*
X0124550Y0075908D02*
X0147000Y0075908D01*
X0147000Y0077106D02*
X0124350Y0077106D01*
X0124350Y0078305D02*
X0147000Y0078305D01*
X0147000Y0079503D02*
X0124350Y0079503D01*
X0124350Y0080702D02*
X0147000Y0080702D01*
X0147000Y0081900D02*
X0124350Y0081900D01*
X0124350Y0083099D02*
X0147000Y0083099D01*
X0147000Y0084297D02*
X0124350Y0084297D01*
X0124550Y0085496D02*
X0147000Y0085496D01*
X0147000Y0086694D02*
X0124550Y0086694D01*
X0124550Y0087893D02*
X0147000Y0087893D01*
X0147000Y0089091D02*
X0124350Y0089091D01*
X0124350Y0090290D02*
X0147000Y0090290D01*
X0147000Y0091488D02*
X0124350Y0091488D01*
X0124350Y0092687D02*
X0147000Y0092687D01*
X0147000Y0093885D02*
X0124350Y0093885D01*
X0124350Y0095084D02*
X0147000Y0095084D01*
X0147000Y0096282D02*
X0124350Y0096282D01*
X0124350Y0097481D02*
X0147000Y0097481D01*
X0147000Y0098679D02*
X0124350Y0098679D01*
X0124350Y0099878D02*
X0147000Y0099878D01*
X0147000Y0101076D02*
X0124350Y0101076D01*
X0124350Y0102275D02*
X0147000Y0102275D01*
X0147000Y0103473D02*
X0124350Y0103473D01*
X0124350Y0104672D02*
X0147000Y0104672D01*
X0147000Y0105870D02*
X0124350Y0105870D01*
X0124350Y0107069D02*
X0147000Y0107069D01*
X0147000Y0108268D02*
X0124230Y0108268D01*
X0126865Y0111122D02*
X0127685Y0110302D01*
X0138687Y0110302D01*
X0139507Y0111122D01*
X0139507Y0120156D01*
X0138687Y0120976D01*
X0127685Y0120976D01*
X0126865Y0120156D01*
X0126865Y0111122D01*
X0127322Y0110665D02*
X0113400Y0110665D01*
X0113400Y0111863D02*
X0126865Y0111863D01*
X0126865Y0113062D02*
X0113400Y0113062D01*
X0113400Y0114260D02*
X0126865Y0114260D01*
X0126865Y0115459D02*
X0113400Y0115459D01*
X0113400Y0116657D02*
X0126865Y0116657D01*
X0126865Y0117856D02*
X0113795Y0117856D01*
X0114994Y0119054D02*
X0126865Y0119054D01*
X0126961Y0120253D02*
X0115800Y0120253D01*
X0115800Y0121451D02*
X0147000Y0121451D01*
X0147000Y0120253D02*
X0139411Y0120253D01*
X0139507Y0119054D02*
X0147000Y0119054D01*
X0147000Y0117856D02*
X0139507Y0117856D01*
X0139507Y0116657D02*
X0147000Y0116657D01*
X0147000Y0115459D02*
X0139507Y0115459D01*
X0139507Y0114260D02*
X0147000Y0114260D01*
X0147000Y0113062D02*
X0139507Y0113062D01*
X0139507Y0111863D02*
X0147000Y0111863D01*
X0147000Y0110665D02*
X0139049Y0110665D01*
X0147000Y0109466D02*
X0113400Y0109466D01*
X0113400Y0108268D02*
X0116157Y0108268D01*
X0116038Y0107069D02*
X0113400Y0107069D01*
X0113400Y0105870D02*
X0116038Y0105870D01*
X0116038Y0104672D02*
X0113522Y0104672D01*
X0109678Y0104672D02*
X0106230Y0104672D01*
X0107428Y0103473D02*
X0108718Y0103473D01*
X0109800Y0105870D02*
X0105031Y0105870D01*
X0103833Y0107069D02*
X0109800Y0107069D01*
X0109800Y0108268D02*
X0103400Y0108268D01*
X0103400Y0109466D02*
X0109800Y0109466D01*
X0109800Y0110665D02*
X0103400Y0110665D01*
X0103400Y0111863D02*
X0109800Y0111863D01*
X0109800Y0113062D02*
X0103400Y0113062D01*
X0103400Y0114260D02*
X0109800Y0114260D01*
X0109800Y0115459D02*
X0103400Y0115459D01*
X0103400Y0116657D02*
X0109800Y0116657D01*
X0109405Y0117856D02*
X0103795Y0117856D01*
X0104994Y0119054D02*
X0108206Y0119054D01*
X0107400Y0120253D02*
X0105800Y0120253D01*
X0105800Y0121451D02*
X0107400Y0121451D01*
X0107400Y0122650D02*
X0105800Y0122650D01*
X0105292Y0123848D02*
X0107908Y0123848D01*
X0109107Y0125047D02*
X0104093Y0125047D01*
X0103400Y0126245D02*
X0109800Y0126245D01*
X0109800Y0127444D02*
X0103400Y0127444D01*
X0104582Y0128642D02*
X0108618Y0128642D01*
X0107420Y0129841D02*
X0105780Y0129841D01*
X0105800Y0131039D02*
X0107400Y0131039D01*
X0107400Y0132238D02*
X0105800Y0132238D01*
X0105703Y0133436D02*
X0107497Y0133436D01*
X0108695Y0134635D02*
X0104505Y0134635D01*
X0098695Y0134635D02*
X0094505Y0134635D01*
X0095703Y0133436D02*
X0097497Y0133436D01*
X0097400Y0132238D02*
X0095800Y0132238D01*
X0095800Y0131039D02*
X0097400Y0131039D01*
X0097420Y0129841D02*
X0095780Y0129841D01*
X0094582Y0128642D02*
X0098618Y0128642D01*
X0099800Y0127444D02*
X0093400Y0127444D01*
X0093400Y0126245D02*
X0099800Y0126245D01*
X0099107Y0125047D02*
X0094093Y0125047D01*
X0095292Y0123848D02*
X0097908Y0123848D01*
X0097400Y0122650D02*
X0095800Y0122650D01*
X0095800Y0121451D02*
X0097400Y0121451D01*
X0097400Y0120253D02*
X0095800Y0120253D01*
X0094994Y0119054D02*
X0098206Y0119054D01*
X0099405Y0117856D02*
X0093795Y0117856D01*
X0093400Y0116657D02*
X0099800Y0116657D01*
X0099800Y0115459D02*
X0093400Y0115459D01*
X0093400Y0114260D02*
X0099800Y0114260D01*
X0099800Y0113062D02*
X0093622Y0113062D01*
X0094820Y0111863D02*
X0099800Y0111863D01*
X0099800Y0110665D02*
X0096019Y0110665D01*
X0097217Y0109466D02*
X0099800Y0109466D01*
X0099800Y0108268D02*
X0098416Y0108268D01*
X0099614Y0107069D02*
X0099800Y0107069D01*
X0095411Y0102275D02*
X0079181Y0102275D01*
X0079181Y0103473D02*
X0094212Y0103473D01*
X0093014Y0104672D02*
X0079181Y0104672D01*
X0079181Y0105870D02*
X0091815Y0105870D01*
X0090617Y0107069D02*
X0079181Y0107069D01*
X0079181Y0108268D02*
X0089418Y0108268D01*
X0088220Y0109466D02*
X0079181Y0109466D01*
X0079181Y0110665D02*
X0087021Y0110665D01*
X0085823Y0111863D02*
X0079181Y0111863D01*
X0079181Y0113062D02*
X0084624Y0113062D01*
X0083426Y0114260D02*
X0079181Y0114260D01*
X0079181Y0115459D02*
X0082227Y0115459D01*
X0081029Y0116657D02*
X0079088Y0116657D01*
X0079405Y0117856D02*
X0077890Y0117856D01*
X0078127Y0117619D02*
X0078127Y0117619D01*
X0078206Y0119054D02*
X0076691Y0119054D01*
X0077400Y0120253D02*
X0075800Y0120253D01*
X0075800Y0121451D02*
X0077400Y0121451D01*
X0077400Y0122650D02*
X0075800Y0122650D01*
X0075292Y0123848D02*
X0077908Y0123848D01*
X0079107Y0125047D02*
X0074093Y0125047D01*
X0073400Y0126245D02*
X0079800Y0126245D01*
X0079800Y0127444D02*
X0073400Y0127444D01*
X0074582Y0128642D02*
X0078618Y0128642D01*
X0077420Y0129841D02*
X0075780Y0129841D01*
X0075800Y0131039D02*
X0077400Y0131039D01*
X0077400Y0132238D02*
X0075800Y0132238D01*
X0075703Y0133436D02*
X0077497Y0133436D01*
X0078695Y0134635D02*
X0074505Y0134635D01*
X0078821Y0138230D02*
X0043783Y0138230D01*
X0044982Y0139429D02*
X0077623Y0139429D01*
X0076544Y0140508D02*
X0076544Y0142337D01*
X0081244Y0142337D01*
X0081244Y0137638D01*
X0079414Y0137638D01*
X0076544Y0140508D01*
X0076544Y0140627D02*
X0046144Y0140627D01*
X0046144Y0141826D02*
X0076544Y0141826D01*
X0076544Y0143024D02*
X0046144Y0143024D01*
X0046144Y0144223D02*
X0076544Y0144223D01*
X0077398Y0145421D02*
X0045207Y0145421D01*
X0044008Y0146620D02*
X0078596Y0146620D01*
X0081244Y0141826D02*
X0081644Y0141826D01*
X0081644Y0140627D02*
X0081244Y0140627D01*
X0081244Y0139429D02*
X0081644Y0139429D01*
X0081644Y0138230D02*
X0081244Y0138230D01*
X0084066Y0138230D02*
X0131219Y0138230D01*
X0130898Y0139429D02*
X0085265Y0139429D01*
X0086344Y0140627D02*
X0130701Y0140627D01*
X0130701Y0141826D02*
X0086344Y0141826D01*
X0086344Y0143024D02*
X0130701Y0143024D01*
X0131019Y0144223D02*
X0086344Y0144223D01*
X0085490Y0145421D02*
X0131340Y0145421D01*
X0131913Y0146620D02*
X0084291Y0146620D01*
X0084505Y0134635D02*
X0088695Y0134635D01*
X0087497Y0133436D02*
X0085703Y0133436D01*
X0085800Y0132238D02*
X0087400Y0132238D01*
X0087400Y0131039D02*
X0085800Y0131039D01*
X0085780Y0129841D02*
X0087420Y0129841D01*
X0088618Y0128642D02*
X0084582Y0128642D01*
X0083400Y0127444D02*
X0089800Y0127444D01*
X0089800Y0126245D02*
X0083400Y0126245D01*
X0084093Y0125047D02*
X0089107Y0125047D01*
X0087908Y0123848D02*
X0085292Y0123848D01*
X0085800Y0122650D02*
X0087400Y0122650D01*
X0087400Y0121451D02*
X0085800Y0121451D01*
X0085800Y0120253D02*
X0087400Y0120253D01*
X0088206Y0119054D02*
X0084994Y0119054D01*
X0084921Y0117856D02*
X0089405Y0117856D01*
X0089800Y0116657D02*
X0086120Y0116657D01*
X0087318Y0115459D02*
X0089800Y0115459D01*
X0089800Y0114260D02*
X0088517Y0114260D01*
X0089715Y0113062D02*
X0089800Y0113062D01*
X0096609Y0101076D02*
X0079181Y0101076D01*
X0078361Y0099878D02*
X0097808Y0099878D01*
X0099006Y0098679D02*
X0077163Y0098679D01*
X0074468Y0101076D02*
X0073342Y0101076D01*
X0073463Y0102275D02*
X0075581Y0102275D01*
X0075581Y0103473D02*
X0074456Y0103473D01*
X0074825Y0104672D02*
X0075581Y0104672D01*
X0075581Y0105870D02*
X0074758Y0105870D01*
X0074194Y0107069D02*
X0075581Y0107069D01*
X0075581Y0108268D02*
X0072481Y0108268D01*
X0070406Y0108268D02*
X0063556Y0108268D01*
X0063556Y0109466D02*
X0075581Y0109466D01*
X0075581Y0110665D02*
X0063556Y0110665D01*
X0063556Y0111863D02*
X0075581Y0111863D01*
X0075581Y0113062D02*
X0063556Y0113062D01*
X0063556Y0114260D02*
X0075581Y0114260D01*
X0075196Y0115459D02*
X0063556Y0115459D01*
X0063556Y0116657D02*
X0073997Y0116657D01*
X0069405Y0117856D02*
X0063795Y0117856D01*
X0064994Y0119054D02*
X0068206Y0119054D01*
X0067400Y0120253D02*
X0065800Y0120253D01*
X0065800Y0121451D02*
X0067400Y0121451D01*
X0067400Y0122650D02*
X0065800Y0122650D01*
X0065292Y0123848D02*
X0067908Y0123848D01*
X0069107Y0125047D02*
X0064093Y0125047D01*
X0063400Y0126245D02*
X0069800Y0126245D01*
X0069800Y0127444D02*
X0063400Y0127444D01*
X0064582Y0128642D02*
X0068618Y0128642D01*
X0067420Y0129841D02*
X0065780Y0129841D01*
X0065800Y0131039D02*
X0067400Y0131039D01*
X0067400Y0132238D02*
X0065800Y0132238D01*
X0065703Y0133436D02*
X0067497Y0133436D01*
X0068695Y0134635D02*
X0064505Y0134635D01*
X0058695Y0134635D02*
X0054788Y0134635D01*
X0053589Y0135833D02*
X0132344Y0135833D01*
X0131652Y0137032D02*
X0021548Y0137032D01*
X0021981Y0138230D02*
X0039104Y0138230D01*
X0037906Y0139429D02*
X0022302Y0139429D01*
X0022499Y0140627D02*
X0036744Y0140627D01*
X0036744Y0141826D02*
X0022499Y0141826D01*
X0022499Y0143024D02*
X0036744Y0143024D01*
X0036744Y0144223D02*
X0022181Y0144223D01*
X0021860Y0145421D02*
X0037681Y0145421D01*
X0038879Y0146620D02*
X0021287Y0146620D01*
X0020856Y0135833D02*
X0049611Y0135833D01*
X0049777Y0136000D02*
X0047200Y0133423D01*
X0047200Y0131900D01*
X0051300Y0131900D01*
X0051300Y0136000D01*
X0049777Y0136000D01*
X0051300Y0135833D02*
X0051900Y0135833D01*
X0051900Y0136000D02*
X0053423Y0136000D01*
X0056000Y0133423D01*
X0056000Y0131900D01*
X0051900Y0131900D01*
X0051900Y0131300D01*
X0056000Y0131300D01*
X0056000Y0129777D01*
X0053423Y0127200D01*
X0051900Y0127200D01*
X0051900Y0131300D01*
X0051300Y0131300D01*
X0051300Y0127200D01*
X0049777Y0127200D01*
X0047200Y0129777D01*
X0047200Y0131300D01*
X0051300Y0131300D01*
X0051300Y0131900D01*
X0051900Y0131900D01*
X0051900Y0136000D01*
X0051900Y0134635D02*
X0051300Y0134635D01*
X0051300Y0133436D02*
X0051900Y0133436D01*
X0051900Y0132238D02*
X0051300Y0132238D01*
X0051300Y0131039D02*
X0051900Y0131039D01*
X0051900Y0129841D02*
X0051300Y0129841D01*
X0051300Y0128642D02*
X0051900Y0128642D01*
X0051900Y0127444D02*
X0051300Y0127444D01*
X0051300Y0126000D02*
X0049777Y0126000D01*
X0047200Y0123423D01*
X0047200Y0121900D01*
X0051300Y0121900D01*
X0051300Y0126000D01*
X0051900Y0126000D02*
X0053423Y0126000D01*
X0056000Y0123423D01*
X0056000Y0121900D01*
X0051900Y0121900D01*
X0051900Y0121300D01*
X0056000Y0121300D01*
X0056000Y0119777D01*
X0053423Y0117200D01*
X0051900Y0117200D01*
X0051900Y0121300D01*
X0051300Y0121300D01*
X0051300Y0117200D01*
X0049777Y0117200D01*
X0047200Y0119777D01*
X0047200Y0121300D01*
X0051300Y0121300D01*
X0051300Y0121900D01*
X0051900Y0121900D01*
X0051900Y0126000D01*
X0051900Y0125047D02*
X0051300Y0125047D01*
X0051300Y0123848D02*
X0051900Y0123848D01*
X0051900Y0122650D02*
X0051300Y0122650D01*
X0051300Y0121451D02*
X0045800Y0121451D01*
X0045800Y0120253D02*
X0047200Y0120253D01*
X0047923Y0119054D02*
X0044994Y0119054D01*
X0045800Y0119860D02*
X0043340Y0117400D01*
X0039860Y0117400D01*
X0037400Y0119860D01*
X0037400Y0123340D01*
X0039860Y0125800D01*
X0043340Y0125800D01*
X0045800Y0123340D01*
X0045800Y0119860D01*
X0045800Y0122650D02*
X0047200Y0122650D01*
X0047626Y0123848D02*
X0045292Y0123848D01*
X0044093Y0125047D02*
X0048824Y0125047D01*
X0049534Y0127444D02*
X0043383Y0127444D01*
X0043340Y0127400D02*
X0045800Y0129860D01*
X0045800Y0133340D01*
X0043340Y0135800D01*
X0039860Y0135800D01*
X0037400Y0133340D01*
X0037400Y0129860D01*
X0039860Y0127400D01*
X0043340Y0127400D01*
X0044582Y0128642D02*
X0048335Y0128642D01*
X0047200Y0129841D02*
X0045780Y0129841D01*
X0045800Y0131039D02*
X0047200Y0131039D01*
X0047200Y0132238D02*
X0045800Y0132238D01*
X0045703Y0133436D02*
X0047214Y0133436D01*
X0048412Y0134635D02*
X0044505Y0134635D01*
X0038695Y0134635D02*
X0020049Y0134635D01*
X0018850Y0133436D02*
X0037497Y0133436D01*
X0037400Y0132238D02*
X0017182Y0132238D01*
X0014298Y0131039D02*
X0037400Y0131039D01*
X0037420Y0129841D02*
X0006200Y0129841D01*
X0006200Y0131039D02*
X0008902Y0131039D01*
X0006200Y0128642D02*
X0038618Y0128642D01*
X0039817Y0127444D02*
X0006200Y0127444D01*
X0006200Y0126245D02*
X0059800Y0126245D01*
X0059800Y0127444D02*
X0053666Y0127444D01*
X0054865Y0128642D02*
X0058618Y0128642D01*
X0057420Y0129841D02*
X0056000Y0129841D01*
X0056000Y0131039D02*
X0057400Y0131039D01*
X0057400Y0132238D02*
X0056000Y0132238D01*
X0055986Y0133436D02*
X0057497Y0133436D01*
X0059107Y0125047D02*
X0054376Y0125047D01*
X0055574Y0123848D02*
X0057908Y0123848D01*
X0057400Y0122650D02*
X0056000Y0122650D01*
X0057400Y0121451D02*
X0051900Y0121451D01*
X0051900Y0120253D02*
X0051300Y0120253D01*
X0051300Y0119054D02*
X0051900Y0119054D01*
X0051900Y0117856D02*
X0051300Y0117856D01*
X0049122Y0117856D02*
X0043795Y0117856D01*
X0039405Y0117856D02*
X0006200Y0117856D01*
X0006200Y0119054D02*
X0038206Y0119054D01*
X0037400Y0120253D02*
X0006200Y0120253D01*
X0006200Y0121451D02*
X0037400Y0121451D01*
X0037400Y0122650D02*
X0006200Y0122650D01*
X0006200Y0123848D02*
X0037908Y0123848D01*
X0039107Y0125047D02*
X0006200Y0125047D01*
X0006200Y0116657D02*
X0059956Y0116657D01*
X0059956Y0115459D02*
X0006200Y0115459D01*
X0006200Y0114260D02*
X0059956Y0114260D01*
X0059956Y0113062D02*
X0006200Y0113062D01*
X0006200Y0111863D02*
X0059956Y0111863D01*
X0059956Y0110665D02*
X0006200Y0110665D01*
X0054078Y0117856D02*
X0059405Y0117856D01*
X0058206Y0119054D02*
X0055277Y0119054D01*
X0056000Y0120253D02*
X0057400Y0120253D01*
X0063556Y0107069D02*
X0068694Y0107069D01*
X0068129Y0105870D02*
X0063556Y0105870D01*
X0063556Y0104672D02*
X0068063Y0104672D01*
X0068432Y0103473D02*
X0063556Y0103473D01*
X0063556Y0102275D02*
X0069425Y0102275D01*
X0069542Y0101076D02*
X0063556Y0101076D01*
X0063556Y0099878D02*
X0069541Y0099878D01*
X0069541Y0098679D02*
X0064722Y0098679D01*
X0065921Y0097481D02*
X0069540Y0097481D01*
X0069539Y0096282D02*
X0067119Y0096282D01*
X0068318Y0095084D02*
X0069539Y0095084D01*
X0069516Y0093885D02*
X0069538Y0093885D01*
X0106711Y0079503D02*
X0110214Y0079503D01*
X0111412Y0078305D02*
X0107910Y0078305D01*
X0109108Y0077106D02*
X0112611Y0077106D01*
X0110307Y0075908D02*
X0115838Y0075908D01*
X0115838Y0073511D02*
X0112704Y0073511D01*
X0111505Y0074709D02*
X0120105Y0074709D01*
X0120283Y0074709D02*
X0147000Y0074709D01*
X0120105Y0086416D02*
X0115838Y0086416D01*
X0115838Y0084917D01*
X0115947Y0084510D01*
X0116038Y0084352D01*
X0116038Y0084181D01*
X0114689Y0084181D01*
X0110743Y0088127D01*
X0111069Y0088262D01*
X0111449Y0088642D01*
X0116029Y0088642D01*
X0115947Y0088501D01*
X0115838Y0088094D01*
X0115838Y0086594D01*
X0120105Y0086594D01*
X0120105Y0086416D01*
X0115838Y0086694D02*
X0112176Y0086694D01*
X0113375Y0085496D02*
X0115838Y0085496D01*
X0116038Y0084297D02*
X0114573Y0084297D01*
X0115838Y0087893D02*
X0110978Y0087893D01*
X0108449Y0067518D02*
X0105727Y0067518D01*
X0106926Y0066320D02*
X0109647Y0066320D01*
X0110846Y0065121D02*
X0108124Y0065121D01*
X0109323Y0063923D02*
X0115838Y0063923D01*
X0115838Y0062724D02*
X0110521Y0062724D01*
X0111720Y0061526D02*
X0115838Y0061526D01*
X0108871Y0055533D02*
X0094413Y0055533D01*
X0093215Y0056732D02*
X0107673Y0056732D01*
X0106474Y0057930D02*
X0092016Y0057930D01*
X0095612Y0054334D02*
X0110070Y0054334D01*
X0115986Y0053136D02*
X0096810Y0053136D01*
X0098009Y0051937D02*
X0115838Y0051937D01*
X0115838Y0050983D02*
X0115838Y0049484D01*
X0115947Y0049077D01*
X0116158Y0048712D01*
X0116455Y0048414D01*
X0116820Y0048203D01*
X0117227Y0048094D01*
X0120105Y0048094D01*
X0120105Y0050983D01*
X0115838Y0050983D01*
X0115838Y0050739D02*
X0099207Y0050739D01*
X0100119Y0049540D02*
X0115838Y0049540D01*
X0116580Y0048342D02*
X0100119Y0048342D01*
X0095489Y0042349D02*
X0089430Y0042349D01*
X0089800Y0041151D02*
X0095119Y0041151D01*
X0095214Y0039952D02*
X0089705Y0039952D01*
X0089061Y0038754D02*
X0095858Y0038754D01*
X0120105Y0048342D02*
X0120283Y0048342D01*
X0120283Y0049540D02*
X0120105Y0049540D01*
X0120105Y0050739D02*
X0120283Y0050739D01*
X0115800Y0122650D02*
X0147000Y0122650D01*
X0147000Y0123848D02*
X0115292Y0123848D01*
X0114093Y0125047D02*
X0147000Y0125047D01*
X0147000Y0126245D02*
X0113400Y0126245D01*
X0113400Y0127444D02*
X0147000Y0127444D01*
X0147000Y0128642D02*
X0114582Y0128642D01*
X0115780Y0129841D02*
X0147000Y0129841D01*
X0147000Y0131039D02*
X0144298Y0131039D01*
X0138902Y0131039D02*
X0115800Y0131039D01*
X0115800Y0132238D02*
X0136017Y0132238D01*
X0134350Y0133436D02*
X0115703Y0133436D01*
X0114505Y0134635D02*
X0133151Y0134635D01*
D20*
X0129412Y0145506D03*
X0145038Y0129569D03*
X0111600Y0102069D03*
X0110194Y0098162D03*
X0112225Y0094256D03*
X0109256Y0090975D03*
X0113631Y0087069D03*
X0113631Y0074881D03*
X0113631Y0062850D03*
X0094569Y0045975D03*
X0090662Y0043475D03*
X0086600Y0040819D03*
X0082694Y0046287D03*
X0078475Y0043475D03*
X0070819Y0045975D03*
X0066756Y0043475D03*
X0070819Y0040819D03*
X0063006Y0051912D03*
X0059100Y0048319D03*
X0055037Y0045037D03*
X0051131Y0042069D03*
X0043944Y0058787D03*
X0041131Y0063006D03*
X0038319Y0058787D03*
X0038319Y0070663D03*
X0041131Y0074725D03*
X0043944Y0070506D03*
X0043944Y0082538D03*
X0041131Y0087225D03*
X0038319Y0082381D03*
X0025819Y0090350D03*
X0022694Y0094100D03*
X0019725Y0098162D03*
X0016756Y0101912D03*
X0007694Y0129412D03*
X0023631Y0145350D03*
X0072225Y0082069D03*
X0098319Y0040819D03*
X0125194Y0016131D03*
X0027069Y0016131D03*
D21*
X0072225Y0082069D02*
X0073012Y0082856D01*
X0073012Y0087619D01*
X0071438Y0087619D02*
X0071438Y0092850D01*
X0071444Y0105037D01*
D22*
X0077381Y0101444D02*
X0074587Y0098650D01*
X0074587Y0087619D01*
X0076629Y0085381D02*
X0088037Y0085381D01*
X0093319Y0090662D01*
X0101600Y0090662D01*
X0113631Y0078631D01*
X0120194Y0078631D01*
X0120194Y0082568D02*
X0117975Y0082381D01*
X0113944Y0082381D01*
X0102316Y0094009D01*
X0096600Y0094009D01*
X0096600Y0087316D02*
X0096509Y0087225D01*
X0092069Y0087225D01*
X0088650Y0083806D01*
X0076629Y0083806D01*
X0076629Y0082231D02*
X0088781Y0082231D01*
X0092537Y0078475D01*
X0100037Y0078475D01*
X0111912Y0066600D01*
X0117942Y0066600D01*
X0120194Y0066820D01*
X0120194Y0070757D02*
X0117945Y0070663D01*
X0113006Y0070663D01*
X0101691Y0081978D01*
X0096600Y0081978D01*
X0096600Y0075285D02*
X0096509Y0075194D01*
X0088631Y0075194D01*
X0083169Y0080656D01*
X0076629Y0080656D01*
X0076629Y0079082D02*
X0079900Y0079082D01*
X0092381Y0066600D01*
X0100350Y0066600D01*
X0111941Y0055009D01*
X0120194Y0055009D01*
X0120194Y0058946D02*
X0111754Y0058946D01*
X0100754Y0069946D01*
X0096600Y0069946D01*
X0096535Y0063319D02*
X0093006Y0063319D01*
X0078818Y0077507D01*
X0076432Y0077507D01*
X0074587Y0075150D02*
X0074587Y0072813D01*
X0098319Y0049082D01*
X0098319Y0040819D01*
X0094569Y0045975D02*
X0094578Y0045984D01*
X0094578Y0050984D01*
X0073012Y0072550D01*
X0073012Y0075269D01*
X0071438Y0075269D02*
X0071438Y0065338D01*
X0086600Y0050175D01*
X0086600Y0040819D01*
X0082694Y0046287D02*
X0082694Y0052243D01*
X0069863Y0065074D01*
X0069863Y0075269D01*
X0068288Y0075269D02*
X0065250Y0075269D01*
X0063344Y0073362D01*
X0063344Y0061244D01*
X0074725Y0049863D01*
X0074725Y0041913D01*
X0073631Y0040819D01*
X0070819Y0040819D01*
X0070819Y0045975D02*
X0070828Y0045984D01*
X0070828Y0051922D01*
X0062044Y0060706D01*
X0062044Y0073900D01*
X0065650Y0077507D01*
X0067821Y0077507D01*
X0067821Y0079082D02*
X0064845Y0079082D01*
X0050687Y0064925D01*
X0050687Y0056781D01*
X0048631Y0054725D01*
X0040038Y0054725D01*
X0038319Y0056444D01*
X0038319Y0058787D01*
X0043944Y0058787D02*
X0049387Y0058787D01*
X0049387Y0065463D01*
X0064581Y0080656D01*
X0067821Y0080656D01*
X0067821Y0082231D02*
X0063775Y0082231D01*
X0048300Y0066756D01*
X0040350Y0066756D01*
X0038319Y0068788D01*
X0038319Y0070663D01*
X0043944Y0070506D02*
X0050212Y0070506D01*
X0063512Y0083806D01*
X0067821Y0083806D01*
X0067821Y0085381D02*
X0051612Y0085381D01*
X0044707Y0078475D01*
X0039881Y0078475D01*
X0038319Y0080038D01*
X0038319Y0082381D01*
X0043944Y0082538D02*
X0046931Y0082538D01*
X0052012Y0087619D01*
X0068288Y0087619D01*
X0069863Y0087619D02*
X0069863Y0090993D01*
X0061756Y0099100D01*
X0061756Y0121444D01*
X0061600Y0121600D01*
X0061600Y0131600D01*
X0071600Y0131600D02*
X0071600Y0121600D01*
X0077381Y0115819D01*
X0077381Y0101444D01*
X0091600Y0112537D02*
X0109881Y0094256D01*
X0112225Y0094256D01*
X0112414Y0094223D01*
X0120194Y0094379D01*
X0120194Y0090442D02*
X0109789Y0090442D01*
X0109256Y0090975D01*
X0081600Y0118631D01*
X0081600Y0121600D01*
X0081600Y0131600D01*
X0091600Y0131600D02*
X0091600Y0121600D01*
X0091600Y0112537D01*
X0101600Y0106756D02*
X0101600Y0121600D01*
X0101600Y0131600D01*
X0111600Y0131600D02*
X0111600Y0121600D01*
X0111600Y0102069D01*
X0111472Y0102253D01*
X0120194Y0102253D01*
X0120194Y0098316D02*
X0110352Y0098316D01*
X0110194Y0098162D01*
X0101600Y0106756D01*
X0096535Y0063319D02*
X0096600Y0063254D01*
X0063006Y0051912D02*
X0025819Y0051912D01*
X0025819Y0090350D01*
X0022694Y0094100D02*
X0022694Y0048319D01*
X0059100Y0048319D01*
X0055037Y0045037D02*
X0019725Y0045037D01*
X0019725Y0098162D01*
X0016756Y0101912D02*
X0016756Y0042069D01*
X0051131Y0042069D01*
D23*
X0071444Y0105037D03*
D24*
X0012381Y0105819D03*
X0036756Y0038006D03*
D25*
X0012381Y0038006D01*
X0012381Y0105819D01*
M02*
