G75*
%MOIN*%
%OFA0B0*%
%FSLAX25Y25*%
%IPPOS*%
%LPD*%
%AMOC8*
5,1,8,0,0,1.08239X$1,22.5*
%
%ADD10C,0.00000*%
%ADD11C,0.00400*%
%ADD12C,0.00500*%
D10*
X0001500Y0005000D02*
X0001500Y0232461D01*
X0337701Y0232461D01*
X0337701Y0005000D01*
X0001500Y0005000D01*
X0088508Y0018780D02*
X0088510Y0018928D01*
X0088516Y0019076D01*
X0088526Y0019224D01*
X0088540Y0019371D01*
X0088558Y0019518D01*
X0088579Y0019664D01*
X0088605Y0019810D01*
X0088635Y0019955D01*
X0088668Y0020099D01*
X0088706Y0020242D01*
X0088747Y0020384D01*
X0088792Y0020525D01*
X0088840Y0020665D01*
X0088893Y0020804D01*
X0088949Y0020941D01*
X0089009Y0021076D01*
X0089072Y0021210D01*
X0089139Y0021342D01*
X0089210Y0021472D01*
X0089284Y0021600D01*
X0089361Y0021726D01*
X0089442Y0021850D01*
X0089526Y0021972D01*
X0089613Y0022091D01*
X0089704Y0022208D01*
X0089798Y0022323D01*
X0089894Y0022435D01*
X0089994Y0022545D01*
X0090096Y0022651D01*
X0090202Y0022755D01*
X0090310Y0022856D01*
X0090421Y0022954D01*
X0090534Y0023050D01*
X0090650Y0023142D01*
X0090768Y0023231D01*
X0090889Y0023316D01*
X0091012Y0023399D01*
X0091137Y0023478D01*
X0091264Y0023554D01*
X0091393Y0023626D01*
X0091524Y0023695D01*
X0091657Y0023760D01*
X0091792Y0023821D01*
X0091928Y0023879D01*
X0092065Y0023934D01*
X0092204Y0023984D01*
X0092345Y0024031D01*
X0092486Y0024074D01*
X0092629Y0024114D01*
X0092773Y0024149D01*
X0092917Y0024181D01*
X0093063Y0024208D01*
X0093209Y0024232D01*
X0093356Y0024252D01*
X0093503Y0024268D01*
X0093650Y0024280D01*
X0093798Y0024288D01*
X0093946Y0024292D01*
X0094094Y0024292D01*
X0094242Y0024288D01*
X0094390Y0024280D01*
X0094537Y0024268D01*
X0094684Y0024252D01*
X0094831Y0024232D01*
X0094977Y0024208D01*
X0095123Y0024181D01*
X0095267Y0024149D01*
X0095411Y0024114D01*
X0095554Y0024074D01*
X0095695Y0024031D01*
X0095836Y0023984D01*
X0095975Y0023934D01*
X0096112Y0023879D01*
X0096248Y0023821D01*
X0096383Y0023760D01*
X0096516Y0023695D01*
X0096647Y0023626D01*
X0096776Y0023554D01*
X0096903Y0023478D01*
X0097028Y0023399D01*
X0097151Y0023316D01*
X0097272Y0023231D01*
X0097390Y0023142D01*
X0097506Y0023050D01*
X0097619Y0022954D01*
X0097730Y0022856D01*
X0097838Y0022755D01*
X0097944Y0022651D01*
X0098046Y0022545D01*
X0098146Y0022435D01*
X0098242Y0022323D01*
X0098336Y0022208D01*
X0098427Y0022091D01*
X0098514Y0021972D01*
X0098598Y0021850D01*
X0098679Y0021726D01*
X0098756Y0021600D01*
X0098830Y0021472D01*
X0098901Y0021342D01*
X0098968Y0021210D01*
X0099031Y0021076D01*
X0099091Y0020941D01*
X0099147Y0020804D01*
X0099200Y0020665D01*
X0099248Y0020525D01*
X0099293Y0020384D01*
X0099334Y0020242D01*
X0099372Y0020099D01*
X0099405Y0019955D01*
X0099435Y0019810D01*
X0099461Y0019664D01*
X0099482Y0019518D01*
X0099500Y0019371D01*
X0099514Y0019224D01*
X0099524Y0019076D01*
X0099530Y0018928D01*
X0099532Y0018780D01*
X0099530Y0018632D01*
X0099524Y0018484D01*
X0099514Y0018336D01*
X0099500Y0018189D01*
X0099482Y0018042D01*
X0099461Y0017896D01*
X0099435Y0017750D01*
X0099405Y0017605D01*
X0099372Y0017461D01*
X0099334Y0017318D01*
X0099293Y0017176D01*
X0099248Y0017035D01*
X0099200Y0016895D01*
X0099147Y0016756D01*
X0099091Y0016619D01*
X0099031Y0016484D01*
X0098968Y0016350D01*
X0098901Y0016218D01*
X0098830Y0016088D01*
X0098756Y0015960D01*
X0098679Y0015834D01*
X0098598Y0015710D01*
X0098514Y0015588D01*
X0098427Y0015469D01*
X0098336Y0015352D01*
X0098242Y0015237D01*
X0098146Y0015125D01*
X0098046Y0015015D01*
X0097944Y0014909D01*
X0097838Y0014805D01*
X0097730Y0014704D01*
X0097619Y0014606D01*
X0097506Y0014510D01*
X0097390Y0014418D01*
X0097272Y0014329D01*
X0097151Y0014244D01*
X0097028Y0014161D01*
X0096903Y0014082D01*
X0096776Y0014006D01*
X0096647Y0013934D01*
X0096516Y0013865D01*
X0096383Y0013800D01*
X0096248Y0013739D01*
X0096112Y0013681D01*
X0095975Y0013626D01*
X0095836Y0013576D01*
X0095695Y0013529D01*
X0095554Y0013486D01*
X0095411Y0013446D01*
X0095267Y0013411D01*
X0095123Y0013379D01*
X0094977Y0013352D01*
X0094831Y0013328D01*
X0094684Y0013308D01*
X0094537Y0013292D01*
X0094390Y0013280D01*
X0094242Y0013272D01*
X0094094Y0013268D01*
X0093946Y0013268D01*
X0093798Y0013272D01*
X0093650Y0013280D01*
X0093503Y0013292D01*
X0093356Y0013308D01*
X0093209Y0013328D01*
X0093063Y0013352D01*
X0092917Y0013379D01*
X0092773Y0013411D01*
X0092629Y0013446D01*
X0092486Y0013486D01*
X0092345Y0013529D01*
X0092204Y0013576D01*
X0092065Y0013626D01*
X0091928Y0013681D01*
X0091792Y0013739D01*
X0091657Y0013800D01*
X0091524Y0013865D01*
X0091393Y0013934D01*
X0091264Y0014006D01*
X0091137Y0014082D01*
X0091012Y0014161D01*
X0090889Y0014244D01*
X0090768Y0014329D01*
X0090650Y0014418D01*
X0090534Y0014510D01*
X0090421Y0014606D01*
X0090310Y0014704D01*
X0090202Y0014805D01*
X0090096Y0014909D01*
X0089994Y0015015D01*
X0089894Y0015125D01*
X0089798Y0015237D01*
X0089704Y0015352D01*
X0089613Y0015469D01*
X0089526Y0015588D01*
X0089442Y0015710D01*
X0089361Y0015834D01*
X0089284Y0015960D01*
X0089210Y0016088D01*
X0089139Y0016218D01*
X0089072Y0016350D01*
X0089009Y0016484D01*
X0088949Y0016619D01*
X0088893Y0016756D01*
X0088840Y0016895D01*
X0088792Y0017035D01*
X0088747Y0017176D01*
X0088706Y0017318D01*
X0088668Y0017461D01*
X0088635Y0017605D01*
X0088605Y0017750D01*
X0088579Y0017896D01*
X0088558Y0018042D01*
X0088540Y0018189D01*
X0088526Y0018336D01*
X0088516Y0018484D01*
X0088510Y0018632D01*
X0088508Y0018780D01*
X0093482Y0072500D02*
X0093484Y0072658D01*
X0093490Y0072816D01*
X0093500Y0072974D01*
X0093514Y0073132D01*
X0093532Y0073289D01*
X0093553Y0073446D01*
X0093579Y0073602D01*
X0093609Y0073758D01*
X0093642Y0073913D01*
X0093680Y0074066D01*
X0093721Y0074219D01*
X0093766Y0074371D01*
X0093815Y0074522D01*
X0093868Y0074671D01*
X0093924Y0074819D01*
X0093984Y0074965D01*
X0094048Y0075110D01*
X0094116Y0075253D01*
X0094187Y0075395D01*
X0094261Y0075535D01*
X0094339Y0075672D01*
X0094421Y0075808D01*
X0094505Y0075942D01*
X0094594Y0076073D01*
X0094685Y0076202D01*
X0094780Y0076329D01*
X0094877Y0076454D01*
X0094978Y0076576D01*
X0095082Y0076695D01*
X0095189Y0076812D01*
X0095299Y0076926D01*
X0095412Y0077037D01*
X0095527Y0077146D01*
X0095645Y0077251D01*
X0095766Y0077353D01*
X0095889Y0077453D01*
X0096015Y0077549D01*
X0096143Y0077642D01*
X0096273Y0077732D01*
X0096406Y0077818D01*
X0096541Y0077902D01*
X0096677Y0077981D01*
X0096816Y0078058D01*
X0096957Y0078130D01*
X0097099Y0078200D01*
X0097243Y0078265D01*
X0097389Y0078327D01*
X0097536Y0078385D01*
X0097685Y0078440D01*
X0097835Y0078491D01*
X0097986Y0078538D01*
X0098138Y0078581D01*
X0098291Y0078620D01*
X0098446Y0078656D01*
X0098601Y0078687D01*
X0098757Y0078715D01*
X0098913Y0078739D01*
X0099070Y0078759D01*
X0099228Y0078775D01*
X0099385Y0078787D01*
X0099544Y0078795D01*
X0099702Y0078799D01*
X0099860Y0078799D01*
X0100018Y0078795D01*
X0100177Y0078787D01*
X0100334Y0078775D01*
X0100492Y0078759D01*
X0100649Y0078739D01*
X0100805Y0078715D01*
X0100961Y0078687D01*
X0101116Y0078656D01*
X0101271Y0078620D01*
X0101424Y0078581D01*
X0101576Y0078538D01*
X0101727Y0078491D01*
X0101877Y0078440D01*
X0102026Y0078385D01*
X0102173Y0078327D01*
X0102319Y0078265D01*
X0102463Y0078200D01*
X0102605Y0078130D01*
X0102746Y0078058D01*
X0102885Y0077981D01*
X0103021Y0077902D01*
X0103156Y0077818D01*
X0103289Y0077732D01*
X0103419Y0077642D01*
X0103547Y0077549D01*
X0103673Y0077453D01*
X0103796Y0077353D01*
X0103917Y0077251D01*
X0104035Y0077146D01*
X0104150Y0077037D01*
X0104263Y0076926D01*
X0104373Y0076812D01*
X0104480Y0076695D01*
X0104584Y0076576D01*
X0104685Y0076454D01*
X0104782Y0076329D01*
X0104877Y0076202D01*
X0104968Y0076073D01*
X0105057Y0075942D01*
X0105141Y0075808D01*
X0105223Y0075672D01*
X0105301Y0075535D01*
X0105375Y0075395D01*
X0105446Y0075253D01*
X0105514Y0075110D01*
X0105578Y0074965D01*
X0105638Y0074819D01*
X0105694Y0074671D01*
X0105747Y0074522D01*
X0105796Y0074371D01*
X0105841Y0074219D01*
X0105882Y0074066D01*
X0105920Y0073913D01*
X0105953Y0073758D01*
X0105983Y0073602D01*
X0106009Y0073446D01*
X0106030Y0073289D01*
X0106048Y0073132D01*
X0106062Y0072974D01*
X0106072Y0072816D01*
X0106078Y0072658D01*
X0106080Y0072500D01*
X0106078Y0072342D01*
X0106072Y0072184D01*
X0106062Y0072026D01*
X0106048Y0071868D01*
X0106030Y0071711D01*
X0106009Y0071554D01*
X0105983Y0071398D01*
X0105953Y0071242D01*
X0105920Y0071087D01*
X0105882Y0070934D01*
X0105841Y0070781D01*
X0105796Y0070629D01*
X0105747Y0070478D01*
X0105694Y0070329D01*
X0105638Y0070181D01*
X0105578Y0070035D01*
X0105514Y0069890D01*
X0105446Y0069747D01*
X0105375Y0069605D01*
X0105301Y0069465D01*
X0105223Y0069328D01*
X0105141Y0069192D01*
X0105057Y0069058D01*
X0104968Y0068927D01*
X0104877Y0068798D01*
X0104782Y0068671D01*
X0104685Y0068546D01*
X0104584Y0068424D01*
X0104480Y0068305D01*
X0104373Y0068188D01*
X0104263Y0068074D01*
X0104150Y0067963D01*
X0104035Y0067854D01*
X0103917Y0067749D01*
X0103796Y0067647D01*
X0103673Y0067547D01*
X0103547Y0067451D01*
X0103419Y0067358D01*
X0103289Y0067268D01*
X0103156Y0067182D01*
X0103021Y0067098D01*
X0102885Y0067019D01*
X0102746Y0066942D01*
X0102605Y0066870D01*
X0102463Y0066800D01*
X0102319Y0066735D01*
X0102173Y0066673D01*
X0102026Y0066615D01*
X0101877Y0066560D01*
X0101727Y0066509D01*
X0101576Y0066462D01*
X0101424Y0066419D01*
X0101271Y0066380D01*
X0101116Y0066344D01*
X0100961Y0066313D01*
X0100805Y0066285D01*
X0100649Y0066261D01*
X0100492Y0066241D01*
X0100334Y0066225D01*
X0100177Y0066213D01*
X0100018Y0066205D01*
X0099860Y0066201D01*
X0099702Y0066201D01*
X0099544Y0066205D01*
X0099385Y0066213D01*
X0099228Y0066225D01*
X0099070Y0066241D01*
X0098913Y0066261D01*
X0098757Y0066285D01*
X0098601Y0066313D01*
X0098446Y0066344D01*
X0098291Y0066380D01*
X0098138Y0066419D01*
X0097986Y0066462D01*
X0097835Y0066509D01*
X0097685Y0066560D01*
X0097536Y0066615D01*
X0097389Y0066673D01*
X0097243Y0066735D01*
X0097099Y0066800D01*
X0096957Y0066870D01*
X0096816Y0066942D01*
X0096677Y0067019D01*
X0096541Y0067098D01*
X0096406Y0067182D01*
X0096273Y0067268D01*
X0096143Y0067358D01*
X0096015Y0067451D01*
X0095889Y0067547D01*
X0095766Y0067647D01*
X0095645Y0067749D01*
X0095527Y0067854D01*
X0095412Y0067963D01*
X0095299Y0068074D01*
X0095189Y0068188D01*
X0095082Y0068305D01*
X0094978Y0068424D01*
X0094877Y0068546D01*
X0094780Y0068671D01*
X0094685Y0068798D01*
X0094594Y0068927D01*
X0094505Y0069058D01*
X0094421Y0069192D01*
X0094339Y0069328D01*
X0094261Y0069465D01*
X0094187Y0069605D01*
X0094116Y0069747D01*
X0094048Y0069890D01*
X0093984Y0070035D01*
X0093924Y0070181D01*
X0093868Y0070329D01*
X0093815Y0070478D01*
X0093766Y0070629D01*
X0093721Y0070781D01*
X0093680Y0070934D01*
X0093642Y0071087D01*
X0093609Y0071242D01*
X0093579Y0071398D01*
X0093553Y0071554D01*
X0093532Y0071711D01*
X0093514Y0071868D01*
X0093500Y0072026D01*
X0093490Y0072184D01*
X0093484Y0072342D01*
X0093482Y0072500D01*
X0093482Y0157500D02*
X0093484Y0157658D01*
X0093490Y0157816D01*
X0093500Y0157974D01*
X0093514Y0158132D01*
X0093532Y0158289D01*
X0093553Y0158446D01*
X0093579Y0158602D01*
X0093609Y0158758D01*
X0093642Y0158913D01*
X0093680Y0159066D01*
X0093721Y0159219D01*
X0093766Y0159371D01*
X0093815Y0159522D01*
X0093868Y0159671D01*
X0093924Y0159819D01*
X0093984Y0159965D01*
X0094048Y0160110D01*
X0094116Y0160253D01*
X0094187Y0160395D01*
X0094261Y0160535D01*
X0094339Y0160672D01*
X0094421Y0160808D01*
X0094505Y0160942D01*
X0094594Y0161073D01*
X0094685Y0161202D01*
X0094780Y0161329D01*
X0094877Y0161454D01*
X0094978Y0161576D01*
X0095082Y0161695D01*
X0095189Y0161812D01*
X0095299Y0161926D01*
X0095412Y0162037D01*
X0095527Y0162146D01*
X0095645Y0162251D01*
X0095766Y0162353D01*
X0095889Y0162453D01*
X0096015Y0162549D01*
X0096143Y0162642D01*
X0096273Y0162732D01*
X0096406Y0162818D01*
X0096541Y0162902D01*
X0096677Y0162981D01*
X0096816Y0163058D01*
X0096957Y0163130D01*
X0097099Y0163200D01*
X0097243Y0163265D01*
X0097389Y0163327D01*
X0097536Y0163385D01*
X0097685Y0163440D01*
X0097835Y0163491D01*
X0097986Y0163538D01*
X0098138Y0163581D01*
X0098291Y0163620D01*
X0098446Y0163656D01*
X0098601Y0163687D01*
X0098757Y0163715D01*
X0098913Y0163739D01*
X0099070Y0163759D01*
X0099228Y0163775D01*
X0099385Y0163787D01*
X0099544Y0163795D01*
X0099702Y0163799D01*
X0099860Y0163799D01*
X0100018Y0163795D01*
X0100177Y0163787D01*
X0100334Y0163775D01*
X0100492Y0163759D01*
X0100649Y0163739D01*
X0100805Y0163715D01*
X0100961Y0163687D01*
X0101116Y0163656D01*
X0101271Y0163620D01*
X0101424Y0163581D01*
X0101576Y0163538D01*
X0101727Y0163491D01*
X0101877Y0163440D01*
X0102026Y0163385D01*
X0102173Y0163327D01*
X0102319Y0163265D01*
X0102463Y0163200D01*
X0102605Y0163130D01*
X0102746Y0163058D01*
X0102885Y0162981D01*
X0103021Y0162902D01*
X0103156Y0162818D01*
X0103289Y0162732D01*
X0103419Y0162642D01*
X0103547Y0162549D01*
X0103673Y0162453D01*
X0103796Y0162353D01*
X0103917Y0162251D01*
X0104035Y0162146D01*
X0104150Y0162037D01*
X0104263Y0161926D01*
X0104373Y0161812D01*
X0104480Y0161695D01*
X0104584Y0161576D01*
X0104685Y0161454D01*
X0104782Y0161329D01*
X0104877Y0161202D01*
X0104968Y0161073D01*
X0105057Y0160942D01*
X0105141Y0160808D01*
X0105223Y0160672D01*
X0105301Y0160535D01*
X0105375Y0160395D01*
X0105446Y0160253D01*
X0105514Y0160110D01*
X0105578Y0159965D01*
X0105638Y0159819D01*
X0105694Y0159671D01*
X0105747Y0159522D01*
X0105796Y0159371D01*
X0105841Y0159219D01*
X0105882Y0159066D01*
X0105920Y0158913D01*
X0105953Y0158758D01*
X0105983Y0158602D01*
X0106009Y0158446D01*
X0106030Y0158289D01*
X0106048Y0158132D01*
X0106062Y0157974D01*
X0106072Y0157816D01*
X0106078Y0157658D01*
X0106080Y0157500D01*
X0106078Y0157342D01*
X0106072Y0157184D01*
X0106062Y0157026D01*
X0106048Y0156868D01*
X0106030Y0156711D01*
X0106009Y0156554D01*
X0105983Y0156398D01*
X0105953Y0156242D01*
X0105920Y0156087D01*
X0105882Y0155934D01*
X0105841Y0155781D01*
X0105796Y0155629D01*
X0105747Y0155478D01*
X0105694Y0155329D01*
X0105638Y0155181D01*
X0105578Y0155035D01*
X0105514Y0154890D01*
X0105446Y0154747D01*
X0105375Y0154605D01*
X0105301Y0154465D01*
X0105223Y0154328D01*
X0105141Y0154192D01*
X0105057Y0154058D01*
X0104968Y0153927D01*
X0104877Y0153798D01*
X0104782Y0153671D01*
X0104685Y0153546D01*
X0104584Y0153424D01*
X0104480Y0153305D01*
X0104373Y0153188D01*
X0104263Y0153074D01*
X0104150Y0152963D01*
X0104035Y0152854D01*
X0103917Y0152749D01*
X0103796Y0152647D01*
X0103673Y0152547D01*
X0103547Y0152451D01*
X0103419Y0152358D01*
X0103289Y0152268D01*
X0103156Y0152182D01*
X0103021Y0152098D01*
X0102885Y0152019D01*
X0102746Y0151942D01*
X0102605Y0151870D01*
X0102463Y0151800D01*
X0102319Y0151735D01*
X0102173Y0151673D01*
X0102026Y0151615D01*
X0101877Y0151560D01*
X0101727Y0151509D01*
X0101576Y0151462D01*
X0101424Y0151419D01*
X0101271Y0151380D01*
X0101116Y0151344D01*
X0100961Y0151313D01*
X0100805Y0151285D01*
X0100649Y0151261D01*
X0100492Y0151241D01*
X0100334Y0151225D01*
X0100177Y0151213D01*
X0100018Y0151205D01*
X0099860Y0151201D01*
X0099702Y0151201D01*
X0099544Y0151205D01*
X0099385Y0151213D01*
X0099228Y0151225D01*
X0099070Y0151241D01*
X0098913Y0151261D01*
X0098757Y0151285D01*
X0098601Y0151313D01*
X0098446Y0151344D01*
X0098291Y0151380D01*
X0098138Y0151419D01*
X0097986Y0151462D01*
X0097835Y0151509D01*
X0097685Y0151560D01*
X0097536Y0151615D01*
X0097389Y0151673D01*
X0097243Y0151735D01*
X0097099Y0151800D01*
X0096957Y0151870D01*
X0096816Y0151942D01*
X0096677Y0152019D01*
X0096541Y0152098D01*
X0096406Y0152182D01*
X0096273Y0152268D01*
X0096143Y0152358D01*
X0096015Y0152451D01*
X0095889Y0152547D01*
X0095766Y0152647D01*
X0095645Y0152749D01*
X0095527Y0152854D01*
X0095412Y0152963D01*
X0095299Y0153074D01*
X0095189Y0153188D01*
X0095082Y0153305D01*
X0094978Y0153424D01*
X0094877Y0153546D01*
X0094780Y0153671D01*
X0094685Y0153798D01*
X0094594Y0153927D01*
X0094505Y0154058D01*
X0094421Y0154192D01*
X0094339Y0154328D01*
X0094261Y0154465D01*
X0094187Y0154605D01*
X0094116Y0154747D01*
X0094048Y0154890D01*
X0093984Y0155035D01*
X0093924Y0155181D01*
X0093868Y0155329D01*
X0093815Y0155478D01*
X0093766Y0155629D01*
X0093721Y0155781D01*
X0093680Y0155934D01*
X0093642Y0156087D01*
X0093609Y0156242D01*
X0093579Y0156398D01*
X0093553Y0156554D01*
X0093532Y0156711D01*
X0093514Y0156868D01*
X0093500Y0157026D01*
X0093490Y0157184D01*
X0093484Y0157342D01*
X0093482Y0157500D01*
X0088508Y0211693D02*
X0088510Y0211841D01*
X0088516Y0211989D01*
X0088526Y0212137D01*
X0088540Y0212284D01*
X0088558Y0212431D01*
X0088579Y0212577D01*
X0088605Y0212723D01*
X0088635Y0212868D01*
X0088668Y0213012D01*
X0088706Y0213155D01*
X0088747Y0213297D01*
X0088792Y0213438D01*
X0088840Y0213578D01*
X0088893Y0213717D01*
X0088949Y0213854D01*
X0089009Y0213989D01*
X0089072Y0214123D01*
X0089139Y0214255D01*
X0089210Y0214385D01*
X0089284Y0214513D01*
X0089361Y0214639D01*
X0089442Y0214763D01*
X0089526Y0214885D01*
X0089613Y0215004D01*
X0089704Y0215121D01*
X0089798Y0215236D01*
X0089894Y0215348D01*
X0089994Y0215458D01*
X0090096Y0215564D01*
X0090202Y0215668D01*
X0090310Y0215769D01*
X0090421Y0215867D01*
X0090534Y0215963D01*
X0090650Y0216055D01*
X0090768Y0216144D01*
X0090889Y0216229D01*
X0091012Y0216312D01*
X0091137Y0216391D01*
X0091264Y0216467D01*
X0091393Y0216539D01*
X0091524Y0216608D01*
X0091657Y0216673D01*
X0091792Y0216734D01*
X0091928Y0216792D01*
X0092065Y0216847D01*
X0092204Y0216897D01*
X0092345Y0216944D01*
X0092486Y0216987D01*
X0092629Y0217027D01*
X0092773Y0217062D01*
X0092917Y0217094D01*
X0093063Y0217121D01*
X0093209Y0217145D01*
X0093356Y0217165D01*
X0093503Y0217181D01*
X0093650Y0217193D01*
X0093798Y0217201D01*
X0093946Y0217205D01*
X0094094Y0217205D01*
X0094242Y0217201D01*
X0094390Y0217193D01*
X0094537Y0217181D01*
X0094684Y0217165D01*
X0094831Y0217145D01*
X0094977Y0217121D01*
X0095123Y0217094D01*
X0095267Y0217062D01*
X0095411Y0217027D01*
X0095554Y0216987D01*
X0095695Y0216944D01*
X0095836Y0216897D01*
X0095975Y0216847D01*
X0096112Y0216792D01*
X0096248Y0216734D01*
X0096383Y0216673D01*
X0096516Y0216608D01*
X0096647Y0216539D01*
X0096776Y0216467D01*
X0096903Y0216391D01*
X0097028Y0216312D01*
X0097151Y0216229D01*
X0097272Y0216144D01*
X0097390Y0216055D01*
X0097506Y0215963D01*
X0097619Y0215867D01*
X0097730Y0215769D01*
X0097838Y0215668D01*
X0097944Y0215564D01*
X0098046Y0215458D01*
X0098146Y0215348D01*
X0098242Y0215236D01*
X0098336Y0215121D01*
X0098427Y0215004D01*
X0098514Y0214885D01*
X0098598Y0214763D01*
X0098679Y0214639D01*
X0098756Y0214513D01*
X0098830Y0214385D01*
X0098901Y0214255D01*
X0098968Y0214123D01*
X0099031Y0213989D01*
X0099091Y0213854D01*
X0099147Y0213717D01*
X0099200Y0213578D01*
X0099248Y0213438D01*
X0099293Y0213297D01*
X0099334Y0213155D01*
X0099372Y0213012D01*
X0099405Y0212868D01*
X0099435Y0212723D01*
X0099461Y0212577D01*
X0099482Y0212431D01*
X0099500Y0212284D01*
X0099514Y0212137D01*
X0099524Y0211989D01*
X0099530Y0211841D01*
X0099532Y0211693D01*
X0099530Y0211545D01*
X0099524Y0211397D01*
X0099514Y0211249D01*
X0099500Y0211102D01*
X0099482Y0210955D01*
X0099461Y0210809D01*
X0099435Y0210663D01*
X0099405Y0210518D01*
X0099372Y0210374D01*
X0099334Y0210231D01*
X0099293Y0210089D01*
X0099248Y0209948D01*
X0099200Y0209808D01*
X0099147Y0209669D01*
X0099091Y0209532D01*
X0099031Y0209397D01*
X0098968Y0209263D01*
X0098901Y0209131D01*
X0098830Y0209001D01*
X0098756Y0208873D01*
X0098679Y0208747D01*
X0098598Y0208623D01*
X0098514Y0208501D01*
X0098427Y0208382D01*
X0098336Y0208265D01*
X0098242Y0208150D01*
X0098146Y0208038D01*
X0098046Y0207928D01*
X0097944Y0207822D01*
X0097838Y0207718D01*
X0097730Y0207617D01*
X0097619Y0207519D01*
X0097506Y0207423D01*
X0097390Y0207331D01*
X0097272Y0207242D01*
X0097151Y0207157D01*
X0097028Y0207074D01*
X0096903Y0206995D01*
X0096776Y0206919D01*
X0096647Y0206847D01*
X0096516Y0206778D01*
X0096383Y0206713D01*
X0096248Y0206652D01*
X0096112Y0206594D01*
X0095975Y0206539D01*
X0095836Y0206489D01*
X0095695Y0206442D01*
X0095554Y0206399D01*
X0095411Y0206359D01*
X0095267Y0206324D01*
X0095123Y0206292D01*
X0094977Y0206265D01*
X0094831Y0206241D01*
X0094684Y0206221D01*
X0094537Y0206205D01*
X0094390Y0206193D01*
X0094242Y0206185D01*
X0094094Y0206181D01*
X0093946Y0206181D01*
X0093798Y0206185D01*
X0093650Y0206193D01*
X0093503Y0206205D01*
X0093356Y0206221D01*
X0093209Y0206241D01*
X0093063Y0206265D01*
X0092917Y0206292D01*
X0092773Y0206324D01*
X0092629Y0206359D01*
X0092486Y0206399D01*
X0092345Y0206442D01*
X0092204Y0206489D01*
X0092065Y0206539D01*
X0091928Y0206594D01*
X0091792Y0206652D01*
X0091657Y0206713D01*
X0091524Y0206778D01*
X0091393Y0206847D01*
X0091264Y0206919D01*
X0091137Y0206995D01*
X0091012Y0207074D01*
X0090889Y0207157D01*
X0090768Y0207242D01*
X0090650Y0207331D01*
X0090534Y0207423D01*
X0090421Y0207519D01*
X0090310Y0207617D01*
X0090202Y0207718D01*
X0090096Y0207822D01*
X0089994Y0207928D01*
X0089894Y0208038D01*
X0089798Y0208150D01*
X0089704Y0208265D01*
X0089613Y0208382D01*
X0089526Y0208501D01*
X0089442Y0208623D01*
X0089361Y0208747D01*
X0089284Y0208873D01*
X0089210Y0209001D01*
X0089139Y0209131D01*
X0089072Y0209263D01*
X0089009Y0209397D01*
X0088949Y0209532D01*
X0088893Y0209669D01*
X0088840Y0209808D01*
X0088792Y0209948D01*
X0088747Y0210089D01*
X0088706Y0210231D01*
X0088668Y0210374D01*
X0088635Y0210518D01*
X0088605Y0210663D01*
X0088579Y0210809D01*
X0088558Y0210955D01*
X0088540Y0211102D01*
X0088526Y0211249D01*
X0088516Y0211397D01*
X0088510Y0211545D01*
X0088508Y0211693D01*
X0316854Y0211693D02*
X0316856Y0211841D01*
X0316862Y0211989D01*
X0316872Y0212137D01*
X0316886Y0212284D01*
X0316904Y0212431D01*
X0316925Y0212577D01*
X0316951Y0212723D01*
X0316981Y0212868D01*
X0317014Y0213012D01*
X0317052Y0213155D01*
X0317093Y0213297D01*
X0317138Y0213438D01*
X0317186Y0213578D01*
X0317239Y0213717D01*
X0317295Y0213854D01*
X0317355Y0213989D01*
X0317418Y0214123D01*
X0317485Y0214255D01*
X0317556Y0214385D01*
X0317630Y0214513D01*
X0317707Y0214639D01*
X0317788Y0214763D01*
X0317872Y0214885D01*
X0317959Y0215004D01*
X0318050Y0215121D01*
X0318144Y0215236D01*
X0318240Y0215348D01*
X0318340Y0215458D01*
X0318442Y0215564D01*
X0318548Y0215668D01*
X0318656Y0215769D01*
X0318767Y0215867D01*
X0318880Y0215963D01*
X0318996Y0216055D01*
X0319114Y0216144D01*
X0319235Y0216229D01*
X0319358Y0216312D01*
X0319483Y0216391D01*
X0319610Y0216467D01*
X0319739Y0216539D01*
X0319870Y0216608D01*
X0320003Y0216673D01*
X0320138Y0216734D01*
X0320274Y0216792D01*
X0320411Y0216847D01*
X0320550Y0216897D01*
X0320691Y0216944D01*
X0320832Y0216987D01*
X0320975Y0217027D01*
X0321119Y0217062D01*
X0321263Y0217094D01*
X0321409Y0217121D01*
X0321555Y0217145D01*
X0321702Y0217165D01*
X0321849Y0217181D01*
X0321996Y0217193D01*
X0322144Y0217201D01*
X0322292Y0217205D01*
X0322440Y0217205D01*
X0322588Y0217201D01*
X0322736Y0217193D01*
X0322883Y0217181D01*
X0323030Y0217165D01*
X0323177Y0217145D01*
X0323323Y0217121D01*
X0323469Y0217094D01*
X0323613Y0217062D01*
X0323757Y0217027D01*
X0323900Y0216987D01*
X0324041Y0216944D01*
X0324182Y0216897D01*
X0324321Y0216847D01*
X0324458Y0216792D01*
X0324594Y0216734D01*
X0324729Y0216673D01*
X0324862Y0216608D01*
X0324993Y0216539D01*
X0325122Y0216467D01*
X0325249Y0216391D01*
X0325374Y0216312D01*
X0325497Y0216229D01*
X0325618Y0216144D01*
X0325736Y0216055D01*
X0325852Y0215963D01*
X0325965Y0215867D01*
X0326076Y0215769D01*
X0326184Y0215668D01*
X0326290Y0215564D01*
X0326392Y0215458D01*
X0326492Y0215348D01*
X0326588Y0215236D01*
X0326682Y0215121D01*
X0326773Y0215004D01*
X0326860Y0214885D01*
X0326944Y0214763D01*
X0327025Y0214639D01*
X0327102Y0214513D01*
X0327176Y0214385D01*
X0327247Y0214255D01*
X0327314Y0214123D01*
X0327377Y0213989D01*
X0327437Y0213854D01*
X0327493Y0213717D01*
X0327546Y0213578D01*
X0327594Y0213438D01*
X0327639Y0213297D01*
X0327680Y0213155D01*
X0327718Y0213012D01*
X0327751Y0212868D01*
X0327781Y0212723D01*
X0327807Y0212577D01*
X0327828Y0212431D01*
X0327846Y0212284D01*
X0327860Y0212137D01*
X0327870Y0211989D01*
X0327876Y0211841D01*
X0327878Y0211693D01*
X0327876Y0211545D01*
X0327870Y0211397D01*
X0327860Y0211249D01*
X0327846Y0211102D01*
X0327828Y0210955D01*
X0327807Y0210809D01*
X0327781Y0210663D01*
X0327751Y0210518D01*
X0327718Y0210374D01*
X0327680Y0210231D01*
X0327639Y0210089D01*
X0327594Y0209948D01*
X0327546Y0209808D01*
X0327493Y0209669D01*
X0327437Y0209532D01*
X0327377Y0209397D01*
X0327314Y0209263D01*
X0327247Y0209131D01*
X0327176Y0209001D01*
X0327102Y0208873D01*
X0327025Y0208747D01*
X0326944Y0208623D01*
X0326860Y0208501D01*
X0326773Y0208382D01*
X0326682Y0208265D01*
X0326588Y0208150D01*
X0326492Y0208038D01*
X0326392Y0207928D01*
X0326290Y0207822D01*
X0326184Y0207718D01*
X0326076Y0207617D01*
X0325965Y0207519D01*
X0325852Y0207423D01*
X0325736Y0207331D01*
X0325618Y0207242D01*
X0325497Y0207157D01*
X0325374Y0207074D01*
X0325249Y0206995D01*
X0325122Y0206919D01*
X0324993Y0206847D01*
X0324862Y0206778D01*
X0324729Y0206713D01*
X0324594Y0206652D01*
X0324458Y0206594D01*
X0324321Y0206539D01*
X0324182Y0206489D01*
X0324041Y0206442D01*
X0323900Y0206399D01*
X0323757Y0206359D01*
X0323613Y0206324D01*
X0323469Y0206292D01*
X0323323Y0206265D01*
X0323177Y0206241D01*
X0323030Y0206221D01*
X0322883Y0206205D01*
X0322736Y0206193D01*
X0322588Y0206185D01*
X0322440Y0206181D01*
X0322292Y0206181D01*
X0322144Y0206185D01*
X0321996Y0206193D01*
X0321849Y0206205D01*
X0321702Y0206221D01*
X0321555Y0206241D01*
X0321409Y0206265D01*
X0321263Y0206292D01*
X0321119Y0206324D01*
X0320975Y0206359D01*
X0320832Y0206399D01*
X0320691Y0206442D01*
X0320550Y0206489D01*
X0320411Y0206539D01*
X0320274Y0206594D01*
X0320138Y0206652D01*
X0320003Y0206713D01*
X0319870Y0206778D01*
X0319739Y0206847D01*
X0319610Y0206919D01*
X0319483Y0206995D01*
X0319358Y0207074D01*
X0319235Y0207157D01*
X0319114Y0207242D01*
X0318996Y0207331D01*
X0318880Y0207423D01*
X0318767Y0207519D01*
X0318656Y0207617D01*
X0318548Y0207718D01*
X0318442Y0207822D01*
X0318340Y0207928D01*
X0318240Y0208038D01*
X0318144Y0208150D01*
X0318050Y0208265D01*
X0317959Y0208382D01*
X0317872Y0208501D01*
X0317788Y0208623D01*
X0317707Y0208747D01*
X0317630Y0208873D01*
X0317556Y0209001D01*
X0317485Y0209131D01*
X0317418Y0209263D01*
X0317355Y0209397D01*
X0317295Y0209532D01*
X0317239Y0209669D01*
X0317186Y0209808D01*
X0317138Y0209948D01*
X0317093Y0210089D01*
X0317052Y0210231D01*
X0317014Y0210374D01*
X0316981Y0210518D01*
X0316951Y0210663D01*
X0316925Y0210809D01*
X0316904Y0210955D01*
X0316886Y0211102D01*
X0316872Y0211249D01*
X0316862Y0211397D01*
X0316856Y0211545D01*
X0316854Y0211693D01*
D11*
X0199866Y0185929D02*
X0199866Y0184395D01*
X0199099Y0183627D01*
X0198332Y0183627D01*
X0197564Y0184395D01*
X0197564Y0186697D01*
X0196030Y0186697D02*
X0199099Y0186697D01*
X0199866Y0185929D01*
X0196030Y0186697D02*
X0195262Y0185929D01*
X0195262Y0184395D01*
X0196030Y0183627D01*
X0196030Y0182093D02*
X0195262Y0181325D01*
X0195262Y0179791D01*
X0196030Y0179023D01*
X0199099Y0179023D01*
X0199866Y0179791D01*
X0199866Y0181325D01*
X0199099Y0182093D01*
X0194241Y0181325D02*
X0194241Y0179791D01*
X0193474Y0179023D01*
X0190405Y0179023D01*
X0189637Y0179791D01*
X0189637Y0181325D01*
X0190405Y0182093D01*
X0189637Y0183627D02*
X0192707Y0186697D01*
X0193474Y0186697D01*
X0194241Y0185929D01*
X0194241Y0184395D01*
X0193474Y0183627D01*
X0193474Y0182093D02*
X0194241Y0181325D01*
X0189637Y0183627D02*
X0189637Y0186697D01*
X0083991Y0221061D02*
X0083224Y0220294D01*
X0080155Y0220294D01*
X0079388Y0221061D01*
X0079388Y0222596D01*
X0080155Y0223363D01*
X0080155Y0224898D02*
X0079388Y0225665D01*
X0079388Y0227200D01*
X0080155Y0227967D01*
X0080922Y0227967D01*
X0081689Y0227200D01*
X0081689Y0226432D01*
X0081689Y0227200D02*
X0082457Y0227967D01*
X0083224Y0227967D01*
X0083991Y0227200D01*
X0083991Y0225665D01*
X0083224Y0224898D01*
X0083224Y0223363D02*
X0083991Y0222596D01*
X0083991Y0221061D01*
X0073991Y0220905D02*
X0073224Y0220137D01*
X0070155Y0220137D01*
X0069388Y0220905D01*
X0069388Y0222439D01*
X0070155Y0223207D01*
X0070155Y0224741D02*
X0069388Y0225509D01*
X0069388Y0227043D01*
X0070155Y0227811D01*
X0071689Y0227811D01*
X0072457Y0227043D01*
X0072457Y0226276D01*
X0071689Y0224741D01*
X0073991Y0224741D01*
X0073991Y0227811D01*
X0073224Y0223207D02*
X0073991Y0222439D01*
X0073991Y0220905D01*
X0027300Y0207037D02*
X0027300Y0203967D01*
X0026533Y0203200D01*
X0024998Y0203200D01*
X0024231Y0203967D01*
X0022696Y0203967D02*
X0022696Y0205502D01*
X0020394Y0205502D01*
X0019627Y0204735D01*
X0019627Y0203967D01*
X0020394Y0203200D01*
X0021929Y0203200D01*
X0022696Y0203967D01*
X0022696Y0205502D02*
X0021161Y0207037D01*
X0019627Y0207804D01*
X0024231Y0207037D02*
X0024998Y0207804D01*
X0026533Y0207804D01*
X0027300Y0207037D01*
X0026533Y0197804D02*
X0027300Y0197037D01*
X0027300Y0193967D01*
X0026533Y0193200D01*
X0024998Y0193200D01*
X0024231Y0193967D01*
X0022696Y0195502D02*
X0020394Y0197804D01*
X0020394Y0193200D01*
X0019627Y0195502D02*
X0022696Y0195502D01*
X0024231Y0197037D02*
X0024998Y0197804D01*
X0026533Y0197804D01*
X0055749Y0141165D02*
X0054981Y0140398D01*
X0054981Y0138863D01*
X0055749Y0138096D01*
X0057283Y0138096D02*
X0058051Y0139631D01*
X0058051Y0140398D01*
X0057283Y0141165D01*
X0055749Y0141165D01*
X0057283Y0138096D02*
X0059585Y0138096D01*
X0059585Y0141165D01*
X0059585Y0136561D02*
X0059585Y0133492D01*
X0057283Y0133492D01*
X0058051Y0135027D01*
X0058051Y0135794D01*
X0057283Y0136561D01*
X0055749Y0136561D01*
X0054981Y0135794D01*
X0054981Y0134259D01*
X0055749Y0133492D01*
X0055749Y0131957D02*
X0054981Y0131190D01*
X0054981Y0129655D01*
X0055749Y0128888D01*
X0058818Y0131957D01*
X0055749Y0131957D01*
X0058818Y0131957D02*
X0059585Y0131190D01*
X0059585Y0129655D01*
X0058818Y0128888D01*
X0055749Y0128888D01*
X0055749Y0127353D02*
X0058818Y0127353D01*
X0059585Y0126586D01*
X0059585Y0125051D01*
X0058818Y0124284D01*
X0055749Y0124284D01*
X0054981Y0125051D01*
X0054981Y0126586D01*
X0055749Y0127353D01*
X0054981Y0122750D02*
X0059585Y0122750D01*
X0059585Y0119680D02*
X0054981Y0119680D01*
X0055749Y0118146D02*
X0054981Y0117378D01*
X0054981Y0115076D01*
X0059585Y0115076D01*
X0059585Y0117378D01*
X0058818Y0118146D01*
X0058051Y0118146D01*
X0057283Y0117378D01*
X0057283Y0115076D01*
X0057283Y0117378D02*
X0056516Y0118146D01*
X0055749Y0118146D01*
X0059585Y0119680D02*
X0054981Y0122750D01*
X0057283Y0108938D02*
X0057283Y0105868D01*
X0059585Y0099730D02*
X0059585Y0096661D01*
X0054981Y0096661D01*
X0055749Y0095126D02*
X0058818Y0095126D01*
X0059585Y0094359D01*
X0059585Y0092824D01*
X0058818Y0092057D01*
X0055749Y0092057D01*
X0054981Y0092824D01*
X0054981Y0094359D01*
X0055749Y0095126D01*
X0057283Y0096661D02*
X0057283Y0098195D01*
X0055749Y0090522D02*
X0058818Y0090522D01*
X0059585Y0089755D01*
X0059585Y0087453D01*
X0054981Y0087453D01*
X0054981Y0089755D01*
X0055749Y0090522D01*
X0055749Y0085918D02*
X0058818Y0085918D01*
X0059585Y0085151D01*
X0059585Y0083616D01*
X0058818Y0082849D01*
X0058051Y0082849D01*
X0057283Y0083616D01*
X0057283Y0085918D01*
X0055749Y0085918D02*
X0054981Y0085151D01*
X0054981Y0083616D01*
X0055749Y0082849D01*
X0011804Y0102467D02*
X0011037Y0101700D01*
X0007967Y0101700D01*
X0007200Y0102467D01*
X0007200Y0104002D01*
X0007967Y0104769D01*
X0007200Y0106304D02*
X0007200Y0109373D01*
X0007200Y0107839D02*
X0011804Y0107839D01*
X0010269Y0106304D01*
X0011037Y0104769D02*
X0011804Y0104002D01*
X0011804Y0102467D01*
X0010269Y0110908D02*
X0011804Y0112442D01*
X0007200Y0112442D01*
X0007200Y0110908D02*
X0007200Y0113977D01*
X0006874Y0116700D02*
X0006106Y0117467D01*
X0006106Y0119002D01*
X0006874Y0119769D01*
X0006874Y0121304D02*
X0006106Y0121304D01*
X0006874Y0121304D02*
X0009943Y0124373D01*
X0010710Y0124373D01*
X0010710Y0121304D01*
X0009943Y0119769D02*
X0010710Y0119002D01*
X0010710Y0117467D01*
X0009943Y0116700D01*
X0006874Y0116700D01*
D12*
X0029781Y0167500D02*
X0029781Y0062500D01*
X0109781Y0062500D01*
X0109781Y0167500D01*
X0029781Y0167500D01*
X0001500Y0215000D02*
X0001544Y0215413D01*
X0001599Y0215824D01*
X0001663Y0216235D01*
X0001737Y0216643D01*
X0001822Y0217050D01*
X0001915Y0217454D01*
X0002019Y0217856D01*
X0002132Y0218256D01*
X0002255Y0218653D01*
X0002388Y0219046D01*
X0002530Y0219436D01*
X0002681Y0219823D01*
X0002842Y0220206D01*
X0003012Y0220585D01*
X0003191Y0220960D01*
X0003379Y0221330D01*
X0003576Y0221695D01*
X0003781Y0222056D01*
X0003996Y0222412D01*
X0004219Y0222762D01*
X0004450Y0223107D01*
X0004689Y0223446D01*
X0004937Y0223780D01*
X0005193Y0224107D01*
X0005456Y0224428D01*
X0005727Y0224743D01*
X0006006Y0225050D01*
X0006292Y0225351D01*
X0006585Y0225646D01*
X0006885Y0225932D01*
X0007192Y0226212D01*
X0007506Y0226484D01*
X0007826Y0226748D01*
X0008153Y0227005D01*
X0008485Y0227254D01*
X0008824Y0227494D01*
X0009168Y0227726D01*
X0009518Y0227950D01*
X0009873Y0228166D01*
X0010233Y0228372D01*
X0010598Y0228570D01*
X0010968Y0228759D01*
X0011342Y0228939D01*
X0011721Y0229110D01*
X0012103Y0229272D01*
X0012489Y0229425D01*
X0012879Y0229568D01*
X0013272Y0229701D01*
X0013669Y0229825D01*
X0014068Y0229940D01*
X0014470Y0230045D01*
X0014874Y0230140D01*
X0015280Y0230225D01*
X0015689Y0230301D01*
X0016099Y0230366D01*
X0016510Y0230422D01*
X0016923Y0230467D01*
X0017337Y0230503D01*
X0017751Y0230529D01*
X0018166Y0230544D01*
X0018581Y0230550D01*
X0018996Y0230546D01*
X0019411Y0230531D01*
X0019826Y0230507D01*
X0020240Y0230472D01*
X0316461Y0230472D01*
X0316461Y0230473D02*
X0316931Y0230480D01*
X0317401Y0230476D01*
X0317871Y0230460D01*
X0318340Y0230432D01*
X0318809Y0230394D01*
X0319277Y0230343D01*
X0319743Y0230282D01*
X0320207Y0230208D01*
X0320670Y0230124D01*
X0321130Y0230028D01*
X0321588Y0229921D01*
X0322043Y0229802D01*
X0322495Y0229673D01*
X0322944Y0229532D01*
X0323389Y0229380D01*
X0323831Y0229218D01*
X0324268Y0229045D01*
X0324701Y0228861D01*
X0325129Y0228666D01*
X0325552Y0228462D01*
X0325970Y0228246D01*
X0326383Y0228021D01*
X0326790Y0227785D01*
X0327191Y0227540D01*
X0327586Y0227285D01*
X0327975Y0227020D01*
X0328357Y0226746D01*
X0328732Y0226462D01*
X0329100Y0226169D01*
X0329461Y0225868D01*
X0329814Y0225557D01*
X0330160Y0225238D01*
X0330497Y0224911D01*
X0330827Y0224576D01*
X0331148Y0224232D01*
X0331461Y0223881D01*
X0331765Y0223522D01*
X0332060Y0223156D01*
X0332346Y0222782D01*
X0332622Y0222402D01*
X0332890Y0222015D01*
X0333147Y0221622D01*
X0333395Y0221222D01*
X0333633Y0220817D01*
X0333862Y0220405D01*
X0334079Y0219989D01*
X0334287Y0219567D01*
X0334484Y0219140D01*
X0334671Y0218708D01*
X0334847Y0218272D01*
X0335012Y0217832D01*
X0335167Y0217388D01*
X0335310Y0216940D01*
X0335442Y0216489D01*
X0335564Y0216034D01*
X0335674Y0215577D01*
X0335773Y0215117D01*
X0335860Y0214655D01*
X0335937Y0214191D01*
X0336001Y0213725D01*
X0336055Y0213258D01*
X0336096Y0212790D01*
X0336127Y0212320D01*
X0336146Y0211850D01*
X0336146Y0115236D01*
X0245594Y0115236D01*
X0245594Y0005000D01*
X0020240Y0005000D01*
X0019772Y0005021D01*
X0019305Y0005053D01*
X0018839Y0005097D01*
X0018374Y0005151D01*
X0017910Y0005217D01*
X0017448Y0005295D01*
X0016988Y0005383D01*
X0016530Y0005482D01*
X0016075Y0005592D01*
X0015623Y0005714D01*
X0015174Y0005846D01*
X0014728Y0005989D01*
X0014285Y0006143D01*
X0013847Y0006307D01*
X0013412Y0006482D01*
X0012982Y0006668D01*
X0012557Y0006864D01*
X0012136Y0007070D01*
X0011721Y0007286D01*
X0011311Y0007512D01*
X0010906Y0007748D01*
X0010507Y0007993D01*
X0010115Y0008248D01*
X0009728Y0008513D01*
X0009348Y0008787D01*
X0008975Y0009070D01*
X0008609Y0009362D01*
X0008250Y0009662D01*
X0007898Y0009972D01*
X0007554Y0010289D01*
X0007218Y0010615D01*
X0006889Y0010949D01*
X0006569Y0011291D01*
X0006257Y0011640D01*
X0005954Y0011997D01*
X0005659Y0012361D01*
X0005373Y0012732D01*
X0005097Y0013110D01*
X0004829Y0013494D01*
X0004571Y0013885D01*
X0004323Y0014282D01*
X0004084Y0014685D01*
X0003855Y0015093D01*
X0003635Y0015507D01*
X0003426Y0015926D01*
X0003227Y0016350D01*
X0003039Y0016779D01*
X0002860Y0017212D01*
X0002693Y0017649D01*
X0002536Y0018090D01*
X0002389Y0018535D01*
X0002254Y0018983D01*
X0002129Y0019435D01*
X0002015Y0019889D01*
X0001912Y0020346D01*
X0001821Y0020805D01*
X0001740Y0021267D01*
X0001671Y0021730D01*
X0001612Y0022195D01*
X0001566Y0022661D01*
X0001530Y0023128D01*
X0001505Y0023595D01*
X0001492Y0024063D01*
X0001491Y0024532D01*
X0001500Y0025000D01*
X0001500Y0215000D01*
M02*
