%
M48
M72
T01C0.02000
T02C0.03150
T03C0.03543
T04C0.03937
T05C0.04000
T06C0.11024
T07C0.12598
%
T01
X33531Y48281
X66344Y52500
X30094Y79063
X49000Y82500
X56500Y85000
X66656Y84375
X71500Y115000
X89000Y126850
X91500Y122500
X96500Y118125
X104000Y115000
X111656Y111875
X110094Y100781
X121344Y94219
X121344Y87969
X126031Y87656
X126031Y82031
X146500Y72500
X126500Y55000
X121500Y37500
X151656Y50625
X189625Y91250
X189625Y107187
X213531Y109375
X210406Y123906
X199000Y127500
X220875Y148750
X246969Y152969
X266500Y152500
X271500Y150000
X286500Y150000
X291500Y155000
X296500Y160000
X305719Y159844
X321500Y167500
X286344Y142969
X286344Y120312
X241031Y127344
X194469Y152500
X177594Y165938
X178687Y172188
X166656Y183750
X187125Y185000
X206500Y197500
X211031Y192969
X231500Y190000
X236500Y177500
X259000Y186094
X269000Y173750
X249000Y198750
X166344Y142500
X158531Y148750
X144000Y150000
X126500Y142500
X121656Y133125
X110094Y134688
X89000Y132500
X84625Y134219
X84625Y140000
X76656Y153125
X81500Y155000
X65094Y154688
X46500Y170000
X31969Y178437
X30094Y165938
X73531Y182187
X81969Y183125
X144000Y170000
X141500Y130000
X156656Y125781
X155094Y114687
X149938Y102969
X152594Y97812
X159313Y98594
X231500Y65000
X10406Y95469
X6500Y85000
T02
X42906Y33750
X50780Y33750
X58654Y33750
X66528Y33750
X74402Y33750
X82276Y33750
X90150Y33750
X98024Y33750
X94087Y41624
X86213Y41624
X78339Y41624
X70465Y41624
X62591Y41624
X54717Y41624
X46843Y41624
X22968Y48506
X15094Y44569
X15094Y52443
X22968Y56380
X15094Y60317
X22968Y64254
X15094Y68191
X22968Y72128
X15094Y76065
X22968Y80002
X15094Y83939
X22968Y87876
X15094Y91813
X22968Y95750
X15094Y99687
X15094Y131444
X22968Y135381
X15094Y139318
X22968Y143255
X15094Y147192
X22968Y151129
X15094Y155066
X22968Y159003
X15094Y162940
X22968Y166877
X15094Y170814
X22968Y174751
X15094Y178688
X22968Y182625
X15094Y186562
X42476Y197500
X50350Y197500
X58224Y197500
X66098Y197500
X73972Y197500
X81846Y197500
X89720Y197500
X97594Y197500
X93657Y189626
X85783Y189626
X77909Y189626
X70035Y189626
X62161Y189626
X54287Y189626
X46413Y189626
X112240Y207598
X122240Y207598
X132240Y207598
X142240Y207598
X152240Y207598
X162240Y207598
X172240Y207598
X182240Y207598
X192240Y207598
X202240Y207598
X212240Y207598
X222240Y207598
X232240Y207598
X242240Y207598
X252240Y207598
X262240Y207598
X272240Y207598
X282240Y207598
X292240Y207598
X302240Y207598
X302240Y217598
X292240Y217598
X282240Y217598
X272240Y217598
X262240Y217598
X252240Y217598
X242240Y217598
X232240Y217598
X222240Y217598
X212240Y217598
X202240Y217598
X192240Y217598
X182240Y217598
X172240Y217598
X162240Y217598
X152240Y217598
X142240Y217598
X132240Y217598
X122240Y217598
X112240Y217598
X127476Y197500
X135350Y197500
X143224Y197500
X151098Y197500
X158972Y197500
X166846Y197500
X174720Y197500
X182594Y197500
X178657Y189626
X170783Y189626
X162909Y189626
X155035Y189626
X147161Y189626
X139287Y189626
X131413Y189626
X203157Y182744
X211031Y186681
X211031Y178807
X211031Y170933
X203157Y174870
X203157Y166996
X203157Y159122
X211031Y163059
X211031Y155185
X211031Y147311
X203157Y151248
X203157Y143374
X203157Y135500
X211031Y139437
X211031Y131563
X221500Y134938
X229374Y131001
X221500Y127064
X229374Y123127
X221500Y119190
X229374Y115253
X221500Y111316
X229374Y107379
X221500Y103442
X229374Y99505
X221500Y95568
X229374Y91631
X221500Y87694
X211031Y91307
X211031Y99181
X203157Y95244
X203157Y87370
X203157Y79496
X211031Y83433
X211031Y75559
X203157Y71622
X203157Y63748
X211031Y67685
X211031Y59811
X211031Y51937
X203157Y55874
X203157Y48000
X211031Y44062
X183024Y33750
X175150Y33750
X167276Y33750
X159402Y33750
X151528Y33750
X143654Y33750
X135780Y33750
X127906Y33750
X131843Y41624
X139717Y41624
X147591Y41624
X155465Y41624
X163339Y41624
X171213Y41624
X179087Y41624
X229374Y138875
X221500Y142813
T03
X283688Y181094
X293688Y181094
X303688Y181094
X303688Y191094
X293688Y191094
X283688Y191094
T04
X322906Y193594
X322906Y183594
X322906Y173594
X47750Y215000
X37750Y215000
X27750Y215000
X17750Y215000
X34781Y140000
X34781Y130000
X34781Y120000
X34781Y110000
X34781Y100000
X34781Y90000
T05
X297125Y125469
T06
X322366Y211693
X94020Y211693
X94020Y18780
T07
X99781Y72500
X99781Y157500
M30
