G75*
%MOIN*%
%OFA0B0*%
%FSLAX25Y25*%
%IPPOS*%
%LPD*%
%AMOC8*
5,1,8,0,0,1.08239X$1,22.5*
%
%ADD10C,0.00000*%
%ADD11C,0.00400*%
%ADD12C,0.00500*%
%ADD13R,0.03500X0.01750*%
%ADD14C,0.01000*%
%ADD15C,0.00600*%
%ADD16C,0.00300*%
%ADD17R,0.01750X0.03500*%
%ADD18C,0.00800*%
%ADD19C,0.01000*%
D10*
X0001500Y0005000D02*
X0001500Y0232461D01*
X0337701Y0232461D01*
X0337701Y0005000D01*
X0001500Y0005000D01*
X0088508Y0018780D02*
X0088510Y0018928D01*
X0088516Y0019076D01*
X0088526Y0019224D01*
X0088540Y0019371D01*
X0088558Y0019518D01*
X0088579Y0019664D01*
X0088605Y0019810D01*
X0088635Y0019955D01*
X0088668Y0020099D01*
X0088706Y0020242D01*
X0088747Y0020384D01*
X0088792Y0020525D01*
X0088840Y0020665D01*
X0088893Y0020804D01*
X0088949Y0020941D01*
X0089009Y0021076D01*
X0089072Y0021210D01*
X0089139Y0021342D01*
X0089210Y0021472D01*
X0089284Y0021600D01*
X0089361Y0021726D01*
X0089442Y0021850D01*
X0089526Y0021972D01*
X0089613Y0022091D01*
X0089704Y0022208D01*
X0089798Y0022323D01*
X0089894Y0022435D01*
X0089994Y0022545D01*
X0090096Y0022651D01*
X0090202Y0022755D01*
X0090310Y0022856D01*
X0090421Y0022954D01*
X0090534Y0023050D01*
X0090650Y0023142D01*
X0090768Y0023231D01*
X0090889Y0023316D01*
X0091012Y0023399D01*
X0091137Y0023478D01*
X0091264Y0023554D01*
X0091393Y0023626D01*
X0091524Y0023695D01*
X0091657Y0023760D01*
X0091792Y0023821D01*
X0091928Y0023879D01*
X0092065Y0023934D01*
X0092204Y0023984D01*
X0092345Y0024031D01*
X0092486Y0024074D01*
X0092629Y0024114D01*
X0092773Y0024149D01*
X0092917Y0024181D01*
X0093063Y0024208D01*
X0093209Y0024232D01*
X0093356Y0024252D01*
X0093503Y0024268D01*
X0093650Y0024280D01*
X0093798Y0024288D01*
X0093946Y0024292D01*
X0094094Y0024292D01*
X0094242Y0024288D01*
X0094390Y0024280D01*
X0094537Y0024268D01*
X0094684Y0024252D01*
X0094831Y0024232D01*
X0094977Y0024208D01*
X0095123Y0024181D01*
X0095267Y0024149D01*
X0095411Y0024114D01*
X0095554Y0024074D01*
X0095695Y0024031D01*
X0095836Y0023984D01*
X0095975Y0023934D01*
X0096112Y0023879D01*
X0096248Y0023821D01*
X0096383Y0023760D01*
X0096516Y0023695D01*
X0096647Y0023626D01*
X0096776Y0023554D01*
X0096903Y0023478D01*
X0097028Y0023399D01*
X0097151Y0023316D01*
X0097272Y0023231D01*
X0097390Y0023142D01*
X0097506Y0023050D01*
X0097619Y0022954D01*
X0097730Y0022856D01*
X0097838Y0022755D01*
X0097944Y0022651D01*
X0098046Y0022545D01*
X0098146Y0022435D01*
X0098242Y0022323D01*
X0098336Y0022208D01*
X0098427Y0022091D01*
X0098514Y0021972D01*
X0098598Y0021850D01*
X0098679Y0021726D01*
X0098756Y0021600D01*
X0098830Y0021472D01*
X0098901Y0021342D01*
X0098968Y0021210D01*
X0099031Y0021076D01*
X0099091Y0020941D01*
X0099147Y0020804D01*
X0099200Y0020665D01*
X0099248Y0020525D01*
X0099293Y0020384D01*
X0099334Y0020242D01*
X0099372Y0020099D01*
X0099405Y0019955D01*
X0099435Y0019810D01*
X0099461Y0019664D01*
X0099482Y0019518D01*
X0099500Y0019371D01*
X0099514Y0019224D01*
X0099524Y0019076D01*
X0099530Y0018928D01*
X0099532Y0018780D01*
X0099530Y0018632D01*
X0099524Y0018484D01*
X0099514Y0018336D01*
X0099500Y0018189D01*
X0099482Y0018042D01*
X0099461Y0017896D01*
X0099435Y0017750D01*
X0099405Y0017605D01*
X0099372Y0017461D01*
X0099334Y0017318D01*
X0099293Y0017176D01*
X0099248Y0017035D01*
X0099200Y0016895D01*
X0099147Y0016756D01*
X0099091Y0016619D01*
X0099031Y0016484D01*
X0098968Y0016350D01*
X0098901Y0016218D01*
X0098830Y0016088D01*
X0098756Y0015960D01*
X0098679Y0015834D01*
X0098598Y0015710D01*
X0098514Y0015588D01*
X0098427Y0015469D01*
X0098336Y0015352D01*
X0098242Y0015237D01*
X0098146Y0015125D01*
X0098046Y0015015D01*
X0097944Y0014909D01*
X0097838Y0014805D01*
X0097730Y0014704D01*
X0097619Y0014606D01*
X0097506Y0014510D01*
X0097390Y0014418D01*
X0097272Y0014329D01*
X0097151Y0014244D01*
X0097028Y0014161D01*
X0096903Y0014082D01*
X0096776Y0014006D01*
X0096647Y0013934D01*
X0096516Y0013865D01*
X0096383Y0013800D01*
X0096248Y0013739D01*
X0096112Y0013681D01*
X0095975Y0013626D01*
X0095836Y0013576D01*
X0095695Y0013529D01*
X0095554Y0013486D01*
X0095411Y0013446D01*
X0095267Y0013411D01*
X0095123Y0013379D01*
X0094977Y0013352D01*
X0094831Y0013328D01*
X0094684Y0013308D01*
X0094537Y0013292D01*
X0094390Y0013280D01*
X0094242Y0013272D01*
X0094094Y0013268D01*
X0093946Y0013268D01*
X0093798Y0013272D01*
X0093650Y0013280D01*
X0093503Y0013292D01*
X0093356Y0013308D01*
X0093209Y0013328D01*
X0093063Y0013352D01*
X0092917Y0013379D01*
X0092773Y0013411D01*
X0092629Y0013446D01*
X0092486Y0013486D01*
X0092345Y0013529D01*
X0092204Y0013576D01*
X0092065Y0013626D01*
X0091928Y0013681D01*
X0091792Y0013739D01*
X0091657Y0013800D01*
X0091524Y0013865D01*
X0091393Y0013934D01*
X0091264Y0014006D01*
X0091137Y0014082D01*
X0091012Y0014161D01*
X0090889Y0014244D01*
X0090768Y0014329D01*
X0090650Y0014418D01*
X0090534Y0014510D01*
X0090421Y0014606D01*
X0090310Y0014704D01*
X0090202Y0014805D01*
X0090096Y0014909D01*
X0089994Y0015015D01*
X0089894Y0015125D01*
X0089798Y0015237D01*
X0089704Y0015352D01*
X0089613Y0015469D01*
X0089526Y0015588D01*
X0089442Y0015710D01*
X0089361Y0015834D01*
X0089284Y0015960D01*
X0089210Y0016088D01*
X0089139Y0016218D01*
X0089072Y0016350D01*
X0089009Y0016484D01*
X0088949Y0016619D01*
X0088893Y0016756D01*
X0088840Y0016895D01*
X0088792Y0017035D01*
X0088747Y0017176D01*
X0088706Y0017318D01*
X0088668Y0017461D01*
X0088635Y0017605D01*
X0088605Y0017750D01*
X0088579Y0017896D01*
X0088558Y0018042D01*
X0088540Y0018189D01*
X0088526Y0018336D01*
X0088516Y0018484D01*
X0088510Y0018632D01*
X0088508Y0018780D01*
X0093482Y0072500D02*
X0093484Y0072658D01*
X0093490Y0072816D01*
X0093500Y0072974D01*
X0093514Y0073132D01*
X0093532Y0073289D01*
X0093553Y0073446D01*
X0093579Y0073602D01*
X0093609Y0073758D01*
X0093642Y0073913D01*
X0093680Y0074066D01*
X0093721Y0074219D01*
X0093766Y0074371D01*
X0093815Y0074522D01*
X0093868Y0074671D01*
X0093924Y0074819D01*
X0093984Y0074965D01*
X0094048Y0075110D01*
X0094116Y0075253D01*
X0094187Y0075395D01*
X0094261Y0075535D01*
X0094339Y0075672D01*
X0094421Y0075808D01*
X0094505Y0075942D01*
X0094594Y0076073D01*
X0094685Y0076202D01*
X0094780Y0076329D01*
X0094877Y0076454D01*
X0094978Y0076576D01*
X0095082Y0076695D01*
X0095189Y0076812D01*
X0095299Y0076926D01*
X0095412Y0077037D01*
X0095527Y0077146D01*
X0095645Y0077251D01*
X0095766Y0077353D01*
X0095889Y0077453D01*
X0096015Y0077549D01*
X0096143Y0077642D01*
X0096273Y0077732D01*
X0096406Y0077818D01*
X0096541Y0077902D01*
X0096677Y0077981D01*
X0096816Y0078058D01*
X0096957Y0078130D01*
X0097099Y0078200D01*
X0097243Y0078265D01*
X0097389Y0078327D01*
X0097536Y0078385D01*
X0097685Y0078440D01*
X0097835Y0078491D01*
X0097986Y0078538D01*
X0098138Y0078581D01*
X0098291Y0078620D01*
X0098446Y0078656D01*
X0098601Y0078687D01*
X0098757Y0078715D01*
X0098913Y0078739D01*
X0099070Y0078759D01*
X0099228Y0078775D01*
X0099385Y0078787D01*
X0099544Y0078795D01*
X0099702Y0078799D01*
X0099860Y0078799D01*
X0100018Y0078795D01*
X0100177Y0078787D01*
X0100334Y0078775D01*
X0100492Y0078759D01*
X0100649Y0078739D01*
X0100805Y0078715D01*
X0100961Y0078687D01*
X0101116Y0078656D01*
X0101271Y0078620D01*
X0101424Y0078581D01*
X0101576Y0078538D01*
X0101727Y0078491D01*
X0101877Y0078440D01*
X0102026Y0078385D01*
X0102173Y0078327D01*
X0102319Y0078265D01*
X0102463Y0078200D01*
X0102605Y0078130D01*
X0102746Y0078058D01*
X0102885Y0077981D01*
X0103021Y0077902D01*
X0103156Y0077818D01*
X0103289Y0077732D01*
X0103419Y0077642D01*
X0103547Y0077549D01*
X0103673Y0077453D01*
X0103796Y0077353D01*
X0103917Y0077251D01*
X0104035Y0077146D01*
X0104150Y0077037D01*
X0104263Y0076926D01*
X0104373Y0076812D01*
X0104480Y0076695D01*
X0104584Y0076576D01*
X0104685Y0076454D01*
X0104782Y0076329D01*
X0104877Y0076202D01*
X0104968Y0076073D01*
X0105057Y0075942D01*
X0105141Y0075808D01*
X0105223Y0075672D01*
X0105301Y0075535D01*
X0105375Y0075395D01*
X0105446Y0075253D01*
X0105514Y0075110D01*
X0105578Y0074965D01*
X0105638Y0074819D01*
X0105694Y0074671D01*
X0105747Y0074522D01*
X0105796Y0074371D01*
X0105841Y0074219D01*
X0105882Y0074066D01*
X0105920Y0073913D01*
X0105953Y0073758D01*
X0105983Y0073602D01*
X0106009Y0073446D01*
X0106030Y0073289D01*
X0106048Y0073132D01*
X0106062Y0072974D01*
X0106072Y0072816D01*
X0106078Y0072658D01*
X0106080Y0072500D01*
X0106078Y0072342D01*
X0106072Y0072184D01*
X0106062Y0072026D01*
X0106048Y0071868D01*
X0106030Y0071711D01*
X0106009Y0071554D01*
X0105983Y0071398D01*
X0105953Y0071242D01*
X0105920Y0071087D01*
X0105882Y0070934D01*
X0105841Y0070781D01*
X0105796Y0070629D01*
X0105747Y0070478D01*
X0105694Y0070329D01*
X0105638Y0070181D01*
X0105578Y0070035D01*
X0105514Y0069890D01*
X0105446Y0069747D01*
X0105375Y0069605D01*
X0105301Y0069465D01*
X0105223Y0069328D01*
X0105141Y0069192D01*
X0105057Y0069058D01*
X0104968Y0068927D01*
X0104877Y0068798D01*
X0104782Y0068671D01*
X0104685Y0068546D01*
X0104584Y0068424D01*
X0104480Y0068305D01*
X0104373Y0068188D01*
X0104263Y0068074D01*
X0104150Y0067963D01*
X0104035Y0067854D01*
X0103917Y0067749D01*
X0103796Y0067647D01*
X0103673Y0067547D01*
X0103547Y0067451D01*
X0103419Y0067358D01*
X0103289Y0067268D01*
X0103156Y0067182D01*
X0103021Y0067098D01*
X0102885Y0067019D01*
X0102746Y0066942D01*
X0102605Y0066870D01*
X0102463Y0066800D01*
X0102319Y0066735D01*
X0102173Y0066673D01*
X0102026Y0066615D01*
X0101877Y0066560D01*
X0101727Y0066509D01*
X0101576Y0066462D01*
X0101424Y0066419D01*
X0101271Y0066380D01*
X0101116Y0066344D01*
X0100961Y0066313D01*
X0100805Y0066285D01*
X0100649Y0066261D01*
X0100492Y0066241D01*
X0100334Y0066225D01*
X0100177Y0066213D01*
X0100018Y0066205D01*
X0099860Y0066201D01*
X0099702Y0066201D01*
X0099544Y0066205D01*
X0099385Y0066213D01*
X0099228Y0066225D01*
X0099070Y0066241D01*
X0098913Y0066261D01*
X0098757Y0066285D01*
X0098601Y0066313D01*
X0098446Y0066344D01*
X0098291Y0066380D01*
X0098138Y0066419D01*
X0097986Y0066462D01*
X0097835Y0066509D01*
X0097685Y0066560D01*
X0097536Y0066615D01*
X0097389Y0066673D01*
X0097243Y0066735D01*
X0097099Y0066800D01*
X0096957Y0066870D01*
X0096816Y0066942D01*
X0096677Y0067019D01*
X0096541Y0067098D01*
X0096406Y0067182D01*
X0096273Y0067268D01*
X0096143Y0067358D01*
X0096015Y0067451D01*
X0095889Y0067547D01*
X0095766Y0067647D01*
X0095645Y0067749D01*
X0095527Y0067854D01*
X0095412Y0067963D01*
X0095299Y0068074D01*
X0095189Y0068188D01*
X0095082Y0068305D01*
X0094978Y0068424D01*
X0094877Y0068546D01*
X0094780Y0068671D01*
X0094685Y0068798D01*
X0094594Y0068927D01*
X0094505Y0069058D01*
X0094421Y0069192D01*
X0094339Y0069328D01*
X0094261Y0069465D01*
X0094187Y0069605D01*
X0094116Y0069747D01*
X0094048Y0069890D01*
X0093984Y0070035D01*
X0093924Y0070181D01*
X0093868Y0070329D01*
X0093815Y0070478D01*
X0093766Y0070629D01*
X0093721Y0070781D01*
X0093680Y0070934D01*
X0093642Y0071087D01*
X0093609Y0071242D01*
X0093579Y0071398D01*
X0093553Y0071554D01*
X0093532Y0071711D01*
X0093514Y0071868D01*
X0093500Y0072026D01*
X0093490Y0072184D01*
X0093484Y0072342D01*
X0093482Y0072500D01*
X0093482Y0157500D02*
X0093484Y0157658D01*
X0093490Y0157816D01*
X0093500Y0157974D01*
X0093514Y0158132D01*
X0093532Y0158289D01*
X0093553Y0158446D01*
X0093579Y0158602D01*
X0093609Y0158758D01*
X0093642Y0158913D01*
X0093680Y0159066D01*
X0093721Y0159219D01*
X0093766Y0159371D01*
X0093815Y0159522D01*
X0093868Y0159671D01*
X0093924Y0159819D01*
X0093984Y0159965D01*
X0094048Y0160110D01*
X0094116Y0160253D01*
X0094187Y0160395D01*
X0094261Y0160535D01*
X0094339Y0160672D01*
X0094421Y0160808D01*
X0094505Y0160942D01*
X0094594Y0161073D01*
X0094685Y0161202D01*
X0094780Y0161329D01*
X0094877Y0161454D01*
X0094978Y0161576D01*
X0095082Y0161695D01*
X0095189Y0161812D01*
X0095299Y0161926D01*
X0095412Y0162037D01*
X0095527Y0162146D01*
X0095645Y0162251D01*
X0095766Y0162353D01*
X0095889Y0162453D01*
X0096015Y0162549D01*
X0096143Y0162642D01*
X0096273Y0162732D01*
X0096406Y0162818D01*
X0096541Y0162902D01*
X0096677Y0162981D01*
X0096816Y0163058D01*
X0096957Y0163130D01*
X0097099Y0163200D01*
X0097243Y0163265D01*
X0097389Y0163327D01*
X0097536Y0163385D01*
X0097685Y0163440D01*
X0097835Y0163491D01*
X0097986Y0163538D01*
X0098138Y0163581D01*
X0098291Y0163620D01*
X0098446Y0163656D01*
X0098601Y0163687D01*
X0098757Y0163715D01*
X0098913Y0163739D01*
X0099070Y0163759D01*
X0099228Y0163775D01*
X0099385Y0163787D01*
X0099544Y0163795D01*
X0099702Y0163799D01*
X0099860Y0163799D01*
X0100018Y0163795D01*
X0100177Y0163787D01*
X0100334Y0163775D01*
X0100492Y0163759D01*
X0100649Y0163739D01*
X0100805Y0163715D01*
X0100961Y0163687D01*
X0101116Y0163656D01*
X0101271Y0163620D01*
X0101424Y0163581D01*
X0101576Y0163538D01*
X0101727Y0163491D01*
X0101877Y0163440D01*
X0102026Y0163385D01*
X0102173Y0163327D01*
X0102319Y0163265D01*
X0102463Y0163200D01*
X0102605Y0163130D01*
X0102746Y0163058D01*
X0102885Y0162981D01*
X0103021Y0162902D01*
X0103156Y0162818D01*
X0103289Y0162732D01*
X0103419Y0162642D01*
X0103547Y0162549D01*
X0103673Y0162453D01*
X0103796Y0162353D01*
X0103917Y0162251D01*
X0104035Y0162146D01*
X0104150Y0162037D01*
X0104263Y0161926D01*
X0104373Y0161812D01*
X0104480Y0161695D01*
X0104584Y0161576D01*
X0104685Y0161454D01*
X0104782Y0161329D01*
X0104877Y0161202D01*
X0104968Y0161073D01*
X0105057Y0160942D01*
X0105141Y0160808D01*
X0105223Y0160672D01*
X0105301Y0160535D01*
X0105375Y0160395D01*
X0105446Y0160253D01*
X0105514Y0160110D01*
X0105578Y0159965D01*
X0105638Y0159819D01*
X0105694Y0159671D01*
X0105747Y0159522D01*
X0105796Y0159371D01*
X0105841Y0159219D01*
X0105882Y0159066D01*
X0105920Y0158913D01*
X0105953Y0158758D01*
X0105983Y0158602D01*
X0106009Y0158446D01*
X0106030Y0158289D01*
X0106048Y0158132D01*
X0106062Y0157974D01*
X0106072Y0157816D01*
X0106078Y0157658D01*
X0106080Y0157500D01*
X0106078Y0157342D01*
X0106072Y0157184D01*
X0106062Y0157026D01*
X0106048Y0156868D01*
X0106030Y0156711D01*
X0106009Y0156554D01*
X0105983Y0156398D01*
X0105953Y0156242D01*
X0105920Y0156087D01*
X0105882Y0155934D01*
X0105841Y0155781D01*
X0105796Y0155629D01*
X0105747Y0155478D01*
X0105694Y0155329D01*
X0105638Y0155181D01*
X0105578Y0155035D01*
X0105514Y0154890D01*
X0105446Y0154747D01*
X0105375Y0154605D01*
X0105301Y0154465D01*
X0105223Y0154328D01*
X0105141Y0154192D01*
X0105057Y0154058D01*
X0104968Y0153927D01*
X0104877Y0153798D01*
X0104782Y0153671D01*
X0104685Y0153546D01*
X0104584Y0153424D01*
X0104480Y0153305D01*
X0104373Y0153188D01*
X0104263Y0153074D01*
X0104150Y0152963D01*
X0104035Y0152854D01*
X0103917Y0152749D01*
X0103796Y0152647D01*
X0103673Y0152547D01*
X0103547Y0152451D01*
X0103419Y0152358D01*
X0103289Y0152268D01*
X0103156Y0152182D01*
X0103021Y0152098D01*
X0102885Y0152019D01*
X0102746Y0151942D01*
X0102605Y0151870D01*
X0102463Y0151800D01*
X0102319Y0151735D01*
X0102173Y0151673D01*
X0102026Y0151615D01*
X0101877Y0151560D01*
X0101727Y0151509D01*
X0101576Y0151462D01*
X0101424Y0151419D01*
X0101271Y0151380D01*
X0101116Y0151344D01*
X0100961Y0151313D01*
X0100805Y0151285D01*
X0100649Y0151261D01*
X0100492Y0151241D01*
X0100334Y0151225D01*
X0100177Y0151213D01*
X0100018Y0151205D01*
X0099860Y0151201D01*
X0099702Y0151201D01*
X0099544Y0151205D01*
X0099385Y0151213D01*
X0099228Y0151225D01*
X0099070Y0151241D01*
X0098913Y0151261D01*
X0098757Y0151285D01*
X0098601Y0151313D01*
X0098446Y0151344D01*
X0098291Y0151380D01*
X0098138Y0151419D01*
X0097986Y0151462D01*
X0097835Y0151509D01*
X0097685Y0151560D01*
X0097536Y0151615D01*
X0097389Y0151673D01*
X0097243Y0151735D01*
X0097099Y0151800D01*
X0096957Y0151870D01*
X0096816Y0151942D01*
X0096677Y0152019D01*
X0096541Y0152098D01*
X0096406Y0152182D01*
X0096273Y0152268D01*
X0096143Y0152358D01*
X0096015Y0152451D01*
X0095889Y0152547D01*
X0095766Y0152647D01*
X0095645Y0152749D01*
X0095527Y0152854D01*
X0095412Y0152963D01*
X0095299Y0153074D01*
X0095189Y0153188D01*
X0095082Y0153305D01*
X0094978Y0153424D01*
X0094877Y0153546D01*
X0094780Y0153671D01*
X0094685Y0153798D01*
X0094594Y0153927D01*
X0094505Y0154058D01*
X0094421Y0154192D01*
X0094339Y0154328D01*
X0094261Y0154465D01*
X0094187Y0154605D01*
X0094116Y0154747D01*
X0094048Y0154890D01*
X0093984Y0155035D01*
X0093924Y0155181D01*
X0093868Y0155329D01*
X0093815Y0155478D01*
X0093766Y0155629D01*
X0093721Y0155781D01*
X0093680Y0155934D01*
X0093642Y0156087D01*
X0093609Y0156242D01*
X0093579Y0156398D01*
X0093553Y0156554D01*
X0093532Y0156711D01*
X0093514Y0156868D01*
X0093500Y0157026D01*
X0093490Y0157184D01*
X0093484Y0157342D01*
X0093482Y0157500D01*
X0088508Y0211693D02*
X0088510Y0211841D01*
X0088516Y0211989D01*
X0088526Y0212137D01*
X0088540Y0212284D01*
X0088558Y0212431D01*
X0088579Y0212577D01*
X0088605Y0212723D01*
X0088635Y0212868D01*
X0088668Y0213012D01*
X0088706Y0213155D01*
X0088747Y0213297D01*
X0088792Y0213438D01*
X0088840Y0213578D01*
X0088893Y0213717D01*
X0088949Y0213854D01*
X0089009Y0213989D01*
X0089072Y0214123D01*
X0089139Y0214255D01*
X0089210Y0214385D01*
X0089284Y0214513D01*
X0089361Y0214639D01*
X0089442Y0214763D01*
X0089526Y0214885D01*
X0089613Y0215004D01*
X0089704Y0215121D01*
X0089798Y0215236D01*
X0089894Y0215348D01*
X0089994Y0215458D01*
X0090096Y0215564D01*
X0090202Y0215668D01*
X0090310Y0215769D01*
X0090421Y0215867D01*
X0090534Y0215963D01*
X0090650Y0216055D01*
X0090768Y0216144D01*
X0090889Y0216229D01*
X0091012Y0216312D01*
X0091137Y0216391D01*
X0091264Y0216467D01*
X0091393Y0216539D01*
X0091524Y0216608D01*
X0091657Y0216673D01*
X0091792Y0216734D01*
X0091928Y0216792D01*
X0092065Y0216847D01*
X0092204Y0216897D01*
X0092345Y0216944D01*
X0092486Y0216987D01*
X0092629Y0217027D01*
X0092773Y0217062D01*
X0092917Y0217094D01*
X0093063Y0217121D01*
X0093209Y0217145D01*
X0093356Y0217165D01*
X0093503Y0217181D01*
X0093650Y0217193D01*
X0093798Y0217201D01*
X0093946Y0217205D01*
X0094094Y0217205D01*
X0094242Y0217201D01*
X0094390Y0217193D01*
X0094537Y0217181D01*
X0094684Y0217165D01*
X0094831Y0217145D01*
X0094977Y0217121D01*
X0095123Y0217094D01*
X0095267Y0217062D01*
X0095411Y0217027D01*
X0095554Y0216987D01*
X0095695Y0216944D01*
X0095836Y0216897D01*
X0095975Y0216847D01*
X0096112Y0216792D01*
X0096248Y0216734D01*
X0096383Y0216673D01*
X0096516Y0216608D01*
X0096647Y0216539D01*
X0096776Y0216467D01*
X0096903Y0216391D01*
X0097028Y0216312D01*
X0097151Y0216229D01*
X0097272Y0216144D01*
X0097390Y0216055D01*
X0097506Y0215963D01*
X0097619Y0215867D01*
X0097730Y0215769D01*
X0097838Y0215668D01*
X0097944Y0215564D01*
X0098046Y0215458D01*
X0098146Y0215348D01*
X0098242Y0215236D01*
X0098336Y0215121D01*
X0098427Y0215004D01*
X0098514Y0214885D01*
X0098598Y0214763D01*
X0098679Y0214639D01*
X0098756Y0214513D01*
X0098830Y0214385D01*
X0098901Y0214255D01*
X0098968Y0214123D01*
X0099031Y0213989D01*
X0099091Y0213854D01*
X0099147Y0213717D01*
X0099200Y0213578D01*
X0099248Y0213438D01*
X0099293Y0213297D01*
X0099334Y0213155D01*
X0099372Y0213012D01*
X0099405Y0212868D01*
X0099435Y0212723D01*
X0099461Y0212577D01*
X0099482Y0212431D01*
X0099500Y0212284D01*
X0099514Y0212137D01*
X0099524Y0211989D01*
X0099530Y0211841D01*
X0099532Y0211693D01*
X0099530Y0211545D01*
X0099524Y0211397D01*
X0099514Y0211249D01*
X0099500Y0211102D01*
X0099482Y0210955D01*
X0099461Y0210809D01*
X0099435Y0210663D01*
X0099405Y0210518D01*
X0099372Y0210374D01*
X0099334Y0210231D01*
X0099293Y0210089D01*
X0099248Y0209948D01*
X0099200Y0209808D01*
X0099147Y0209669D01*
X0099091Y0209532D01*
X0099031Y0209397D01*
X0098968Y0209263D01*
X0098901Y0209131D01*
X0098830Y0209001D01*
X0098756Y0208873D01*
X0098679Y0208747D01*
X0098598Y0208623D01*
X0098514Y0208501D01*
X0098427Y0208382D01*
X0098336Y0208265D01*
X0098242Y0208150D01*
X0098146Y0208038D01*
X0098046Y0207928D01*
X0097944Y0207822D01*
X0097838Y0207718D01*
X0097730Y0207617D01*
X0097619Y0207519D01*
X0097506Y0207423D01*
X0097390Y0207331D01*
X0097272Y0207242D01*
X0097151Y0207157D01*
X0097028Y0207074D01*
X0096903Y0206995D01*
X0096776Y0206919D01*
X0096647Y0206847D01*
X0096516Y0206778D01*
X0096383Y0206713D01*
X0096248Y0206652D01*
X0096112Y0206594D01*
X0095975Y0206539D01*
X0095836Y0206489D01*
X0095695Y0206442D01*
X0095554Y0206399D01*
X0095411Y0206359D01*
X0095267Y0206324D01*
X0095123Y0206292D01*
X0094977Y0206265D01*
X0094831Y0206241D01*
X0094684Y0206221D01*
X0094537Y0206205D01*
X0094390Y0206193D01*
X0094242Y0206185D01*
X0094094Y0206181D01*
X0093946Y0206181D01*
X0093798Y0206185D01*
X0093650Y0206193D01*
X0093503Y0206205D01*
X0093356Y0206221D01*
X0093209Y0206241D01*
X0093063Y0206265D01*
X0092917Y0206292D01*
X0092773Y0206324D01*
X0092629Y0206359D01*
X0092486Y0206399D01*
X0092345Y0206442D01*
X0092204Y0206489D01*
X0092065Y0206539D01*
X0091928Y0206594D01*
X0091792Y0206652D01*
X0091657Y0206713D01*
X0091524Y0206778D01*
X0091393Y0206847D01*
X0091264Y0206919D01*
X0091137Y0206995D01*
X0091012Y0207074D01*
X0090889Y0207157D01*
X0090768Y0207242D01*
X0090650Y0207331D01*
X0090534Y0207423D01*
X0090421Y0207519D01*
X0090310Y0207617D01*
X0090202Y0207718D01*
X0090096Y0207822D01*
X0089994Y0207928D01*
X0089894Y0208038D01*
X0089798Y0208150D01*
X0089704Y0208265D01*
X0089613Y0208382D01*
X0089526Y0208501D01*
X0089442Y0208623D01*
X0089361Y0208747D01*
X0089284Y0208873D01*
X0089210Y0209001D01*
X0089139Y0209131D01*
X0089072Y0209263D01*
X0089009Y0209397D01*
X0088949Y0209532D01*
X0088893Y0209669D01*
X0088840Y0209808D01*
X0088792Y0209948D01*
X0088747Y0210089D01*
X0088706Y0210231D01*
X0088668Y0210374D01*
X0088635Y0210518D01*
X0088605Y0210663D01*
X0088579Y0210809D01*
X0088558Y0210955D01*
X0088540Y0211102D01*
X0088526Y0211249D01*
X0088516Y0211397D01*
X0088510Y0211545D01*
X0088508Y0211693D01*
X0316854Y0211693D02*
X0316856Y0211841D01*
X0316862Y0211989D01*
X0316872Y0212137D01*
X0316886Y0212284D01*
X0316904Y0212431D01*
X0316925Y0212577D01*
X0316951Y0212723D01*
X0316981Y0212868D01*
X0317014Y0213012D01*
X0317052Y0213155D01*
X0317093Y0213297D01*
X0317138Y0213438D01*
X0317186Y0213578D01*
X0317239Y0213717D01*
X0317295Y0213854D01*
X0317355Y0213989D01*
X0317418Y0214123D01*
X0317485Y0214255D01*
X0317556Y0214385D01*
X0317630Y0214513D01*
X0317707Y0214639D01*
X0317788Y0214763D01*
X0317872Y0214885D01*
X0317959Y0215004D01*
X0318050Y0215121D01*
X0318144Y0215236D01*
X0318240Y0215348D01*
X0318340Y0215458D01*
X0318442Y0215564D01*
X0318548Y0215668D01*
X0318656Y0215769D01*
X0318767Y0215867D01*
X0318880Y0215963D01*
X0318996Y0216055D01*
X0319114Y0216144D01*
X0319235Y0216229D01*
X0319358Y0216312D01*
X0319483Y0216391D01*
X0319610Y0216467D01*
X0319739Y0216539D01*
X0319870Y0216608D01*
X0320003Y0216673D01*
X0320138Y0216734D01*
X0320274Y0216792D01*
X0320411Y0216847D01*
X0320550Y0216897D01*
X0320691Y0216944D01*
X0320832Y0216987D01*
X0320975Y0217027D01*
X0321119Y0217062D01*
X0321263Y0217094D01*
X0321409Y0217121D01*
X0321555Y0217145D01*
X0321702Y0217165D01*
X0321849Y0217181D01*
X0321996Y0217193D01*
X0322144Y0217201D01*
X0322292Y0217205D01*
X0322440Y0217205D01*
X0322588Y0217201D01*
X0322736Y0217193D01*
X0322883Y0217181D01*
X0323030Y0217165D01*
X0323177Y0217145D01*
X0323323Y0217121D01*
X0323469Y0217094D01*
X0323613Y0217062D01*
X0323757Y0217027D01*
X0323900Y0216987D01*
X0324041Y0216944D01*
X0324182Y0216897D01*
X0324321Y0216847D01*
X0324458Y0216792D01*
X0324594Y0216734D01*
X0324729Y0216673D01*
X0324862Y0216608D01*
X0324993Y0216539D01*
X0325122Y0216467D01*
X0325249Y0216391D01*
X0325374Y0216312D01*
X0325497Y0216229D01*
X0325618Y0216144D01*
X0325736Y0216055D01*
X0325852Y0215963D01*
X0325965Y0215867D01*
X0326076Y0215769D01*
X0326184Y0215668D01*
X0326290Y0215564D01*
X0326392Y0215458D01*
X0326492Y0215348D01*
X0326588Y0215236D01*
X0326682Y0215121D01*
X0326773Y0215004D01*
X0326860Y0214885D01*
X0326944Y0214763D01*
X0327025Y0214639D01*
X0327102Y0214513D01*
X0327176Y0214385D01*
X0327247Y0214255D01*
X0327314Y0214123D01*
X0327377Y0213989D01*
X0327437Y0213854D01*
X0327493Y0213717D01*
X0327546Y0213578D01*
X0327594Y0213438D01*
X0327639Y0213297D01*
X0327680Y0213155D01*
X0327718Y0213012D01*
X0327751Y0212868D01*
X0327781Y0212723D01*
X0327807Y0212577D01*
X0327828Y0212431D01*
X0327846Y0212284D01*
X0327860Y0212137D01*
X0327870Y0211989D01*
X0327876Y0211841D01*
X0327878Y0211693D01*
X0327876Y0211545D01*
X0327870Y0211397D01*
X0327860Y0211249D01*
X0327846Y0211102D01*
X0327828Y0210955D01*
X0327807Y0210809D01*
X0327781Y0210663D01*
X0327751Y0210518D01*
X0327718Y0210374D01*
X0327680Y0210231D01*
X0327639Y0210089D01*
X0327594Y0209948D01*
X0327546Y0209808D01*
X0327493Y0209669D01*
X0327437Y0209532D01*
X0327377Y0209397D01*
X0327314Y0209263D01*
X0327247Y0209131D01*
X0327176Y0209001D01*
X0327102Y0208873D01*
X0327025Y0208747D01*
X0326944Y0208623D01*
X0326860Y0208501D01*
X0326773Y0208382D01*
X0326682Y0208265D01*
X0326588Y0208150D01*
X0326492Y0208038D01*
X0326392Y0207928D01*
X0326290Y0207822D01*
X0326184Y0207718D01*
X0326076Y0207617D01*
X0325965Y0207519D01*
X0325852Y0207423D01*
X0325736Y0207331D01*
X0325618Y0207242D01*
X0325497Y0207157D01*
X0325374Y0207074D01*
X0325249Y0206995D01*
X0325122Y0206919D01*
X0324993Y0206847D01*
X0324862Y0206778D01*
X0324729Y0206713D01*
X0324594Y0206652D01*
X0324458Y0206594D01*
X0324321Y0206539D01*
X0324182Y0206489D01*
X0324041Y0206442D01*
X0323900Y0206399D01*
X0323757Y0206359D01*
X0323613Y0206324D01*
X0323469Y0206292D01*
X0323323Y0206265D01*
X0323177Y0206241D01*
X0323030Y0206221D01*
X0322883Y0206205D01*
X0322736Y0206193D01*
X0322588Y0206185D01*
X0322440Y0206181D01*
X0322292Y0206181D01*
X0322144Y0206185D01*
X0321996Y0206193D01*
X0321849Y0206205D01*
X0321702Y0206221D01*
X0321555Y0206241D01*
X0321409Y0206265D01*
X0321263Y0206292D01*
X0321119Y0206324D01*
X0320975Y0206359D01*
X0320832Y0206399D01*
X0320691Y0206442D01*
X0320550Y0206489D01*
X0320411Y0206539D01*
X0320274Y0206594D01*
X0320138Y0206652D01*
X0320003Y0206713D01*
X0319870Y0206778D01*
X0319739Y0206847D01*
X0319610Y0206919D01*
X0319483Y0206995D01*
X0319358Y0207074D01*
X0319235Y0207157D01*
X0319114Y0207242D01*
X0318996Y0207331D01*
X0318880Y0207423D01*
X0318767Y0207519D01*
X0318656Y0207617D01*
X0318548Y0207718D01*
X0318442Y0207822D01*
X0318340Y0207928D01*
X0318240Y0208038D01*
X0318144Y0208150D01*
X0318050Y0208265D01*
X0317959Y0208382D01*
X0317872Y0208501D01*
X0317788Y0208623D01*
X0317707Y0208747D01*
X0317630Y0208873D01*
X0317556Y0209001D01*
X0317485Y0209131D01*
X0317418Y0209263D01*
X0317355Y0209397D01*
X0317295Y0209532D01*
X0317239Y0209669D01*
X0317186Y0209808D01*
X0317138Y0209948D01*
X0317093Y0210089D01*
X0317052Y0210231D01*
X0317014Y0210374D01*
X0316981Y0210518D01*
X0316951Y0210663D01*
X0316925Y0210809D01*
X0316904Y0210955D01*
X0316886Y0211102D01*
X0316872Y0211249D01*
X0316862Y0211397D01*
X0316856Y0211545D01*
X0316854Y0211693D01*
D11*
X0317464Y0204210D02*
X0317464Y0199606D01*
X0318998Y0199606D02*
X0315929Y0199606D01*
X0314394Y0200374D02*
X0313627Y0199606D01*
X0312092Y0199606D01*
X0311325Y0200374D01*
X0311325Y0203443D01*
X0312092Y0204210D01*
X0313627Y0204210D01*
X0314394Y0203443D01*
X0315929Y0202676D02*
X0317464Y0204210D01*
X0320533Y0203443D02*
X0320533Y0202676D01*
X0321300Y0201908D01*
X0323602Y0201908D01*
X0323602Y0200374D02*
X0323602Y0203443D01*
X0322835Y0204210D01*
X0321300Y0204210D01*
X0320533Y0203443D01*
X0320533Y0200374D02*
X0321300Y0199606D01*
X0322835Y0199606D01*
X0323602Y0200374D01*
X0278206Y0193234D02*
X0278206Y0190165D01*
X0278206Y0191699D02*
X0273602Y0191699D01*
X0275137Y0190165D01*
X0275904Y0188630D02*
X0276672Y0187863D01*
X0276672Y0185561D01*
X0278206Y0185561D02*
X0273602Y0185561D01*
X0273602Y0187863D01*
X0274370Y0188630D01*
X0275904Y0188630D01*
X0276672Y0184026D02*
X0277439Y0184026D01*
X0278206Y0183259D01*
X0278206Y0181724D01*
X0277439Y0180957D01*
X0275904Y0181724D02*
X0275904Y0183259D01*
X0276672Y0184026D01*
X0274370Y0184026D02*
X0273602Y0183259D01*
X0273602Y0181724D01*
X0274370Y0180957D01*
X0275137Y0180957D01*
X0275904Y0181724D01*
X0273602Y0179422D02*
X0273602Y0177887D01*
X0273602Y0178655D02*
X0278206Y0178655D01*
X0278206Y0179422D02*
X0278206Y0177887D01*
X0263800Y0169977D02*
X0263800Y0166908D01*
X0263800Y0168442D02*
X0259196Y0168442D01*
X0260731Y0166908D01*
X0259196Y0165373D02*
X0259196Y0163839D01*
X0259196Y0164606D02*
X0263033Y0164606D01*
X0263800Y0163839D01*
X0263800Y0163071D01*
X0263033Y0162304D01*
X0263033Y0160769D02*
X0263800Y0160002D01*
X0263800Y0158467D01*
X0263033Y0157700D01*
X0261498Y0158467D02*
X0261498Y0160002D01*
X0262265Y0160769D01*
X0263033Y0160769D01*
X0261498Y0158467D02*
X0260731Y0157700D01*
X0259963Y0157700D01*
X0259196Y0158467D01*
X0259196Y0160002D01*
X0259963Y0160769D01*
X0255269Y0155603D02*
X0255269Y0152534D01*
X0252199Y0155603D01*
X0251432Y0155603D01*
X0250665Y0154836D01*
X0250665Y0153301D01*
X0251432Y0152534D01*
X0250665Y0150999D02*
X0254501Y0150999D01*
X0255269Y0150232D01*
X0255269Y0148697D01*
X0254501Y0147930D01*
X0250665Y0147930D01*
X0242991Y0158981D02*
X0241456Y0158981D01*
X0240689Y0159749D01*
X0243758Y0162818D01*
X0243758Y0159749D01*
X0242991Y0158981D01*
X0240689Y0159749D02*
X0240689Y0162818D01*
X0241456Y0163585D01*
X0242991Y0163585D01*
X0243758Y0162818D01*
X0239154Y0158981D02*
X0236085Y0158981D01*
X0237620Y0158981D02*
X0237620Y0163585D01*
X0236085Y0162051D01*
X0234551Y0162818D02*
X0233783Y0163585D01*
X0232249Y0163585D01*
X0231481Y0162818D01*
X0231481Y0159749D01*
X0232249Y0158981D01*
X0233783Y0158981D01*
X0234551Y0159749D01*
X0233783Y0167419D02*
X0232249Y0167419D01*
X0231481Y0168186D01*
X0231481Y0171255D01*
X0232249Y0172023D01*
X0233783Y0172023D01*
X0234551Y0171255D01*
X0236085Y0170488D02*
X0237620Y0172023D01*
X0237620Y0167419D01*
X0239154Y0167419D02*
X0236085Y0167419D01*
X0234551Y0168186D02*
X0233783Y0167419D01*
X0249196Y0170967D02*
X0249963Y0170200D01*
X0250731Y0170200D01*
X0251498Y0170967D01*
X0251498Y0172502D01*
X0252265Y0173269D01*
X0253033Y0173269D01*
X0253800Y0172502D01*
X0253800Y0170967D01*
X0253033Y0170200D01*
X0249196Y0170967D02*
X0249196Y0172502D01*
X0249963Y0173269D01*
X0249196Y0176339D02*
X0249196Y0177873D01*
X0249196Y0177106D02*
X0253033Y0177106D01*
X0253800Y0176339D01*
X0253800Y0175571D01*
X0253033Y0174804D01*
X0253800Y0179408D02*
X0250731Y0182477D01*
X0249963Y0182477D01*
X0249196Y0181710D01*
X0249196Y0180175D01*
X0249963Y0179408D01*
X0253800Y0179408D02*
X0253800Y0182477D01*
X0243800Y0183467D02*
X0243033Y0182700D01*
X0243800Y0183467D02*
X0243800Y0185002D01*
X0243033Y0185769D01*
X0242265Y0185769D01*
X0241498Y0185002D01*
X0241498Y0183467D01*
X0240731Y0182700D01*
X0239963Y0182700D01*
X0239196Y0183467D01*
X0239196Y0185002D01*
X0239963Y0185769D01*
X0239196Y0188839D02*
X0239196Y0190373D01*
X0239196Y0189606D02*
X0243033Y0189606D01*
X0243800Y0188839D01*
X0243800Y0188071D01*
X0243033Y0187304D01*
X0243033Y0191908D02*
X0243800Y0192675D01*
X0243800Y0194210D01*
X0243033Y0194977D01*
X0242265Y0194977D01*
X0241498Y0194210D01*
X0241498Y0193442D01*
X0241498Y0194210D02*
X0240731Y0194977D01*
X0239963Y0194977D01*
X0239196Y0194210D01*
X0239196Y0192675D01*
X0239963Y0191908D01*
X0197986Y0173571D02*
X0197986Y0170501D01*
X0197986Y0168967D02*
X0193382Y0168967D01*
X0194916Y0170501D02*
X0193382Y0172036D01*
X0197986Y0172036D01*
X0197986Y0168967D02*
X0193382Y0165897D01*
X0197986Y0165897D01*
X0197218Y0164363D02*
X0194149Y0164363D01*
X0193382Y0163595D01*
X0193382Y0162061D01*
X0194149Y0161293D01*
X0197218Y0161293D01*
X0197986Y0162061D01*
X0197986Y0163595D01*
X0197218Y0164363D01*
X0197218Y0159759D02*
X0197986Y0158991D01*
X0197986Y0157457D01*
X0197218Y0156690D01*
X0194149Y0156690D01*
X0193382Y0157457D01*
X0193382Y0158991D01*
X0194149Y0159759D01*
X0219196Y0147443D02*
X0223800Y0147443D01*
X0223800Y0145909D02*
X0223800Y0148978D01*
X0220731Y0145909D02*
X0219196Y0147443D01*
X0213331Y0127332D02*
X0213331Y0124262D01*
X0213331Y0125797D02*
X0208727Y0125797D01*
X0210262Y0124262D01*
X0233136Y0123440D02*
X0233136Y0121905D01*
X0233903Y0121138D01*
X0234670Y0121138D01*
X0235438Y0121905D01*
X0235438Y0124207D01*
X0236972Y0124207D02*
X0233903Y0124207D01*
X0233136Y0123440D01*
X0233136Y0119603D02*
X0237739Y0119603D01*
X0233136Y0116534D01*
X0237739Y0116534D01*
X0236972Y0114999D02*
X0237739Y0114232D01*
X0237739Y0112697D01*
X0236972Y0111930D01*
X0233903Y0111930D01*
X0233136Y0112697D01*
X0233136Y0114232D01*
X0233903Y0114999D01*
X0236972Y0114999D01*
X0236972Y0110395D02*
X0237739Y0109628D01*
X0237739Y0108093D01*
X0236972Y0107326D01*
X0233903Y0107326D01*
X0233136Y0108093D01*
X0233136Y0109628D01*
X0233903Y0110395D01*
X0236972Y0121138D02*
X0237739Y0121905D01*
X0237739Y0123440D01*
X0236972Y0124207D01*
X0248134Y0125259D02*
X0248901Y0124492D01*
X0248134Y0125259D02*
X0248134Y0126794D01*
X0248901Y0127561D01*
X0249668Y0127561D01*
X0252737Y0124492D01*
X0252737Y0127561D01*
X0251970Y0129096D02*
X0248901Y0129096D01*
X0248134Y0129863D01*
X0248134Y0131398D01*
X0248901Y0132165D01*
X0251970Y0129096D01*
X0252737Y0129863D01*
X0252737Y0131398D01*
X0251970Y0132165D01*
X0248901Y0132165D01*
X0258446Y0131398D02*
X0258446Y0129863D01*
X0259213Y0129096D01*
X0259981Y0129096D01*
X0260748Y0129863D01*
X0260748Y0131398D01*
X0261515Y0132165D01*
X0262283Y0132165D01*
X0263050Y0131398D01*
X0263050Y0129863D01*
X0262283Y0129096D01*
X0261515Y0129096D01*
X0260748Y0129863D01*
X0260748Y0131398D02*
X0259981Y0132165D01*
X0259213Y0132165D01*
X0258446Y0131398D01*
X0263050Y0127561D02*
X0263050Y0124492D01*
X0263050Y0126027D02*
X0258446Y0126027D01*
X0259981Y0124492D01*
X0259213Y0122957D02*
X0258446Y0122190D01*
X0258446Y0120656D01*
X0259213Y0119888D01*
X0262283Y0119888D01*
X0263050Y0120656D01*
X0263050Y0122190D01*
X0262283Y0122957D01*
X0268915Y0122190D02*
X0268915Y0120656D01*
X0269682Y0119888D01*
X0272751Y0119888D01*
X0273519Y0120656D01*
X0273519Y0122190D01*
X0272751Y0122957D01*
X0273519Y0124492D02*
X0273519Y0127561D01*
X0273519Y0126027D02*
X0268915Y0126027D01*
X0270449Y0124492D01*
X0269682Y0122957D02*
X0268915Y0122190D01*
X0268915Y0129096D02*
X0268915Y0132165D01*
X0269682Y0132165D01*
X0272751Y0129096D01*
X0273519Y0129096D01*
X0273300Y0136075D02*
X0268696Y0136075D01*
X0268696Y0139144D01*
X0268696Y0140679D02*
X0268696Y0142981D01*
X0269463Y0143748D01*
X0270231Y0143748D01*
X0270998Y0142981D01*
X0270998Y0140679D01*
X0270998Y0142981D02*
X0271765Y0143748D01*
X0272533Y0143748D01*
X0273300Y0142981D01*
X0273300Y0140679D01*
X0268696Y0140679D01*
X0270998Y0137610D02*
X0270998Y0136075D01*
X0270231Y0145283D02*
X0268696Y0146817D01*
X0273300Y0146817D01*
X0273300Y0145283D02*
X0273300Y0148352D01*
X0251970Y0122957D02*
X0252737Y0122190D01*
X0252737Y0120656D01*
X0251970Y0119888D01*
X0248901Y0119888D01*
X0248134Y0120656D01*
X0248134Y0122190D01*
X0248901Y0122957D01*
X0310055Y0124981D02*
X0310055Y0129585D01*
X0312357Y0129585D01*
X0313124Y0128818D01*
X0313124Y0127283D01*
X0312357Y0126516D01*
X0310055Y0126516D01*
X0311589Y0126516D02*
X0313124Y0124981D01*
X0314659Y0124981D02*
X0317728Y0124981D01*
X0316193Y0124981D02*
X0316193Y0129585D01*
X0314659Y0128051D01*
X0220486Y0070303D02*
X0220486Y0068769D01*
X0219718Y0068001D01*
X0218951Y0068001D01*
X0218184Y0068769D01*
X0218184Y0070303D01*
X0218951Y0071071D01*
X0219718Y0071071D01*
X0220486Y0070303D01*
X0218184Y0070303D02*
X0217416Y0071071D01*
X0216649Y0071071D01*
X0215882Y0070303D01*
X0215882Y0068769D01*
X0216649Y0068001D01*
X0217416Y0068001D01*
X0218184Y0068769D01*
X0220486Y0066467D02*
X0215882Y0066467D01*
X0215882Y0063397D02*
X0220486Y0066467D01*
X0220486Y0063397D02*
X0215882Y0063397D01*
X0216649Y0061863D02*
X0215882Y0061095D01*
X0215882Y0059561D01*
X0216649Y0058793D01*
X0219718Y0058793D01*
X0220486Y0059561D01*
X0220486Y0061095D01*
X0219718Y0061863D01*
X0216649Y0061863D01*
X0216649Y0057259D02*
X0215882Y0056491D01*
X0215882Y0054957D01*
X0216649Y0054190D01*
X0219718Y0054190D01*
X0220486Y0054957D01*
X0220486Y0056491D01*
X0219718Y0057259D01*
X0223967Y0047804D02*
X0223200Y0047037D01*
X0223200Y0043967D01*
X0223967Y0043200D01*
X0225502Y0043200D01*
X0226269Y0043967D01*
X0227804Y0043200D02*
X0230873Y0043200D01*
X0229339Y0043200D02*
X0229339Y0047804D01*
X0227804Y0046269D01*
X0226269Y0047037D02*
X0225502Y0047804D01*
X0223967Y0047804D01*
X0232408Y0045502D02*
X0235477Y0045502D01*
X0234710Y0043200D02*
X0234710Y0047804D01*
X0232408Y0045502D01*
X0213331Y0039832D02*
X0213331Y0036763D01*
X0213331Y0038297D02*
X0208727Y0038297D01*
X0210262Y0036763D01*
X0223967Y0022804D02*
X0223200Y0022037D01*
X0223200Y0018967D01*
X0223967Y0018200D01*
X0225502Y0018200D01*
X0226269Y0018967D01*
X0227804Y0018200D02*
X0230873Y0018200D01*
X0229339Y0018200D02*
X0229339Y0022804D01*
X0227804Y0021269D01*
X0226269Y0022037D02*
X0225502Y0022804D01*
X0223967Y0022804D01*
X0232408Y0020502D02*
X0234710Y0020502D01*
X0235477Y0019735D01*
X0235477Y0018967D01*
X0234710Y0018200D01*
X0233175Y0018200D01*
X0232408Y0018967D01*
X0232408Y0020502D01*
X0233942Y0022037D01*
X0235477Y0022804D01*
X0174894Y0065680D02*
X0170290Y0065680D01*
X0171824Y0067214D01*
X0170290Y0068749D01*
X0174894Y0068749D01*
X0172592Y0070284D02*
X0172592Y0073353D01*
X0174894Y0072586D02*
X0170290Y0072586D01*
X0172592Y0070284D01*
X0122141Y0036054D02*
X0122141Y0031450D01*
X0120606Y0031450D02*
X0123676Y0031450D01*
X0120606Y0034519D02*
X0122141Y0036054D01*
X0122765Y0022165D02*
X0123533Y0022165D01*
X0124300Y0021398D01*
X0124300Y0019863D01*
X0123533Y0019096D01*
X0124300Y0017561D02*
X0124300Y0014492D01*
X0124300Y0016027D02*
X0119696Y0016027D01*
X0121231Y0014492D01*
X0120463Y0012957D02*
X0119696Y0012190D01*
X0119696Y0010656D01*
X0120463Y0009888D01*
X0123533Y0009888D01*
X0124300Y0010656D01*
X0124300Y0012190D01*
X0123533Y0012957D01*
X0120463Y0019096D02*
X0119696Y0019863D01*
X0119696Y0021398D01*
X0120463Y0022165D01*
X0121231Y0022165D01*
X0121998Y0021398D01*
X0122765Y0022165D01*
X0121998Y0021398D02*
X0121998Y0020631D01*
X0144227Y0022165D02*
X0144227Y0019096D01*
X0146529Y0019096D01*
X0145762Y0020631D01*
X0145762Y0021398D01*
X0146529Y0022165D01*
X0148064Y0022165D01*
X0148831Y0021398D01*
X0148831Y0019863D01*
X0148064Y0019096D01*
X0148831Y0017561D02*
X0148831Y0014492D01*
X0148831Y0016027D02*
X0144227Y0016027D01*
X0145762Y0014492D01*
X0144995Y0012957D02*
X0144227Y0012190D01*
X0144227Y0010656D01*
X0144995Y0009888D01*
X0148064Y0009888D01*
X0148831Y0010656D01*
X0148831Y0012190D01*
X0148064Y0012957D01*
X0148176Y0023358D02*
X0149710Y0023358D01*
X0150478Y0024126D01*
X0152012Y0024126D02*
X0152780Y0023358D01*
X0154314Y0023358D01*
X0155081Y0024126D01*
X0155081Y0027195D01*
X0154314Y0027962D01*
X0152780Y0027962D01*
X0152012Y0027195D01*
X0152012Y0024126D01*
X0150478Y0027195D02*
X0149710Y0027962D01*
X0148176Y0027962D01*
X0147408Y0027195D01*
X0147408Y0024126D01*
X0148176Y0023358D01*
X0156616Y0023358D02*
X0156616Y0027962D01*
X0159685Y0023358D01*
X0159685Y0027962D01*
X0161220Y0027962D02*
X0164289Y0027962D01*
X0164289Y0027195D01*
X0161220Y0024126D01*
X0161220Y0023358D01*
X0112992Y0083638D02*
X0111457Y0083638D01*
X0110690Y0084405D01*
X0110690Y0085939D01*
X0112992Y0085939D01*
X0113759Y0085172D01*
X0113759Y0084405D01*
X0112992Y0083638D01*
X0110690Y0085939D02*
X0112224Y0087474D01*
X0113759Y0088241D01*
X0109155Y0088241D02*
X0109155Y0083638D01*
X0106086Y0083638D02*
X0106086Y0088241D01*
X0107621Y0086707D01*
X0109155Y0088241D01*
X0068759Y0061537D02*
X0068759Y0060769D01*
X0067992Y0060002D01*
X0068759Y0059235D01*
X0068759Y0058467D01*
X0067992Y0057700D01*
X0066457Y0057700D01*
X0065690Y0058467D01*
X0064155Y0057700D02*
X0064155Y0062304D01*
X0062621Y0060769D01*
X0061086Y0062304D01*
X0061086Y0057700D01*
X0067224Y0060002D02*
X0067992Y0060002D01*
X0068759Y0061537D02*
X0067992Y0062304D01*
X0066457Y0062304D01*
X0065690Y0061537D01*
X0037141Y0036054D02*
X0037141Y0031450D01*
X0035606Y0031450D02*
X0038676Y0031450D01*
X0035606Y0034519D02*
X0037141Y0036054D01*
X0057408Y0027195D02*
X0057408Y0024126D01*
X0058176Y0023358D01*
X0059710Y0023358D01*
X0060478Y0024126D01*
X0062012Y0024126D02*
X0062012Y0027195D01*
X0062780Y0027962D01*
X0064314Y0027962D01*
X0065081Y0027195D01*
X0065081Y0024126D01*
X0064314Y0023358D01*
X0062780Y0023358D01*
X0062012Y0024126D01*
X0061231Y0022165D02*
X0060463Y0022165D01*
X0059696Y0021398D01*
X0059696Y0019863D01*
X0060463Y0019096D01*
X0061231Y0022165D02*
X0064300Y0019096D01*
X0064300Y0022165D01*
X0066616Y0023358D02*
X0066616Y0027962D01*
X0069685Y0023358D01*
X0069685Y0027962D01*
X0071220Y0025660D02*
X0073522Y0025660D01*
X0074289Y0024893D01*
X0074289Y0024126D01*
X0073522Y0023358D01*
X0071987Y0023358D01*
X0071220Y0024126D01*
X0071220Y0025660D01*
X0072755Y0027195D01*
X0074289Y0027962D01*
X0060478Y0027195D02*
X0059710Y0027962D01*
X0058176Y0027962D01*
X0057408Y0027195D01*
X0064300Y0017561D02*
X0064300Y0014492D01*
X0064300Y0016027D02*
X0059696Y0016027D01*
X0061231Y0014492D01*
X0060463Y0012957D02*
X0059696Y0012190D01*
X0059696Y0010656D01*
X0060463Y0009888D01*
X0063533Y0009888D01*
X0064300Y0010656D01*
X0064300Y0012190D01*
X0063533Y0012957D01*
X0039300Y0012759D02*
X0039300Y0014294D01*
X0038533Y0015061D01*
X0038533Y0016596D02*
X0037765Y0016596D01*
X0036998Y0017363D01*
X0036998Y0018898D01*
X0037765Y0019665D01*
X0038533Y0019665D01*
X0039300Y0018898D01*
X0039300Y0017363D01*
X0038533Y0016596D01*
X0036998Y0017363D02*
X0036231Y0016596D01*
X0035463Y0016596D01*
X0034696Y0017363D01*
X0034696Y0018898D01*
X0035463Y0019665D01*
X0036231Y0019665D01*
X0036998Y0018898D01*
X0035463Y0015061D02*
X0034696Y0014294D01*
X0034696Y0012759D01*
X0035463Y0011992D01*
X0038533Y0011992D01*
X0039300Y0012759D01*
X0008468Y0063565D02*
X0005399Y0063565D01*
X0004632Y0064332D01*
X0004632Y0065866D01*
X0005399Y0066634D01*
X0005399Y0068168D02*
X0008468Y0068168D01*
X0009236Y0068936D01*
X0009236Y0070470D01*
X0008468Y0071238D01*
X0005399Y0071238D01*
X0004632Y0070470D01*
X0004632Y0068936D01*
X0005399Y0068168D01*
X0008468Y0066634D02*
X0009236Y0065866D01*
X0009236Y0064332D01*
X0008468Y0063565D01*
X0009236Y0072772D02*
X0004632Y0072772D01*
X0009236Y0075842D01*
X0004632Y0075842D01*
X0004632Y0077376D02*
X0006934Y0077376D01*
X0006166Y0078911D01*
X0006166Y0079678D01*
X0006934Y0080446D01*
X0008468Y0080446D01*
X0009236Y0079678D01*
X0009236Y0078144D01*
X0008468Y0077376D01*
X0004632Y0077376D02*
X0004632Y0080446D01*
X0014324Y0102784D02*
X0012790Y0104318D01*
X0017394Y0104318D01*
X0017394Y0102784D02*
X0017394Y0105853D01*
X0047696Y0121992D02*
X0047696Y0124294D01*
X0048463Y0125061D01*
X0049998Y0125061D01*
X0050765Y0124294D01*
X0050765Y0121992D01*
X0050765Y0123527D02*
X0052300Y0125061D01*
X0052300Y0126596D02*
X0049231Y0129665D01*
X0048463Y0129665D01*
X0047696Y0128898D01*
X0047696Y0127363D01*
X0048463Y0126596D01*
X0052300Y0126596D02*
X0052300Y0129665D01*
X0056446Y0130488D02*
X0056446Y0132023D01*
X0057213Y0132790D01*
X0057981Y0132790D01*
X0058748Y0132023D01*
X0059515Y0132790D01*
X0060283Y0132790D01*
X0061050Y0132023D01*
X0061050Y0130488D01*
X0060283Y0129721D01*
X0061050Y0128186D02*
X0059515Y0126652D01*
X0059515Y0127419D02*
X0059515Y0125117D01*
X0061050Y0125117D02*
X0056446Y0125117D01*
X0056446Y0127419D01*
X0057213Y0128186D01*
X0058748Y0128186D01*
X0059515Y0127419D01*
X0057213Y0129721D02*
X0056446Y0130488D01*
X0058748Y0131256D02*
X0058748Y0132023D01*
X0052300Y0121992D02*
X0047696Y0121992D01*
X0050290Y0149888D02*
X0051824Y0151422D01*
X0050290Y0152957D01*
X0054894Y0152957D01*
X0054894Y0154491D02*
X0051824Y0157561D01*
X0051057Y0157561D01*
X0050290Y0156793D01*
X0050290Y0155259D01*
X0051057Y0154491D01*
X0054894Y0154491D02*
X0054894Y0157561D01*
X0054894Y0149888D02*
X0050290Y0149888D01*
X0052093Y0179542D02*
X0053628Y0179542D01*
X0054395Y0180309D01*
X0055930Y0180309D02*
X0056697Y0179542D01*
X0058232Y0179542D01*
X0058999Y0180309D01*
X0058999Y0183378D01*
X0058232Y0184146D01*
X0056697Y0184146D01*
X0055930Y0183378D01*
X0055930Y0180309D01*
X0054395Y0183378D02*
X0053628Y0184146D01*
X0052093Y0184146D01*
X0051326Y0183378D01*
X0051326Y0180309D01*
X0052093Y0179542D01*
X0060534Y0179542D02*
X0060534Y0184146D01*
X0063603Y0179542D01*
X0063603Y0184146D01*
X0065138Y0183378D02*
X0065905Y0184146D01*
X0067440Y0184146D01*
X0068207Y0183378D01*
X0068207Y0182611D01*
X0067440Y0181844D01*
X0068207Y0181076D01*
X0068207Y0180309D01*
X0067440Y0179542D01*
X0065905Y0179542D01*
X0065138Y0180309D01*
X0066672Y0181844D02*
X0067440Y0181844D01*
X0100690Y0195200D02*
X0103759Y0195200D01*
X0102224Y0195200D02*
X0102224Y0199804D01*
X0100690Y0198269D01*
X0141326Y0183378D02*
X0141326Y0180309D01*
X0142093Y0179542D01*
X0143628Y0179542D01*
X0144395Y0180309D01*
X0145930Y0180309D02*
X0146697Y0179542D01*
X0148232Y0179542D01*
X0148999Y0180309D01*
X0148999Y0183378D01*
X0148232Y0184146D01*
X0146697Y0184146D01*
X0145930Y0183378D01*
X0145930Y0180309D01*
X0144395Y0183378D02*
X0143628Y0184146D01*
X0142093Y0184146D01*
X0141326Y0183378D01*
X0150534Y0184146D02*
X0150534Y0179542D01*
X0153603Y0179542D02*
X0153603Y0184146D01*
X0155138Y0183378D02*
X0155905Y0184146D01*
X0157440Y0184146D01*
X0158207Y0183378D01*
X0158207Y0182611D01*
X0155138Y0179542D01*
X0158207Y0179542D01*
X0153603Y0179542D02*
X0150534Y0184146D01*
X0157794Y0174491D02*
X0159328Y0172957D01*
X0160863Y0174491D01*
X0160863Y0169888D01*
X0162398Y0169888D02*
X0165467Y0169888D01*
X0163932Y0169888D02*
X0163932Y0174491D01*
X0162398Y0172957D01*
X0157794Y0174491D02*
X0157794Y0169888D01*
X0185690Y0195200D02*
X0188759Y0195200D01*
X0187224Y0195200D02*
X0187224Y0199804D01*
X0185690Y0198269D01*
X0099894Y0136793D02*
X0099894Y0135259D01*
X0099126Y0134491D01*
X0097592Y0134491D02*
X0096824Y0136026D01*
X0096824Y0136793D01*
X0097592Y0137561D01*
X0099126Y0137561D01*
X0099894Y0136793D01*
X0097592Y0134491D02*
X0095290Y0134491D01*
X0095290Y0137561D01*
X0095290Y0132957D02*
X0099894Y0132957D01*
X0099894Y0129887D02*
X0095290Y0129887D01*
X0096824Y0131422D01*
X0095290Y0132957D01*
X0164509Y0117259D02*
X0164509Y0114190D01*
X0164509Y0112655D02*
X0169113Y0112655D01*
X0169113Y0114190D02*
X0168345Y0114190D01*
X0165276Y0117259D01*
X0164509Y0117259D01*
X0164509Y0112655D02*
X0166043Y0111121D01*
X0164509Y0109586D01*
X0169113Y0109586D01*
X0017394Y0189659D02*
X0017394Y0192728D01*
X0017394Y0191193D02*
X0012790Y0191193D01*
X0014324Y0189659D01*
X0006688Y0170301D02*
X0006688Y0167232D01*
X0004386Y0169533D01*
X0008989Y0169533D01*
X0008989Y0165697D02*
X0004386Y0165697D01*
X0004386Y0162628D02*
X0008989Y0165697D01*
X0008989Y0162628D02*
X0004386Y0162628D01*
X0005153Y0161093D02*
X0004386Y0160326D01*
X0004386Y0158791D01*
X0005153Y0158024D01*
X0008222Y0158024D01*
X0008989Y0158791D01*
X0008989Y0160326D01*
X0008222Y0161093D01*
X0005153Y0161093D01*
X0005153Y0156489D02*
X0004386Y0155722D01*
X0004386Y0154187D01*
X0005153Y0153420D01*
X0008222Y0153420D01*
X0008989Y0154187D01*
X0008989Y0155722D01*
X0008222Y0156489D01*
D12*
X0028302Y0186201D02*
X0111767Y0186201D01*
X0111767Y0200925D01*
X0028302Y0200925D01*
X0028302Y0186201D01*
X0026393Y0200736D02*
X0011669Y0200736D01*
X0011669Y0117271D01*
X0026393Y0117271D01*
X0026393Y0200736D01*
X0001500Y0215000D02*
X0001544Y0215413D01*
X0001599Y0215824D01*
X0001663Y0216235D01*
X0001737Y0216643D01*
X0001822Y0217050D01*
X0001915Y0217454D01*
X0002019Y0217856D01*
X0002132Y0218256D01*
X0002255Y0218653D01*
X0002388Y0219046D01*
X0002530Y0219436D01*
X0002681Y0219823D01*
X0002842Y0220206D01*
X0003012Y0220585D01*
X0003191Y0220960D01*
X0003379Y0221330D01*
X0003576Y0221695D01*
X0003781Y0222056D01*
X0003996Y0222412D01*
X0004219Y0222762D01*
X0004450Y0223107D01*
X0004689Y0223446D01*
X0004937Y0223780D01*
X0005193Y0224107D01*
X0005456Y0224428D01*
X0005727Y0224743D01*
X0006006Y0225050D01*
X0006292Y0225351D01*
X0006585Y0225646D01*
X0006885Y0225932D01*
X0007192Y0226212D01*
X0007506Y0226484D01*
X0007826Y0226748D01*
X0008153Y0227005D01*
X0008485Y0227254D01*
X0008824Y0227494D01*
X0009168Y0227726D01*
X0009518Y0227950D01*
X0009873Y0228166D01*
X0010233Y0228372D01*
X0010598Y0228570D01*
X0010968Y0228759D01*
X0011342Y0228939D01*
X0011721Y0229110D01*
X0012103Y0229272D01*
X0012489Y0229425D01*
X0012879Y0229568D01*
X0013272Y0229701D01*
X0013669Y0229825D01*
X0014068Y0229940D01*
X0014470Y0230045D01*
X0014874Y0230140D01*
X0015280Y0230225D01*
X0015689Y0230301D01*
X0016099Y0230366D01*
X0016510Y0230422D01*
X0016923Y0230467D01*
X0017337Y0230503D01*
X0017751Y0230529D01*
X0018166Y0230544D01*
X0018581Y0230550D01*
X0018996Y0230546D01*
X0019411Y0230531D01*
X0019826Y0230507D01*
X0020240Y0230472D01*
X0316461Y0230472D01*
X0316461Y0230473D02*
X0316931Y0230480D01*
X0317401Y0230476D01*
X0317871Y0230460D01*
X0318340Y0230432D01*
X0318809Y0230394D01*
X0319277Y0230343D01*
X0319743Y0230282D01*
X0320207Y0230208D01*
X0320670Y0230124D01*
X0321130Y0230028D01*
X0321588Y0229921D01*
X0322043Y0229802D01*
X0322495Y0229673D01*
X0322944Y0229532D01*
X0323389Y0229380D01*
X0323831Y0229218D01*
X0324268Y0229045D01*
X0324701Y0228861D01*
X0325129Y0228666D01*
X0325552Y0228462D01*
X0325970Y0228246D01*
X0326383Y0228021D01*
X0326790Y0227785D01*
X0327191Y0227540D01*
X0327586Y0227285D01*
X0327975Y0227020D01*
X0328357Y0226746D01*
X0328732Y0226462D01*
X0329100Y0226169D01*
X0329461Y0225868D01*
X0329814Y0225557D01*
X0330160Y0225238D01*
X0330497Y0224911D01*
X0330827Y0224576D01*
X0331148Y0224232D01*
X0331461Y0223881D01*
X0331765Y0223522D01*
X0332060Y0223156D01*
X0332346Y0222782D01*
X0332622Y0222402D01*
X0332890Y0222015D01*
X0333147Y0221622D01*
X0333395Y0221222D01*
X0333633Y0220817D01*
X0333862Y0220405D01*
X0334079Y0219989D01*
X0334287Y0219567D01*
X0334484Y0219140D01*
X0334671Y0218708D01*
X0334847Y0218272D01*
X0335012Y0217832D01*
X0335167Y0217388D01*
X0335310Y0216940D01*
X0335442Y0216489D01*
X0335564Y0216034D01*
X0335674Y0215577D01*
X0335773Y0215117D01*
X0335860Y0214655D01*
X0335937Y0214191D01*
X0336001Y0213725D01*
X0336055Y0213258D01*
X0336096Y0212790D01*
X0336127Y0212320D01*
X0336146Y0211850D01*
X0336146Y0115236D01*
X0245594Y0115236D01*
X0245594Y0005000D01*
X0020240Y0005000D01*
X0019772Y0005021D01*
X0019305Y0005053D01*
X0018839Y0005097D01*
X0018374Y0005151D01*
X0017910Y0005217D01*
X0017448Y0005295D01*
X0016988Y0005383D01*
X0016530Y0005482D01*
X0016075Y0005592D01*
X0015623Y0005714D01*
X0015174Y0005846D01*
X0014728Y0005989D01*
X0014285Y0006143D01*
X0013847Y0006307D01*
X0013412Y0006482D01*
X0012982Y0006668D01*
X0012557Y0006864D01*
X0012136Y0007070D01*
X0011721Y0007286D01*
X0011311Y0007512D01*
X0010906Y0007748D01*
X0010507Y0007993D01*
X0010115Y0008248D01*
X0009728Y0008513D01*
X0009348Y0008787D01*
X0008975Y0009070D01*
X0008609Y0009362D01*
X0008250Y0009662D01*
X0007898Y0009972D01*
X0007554Y0010289D01*
X0007218Y0010615D01*
X0006889Y0010949D01*
X0006569Y0011291D01*
X0006257Y0011640D01*
X0005954Y0011997D01*
X0005659Y0012361D01*
X0005373Y0012732D01*
X0005097Y0013110D01*
X0004829Y0013494D01*
X0004571Y0013885D01*
X0004323Y0014282D01*
X0004084Y0014685D01*
X0003855Y0015093D01*
X0003635Y0015507D01*
X0003426Y0015926D01*
X0003227Y0016350D01*
X0003039Y0016779D01*
X0002860Y0017212D01*
X0002693Y0017649D01*
X0002536Y0018090D01*
X0002389Y0018535D01*
X0002254Y0018983D01*
X0002129Y0019435D01*
X0002015Y0019889D01*
X0001912Y0020346D01*
X0001821Y0020805D01*
X0001740Y0021267D01*
X0001671Y0021730D01*
X0001612Y0022195D01*
X0001566Y0022661D01*
X0001530Y0023128D01*
X0001505Y0023595D01*
X0001492Y0024063D01*
X0001491Y0024532D01*
X0001500Y0025000D01*
X0001500Y0215000D01*
X0006746Y0214000D02*
X0011250Y0217003D01*
X0011250Y0218604D02*
X0011250Y0221606D01*
X0011250Y0220105D02*
X0006746Y0220105D01*
X0008247Y0218604D01*
X0006746Y0217003D02*
X0011250Y0214000D01*
X0113302Y0200925D02*
X0113302Y0186201D01*
X0196767Y0186201D01*
X0196767Y0200925D01*
X0113302Y0200925D01*
X0199732Y0200854D02*
X0199732Y0117389D01*
X0214456Y0117389D01*
X0214456Y0200854D01*
X0199732Y0200854D01*
X0218075Y0156986D02*
X0232799Y0156986D01*
X0232799Y0073521D01*
X0218075Y0073521D01*
X0218075Y0156986D01*
X0265015Y0141250D02*
X0265017Y0141308D01*
X0265023Y0141366D01*
X0265033Y0141423D01*
X0265046Y0141480D01*
X0265064Y0141535D01*
X0265085Y0141589D01*
X0265109Y0141642D01*
X0265138Y0141693D01*
X0265169Y0141741D01*
X0265204Y0141788D01*
X0265242Y0141832D01*
X0265282Y0141873D01*
X0265326Y0141912D01*
X0265372Y0141947D01*
X0265420Y0141980D01*
X0265470Y0142009D01*
X0265523Y0142034D01*
X0265576Y0142056D01*
X0265631Y0142075D01*
X0265688Y0142089D01*
X0265745Y0142100D01*
X0265802Y0142107D01*
X0265860Y0142110D01*
X0265919Y0142109D01*
X0265976Y0142104D01*
X0266034Y0142095D01*
X0266091Y0142083D01*
X0266146Y0142066D01*
X0266201Y0142046D01*
X0266254Y0142022D01*
X0266305Y0141995D01*
X0266354Y0141964D01*
X0266401Y0141930D01*
X0266446Y0141893D01*
X0266488Y0141853D01*
X0266528Y0141810D01*
X0266564Y0141765D01*
X0266597Y0141717D01*
X0266627Y0141667D01*
X0266653Y0141616D01*
X0266676Y0141562D01*
X0266696Y0141507D01*
X0266711Y0141451D01*
X0266723Y0141395D01*
X0266731Y0141337D01*
X0266735Y0141279D01*
X0266735Y0141221D01*
X0266731Y0141163D01*
X0266723Y0141105D01*
X0266711Y0141049D01*
X0266696Y0140993D01*
X0266676Y0140938D01*
X0266653Y0140884D01*
X0266627Y0140833D01*
X0266597Y0140783D01*
X0266564Y0140735D01*
X0266528Y0140690D01*
X0266488Y0140647D01*
X0266446Y0140607D01*
X0266401Y0140570D01*
X0266354Y0140536D01*
X0266305Y0140505D01*
X0266254Y0140478D01*
X0266201Y0140454D01*
X0266146Y0140434D01*
X0266091Y0140417D01*
X0266034Y0140405D01*
X0265976Y0140396D01*
X0265919Y0140391D01*
X0265860Y0140390D01*
X0265802Y0140393D01*
X0265745Y0140400D01*
X0265688Y0140411D01*
X0265631Y0140425D01*
X0265576Y0140444D01*
X0265523Y0140466D01*
X0265470Y0140491D01*
X0265420Y0140520D01*
X0265372Y0140553D01*
X0265326Y0140588D01*
X0265282Y0140627D01*
X0265242Y0140668D01*
X0265204Y0140712D01*
X0265169Y0140759D01*
X0265138Y0140807D01*
X0265109Y0140858D01*
X0265085Y0140911D01*
X0265064Y0140965D01*
X0265046Y0141020D01*
X0265033Y0141077D01*
X0265023Y0141134D01*
X0265017Y0141192D01*
X0265015Y0141250D01*
X0265775Y0141250D02*
X0265777Y0141270D01*
X0265783Y0141288D01*
X0265792Y0141306D01*
X0265804Y0141321D01*
X0265819Y0141333D01*
X0265837Y0141342D01*
X0265855Y0141348D01*
X0265875Y0141350D01*
X0265895Y0141348D01*
X0265913Y0141342D01*
X0265931Y0141333D01*
X0265946Y0141321D01*
X0265958Y0141306D01*
X0265967Y0141288D01*
X0265973Y0141270D01*
X0265975Y0141250D01*
X0265973Y0141230D01*
X0265967Y0141212D01*
X0265958Y0141194D01*
X0265946Y0141179D01*
X0265931Y0141167D01*
X0265913Y0141158D01*
X0265895Y0141152D01*
X0265875Y0141150D01*
X0265855Y0141152D01*
X0265837Y0141158D01*
X0265819Y0141167D01*
X0265804Y0141179D01*
X0265792Y0141194D01*
X0265783Y0141212D01*
X0265777Y0141230D01*
X0265775Y0141250D01*
X0265375Y0141250D02*
X0265377Y0141294D01*
X0265383Y0141338D01*
X0265393Y0141381D01*
X0265406Y0141423D01*
X0265423Y0141464D01*
X0265444Y0141503D01*
X0265468Y0141540D01*
X0265495Y0141575D01*
X0265525Y0141607D01*
X0265558Y0141637D01*
X0265594Y0141663D01*
X0265631Y0141687D01*
X0265671Y0141706D01*
X0265712Y0141723D01*
X0265755Y0141735D01*
X0265798Y0141744D01*
X0265842Y0141749D01*
X0265886Y0141750D01*
X0265930Y0141747D01*
X0265974Y0141740D01*
X0266017Y0141729D01*
X0266059Y0141715D01*
X0266099Y0141697D01*
X0266138Y0141675D01*
X0266174Y0141651D01*
X0266208Y0141623D01*
X0266240Y0141592D01*
X0266269Y0141558D01*
X0266295Y0141522D01*
X0266317Y0141484D01*
X0266336Y0141444D01*
X0266351Y0141402D01*
X0266363Y0141360D01*
X0266371Y0141316D01*
X0266375Y0141272D01*
X0266375Y0141228D01*
X0266371Y0141184D01*
X0266363Y0141140D01*
X0266351Y0141098D01*
X0266336Y0141056D01*
X0266317Y0141016D01*
X0266295Y0140978D01*
X0266269Y0140942D01*
X0266240Y0140908D01*
X0266208Y0140877D01*
X0266174Y0140849D01*
X0266138Y0140825D01*
X0266099Y0140803D01*
X0266059Y0140785D01*
X0266017Y0140771D01*
X0265974Y0140760D01*
X0265930Y0140753D01*
X0265886Y0140750D01*
X0265842Y0140751D01*
X0265798Y0140756D01*
X0265755Y0140765D01*
X0265712Y0140777D01*
X0265671Y0140794D01*
X0265631Y0140813D01*
X0265594Y0140837D01*
X0265558Y0140863D01*
X0265525Y0140893D01*
X0265495Y0140925D01*
X0265468Y0140960D01*
X0265444Y0140997D01*
X0265423Y0141036D01*
X0265406Y0141077D01*
X0265393Y0141119D01*
X0265383Y0141162D01*
X0265377Y0141206D01*
X0265375Y0141250D01*
X0279983Y0127579D02*
X0281484Y0127579D01*
X0280733Y0127579D02*
X0280733Y0123826D01*
X0279983Y0123075D01*
X0279232Y0123075D01*
X0278481Y0123826D01*
X0283085Y0124576D02*
X0285337Y0124576D01*
X0286088Y0125327D01*
X0286088Y0126828D01*
X0285337Y0127579D01*
X0283085Y0127579D01*
X0283085Y0123075D01*
X0287689Y0123075D02*
X0290692Y0123075D01*
X0289190Y0123075D02*
X0289190Y0127579D01*
X0287689Y0126078D01*
X0320988Y0121732D02*
X0332012Y0121732D01*
X0332012Y0138268D01*
X0320988Y0138268D01*
X0320988Y0121732D01*
X0325713Y0125669D02*
X0327287Y0125669D01*
X0327382Y0125671D01*
X0327477Y0125677D01*
X0327572Y0125686D01*
X0327666Y0125700D01*
X0327759Y0125717D01*
X0327852Y0125738D01*
X0327944Y0125762D01*
X0328035Y0125791D01*
X0328125Y0125822D01*
X0328213Y0125858D01*
X0328300Y0125897D01*
X0328385Y0125940D01*
X0328468Y0125985D01*
X0328549Y0126035D01*
X0328629Y0126087D01*
X0328706Y0126143D01*
X0328781Y0126201D01*
X0328853Y0126263D01*
X0328923Y0126328D01*
X0328990Y0126395D01*
X0329055Y0126465D01*
X0329117Y0126537D01*
X0329175Y0126612D01*
X0329231Y0126689D01*
X0329283Y0126769D01*
X0329333Y0126850D01*
X0329378Y0126933D01*
X0329421Y0127018D01*
X0329460Y0127105D01*
X0329496Y0127193D01*
X0329527Y0127283D01*
X0329556Y0127374D01*
X0329580Y0127466D01*
X0329601Y0127559D01*
X0329618Y0127652D01*
X0329632Y0127746D01*
X0329641Y0127841D01*
X0329647Y0127936D01*
X0329649Y0128031D01*
X0329650Y0128031D02*
X0329650Y0131969D01*
X0329649Y0131969D02*
X0329647Y0132064D01*
X0329641Y0132159D01*
X0329632Y0132254D01*
X0329618Y0132348D01*
X0329601Y0132441D01*
X0329580Y0132534D01*
X0329556Y0132626D01*
X0329527Y0132717D01*
X0329496Y0132807D01*
X0329460Y0132895D01*
X0329421Y0132982D01*
X0329378Y0133067D01*
X0329333Y0133150D01*
X0329283Y0133231D01*
X0329231Y0133311D01*
X0329175Y0133388D01*
X0329117Y0133463D01*
X0329055Y0133535D01*
X0328990Y0133605D01*
X0328923Y0133672D01*
X0328853Y0133737D01*
X0328781Y0133799D01*
X0328706Y0133857D01*
X0328629Y0133913D01*
X0328549Y0133965D01*
X0328468Y0134015D01*
X0328385Y0134060D01*
X0328300Y0134103D01*
X0328213Y0134142D01*
X0328125Y0134178D01*
X0328035Y0134209D01*
X0327944Y0134238D01*
X0327852Y0134262D01*
X0327759Y0134283D01*
X0327666Y0134300D01*
X0327572Y0134314D01*
X0327477Y0134323D01*
X0327382Y0134329D01*
X0327287Y0134331D01*
X0325713Y0134331D01*
X0325618Y0134329D01*
X0325523Y0134323D01*
X0325428Y0134314D01*
X0325334Y0134300D01*
X0325241Y0134283D01*
X0325148Y0134262D01*
X0325056Y0134238D01*
X0324965Y0134209D01*
X0324875Y0134178D01*
X0324787Y0134142D01*
X0324700Y0134103D01*
X0324615Y0134060D01*
X0324532Y0134015D01*
X0324451Y0133965D01*
X0324371Y0133913D01*
X0324294Y0133857D01*
X0324219Y0133799D01*
X0324147Y0133737D01*
X0324077Y0133672D01*
X0324010Y0133605D01*
X0323945Y0133535D01*
X0323883Y0133463D01*
X0323825Y0133388D01*
X0323769Y0133311D01*
X0323717Y0133231D01*
X0323667Y0133150D01*
X0323622Y0133067D01*
X0323579Y0132982D01*
X0323540Y0132895D01*
X0323504Y0132807D01*
X0323473Y0132717D01*
X0323444Y0132626D01*
X0323420Y0132534D01*
X0323399Y0132441D01*
X0323382Y0132348D01*
X0323368Y0132254D01*
X0323359Y0132159D01*
X0323353Y0132064D01*
X0323351Y0131969D01*
X0323350Y0131969D02*
X0323350Y0128031D01*
X0323351Y0128031D02*
X0323353Y0127936D01*
X0323359Y0127841D01*
X0323368Y0127746D01*
X0323382Y0127652D01*
X0323399Y0127559D01*
X0323420Y0127466D01*
X0323444Y0127374D01*
X0323473Y0127283D01*
X0323504Y0127193D01*
X0323540Y0127105D01*
X0323579Y0127018D01*
X0323622Y0126933D01*
X0323667Y0126850D01*
X0323717Y0126769D01*
X0323769Y0126689D01*
X0323825Y0126612D01*
X0323883Y0126537D01*
X0323945Y0126465D01*
X0324010Y0126395D01*
X0324077Y0126328D01*
X0324147Y0126263D01*
X0324219Y0126201D01*
X0324294Y0126143D01*
X0324371Y0126087D01*
X0324451Y0126035D01*
X0324532Y0125985D01*
X0324615Y0125940D01*
X0324700Y0125897D01*
X0324787Y0125858D01*
X0324875Y0125822D01*
X0324965Y0125791D01*
X0325056Y0125762D01*
X0325148Y0125738D01*
X0325241Y0125717D01*
X0325334Y0125700D01*
X0325428Y0125686D01*
X0325523Y0125677D01*
X0325618Y0125671D01*
X0325713Y0125669D01*
X0325652Y0159636D02*
X0330156Y0162638D01*
X0330156Y0164240D02*
X0327154Y0167242D01*
X0326403Y0167242D01*
X0325652Y0166492D01*
X0325652Y0164990D01*
X0326403Y0164240D01*
X0325652Y0162638D02*
X0330156Y0159636D01*
X0330156Y0164240D02*
X0330156Y0167242D01*
X0308688Y0179094D02*
X0305688Y0176094D01*
X0300688Y0176094D01*
X0298688Y0178094D01*
X0296688Y0176094D01*
X0290688Y0176094D01*
X0288688Y0178094D01*
X0286688Y0176094D01*
X0281688Y0176094D01*
X0278688Y0179094D01*
X0278688Y0193094D01*
X0281688Y0196094D01*
X0286688Y0196094D01*
X0288688Y0194094D01*
X0290688Y0196094D01*
X0296688Y0196094D01*
X0298688Y0194094D01*
X0300688Y0196094D01*
X0305688Y0196094D01*
X0308688Y0193094D01*
X0308688Y0179094D01*
X0214456Y0113354D02*
X0199732Y0113354D01*
X0199732Y0029889D01*
X0214456Y0029889D01*
X0214456Y0113354D01*
X0197198Y0045049D02*
X0113733Y0045049D01*
X0113733Y0030325D01*
X0197198Y0030325D01*
X0197198Y0045049D01*
X0112198Y0045049D02*
X0112198Y0030325D01*
X0028733Y0030325D01*
X0028733Y0045049D01*
X0112198Y0045049D01*
X0026393Y0030396D02*
X0026393Y0113861D01*
X0011669Y0113861D01*
X0011669Y0030396D01*
X0026393Y0030396D01*
D13*
X0065094Y0069875D03*
X0110094Y0098312D03*
X0155094Y0112062D03*
X0160094Y0162313D03*
D14*
X0052750Y0202500D02*
X0012750Y0202500D01*
X0012750Y0220000D01*
X0052750Y0220000D01*
X0052750Y0202500D01*
X0052750Y0220000D02*
X0052750Y0227500D01*
X0012750Y0227500D01*
X0012750Y0220000D01*
X0310406Y0198594D02*
X0310406Y0168594D01*
X0327906Y0168594D01*
X0327906Y0198594D01*
X0335406Y0198594D01*
X0335406Y0168594D01*
X0327906Y0168594D01*
X0327906Y0198594D02*
X0310406Y0198594D01*
D15*
X0297063Y0176875D02*
X0297063Y0172875D01*
X0297063Y0176875D01*
X0297063Y0172875D01*
X0297063Y0176875D01*
X0308863Y0165875D02*
X0309563Y0165875D01*
X0309563Y0165175D01*
X0282263Y0165875D02*
X0281563Y0165875D01*
X0281563Y0165175D01*
X0273000Y0170000D02*
X0273000Y0160000D01*
X0272998Y0159940D01*
X0272993Y0159879D01*
X0272984Y0159820D01*
X0272971Y0159761D01*
X0272955Y0159702D01*
X0272935Y0159645D01*
X0272912Y0159590D01*
X0272885Y0159535D01*
X0272856Y0159483D01*
X0272823Y0159432D01*
X0272787Y0159383D01*
X0272749Y0159337D01*
X0272707Y0159293D01*
X0272663Y0159251D01*
X0272617Y0159213D01*
X0272568Y0159177D01*
X0272517Y0159144D01*
X0272465Y0159115D01*
X0272410Y0159088D01*
X0272355Y0159065D01*
X0272298Y0159045D01*
X0272239Y0159029D01*
X0272180Y0159016D01*
X0272121Y0159007D01*
X0272060Y0159002D01*
X0272000Y0159000D01*
X0266000Y0159000D01*
X0265940Y0159002D01*
X0265879Y0159007D01*
X0265820Y0159016D01*
X0265761Y0159029D01*
X0265702Y0159045D01*
X0265645Y0159065D01*
X0265590Y0159088D01*
X0265535Y0159115D01*
X0265483Y0159144D01*
X0265432Y0159177D01*
X0265383Y0159213D01*
X0265337Y0159251D01*
X0265293Y0159293D01*
X0265251Y0159337D01*
X0265213Y0159383D01*
X0265177Y0159432D01*
X0265144Y0159483D01*
X0265115Y0159535D01*
X0265088Y0159590D01*
X0265065Y0159645D01*
X0265045Y0159702D01*
X0265029Y0159761D01*
X0265016Y0159820D01*
X0265007Y0159879D01*
X0265002Y0159940D01*
X0265000Y0160000D01*
X0265000Y0170000D01*
X0265002Y0170060D01*
X0265007Y0170121D01*
X0265016Y0170180D01*
X0265029Y0170239D01*
X0265045Y0170298D01*
X0265065Y0170355D01*
X0265088Y0170410D01*
X0265115Y0170465D01*
X0265144Y0170517D01*
X0265177Y0170568D01*
X0265213Y0170617D01*
X0265251Y0170663D01*
X0265293Y0170707D01*
X0265337Y0170749D01*
X0265383Y0170787D01*
X0265432Y0170823D01*
X0265483Y0170856D01*
X0265535Y0170885D01*
X0265590Y0170912D01*
X0265645Y0170935D01*
X0265702Y0170955D01*
X0265761Y0170971D01*
X0265820Y0170984D01*
X0265879Y0170993D01*
X0265940Y0170998D01*
X0266000Y0171000D01*
X0272000Y0171000D01*
X0272060Y0170998D01*
X0272121Y0170993D01*
X0272180Y0170984D01*
X0272239Y0170971D01*
X0272298Y0170955D01*
X0272355Y0170935D01*
X0272410Y0170912D01*
X0272465Y0170885D01*
X0272517Y0170856D01*
X0272568Y0170823D01*
X0272617Y0170787D01*
X0272663Y0170749D01*
X0272707Y0170707D01*
X0272749Y0170663D01*
X0272787Y0170617D01*
X0272823Y0170568D01*
X0272856Y0170517D01*
X0272885Y0170465D01*
X0272912Y0170410D01*
X0272935Y0170355D01*
X0272955Y0170298D01*
X0272971Y0170239D01*
X0272984Y0170180D01*
X0272993Y0170121D01*
X0272998Y0170060D01*
X0273000Y0170000D01*
X0263000Y0172500D02*
X0263000Y0182500D01*
X0262998Y0182560D01*
X0262993Y0182621D01*
X0262984Y0182680D01*
X0262971Y0182739D01*
X0262955Y0182798D01*
X0262935Y0182855D01*
X0262912Y0182910D01*
X0262885Y0182965D01*
X0262856Y0183017D01*
X0262823Y0183068D01*
X0262787Y0183117D01*
X0262749Y0183163D01*
X0262707Y0183207D01*
X0262663Y0183249D01*
X0262617Y0183287D01*
X0262568Y0183323D01*
X0262517Y0183356D01*
X0262465Y0183385D01*
X0262410Y0183412D01*
X0262355Y0183435D01*
X0262298Y0183455D01*
X0262239Y0183471D01*
X0262180Y0183484D01*
X0262121Y0183493D01*
X0262060Y0183498D01*
X0262000Y0183500D01*
X0256000Y0183500D01*
X0255940Y0183498D01*
X0255879Y0183493D01*
X0255820Y0183484D01*
X0255761Y0183471D01*
X0255702Y0183455D01*
X0255645Y0183435D01*
X0255590Y0183412D01*
X0255535Y0183385D01*
X0255483Y0183356D01*
X0255432Y0183323D01*
X0255383Y0183287D01*
X0255337Y0183249D01*
X0255293Y0183207D01*
X0255251Y0183163D01*
X0255213Y0183117D01*
X0255177Y0183068D01*
X0255144Y0183017D01*
X0255115Y0182965D01*
X0255088Y0182910D01*
X0255065Y0182855D01*
X0255045Y0182798D01*
X0255029Y0182739D01*
X0255016Y0182680D01*
X0255007Y0182621D01*
X0255002Y0182560D01*
X0255000Y0182500D01*
X0255000Y0172500D01*
X0255002Y0172440D01*
X0255007Y0172379D01*
X0255016Y0172320D01*
X0255029Y0172261D01*
X0255045Y0172202D01*
X0255065Y0172145D01*
X0255088Y0172090D01*
X0255115Y0172035D01*
X0255144Y0171983D01*
X0255177Y0171932D01*
X0255213Y0171883D01*
X0255251Y0171837D01*
X0255293Y0171793D01*
X0255337Y0171751D01*
X0255383Y0171713D01*
X0255432Y0171677D01*
X0255483Y0171644D01*
X0255535Y0171615D01*
X0255590Y0171588D01*
X0255645Y0171565D01*
X0255702Y0171545D01*
X0255761Y0171529D01*
X0255820Y0171516D01*
X0255879Y0171507D01*
X0255940Y0171502D01*
X0256000Y0171500D01*
X0262000Y0171500D01*
X0262060Y0171502D01*
X0262121Y0171507D01*
X0262180Y0171516D01*
X0262239Y0171529D01*
X0262298Y0171545D01*
X0262355Y0171565D01*
X0262410Y0171588D01*
X0262465Y0171615D01*
X0262517Y0171644D01*
X0262568Y0171677D01*
X0262617Y0171713D01*
X0262663Y0171751D01*
X0262707Y0171793D01*
X0262749Y0171837D01*
X0262787Y0171883D01*
X0262823Y0171932D01*
X0262856Y0171983D01*
X0262885Y0172035D01*
X0262912Y0172090D01*
X0262935Y0172145D01*
X0262955Y0172202D01*
X0262971Y0172261D01*
X0262984Y0172320D01*
X0262993Y0172379D01*
X0262998Y0172440D01*
X0263000Y0172500D01*
X0252000Y0184000D02*
X0246000Y0184000D01*
X0245940Y0184002D01*
X0245879Y0184007D01*
X0245820Y0184016D01*
X0245761Y0184029D01*
X0245702Y0184045D01*
X0245645Y0184065D01*
X0245590Y0184088D01*
X0245535Y0184115D01*
X0245483Y0184144D01*
X0245432Y0184177D01*
X0245383Y0184213D01*
X0245337Y0184251D01*
X0245293Y0184293D01*
X0245251Y0184337D01*
X0245213Y0184383D01*
X0245177Y0184432D01*
X0245144Y0184483D01*
X0245115Y0184535D01*
X0245088Y0184590D01*
X0245065Y0184645D01*
X0245045Y0184702D01*
X0245029Y0184761D01*
X0245016Y0184820D01*
X0245007Y0184879D01*
X0245002Y0184940D01*
X0245000Y0185000D01*
X0245000Y0195000D01*
X0245002Y0195060D01*
X0245007Y0195121D01*
X0245016Y0195180D01*
X0245029Y0195239D01*
X0245045Y0195298D01*
X0245065Y0195355D01*
X0245088Y0195410D01*
X0245115Y0195465D01*
X0245144Y0195517D01*
X0245177Y0195568D01*
X0245213Y0195617D01*
X0245251Y0195663D01*
X0245293Y0195707D01*
X0245337Y0195749D01*
X0245383Y0195787D01*
X0245432Y0195823D01*
X0245483Y0195856D01*
X0245535Y0195885D01*
X0245590Y0195912D01*
X0245645Y0195935D01*
X0245702Y0195955D01*
X0245761Y0195971D01*
X0245820Y0195984D01*
X0245879Y0195993D01*
X0245940Y0195998D01*
X0246000Y0196000D01*
X0252000Y0196000D01*
X0252060Y0195998D01*
X0252121Y0195993D01*
X0252180Y0195984D01*
X0252239Y0195971D01*
X0252298Y0195955D01*
X0252355Y0195935D01*
X0252410Y0195912D01*
X0252465Y0195885D01*
X0252517Y0195856D01*
X0252568Y0195823D01*
X0252617Y0195787D01*
X0252663Y0195749D01*
X0252707Y0195707D01*
X0252749Y0195663D01*
X0252787Y0195617D01*
X0252823Y0195568D01*
X0252856Y0195517D01*
X0252885Y0195465D01*
X0252912Y0195410D01*
X0252935Y0195355D01*
X0252955Y0195298D01*
X0252971Y0195239D01*
X0252984Y0195180D01*
X0252993Y0195121D01*
X0252998Y0195060D01*
X0253000Y0195000D01*
X0253000Y0185000D01*
X0252998Y0184940D01*
X0252993Y0184879D01*
X0252984Y0184820D01*
X0252971Y0184761D01*
X0252955Y0184702D01*
X0252935Y0184645D01*
X0252912Y0184590D01*
X0252885Y0184535D01*
X0252856Y0184483D01*
X0252823Y0184432D01*
X0252787Y0184383D01*
X0252749Y0184337D01*
X0252707Y0184293D01*
X0252663Y0184251D01*
X0252617Y0184213D01*
X0252568Y0184177D01*
X0252517Y0184144D01*
X0252465Y0184115D01*
X0252410Y0184088D01*
X0252355Y0184065D01*
X0252298Y0184045D01*
X0252239Y0184029D01*
X0252180Y0184016D01*
X0252121Y0184007D01*
X0252060Y0184002D01*
X0252000Y0184000D01*
X0270663Y0147175D02*
X0274663Y0147175D01*
X0283063Y0141475D02*
X0285163Y0139375D01*
X0282263Y0137875D02*
X0281563Y0137875D01*
X0281563Y0138575D01*
X0292125Y0127969D02*
X0294625Y0130469D01*
X0299625Y0130469D01*
X0302125Y0127969D01*
X0302125Y0122969D01*
X0299625Y0120469D01*
X0294625Y0120469D01*
X0292125Y0122969D01*
X0292125Y0127969D01*
X0308863Y0137875D02*
X0309563Y0137875D01*
X0309563Y0138575D01*
X0316463Y0143875D02*
X0320463Y0143875D01*
X0316463Y0143875D01*
X0320463Y0143875D01*
D16*
X0283029Y0130761D02*
X0279892Y0127625D01*
X0279892Y0129193D02*
X0283029Y0129193D01*
X0283029Y0127625D02*
X0279892Y0130761D01*
X0281460Y0130761D02*
X0281460Y0127625D01*
X0309069Y0194561D02*
X0307834Y0195795D01*
X0311538Y0195795D01*
X0311538Y0194561D02*
X0311538Y0197029D01*
D17*
X0162719Y0069688D03*
X0107469Y0134688D03*
X0062469Y0154688D03*
D18*
X0250278Y0145938D02*
X0253659Y0145938D01*
X0254759Y0141994D02*
X0254759Y0139881D01*
X0253659Y0135938D02*
X0250278Y0135938D01*
D19*
X0247969Y0147238D03*
M02*
