%
M48
M72
T01C0.02000
T02C0.02362
T03C0.03150
T04C0.03543
T05C0.03937
T06C0.11024
T07C0.12598
%
T01
X33631Y48281
X66444Y52500
X30194Y79063
X49100Y82500
X56600Y85000
X66756Y89375
X71600Y115000
X89100Y126850
X91600Y122500
X96600Y118125
X104100Y117500
X104100Y112187
X112225Y111562
X121444Y94062
X121444Y87969
X126131Y87656
X126131Y82031
X139100Y72500
X126600Y55000
X121600Y37500
X151756Y50625
X189725Y91250
X189725Y107187
X210506Y123906
X199100Y127500
X213631Y109375
X246600Y124687
X273163Y141094
X272850Y145781
X269725Y150469
X266600Y153594
X254725Y168125
X243475Y165000
X230350Y164844
X236600Y177500
X236600Y190000
X211131Y192969
X206600Y197500
X187225Y185000
X178787Y172188
X177694Y165938
X194569Y152500
X222381Y148750
X275038Y119844
X286444Y121562
X291131Y138750
X286444Y142969
X286600Y149063
X305819Y149844
X306756Y156875
X320038Y167188
X327538Y152188
X328788Y127656
X231600Y65000
X159413Y98594
X152850Y97656
X150038Y102969
X155194Y114687
X141600Y130000
X131131Y141250
X126600Y142500
X121756Y133125
X110194Y134688
X89100Y132500
X84725Y134219
X84725Y140000
X77694Y153125
X81600Y155000
X65194Y154688
X46600Y170000
X32069Y178437
X30194Y165938
X73631Y182187
X82069Y183125
X105350Y205312
X125194Y176250
X131600Y175000
X144100Y170000
X166756Y183750
X144100Y150000
X158631Y146875
X163944Y142500
X156756Y135781
X10506Y95469
X6600Y85000
T02
X251131Y198750
X254569Y180781
X264256Y166563
X268631Y164531
X284100Y172500
X291756Y153438
X291913Y148594
T03
X43006Y33750
X50880Y33750
X58754Y33750
X66628Y33750
X74502Y33750
X82376Y33750
X90250Y33750
X98124Y33750
X94187Y41624
X86313Y41624
X78439Y41624
X70565Y41624
X62691Y41624
X54817Y41624
X46943Y41624
X23068Y48506
X23068Y56380
X15194Y52443
X15194Y44569
X15194Y60317
X23068Y64254
X15194Y68191
X15194Y76065
X23068Y72128
X23068Y80002
X15194Y83939
X23068Y87876
X23068Y95750
X15194Y91813
X15194Y99687
X15194Y131444
X23068Y135381
X23068Y143255
X15194Y139318
X15194Y147192
X23068Y151129
X15194Y155066
X15194Y162940
X23068Y159003
X23068Y166877
X23068Y174751
X15194Y170814
X15194Y178688
X23068Y182625
X15194Y186562
X42576Y197500
X50450Y197500
X58324Y197500
X66198Y197500
X74072Y197500
X81946Y197500
X89820Y197500
X97694Y197500
X93757Y189626
X85883Y189626
X78009Y189626
X70135Y189626
X62261Y189626
X54387Y189626
X46513Y189626
X112340Y207598
X122340Y207598
X132340Y207598
X142340Y207598
X152340Y207598
X162340Y207598
X172340Y207598
X182340Y207598
X192340Y207598
X202340Y207598
X212340Y207598
X222340Y207598
X232340Y207598
X242340Y207598
X252340Y207598
X262340Y207598
X272340Y207598
X282340Y207598
X292340Y207598
X302340Y207598
X302340Y217598
X292340Y217598
X282340Y217598
X272340Y217598
X262340Y217598
X252340Y217598
X242340Y217598
X232340Y217598
X222340Y217598
X212340Y217598
X202340Y217598
X192340Y217598
X182340Y217598
X172340Y217598
X162340Y217598
X152340Y217598
X142340Y217598
X132340Y217598
X122340Y217598
X112340Y217598
X127576Y197500
X135450Y197500
X143324Y197500
X151198Y197500
X159072Y197500
X166946Y197500
X174820Y197500
X182694Y197500
X178757Y189626
X170883Y189626
X163009Y189626
X155135Y189626
X147261Y189626
X139387Y189626
X131513Y189626
X203257Y182744
X203257Y174870
X211131Y178807
X211131Y186681
X211131Y170933
X203257Y166996
X211131Y163059
X211131Y155185
X203257Y159122
X203257Y151248
X211131Y147311
X203257Y143374
X203257Y135500
X211131Y139437
X211131Y131563
X228944Y134938
X228944Y127064
X236818Y123127
X228944Y119190
X236818Y115253
X236818Y107379
X228944Y103442
X236818Y99505
X228944Y95568
X228944Y87694
X236818Y91631
X228944Y111316
X211131Y99181
X203257Y95244
X211131Y91307
X203257Y87370
X203257Y79496
X211131Y83433
X211131Y75559
X211131Y67685
X203257Y71622
X203257Y63748
X211131Y59811
X203257Y55874
X203257Y48000
X211131Y51937
X211131Y44062
X183124Y33750
X175250Y33750
X167376Y33750
X159502Y33750
X151628Y33750
X143754Y33750
X135880Y33750
X128006Y33750
X131943Y41624
X139817Y41624
X147691Y41624
X155565Y41624
X163439Y41624
X171313Y41624
X179187Y41624
X236818Y131001
X236818Y138875
X228944Y142813
T04
X283788Y181094
X293788Y181094
X303788Y181094
X303788Y191094
X293788Y191094
X283788Y191094
T05
X323006Y193594
X323006Y183594
X323006Y173594
X297069Y123750
X174412Y140156
X174412Y100786
X34881Y100000
X34881Y90000
X34881Y110000
X34881Y120000
X34881Y130000
X34881Y140000
X37850Y215000
X27850Y215000
X17850Y215000
X47850Y215000
X64100Y215000
X74100Y215000
T06
X94120Y211693
X322466Y211693
X94120Y18780
T07
X99881Y72500
X99881Y157500
M30
