G75*
%MOIN*%
%OFA0B0*%
%FSLAX25Y25*%
%IPPOS*%
%LPD*%
%AMOC8*
5,1,8,0,0,1.08239X$1,22.5*
%
%ADD10C,0.00000*%
%ADD11C,0.00400*%
%ADD12C,0.00500*%
%ADD13R,0.03500X0.01750*%
%ADD14C,0.01000*%
%ADD15C,0.00600*%
%ADD16C,0.00300*%
%ADD17R,0.01750X0.03500*%
D10*
X0001600Y0005000D02*
X0001600Y0232461D01*
X0337801Y0232461D01*
X0337801Y0005000D01*
X0001600Y0005000D01*
X0088608Y0018780D02*
X0088610Y0018928D01*
X0088616Y0019076D01*
X0088626Y0019224D01*
X0088640Y0019371D01*
X0088658Y0019518D01*
X0088679Y0019664D01*
X0088705Y0019810D01*
X0088735Y0019955D01*
X0088768Y0020099D01*
X0088806Y0020242D01*
X0088847Y0020384D01*
X0088892Y0020525D01*
X0088940Y0020665D01*
X0088993Y0020804D01*
X0089049Y0020941D01*
X0089109Y0021076D01*
X0089172Y0021210D01*
X0089239Y0021342D01*
X0089310Y0021472D01*
X0089384Y0021600D01*
X0089461Y0021726D01*
X0089542Y0021850D01*
X0089626Y0021972D01*
X0089713Y0022091D01*
X0089804Y0022208D01*
X0089898Y0022323D01*
X0089994Y0022435D01*
X0090094Y0022545D01*
X0090196Y0022651D01*
X0090302Y0022755D01*
X0090410Y0022856D01*
X0090521Y0022954D01*
X0090634Y0023050D01*
X0090750Y0023142D01*
X0090868Y0023231D01*
X0090989Y0023316D01*
X0091112Y0023399D01*
X0091237Y0023478D01*
X0091364Y0023554D01*
X0091493Y0023626D01*
X0091624Y0023695D01*
X0091757Y0023760D01*
X0091892Y0023821D01*
X0092028Y0023879D01*
X0092165Y0023934D01*
X0092304Y0023984D01*
X0092445Y0024031D01*
X0092586Y0024074D01*
X0092729Y0024114D01*
X0092873Y0024149D01*
X0093017Y0024181D01*
X0093163Y0024208D01*
X0093309Y0024232D01*
X0093456Y0024252D01*
X0093603Y0024268D01*
X0093750Y0024280D01*
X0093898Y0024288D01*
X0094046Y0024292D01*
X0094194Y0024292D01*
X0094342Y0024288D01*
X0094490Y0024280D01*
X0094637Y0024268D01*
X0094784Y0024252D01*
X0094931Y0024232D01*
X0095077Y0024208D01*
X0095223Y0024181D01*
X0095367Y0024149D01*
X0095511Y0024114D01*
X0095654Y0024074D01*
X0095795Y0024031D01*
X0095936Y0023984D01*
X0096075Y0023934D01*
X0096212Y0023879D01*
X0096348Y0023821D01*
X0096483Y0023760D01*
X0096616Y0023695D01*
X0096747Y0023626D01*
X0096876Y0023554D01*
X0097003Y0023478D01*
X0097128Y0023399D01*
X0097251Y0023316D01*
X0097372Y0023231D01*
X0097490Y0023142D01*
X0097606Y0023050D01*
X0097719Y0022954D01*
X0097830Y0022856D01*
X0097938Y0022755D01*
X0098044Y0022651D01*
X0098146Y0022545D01*
X0098246Y0022435D01*
X0098342Y0022323D01*
X0098436Y0022208D01*
X0098527Y0022091D01*
X0098614Y0021972D01*
X0098698Y0021850D01*
X0098779Y0021726D01*
X0098856Y0021600D01*
X0098930Y0021472D01*
X0099001Y0021342D01*
X0099068Y0021210D01*
X0099131Y0021076D01*
X0099191Y0020941D01*
X0099247Y0020804D01*
X0099300Y0020665D01*
X0099348Y0020525D01*
X0099393Y0020384D01*
X0099434Y0020242D01*
X0099472Y0020099D01*
X0099505Y0019955D01*
X0099535Y0019810D01*
X0099561Y0019664D01*
X0099582Y0019518D01*
X0099600Y0019371D01*
X0099614Y0019224D01*
X0099624Y0019076D01*
X0099630Y0018928D01*
X0099632Y0018780D01*
X0099630Y0018632D01*
X0099624Y0018484D01*
X0099614Y0018336D01*
X0099600Y0018189D01*
X0099582Y0018042D01*
X0099561Y0017896D01*
X0099535Y0017750D01*
X0099505Y0017605D01*
X0099472Y0017461D01*
X0099434Y0017318D01*
X0099393Y0017176D01*
X0099348Y0017035D01*
X0099300Y0016895D01*
X0099247Y0016756D01*
X0099191Y0016619D01*
X0099131Y0016484D01*
X0099068Y0016350D01*
X0099001Y0016218D01*
X0098930Y0016088D01*
X0098856Y0015960D01*
X0098779Y0015834D01*
X0098698Y0015710D01*
X0098614Y0015588D01*
X0098527Y0015469D01*
X0098436Y0015352D01*
X0098342Y0015237D01*
X0098246Y0015125D01*
X0098146Y0015015D01*
X0098044Y0014909D01*
X0097938Y0014805D01*
X0097830Y0014704D01*
X0097719Y0014606D01*
X0097606Y0014510D01*
X0097490Y0014418D01*
X0097372Y0014329D01*
X0097251Y0014244D01*
X0097128Y0014161D01*
X0097003Y0014082D01*
X0096876Y0014006D01*
X0096747Y0013934D01*
X0096616Y0013865D01*
X0096483Y0013800D01*
X0096348Y0013739D01*
X0096212Y0013681D01*
X0096075Y0013626D01*
X0095936Y0013576D01*
X0095795Y0013529D01*
X0095654Y0013486D01*
X0095511Y0013446D01*
X0095367Y0013411D01*
X0095223Y0013379D01*
X0095077Y0013352D01*
X0094931Y0013328D01*
X0094784Y0013308D01*
X0094637Y0013292D01*
X0094490Y0013280D01*
X0094342Y0013272D01*
X0094194Y0013268D01*
X0094046Y0013268D01*
X0093898Y0013272D01*
X0093750Y0013280D01*
X0093603Y0013292D01*
X0093456Y0013308D01*
X0093309Y0013328D01*
X0093163Y0013352D01*
X0093017Y0013379D01*
X0092873Y0013411D01*
X0092729Y0013446D01*
X0092586Y0013486D01*
X0092445Y0013529D01*
X0092304Y0013576D01*
X0092165Y0013626D01*
X0092028Y0013681D01*
X0091892Y0013739D01*
X0091757Y0013800D01*
X0091624Y0013865D01*
X0091493Y0013934D01*
X0091364Y0014006D01*
X0091237Y0014082D01*
X0091112Y0014161D01*
X0090989Y0014244D01*
X0090868Y0014329D01*
X0090750Y0014418D01*
X0090634Y0014510D01*
X0090521Y0014606D01*
X0090410Y0014704D01*
X0090302Y0014805D01*
X0090196Y0014909D01*
X0090094Y0015015D01*
X0089994Y0015125D01*
X0089898Y0015237D01*
X0089804Y0015352D01*
X0089713Y0015469D01*
X0089626Y0015588D01*
X0089542Y0015710D01*
X0089461Y0015834D01*
X0089384Y0015960D01*
X0089310Y0016088D01*
X0089239Y0016218D01*
X0089172Y0016350D01*
X0089109Y0016484D01*
X0089049Y0016619D01*
X0088993Y0016756D01*
X0088940Y0016895D01*
X0088892Y0017035D01*
X0088847Y0017176D01*
X0088806Y0017318D01*
X0088768Y0017461D01*
X0088735Y0017605D01*
X0088705Y0017750D01*
X0088679Y0017896D01*
X0088658Y0018042D01*
X0088640Y0018189D01*
X0088626Y0018336D01*
X0088616Y0018484D01*
X0088610Y0018632D01*
X0088608Y0018780D01*
X0093582Y0072500D02*
X0093584Y0072658D01*
X0093590Y0072816D01*
X0093600Y0072974D01*
X0093614Y0073132D01*
X0093632Y0073289D01*
X0093653Y0073446D01*
X0093679Y0073602D01*
X0093709Y0073758D01*
X0093742Y0073913D01*
X0093780Y0074066D01*
X0093821Y0074219D01*
X0093866Y0074371D01*
X0093915Y0074522D01*
X0093968Y0074671D01*
X0094024Y0074819D01*
X0094084Y0074965D01*
X0094148Y0075110D01*
X0094216Y0075253D01*
X0094287Y0075395D01*
X0094361Y0075535D01*
X0094439Y0075672D01*
X0094521Y0075808D01*
X0094605Y0075942D01*
X0094694Y0076073D01*
X0094785Y0076202D01*
X0094880Y0076329D01*
X0094977Y0076454D01*
X0095078Y0076576D01*
X0095182Y0076695D01*
X0095289Y0076812D01*
X0095399Y0076926D01*
X0095512Y0077037D01*
X0095627Y0077146D01*
X0095745Y0077251D01*
X0095866Y0077353D01*
X0095989Y0077453D01*
X0096115Y0077549D01*
X0096243Y0077642D01*
X0096373Y0077732D01*
X0096506Y0077818D01*
X0096641Y0077902D01*
X0096777Y0077981D01*
X0096916Y0078058D01*
X0097057Y0078130D01*
X0097199Y0078200D01*
X0097343Y0078265D01*
X0097489Y0078327D01*
X0097636Y0078385D01*
X0097785Y0078440D01*
X0097935Y0078491D01*
X0098086Y0078538D01*
X0098238Y0078581D01*
X0098391Y0078620D01*
X0098546Y0078656D01*
X0098701Y0078687D01*
X0098857Y0078715D01*
X0099013Y0078739D01*
X0099170Y0078759D01*
X0099328Y0078775D01*
X0099485Y0078787D01*
X0099644Y0078795D01*
X0099802Y0078799D01*
X0099960Y0078799D01*
X0100118Y0078795D01*
X0100277Y0078787D01*
X0100434Y0078775D01*
X0100592Y0078759D01*
X0100749Y0078739D01*
X0100905Y0078715D01*
X0101061Y0078687D01*
X0101216Y0078656D01*
X0101371Y0078620D01*
X0101524Y0078581D01*
X0101676Y0078538D01*
X0101827Y0078491D01*
X0101977Y0078440D01*
X0102126Y0078385D01*
X0102273Y0078327D01*
X0102419Y0078265D01*
X0102563Y0078200D01*
X0102705Y0078130D01*
X0102846Y0078058D01*
X0102985Y0077981D01*
X0103121Y0077902D01*
X0103256Y0077818D01*
X0103389Y0077732D01*
X0103519Y0077642D01*
X0103647Y0077549D01*
X0103773Y0077453D01*
X0103896Y0077353D01*
X0104017Y0077251D01*
X0104135Y0077146D01*
X0104250Y0077037D01*
X0104363Y0076926D01*
X0104473Y0076812D01*
X0104580Y0076695D01*
X0104684Y0076576D01*
X0104785Y0076454D01*
X0104882Y0076329D01*
X0104977Y0076202D01*
X0105068Y0076073D01*
X0105157Y0075942D01*
X0105241Y0075808D01*
X0105323Y0075672D01*
X0105401Y0075535D01*
X0105475Y0075395D01*
X0105546Y0075253D01*
X0105614Y0075110D01*
X0105678Y0074965D01*
X0105738Y0074819D01*
X0105794Y0074671D01*
X0105847Y0074522D01*
X0105896Y0074371D01*
X0105941Y0074219D01*
X0105982Y0074066D01*
X0106020Y0073913D01*
X0106053Y0073758D01*
X0106083Y0073602D01*
X0106109Y0073446D01*
X0106130Y0073289D01*
X0106148Y0073132D01*
X0106162Y0072974D01*
X0106172Y0072816D01*
X0106178Y0072658D01*
X0106180Y0072500D01*
X0106178Y0072342D01*
X0106172Y0072184D01*
X0106162Y0072026D01*
X0106148Y0071868D01*
X0106130Y0071711D01*
X0106109Y0071554D01*
X0106083Y0071398D01*
X0106053Y0071242D01*
X0106020Y0071087D01*
X0105982Y0070934D01*
X0105941Y0070781D01*
X0105896Y0070629D01*
X0105847Y0070478D01*
X0105794Y0070329D01*
X0105738Y0070181D01*
X0105678Y0070035D01*
X0105614Y0069890D01*
X0105546Y0069747D01*
X0105475Y0069605D01*
X0105401Y0069465D01*
X0105323Y0069328D01*
X0105241Y0069192D01*
X0105157Y0069058D01*
X0105068Y0068927D01*
X0104977Y0068798D01*
X0104882Y0068671D01*
X0104785Y0068546D01*
X0104684Y0068424D01*
X0104580Y0068305D01*
X0104473Y0068188D01*
X0104363Y0068074D01*
X0104250Y0067963D01*
X0104135Y0067854D01*
X0104017Y0067749D01*
X0103896Y0067647D01*
X0103773Y0067547D01*
X0103647Y0067451D01*
X0103519Y0067358D01*
X0103389Y0067268D01*
X0103256Y0067182D01*
X0103121Y0067098D01*
X0102985Y0067019D01*
X0102846Y0066942D01*
X0102705Y0066870D01*
X0102563Y0066800D01*
X0102419Y0066735D01*
X0102273Y0066673D01*
X0102126Y0066615D01*
X0101977Y0066560D01*
X0101827Y0066509D01*
X0101676Y0066462D01*
X0101524Y0066419D01*
X0101371Y0066380D01*
X0101216Y0066344D01*
X0101061Y0066313D01*
X0100905Y0066285D01*
X0100749Y0066261D01*
X0100592Y0066241D01*
X0100434Y0066225D01*
X0100277Y0066213D01*
X0100118Y0066205D01*
X0099960Y0066201D01*
X0099802Y0066201D01*
X0099644Y0066205D01*
X0099485Y0066213D01*
X0099328Y0066225D01*
X0099170Y0066241D01*
X0099013Y0066261D01*
X0098857Y0066285D01*
X0098701Y0066313D01*
X0098546Y0066344D01*
X0098391Y0066380D01*
X0098238Y0066419D01*
X0098086Y0066462D01*
X0097935Y0066509D01*
X0097785Y0066560D01*
X0097636Y0066615D01*
X0097489Y0066673D01*
X0097343Y0066735D01*
X0097199Y0066800D01*
X0097057Y0066870D01*
X0096916Y0066942D01*
X0096777Y0067019D01*
X0096641Y0067098D01*
X0096506Y0067182D01*
X0096373Y0067268D01*
X0096243Y0067358D01*
X0096115Y0067451D01*
X0095989Y0067547D01*
X0095866Y0067647D01*
X0095745Y0067749D01*
X0095627Y0067854D01*
X0095512Y0067963D01*
X0095399Y0068074D01*
X0095289Y0068188D01*
X0095182Y0068305D01*
X0095078Y0068424D01*
X0094977Y0068546D01*
X0094880Y0068671D01*
X0094785Y0068798D01*
X0094694Y0068927D01*
X0094605Y0069058D01*
X0094521Y0069192D01*
X0094439Y0069328D01*
X0094361Y0069465D01*
X0094287Y0069605D01*
X0094216Y0069747D01*
X0094148Y0069890D01*
X0094084Y0070035D01*
X0094024Y0070181D01*
X0093968Y0070329D01*
X0093915Y0070478D01*
X0093866Y0070629D01*
X0093821Y0070781D01*
X0093780Y0070934D01*
X0093742Y0071087D01*
X0093709Y0071242D01*
X0093679Y0071398D01*
X0093653Y0071554D01*
X0093632Y0071711D01*
X0093614Y0071868D01*
X0093600Y0072026D01*
X0093590Y0072184D01*
X0093584Y0072342D01*
X0093582Y0072500D01*
X0093582Y0157500D02*
X0093584Y0157658D01*
X0093590Y0157816D01*
X0093600Y0157974D01*
X0093614Y0158132D01*
X0093632Y0158289D01*
X0093653Y0158446D01*
X0093679Y0158602D01*
X0093709Y0158758D01*
X0093742Y0158913D01*
X0093780Y0159066D01*
X0093821Y0159219D01*
X0093866Y0159371D01*
X0093915Y0159522D01*
X0093968Y0159671D01*
X0094024Y0159819D01*
X0094084Y0159965D01*
X0094148Y0160110D01*
X0094216Y0160253D01*
X0094287Y0160395D01*
X0094361Y0160535D01*
X0094439Y0160672D01*
X0094521Y0160808D01*
X0094605Y0160942D01*
X0094694Y0161073D01*
X0094785Y0161202D01*
X0094880Y0161329D01*
X0094977Y0161454D01*
X0095078Y0161576D01*
X0095182Y0161695D01*
X0095289Y0161812D01*
X0095399Y0161926D01*
X0095512Y0162037D01*
X0095627Y0162146D01*
X0095745Y0162251D01*
X0095866Y0162353D01*
X0095989Y0162453D01*
X0096115Y0162549D01*
X0096243Y0162642D01*
X0096373Y0162732D01*
X0096506Y0162818D01*
X0096641Y0162902D01*
X0096777Y0162981D01*
X0096916Y0163058D01*
X0097057Y0163130D01*
X0097199Y0163200D01*
X0097343Y0163265D01*
X0097489Y0163327D01*
X0097636Y0163385D01*
X0097785Y0163440D01*
X0097935Y0163491D01*
X0098086Y0163538D01*
X0098238Y0163581D01*
X0098391Y0163620D01*
X0098546Y0163656D01*
X0098701Y0163687D01*
X0098857Y0163715D01*
X0099013Y0163739D01*
X0099170Y0163759D01*
X0099328Y0163775D01*
X0099485Y0163787D01*
X0099644Y0163795D01*
X0099802Y0163799D01*
X0099960Y0163799D01*
X0100118Y0163795D01*
X0100277Y0163787D01*
X0100434Y0163775D01*
X0100592Y0163759D01*
X0100749Y0163739D01*
X0100905Y0163715D01*
X0101061Y0163687D01*
X0101216Y0163656D01*
X0101371Y0163620D01*
X0101524Y0163581D01*
X0101676Y0163538D01*
X0101827Y0163491D01*
X0101977Y0163440D01*
X0102126Y0163385D01*
X0102273Y0163327D01*
X0102419Y0163265D01*
X0102563Y0163200D01*
X0102705Y0163130D01*
X0102846Y0163058D01*
X0102985Y0162981D01*
X0103121Y0162902D01*
X0103256Y0162818D01*
X0103389Y0162732D01*
X0103519Y0162642D01*
X0103647Y0162549D01*
X0103773Y0162453D01*
X0103896Y0162353D01*
X0104017Y0162251D01*
X0104135Y0162146D01*
X0104250Y0162037D01*
X0104363Y0161926D01*
X0104473Y0161812D01*
X0104580Y0161695D01*
X0104684Y0161576D01*
X0104785Y0161454D01*
X0104882Y0161329D01*
X0104977Y0161202D01*
X0105068Y0161073D01*
X0105157Y0160942D01*
X0105241Y0160808D01*
X0105323Y0160672D01*
X0105401Y0160535D01*
X0105475Y0160395D01*
X0105546Y0160253D01*
X0105614Y0160110D01*
X0105678Y0159965D01*
X0105738Y0159819D01*
X0105794Y0159671D01*
X0105847Y0159522D01*
X0105896Y0159371D01*
X0105941Y0159219D01*
X0105982Y0159066D01*
X0106020Y0158913D01*
X0106053Y0158758D01*
X0106083Y0158602D01*
X0106109Y0158446D01*
X0106130Y0158289D01*
X0106148Y0158132D01*
X0106162Y0157974D01*
X0106172Y0157816D01*
X0106178Y0157658D01*
X0106180Y0157500D01*
X0106178Y0157342D01*
X0106172Y0157184D01*
X0106162Y0157026D01*
X0106148Y0156868D01*
X0106130Y0156711D01*
X0106109Y0156554D01*
X0106083Y0156398D01*
X0106053Y0156242D01*
X0106020Y0156087D01*
X0105982Y0155934D01*
X0105941Y0155781D01*
X0105896Y0155629D01*
X0105847Y0155478D01*
X0105794Y0155329D01*
X0105738Y0155181D01*
X0105678Y0155035D01*
X0105614Y0154890D01*
X0105546Y0154747D01*
X0105475Y0154605D01*
X0105401Y0154465D01*
X0105323Y0154328D01*
X0105241Y0154192D01*
X0105157Y0154058D01*
X0105068Y0153927D01*
X0104977Y0153798D01*
X0104882Y0153671D01*
X0104785Y0153546D01*
X0104684Y0153424D01*
X0104580Y0153305D01*
X0104473Y0153188D01*
X0104363Y0153074D01*
X0104250Y0152963D01*
X0104135Y0152854D01*
X0104017Y0152749D01*
X0103896Y0152647D01*
X0103773Y0152547D01*
X0103647Y0152451D01*
X0103519Y0152358D01*
X0103389Y0152268D01*
X0103256Y0152182D01*
X0103121Y0152098D01*
X0102985Y0152019D01*
X0102846Y0151942D01*
X0102705Y0151870D01*
X0102563Y0151800D01*
X0102419Y0151735D01*
X0102273Y0151673D01*
X0102126Y0151615D01*
X0101977Y0151560D01*
X0101827Y0151509D01*
X0101676Y0151462D01*
X0101524Y0151419D01*
X0101371Y0151380D01*
X0101216Y0151344D01*
X0101061Y0151313D01*
X0100905Y0151285D01*
X0100749Y0151261D01*
X0100592Y0151241D01*
X0100434Y0151225D01*
X0100277Y0151213D01*
X0100118Y0151205D01*
X0099960Y0151201D01*
X0099802Y0151201D01*
X0099644Y0151205D01*
X0099485Y0151213D01*
X0099328Y0151225D01*
X0099170Y0151241D01*
X0099013Y0151261D01*
X0098857Y0151285D01*
X0098701Y0151313D01*
X0098546Y0151344D01*
X0098391Y0151380D01*
X0098238Y0151419D01*
X0098086Y0151462D01*
X0097935Y0151509D01*
X0097785Y0151560D01*
X0097636Y0151615D01*
X0097489Y0151673D01*
X0097343Y0151735D01*
X0097199Y0151800D01*
X0097057Y0151870D01*
X0096916Y0151942D01*
X0096777Y0152019D01*
X0096641Y0152098D01*
X0096506Y0152182D01*
X0096373Y0152268D01*
X0096243Y0152358D01*
X0096115Y0152451D01*
X0095989Y0152547D01*
X0095866Y0152647D01*
X0095745Y0152749D01*
X0095627Y0152854D01*
X0095512Y0152963D01*
X0095399Y0153074D01*
X0095289Y0153188D01*
X0095182Y0153305D01*
X0095078Y0153424D01*
X0094977Y0153546D01*
X0094880Y0153671D01*
X0094785Y0153798D01*
X0094694Y0153927D01*
X0094605Y0154058D01*
X0094521Y0154192D01*
X0094439Y0154328D01*
X0094361Y0154465D01*
X0094287Y0154605D01*
X0094216Y0154747D01*
X0094148Y0154890D01*
X0094084Y0155035D01*
X0094024Y0155181D01*
X0093968Y0155329D01*
X0093915Y0155478D01*
X0093866Y0155629D01*
X0093821Y0155781D01*
X0093780Y0155934D01*
X0093742Y0156087D01*
X0093709Y0156242D01*
X0093679Y0156398D01*
X0093653Y0156554D01*
X0093632Y0156711D01*
X0093614Y0156868D01*
X0093600Y0157026D01*
X0093590Y0157184D01*
X0093584Y0157342D01*
X0093582Y0157500D01*
X0088608Y0211693D02*
X0088610Y0211841D01*
X0088616Y0211989D01*
X0088626Y0212137D01*
X0088640Y0212284D01*
X0088658Y0212431D01*
X0088679Y0212577D01*
X0088705Y0212723D01*
X0088735Y0212868D01*
X0088768Y0213012D01*
X0088806Y0213155D01*
X0088847Y0213297D01*
X0088892Y0213438D01*
X0088940Y0213578D01*
X0088993Y0213717D01*
X0089049Y0213854D01*
X0089109Y0213989D01*
X0089172Y0214123D01*
X0089239Y0214255D01*
X0089310Y0214385D01*
X0089384Y0214513D01*
X0089461Y0214639D01*
X0089542Y0214763D01*
X0089626Y0214885D01*
X0089713Y0215004D01*
X0089804Y0215121D01*
X0089898Y0215236D01*
X0089994Y0215348D01*
X0090094Y0215458D01*
X0090196Y0215564D01*
X0090302Y0215668D01*
X0090410Y0215769D01*
X0090521Y0215867D01*
X0090634Y0215963D01*
X0090750Y0216055D01*
X0090868Y0216144D01*
X0090989Y0216229D01*
X0091112Y0216312D01*
X0091237Y0216391D01*
X0091364Y0216467D01*
X0091493Y0216539D01*
X0091624Y0216608D01*
X0091757Y0216673D01*
X0091892Y0216734D01*
X0092028Y0216792D01*
X0092165Y0216847D01*
X0092304Y0216897D01*
X0092445Y0216944D01*
X0092586Y0216987D01*
X0092729Y0217027D01*
X0092873Y0217062D01*
X0093017Y0217094D01*
X0093163Y0217121D01*
X0093309Y0217145D01*
X0093456Y0217165D01*
X0093603Y0217181D01*
X0093750Y0217193D01*
X0093898Y0217201D01*
X0094046Y0217205D01*
X0094194Y0217205D01*
X0094342Y0217201D01*
X0094490Y0217193D01*
X0094637Y0217181D01*
X0094784Y0217165D01*
X0094931Y0217145D01*
X0095077Y0217121D01*
X0095223Y0217094D01*
X0095367Y0217062D01*
X0095511Y0217027D01*
X0095654Y0216987D01*
X0095795Y0216944D01*
X0095936Y0216897D01*
X0096075Y0216847D01*
X0096212Y0216792D01*
X0096348Y0216734D01*
X0096483Y0216673D01*
X0096616Y0216608D01*
X0096747Y0216539D01*
X0096876Y0216467D01*
X0097003Y0216391D01*
X0097128Y0216312D01*
X0097251Y0216229D01*
X0097372Y0216144D01*
X0097490Y0216055D01*
X0097606Y0215963D01*
X0097719Y0215867D01*
X0097830Y0215769D01*
X0097938Y0215668D01*
X0098044Y0215564D01*
X0098146Y0215458D01*
X0098246Y0215348D01*
X0098342Y0215236D01*
X0098436Y0215121D01*
X0098527Y0215004D01*
X0098614Y0214885D01*
X0098698Y0214763D01*
X0098779Y0214639D01*
X0098856Y0214513D01*
X0098930Y0214385D01*
X0099001Y0214255D01*
X0099068Y0214123D01*
X0099131Y0213989D01*
X0099191Y0213854D01*
X0099247Y0213717D01*
X0099300Y0213578D01*
X0099348Y0213438D01*
X0099393Y0213297D01*
X0099434Y0213155D01*
X0099472Y0213012D01*
X0099505Y0212868D01*
X0099535Y0212723D01*
X0099561Y0212577D01*
X0099582Y0212431D01*
X0099600Y0212284D01*
X0099614Y0212137D01*
X0099624Y0211989D01*
X0099630Y0211841D01*
X0099632Y0211693D01*
X0099630Y0211545D01*
X0099624Y0211397D01*
X0099614Y0211249D01*
X0099600Y0211102D01*
X0099582Y0210955D01*
X0099561Y0210809D01*
X0099535Y0210663D01*
X0099505Y0210518D01*
X0099472Y0210374D01*
X0099434Y0210231D01*
X0099393Y0210089D01*
X0099348Y0209948D01*
X0099300Y0209808D01*
X0099247Y0209669D01*
X0099191Y0209532D01*
X0099131Y0209397D01*
X0099068Y0209263D01*
X0099001Y0209131D01*
X0098930Y0209001D01*
X0098856Y0208873D01*
X0098779Y0208747D01*
X0098698Y0208623D01*
X0098614Y0208501D01*
X0098527Y0208382D01*
X0098436Y0208265D01*
X0098342Y0208150D01*
X0098246Y0208038D01*
X0098146Y0207928D01*
X0098044Y0207822D01*
X0097938Y0207718D01*
X0097830Y0207617D01*
X0097719Y0207519D01*
X0097606Y0207423D01*
X0097490Y0207331D01*
X0097372Y0207242D01*
X0097251Y0207157D01*
X0097128Y0207074D01*
X0097003Y0206995D01*
X0096876Y0206919D01*
X0096747Y0206847D01*
X0096616Y0206778D01*
X0096483Y0206713D01*
X0096348Y0206652D01*
X0096212Y0206594D01*
X0096075Y0206539D01*
X0095936Y0206489D01*
X0095795Y0206442D01*
X0095654Y0206399D01*
X0095511Y0206359D01*
X0095367Y0206324D01*
X0095223Y0206292D01*
X0095077Y0206265D01*
X0094931Y0206241D01*
X0094784Y0206221D01*
X0094637Y0206205D01*
X0094490Y0206193D01*
X0094342Y0206185D01*
X0094194Y0206181D01*
X0094046Y0206181D01*
X0093898Y0206185D01*
X0093750Y0206193D01*
X0093603Y0206205D01*
X0093456Y0206221D01*
X0093309Y0206241D01*
X0093163Y0206265D01*
X0093017Y0206292D01*
X0092873Y0206324D01*
X0092729Y0206359D01*
X0092586Y0206399D01*
X0092445Y0206442D01*
X0092304Y0206489D01*
X0092165Y0206539D01*
X0092028Y0206594D01*
X0091892Y0206652D01*
X0091757Y0206713D01*
X0091624Y0206778D01*
X0091493Y0206847D01*
X0091364Y0206919D01*
X0091237Y0206995D01*
X0091112Y0207074D01*
X0090989Y0207157D01*
X0090868Y0207242D01*
X0090750Y0207331D01*
X0090634Y0207423D01*
X0090521Y0207519D01*
X0090410Y0207617D01*
X0090302Y0207718D01*
X0090196Y0207822D01*
X0090094Y0207928D01*
X0089994Y0208038D01*
X0089898Y0208150D01*
X0089804Y0208265D01*
X0089713Y0208382D01*
X0089626Y0208501D01*
X0089542Y0208623D01*
X0089461Y0208747D01*
X0089384Y0208873D01*
X0089310Y0209001D01*
X0089239Y0209131D01*
X0089172Y0209263D01*
X0089109Y0209397D01*
X0089049Y0209532D01*
X0088993Y0209669D01*
X0088940Y0209808D01*
X0088892Y0209948D01*
X0088847Y0210089D01*
X0088806Y0210231D01*
X0088768Y0210374D01*
X0088735Y0210518D01*
X0088705Y0210663D01*
X0088679Y0210809D01*
X0088658Y0210955D01*
X0088640Y0211102D01*
X0088626Y0211249D01*
X0088616Y0211397D01*
X0088610Y0211545D01*
X0088608Y0211693D01*
X0316954Y0211693D02*
X0316956Y0211841D01*
X0316962Y0211989D01*
X0316972Y0212137D01*
X0316986Y0212284D01*
X0317004Y0212431D01*
X0317025Y0212577D01*
X0317051Y0212723D01*
X0317081Y0212868D01*
X0317114Y0213012D01*
X0317152Y0213155D01*
X0317193Y0213297D01*
X0317238Y0213438D01*
X0317286Y0213578D01*
X0317339Y0213717D01*
X0317395Y0213854D01*
X0317455Y0213989D01*
X0317518Y0214123D01*
X0317585Y0214255D01*
X0317656Y0214385D01*
X0317730Y0214513D01*
X0317807Y0214639D01*
X0317888Y0214763D01*
X0317972Y0214885D01*
X0318059Y0215004D01*
X0318150Y0215121D01*
X0318244Y0215236D01*
X0318340Y0215348D01*
X0318440Y0215458D01*
X0318542Y0215564D01*
X0318648Y0215668D01*
X0318756Y0215769D01*
X0318867Y0215867D01*
X0318980Y0215963D01*
X0319096Y0216055D01*
X0319214Y0216144D01*
X0319335Y0216229D01*
X0319458Y0216312D01*
X0319583Y0216391D01*
X0319710Y0216467D01*
X0319839Y0216539D01*
X0319970Y0216608D01*
X0320103Y0216673D01*
X0320238Y0216734D01*
X0320374Y0216792D01*
X0320511Y0216847D01*
X0320650Y0216897D01*
X0320791Y0216944D01*
X0320932Y0216987D01*
X0321075Y0217027D01*
X0321219Y0217062D01*
X0321363Y0217094D01*
X0321509Y0217121D01*
X0321655Y0217145D01*
X0321802Y0217165D01*
X0321949Y0217181D01*
X0322096Y0217193D01*
X0322244Y0217201D01*
X0322392Y0217205D01*
X0322540Y0217205D01*
X0322688Y0217201D01*
X0322836Y0217193D01*
X0322983Y0217181D01*
X0323130Y0217165D01*
X0323277Y0217145D01*
X0323423Y0217121D01*
X0323569Y0217094D01*
X0323713Y0217062D01*
X0323857Y0217027D01*
X0324000Y0216987D01*
X0324141Y0216944D01*
X0324282Y0216897D01*
X0324421Y0216847D01*
X0324558Y0216792D01*
X0324694Y0216734D01*
X0324829Y0216673D01*
X0324962Y0216608D01*
X0325093Y0216539D01*
X0325222Y0216467D01*
X0325349Y0216391D01*
X0325474Y0216312D01*
X0325597Y0216229D01*
X0325718Y0216144D01*
X0325836Y0216055D01*
X0325952Y0215963D01*
X0326065Y0215867D01*
X0326176Y0215769D01*
X0326284Y0215668D01*
X0326390Y0215564D01*
X0326492Y0215458D01*
X0326592Y0215348D01*
X0326688Y0215236D01*
X0326782Y0215121D01*
X0326873Y0215004D01*
X0326960Y0214885D01*
X0327044Y0214763D01*
X0327125Y0214639D01*
X0327202Y0214513D01*
X0327276Y0214385D01*
X0327347Y0214255D01*
X0327414Y0214123D01*
X0327477Y0213989D01*
X0327537Y0213854D01*
X0327593Y0213717D01*
X0327646Y0213578D01*
X0327694Y0213438D01*
X0327739Y0213297D01*
X0327780Y0213155D01*
X0327818Y0213012D01*
X0327851Y0212868D01*
X0327881Y0212723D01*
X0327907Y0212577D01*
X0327928Y0212431D01*
X0327946Y0212284D01*
X0327960Y0212137D01*
X0327970Y0211989D01*
X0327976Y0211841D01*
X0327978Y0211693D01*
X0327976Y0211545D01*
X0327970Y0211397D01*
X0327960Y0211249D01*
X0327946Y0211102D01*
X0327928Y0210955D01*
X0327907Y0210809D01*
X0327881Y0210663D01*
X0327851Y0210518D01*
X0327818Y0210374D01*
X0327780Y0210231D01*
X0327739Y0210089D01*
X0327694Y0209948D01*
X0327646Y0209808D01*
X0327593Y0209669D01*
X0327537Y0209532D01*
X0327477Y0209397D01*
X0327414Y0209263D01*
X0327347Y0209131D01*
X0327276Y0209001D01*
X0327202Y0208873D01*
X0327125Y0208747D01*
X0327044Y0208623D01*
X0326960Y0208501D01*
X0326873Y0208382D01*
X0326782Y0208265D01*
X0326688Y0208150D01*
X0326592Y0208038D01*
X0326492Y0207928D01*
X0326390Y0207822D01*
X0326284Y0207718D01*
X0326176Y0207617D01*
X0326065Y0207519D01*
X0325952Y0207423D01*
X0325836Y0207331D01*
X0325718Y0207242D01*
X0325597Y0207157D01*
X0325474Y0207074D01*
X0325349Y0206995D01*
X0325222Y0206919D01*
X0325093Y0206847D01*
X0324962Y0206778D01*
X0324829Y0206713D01*
X0324694Y0206652D01*
X0324558Y0206594D01*
X0324421Y0206539D01*
X0324282Y0206489D01*
X0324141Y0206442D01*
X0324000Y0206399D01*
X0323857Y0206359D01*
X0323713Y0206324D01*
X0323569Y0206292D01*
X0323423Y0206265D01*
X0323277Y0206241D01*
X0323130Y0206221D01*
X0322983Y0206205D01*
X0322836Y0206193D01*
X0322688Y0206185D01*
X0322540Y0206181D01*
X0322392Y0206181D01*
X0322244Y0206185D01*
X0322096Y0206193D01*
X0321949Y0206205D01*
X0321802Y0206221D01*
X0321655Y0206241D01*
X0321509Y0206265D01*
X0321363Y0206292D01*
X0321219Y0206324D01*
X0321075Y0206359D01*
X0320932Y0206399D01*
X0320791Y0206442D01*
X0320650Y0206489D01*
X0320511Y0206539D01*
X0320374Y0206594D01*
X0320238Y0206652D01*
X0320103Y0206713D01*
X0319970Y0206778D01*
X0319839Y0206847D01*
X0319710Y0206919D01*
X0319583Y0206995D01*
X0319458Y0207074D01*
X0319335Y0207157D01*
X0319214Y0207242D01*
X0319096Y0207331D01*
X0318980Y0207423D01*
X0318867Y0207519D01*
X0318756Y0207617D01*
X0318648Y0207718D01*
X0318542Y0207822D01*
X0318440Y0207928D01*
X0318340Y0208038D01*
X0318244Y0208150D01*
X0318150Y0208265D01*
X0318059Y0208382D01*
X0317972Y0208501D01*
X0317888Y0208623D01*
X0317807Y0208747D01*
X0317730Y0208873D01*
X0317656Y0209001D01*
X0317585Y0209131D01*
X0317518Y0209263D01*
X0317455Y0209397D01*
X0317395Y0209532D01*
X0317339Y0209669D01*
X0317286Y0209808D01*
X0317238Y0209948D01*
X0317193Y0210089D01*
X0317152Y0210231D01*
X0317114Y0210374D01*
X0317081Y0210518D01*
X0317051Y0210663D01*
X0317025Y0210809D01*
X0317004Y0210955D01*
X0316986Y0211102D01*
X0316972Y0211249D01*
X0316962Y0211397D01*
X0316956Y0211545D01*
X0316954Y0211693D01*
D11*
X0311994Y0210964D02*
X0307390Y0210964D01*
X0308924Y0209429D01*
X0308157Y0207894D02*
X0307390Y0207127D01*
X0307390Y0205592D01*
X0308157Y0204825D01*
X0311226Y0204825D01*
X0311994Y0205592D01*
X0311994Y0207127D01*
X0311226Y0207894D01*
X0311994Y0209429D02*
X0311994Y0212498D01*
X0311226Y0214033D02*
X0311994Y0214800D01*
X0311994Y0216335D01*
X0311226Y0217102D01*
X0308157Y0217102D01*
X0307390Y0216335D01*
X0307390Y0214800D01*
X0308157Y0214033D01*
X0308924Y0214033D01*
X0309692Y0214800D01*
X0309692Y0217102D01*
X0278306Y0193234D02*
X0278306Y0190165D01*
X0278306Y0191699D02*
X0273702Y0191699D01*
X0275237Y0190165D01*
X0276004Y0188630D02*
X0276772Y0187863D01*
X0276772Y0185561D01*
X0278306Y0185561D02*
X0273702Y0185561D01*
X0273702Y0187863D01*
X0274470Y0188630D01*
X0276004Y0188630D01*
X0276772Y0184026D02*
X0277539Y0184026D01*
X0278306Y0183259D01*
X0278306Y0181724D01*
X0277539Y0180957D01*
X0276004Y0181724D02*
X0276004Y0183259D01*
X0276772Y0184026D01*
X0274470Y0184026D02*
X0273702Y0183259D01*
X0273702Y0181724D01*
X0274470Y0180957D01*
X0275237Y0180957D01*
X0276004Y0181724D01*
X0273702Y0179422D02*
X0273702Y0177887D01*
X0273702Y0178655D02*
X0278306Y0178655D01*
X0278306Y0179422D02*
X0278306Y0177887D01*
X0244056Y0178057D02*
X0244056Y0177290D01*
X0243289Y0176523D01*
X0243289Y0174988D02*
X0244056Y0174221D01*
X0244056Y0172686D01*
X0243289Y0171919D01*
X0241754Y0172686D02*
X0241754Y0174221D01*
X0242522Y0174988D01*
X0243289Y0174988D01*
X0241754Y0172686D02*
X0240987Y0171919D01*
X0240220Y0171919D01*
X0239452Y0172686D01*
X0239452Y0174221D01*
X0240220Y0174988D01*
X0239452Y0178057D02*
X0239452Y0179592D01*
X0239452Y0178825D02*
X0243289Y0178825D01*
X0244056Y0178057D01*
X0244056Y0181127D02*
X0240987Y0184196D01*
X0240220Y0184196D01*
X0239452Y0183429D01*
X0239452Y0181894D01*
X0240220Y0181127D01*
X0244056Y0181127D02*
X0244056Y0184196D01*
X0243133Y0187700D02*
X0243900Y0188467D01*
X0243900Y0190002D01*
X0243133Y0190769D01*
X0242365Y0190769D01*
X0241598Y0190002D01*
X0241598Y0188467D01*
X0240831Y0187700D01*
X0240063Y0187700D01*
X0239296Y0188467D01*
X0239296Y0190002D01*
X0240063Y0190769D01*
X0239296Y0193839D02*
X0239296Y0195373D01*
X0239296Y0194606D02*
X0243133Y0194606D01*
X0243900Y0193839D01*
X0243900Y0193071D01*
X0243133Y0192304D01*
X0243133Y0196908D02*
X0243900Y0197675D01*
X0243900Y0199210D01*
X0243133Y0199977D01*
X0242365Y0199977D01*
X0241598Y0199210D01*
X0241598Y0198442D01*
X0241598Y0199210D02*
X0240831Y0199977D01*
X0240063Y0199977D01*
X0239296Y0199210D01*
X0239296Y0197675D01*
X0240063Y0196908D01*
X0225220Y0187023D02*
X0223685Y0185488D01*
X0222151Y0186255D02*
X0221383Y0187023D01*
X0219849Y0187023D01*
X0219081Y0186255D01*
X0219081Y0183186D01*
X0219849Y0182419D01*
X0221383Y0182419D01*
X0222151Y0183186D01*
X0223685Y0182419D02*
X0226754Y0182419D01*
X0225220Y0182419D02*
X0225220Y0187023D01*
X0225220Y0178585D02*
X0225220Y0173981D01*
X0226754Y0173981D02*
X0223685Y0173981D01*
X0222151Y0174749D02*
X0221383Y0173981D01*
X0219849Y0173981D01*
X0219081Y0174749D01*
X0219081Y0177818D01*
X0219849Y0178585D01*
X0221383Y0178585D01*
X0222151Y0177818D01*
X0223685Y0177051D02*
X0225220Y0178585D01*
X0228289Y0177818D02*
X0229056Y0178585D01*
X0230591Y0178585D01*
X0231358Y0177818D01*
X0228289Y0174749D01*
X0229056Y0173981D01*
X0230591Y0173981D01*
X0231358Y0174749D01*
X0231358Y0177818D01*
X0228289Y0177818D02*
X0228289Y0174749D01*
X0239452Y0167505D02*
X0240987Y0165970D01*
X0239452Y0164436D02*
X0239452Y0162901D01*
X0239452Y0163668D02*
X0243289Y0163668D01*
X0244056Y0162901D01*
X0244056Y0162134D01*
X0243289Y0161366D01*
X0243289Y0159832D02*
X0242522Y0159832D01*
X0241754Y0159064D01*
X0241754Y0157530D01*
X0240987Y0156763D01*
X0240220Y0156763D01*
X0239452Y0157530D01*
X0239452Y0159064D01*
X0240220Y0159832D01*
X0243289Y0159832D02*
X0244056Y0159064D01*
X0244056Y0157530D01*
X0243289Y0156763D01*
X0244056Y0165970D02*
X0244056Y0169040D01*
X0244056Y0167505D02*
X0239452Y0167505D01*
X0231244Y0148978D02*
X0231244Y0145909D01*
X0231244Y0147443D02*
X0226640Y0147443D01*
X0228174Y0145909D01*
X0244796Y0138898D02*
X0244796Y0137363D01*
X0245563Y0136596D01*
X0246331Y0136596D01*
X0247098Y0137363D01*
X0247098Y0138898D01*
X0247865Y0139665D01*
X0248633Y0139665D01*
X0249400Y0138898D01*
X0249400Y0137363D01*
X0248633Y0136596D01*
X0247865Y0136596D01*
X0247098Y0137363D01*
X0247098Y0138898D02*
X0246331Y0139665D01*
X0245563Y0139665D01*
X0244796Y0138898D01*
X0244796Y0133527D02*
X0249400Y0133527D01*
X0249400Y0135061D02*
X0249400Y0131992D01*
X0248633Y0130457D02*
X0249400Y0129690D01*
X0249400Y0128156D01*
X0248633Y0127388D01*
X0245563Y0127388D01*
X0244796Y0128156D01*
X0244796Y0129690D01*
X0245563Y0130457D01*
X0246331Y0131992D02*
X0244796Y0133527D01*
X0244416Y0124207D02*
X0241347Y0124207D01*
X0240579Y0123440D01*
X0240579Y0121905D01*
X0241347Y0121138D01*
X0242114Y0121138D01*
X0242881Y0121905D01*
X0242881Y0124207D01*
X0244416Y0124207D02*
X0245183Y0123440D01*
X0245183Y0121905D01*
X0244416Y0121138D01*
X0245183Y0119603D02*
X0240579Y0119603D01*
X0240579Y0116534D02*
X0245183Y0119603D01*
X0245183Y0116534D02*
X0240579Y0116534D01*
X0241347Y0114999D02*
X0240579Y0114232D01*
X0240579Y0112697D01*
X0241347Y0111930D01*
X0244416Y0111930D01*
X0245183Y0112697D01*
X0245183Y0114232D01*
X0244416Y0114999D01*
X0241347Y0114999D01*
X0241347Y0110395D02*
X0240579Y0109628D01*
X0240579Y0108093D01*
X0241347Y0107326D01*
X0244416Y0107326D01*
X0245183Y0108093D01*
X0245183Y0109628D01*
X0244416Y0110395D01*
X0261921Y0119967D02*
X0261921Y0121502D01*
X0262688Y0122269D01*
X0263456Y0123804D02*
X0261921Y0125339D01*
X0266525Y0125339D01*
X0266525Y0126873D02*
X0266525Y0123804D01*
X0265758Y0122269D02*
X0266525Y0121502D01*
X0266525Y0119967D01*
X0265758Y0119200D01*
X0262688Y0119200D01*
X0261921Y0119967D01*
X0261921Y0128408D02*
X0261921Y0131477D01*
X0262688Y0131477D01*
X0265758Y0128408D01*
X0266525Y0128408D01*
X0260900Y0136075D02*
X0256296Y0136075D01*
X0260900Y0136075D02*
X0260900Y0139144D01*
X0260900Y0140679D02*
X0260900Y0143748D01*
X0260900Y0142214D02*
X0256296Y0142214D01*
X0257831Y0140679D01*
X0213431Y0127332D02*
X0213431Y0124262D01*
X0213431Y0125797D02*
X0208827Y0125797D01*
X0210362Y0124262D01*
X0197318Y0156690D02*
X0194249Y0156690D01*
X0193482Y0157457D01*
X0193482Y0158991D01*
X0194249Y0159759D01*
X0194249Y0161293D02*
X0197318Y0161293D01*
X0198086Y0162061D01*
X0198086Y0163595D01*
X0197318Y0164363D01*
X0194249Y0164363D01*
X0193482Y0163595D01*
X0193482Y0162061D01*
X0194249Y0161293D01*
X0197318Y0159759D02*
X0198086Y0158991D01*
X0198086Y0157457D01*
X0197318Y0156690D01*
X0198086Y0165897D02*
X0193482Y0165897D01*
X0198086Y0168967D01*
X0193482Y0168967D01*
X0195016Y0170501D02*
X0193482Y0172036D01*
X0198086Y0172036D01*
X0198086Y0170501D02*
X0198086Y0173571D01*
X0188859Y0195200D02*
X0185790Y0195200D01*
X0187324Y0195200D02*
X0187324Y0199804D01*
X0185790Y0198269D01*
X0158307Y0183378D02*
X0158307Y0182611D01*
X0155238Y0179542D01*
X0158307Y0179542D01*
X0158307Y0183378D02*
X0157540Y0184146D01*
X0156005Y0184146D01*
X0155238Y0183378D01*
X0153703Y0184146D02*
X0153703Y0179542D01*
X0150634Y0184146D01*
X0150634Y0179542D01*
X0149099Y0180309D02*
X0149099Y0183378D01*
X0148332Y0184146D01*
X0146797Y0184146D01*
X0146030Y0183378D01*
X0146030Y0180309D01*
X0146797Y0179542D01*
X0148332Y0179542D01*
X0149099Y0180309D01*
X0144495Y0180309D02*
X0143728Y0179542D01*
X0142193Y0179542D01*
X0141426Y0180309D01*
X0141426Y0183378D01*
X0142193Y0184146D01*
X0143728Y0184146D01*
X0144495Y0183378D01*
X0157894Y0174491D02*
X0159428Y0172957D01*
X0160963Y0174491D01*
X0160963Y0169888D01*
X0162498Y0169888D02*
X0165567Y0169888D01*
X0164032Y0169888D02*
X0164032Y0174491D01*
X0162498Y0172957D01*
X0157894Y0174491D02*
X0157894Y0169888D01*
X0103859Y0195200D02*
X0100790Y0195200D01*
X0102324Y0195200D02*
X0102324Y0199804D01*
X0100790Y0198269D01*
X0068307Y0183378D02*
X0068307Y0182611D01*
X0067540Y0181844D01*
X0068307Y0181076D01*
X0068307Y0180309D01*
X0067540Y0179542D01*
X0066005Y0179542D01*
X0065238Y0180309D01*
X0063703Y0179542D02*
X0063703Y0184146D01*
X0065238Y0183378D02*
X0066005Y0184146D01*
X0067540Y0184146D01*
X0068307Y0183378D01*
X0067540Y0181844D02*
X0066772Y0181844D01*
X0063703Y0179542D02*
X0060634Y0184146D01*
X0060634Y0179542D01*
X0059099Y0180309D02*
X0059099Y0183378D01*
X0058332Y0184146D01*
X0056797Y0184146D01*
X0056030Y0183378D01*
X0056030Y0180309D01*
X0056797Y0179542D01*
X0058332Y0179542D01*
X0059099Y0180309D01*
X0054495Y0180309D02*
X0053728Y0179542D01*
X0052193Y0179542D01*
X0051426Y0180309D01*
X0051426Y0183378D01*
X0052193Y0184146D01*
X0053728Y0184146D01*
X0054495Y0183378D01*
X0054994Y0157561D02*
X0054994Y0154491D01*
X0051924Y0157561D01*
X0051157Y0157561D01*
X0050390Y0156793D01*
X0050390Y0155259D01*
X0051157Y0154491D01*
X0050390Y0152957D02*
X0054994Y0152957D01*
X0054994Y0149888D02*
X0050390Y0149888D01*
X0051924Y0151422D01*
X0050390Y0152957D01*
X0057313Y0132790D02*
X0058081Y0132790D01*
X0058848Y0132023D01*
X0059615Y0132790D01*
X0060383Y0132790D01*
X0061150Y0132023D01*
X0061150Y0130488D01*
X0060383Y0129721D01*
X0061150Y0128186D02*
X0059615Y0126652D01*
X0059615Y0127419D02*
X0059615Y0125117D01*
X0061150Y0125117D02*
X0056546Y0125117D01*
X0056546Y0127419D01*
X0057313Y0128186D01*
X0058848Y0128186D01*
X0059615Y0127419D01*
X0057313Y0129721D02*
X0056546Y0130488D01*
X0056546Y0132023D01*
X0057313Y0132790D01*
X0058848Y0132023D02*
X0058848Y0131256D01*
X0052400Y0129665D02*
X0052400Y0126596D01*
X0049331Y0129665D01*
X0048563Y0129665D01*
X0047796Y0128898D01*
X0047796Y0127363D01*
X0048563Y0126596D01*
X0048563Y0125061D02*
X0050098Y0125061D01*
X0050865Y0124294D01*
X0050865Y0121992D01*
X0050865Y0123527D02*
X0052400Y0125061D01*
X0052400Y0121992D02*
X0047796Y0121992D01*
X0047796Y0124294D01*
X0048563Y0125061D01*
X0017494Y0105853D02*
X0017494Y0102784D01*
X0017494Y0104318D02*
X0012890Y0104318D01*
X0014424Y0102784D01*
X0008568Y0080446D02*
X0007034Y0080446D01*
X0006266Y0079678D01*
X0006266Y0078911D01*
X0007034Y0077376D01*
X0004732Y0077376D01*
X0004732Y0080446D01*
X0008568Y0080446D02*
X0009336Y0079678D01*
X0009336Y0078144D01*
X0008568Y0077376D01*
X0009336Y0075842D02*
X0004732Y0075842D01*
X0004732Y0072772D02*
X0009336Y0075842D01*
X0009336Y0072772D02*
X0004732Y0072772D01*
X0005499Y0071238D02*
X0004732Y0070470D01*
X0004732Y0068936D01*
X0005499Y0068168D01*
X0008568Y0068168D01*
X0009336Y0068936D01*
X0009336Y0070470D01*
X0008568Y0071238D01*
X0005499Y0071238D01*
X0005499Y0066634D02*
X0004732Y0065866D01*
X0004732Y0064332D01*
X0005499Y0063565D01*
X0008568Y0063565D01*
X0009336Y0064332D01*
X0009336Y0065866D01*
X0008568Y0066634D01*
X0037241Y0036054D02*
X0037241Y0031450D01*
X0035706Y0031450D02*
X0038776Y0031450D01*
X0035706Y0034519D02*
X0037241Y0036054D01*
X0038202Y0021710D02*
X0039737Y0021710D01*
X0040504Y0020943D01*
X0040504Y0020176D01*
X0039737Y0019408D01*
X0038202Y0019408D01*
X0037435Y0020176D01*
X0037435Y0020943D01*
X0038202Y0021710D01*
X0038202Y0019408D02*
X0037435Y0018641D01*
X0037435Y0017874D01*
X0038202Y0017106D01*
X0039737Y0017106D01*
X0040504Y0017874D01*
X0040504Y0018641D01*
X0039737Y0019408D01*
X0035901Y0017874D02*
X0035133Y0017106D01*
X0033599Y0017106D01*
X0032831Y0017874D01*
X0032831Y0020943D01*
X0033599Y0021710D01*
X0035133Y0021710D01*
X0035901Y0020943D01*
X0045067Y0012304D02*
X0044300Y0011537D01*
X0044300Y0008467D01*
X0045067Y0007700D01*
X0046602Y0007700D01*
X0047369Y0008467D01*
X0047369Y0011537D01*
X0046602Y0012304D01*
X0045067Y0012304D01*
X0048904Y0010002D02*
X0048904Y0008467D01*
X0049671Y0007700D01*
X0051973Y0007700D01*
X0054275Y0008467D02*
X0055042Y0007700D01*
X0054275Y0008467D02*
X0054275Y0011537D01*
X0053508Y0010769D02*
X0055042Y0010769D01*
X0057344Y0010769D02*
X0058879Y0010769D01*
X0059646Y0010002D01*
X0059646Y0007700D01*
X0057344Y0007700D01*
X0056577Y0008467D01*
X0057344Y0009235D01*
X0059646Y0009235D01*
X0061181Y0010769D02*
X0063483Y0010769D01*
X0064250Y0010002D01*
X0064250Y0008467D01*
X0063483Y0007700D01*
X0061181Y0007700D01*
X0061181Y0006165D02*
X0061181Y0010769D01*
X0065785Y0012304D02*
X0066552Y0012304D01*
X0066552Y0007700D01*
X0065785Y0007700D02*
X0067320Y0007700D01*
X0068854Y0008467D02*
X0068854Y0010002D01*
X0069622Y0010769D01*
X0071156Y0010769D01*
X0071924Y0010002D01*
X0071924Y0009235D01*
X0068854Y0009235D01*
X0068854Y0008467D02*
X0069622Y0007700D01*
X0071156Y0007700D01*
X0073458Y0007700D02*
X0076527Y0010769D01*
X0078062Y0010002D02*
X0078829Y0010769D01*
X0080364Y0010769D01*
X0081131Y0010002D01*
X0081131Y0009235D01*
X0078062Y0009235D01*
X0078062Y0010002D02*
X0078062Y0008467D01*
X0078829Y0007700D01*
X0080364Y0007700D01*
X0082666Y0007700D02*
X0082666Y0010769D01*
X0082666Y0009235D02*
X0084201Y0010769D01*
X0084968Y0010769D01*
X0091107Y0010769D02*
X0092641Y0007700D01*
X0094176Y0010769D01*
X0095710Y0010002D02*
X0098012Y0010002D01*
X0098780Y0009235D01*
X0098780Y0008467D01*
X0098012Y0007700D01*
X0096478Y0007700D01*
X0095710Y0008467D01*
X0095710Y0010002D01*
X0097245Y0011537D01*
X0098780Y0012304D01*
X0109522Y0012304D02*
X0109522Y0007700D01*
X0111824Y0007700D01*
X0112592Y0008467D01*
X0112592Y0011537D01*
X0111824Y0012304D01*
X0109522Y0012304D01*
X0114126Y0008467D02*
X0114893Y0008467D01*
X0114893Y0007700D01*
X0114126Y0007700D01*
X0114126Y0008467D01*
X0117963Y0007700D02*
X0117963Y0012304D01*
X0119497Y0012304D02*
X0116428Y0012304D01*
X0121032Y0010769D02*
X0121032Y0007700D01*
X0121032Y0009235D02*
X0122567Y0010769D01*
X0123334Y0010769D01*
X0125636Y0010769D02*
X0127171Y0010769D01*
X0127938Y0010002D01*
X0127938Y0007700D01*
X0125636Y0007700D01*
X0124869Y0008467D01*
X0125636Y0009235D01*
X0127938Y0009235D01*
X0129473Y0010002D02*
X0131007Y0010002D01*
X0132542Y0010002D02*
X0134077Y0010002D01*
X0135611Y0010002D02*
X0135611Y0008467D01*
X0136378Y0007700D01*
X0137913Y0007700D01*
X0138680Y0008467D01*
X0138680Y0010002D01*
X0137913Y0010769D01*
X0136378Y0010769D01*
X0135611Y0010002D01*
X0133309Y0011537D02*
X0133309Y0007700D01*
X0130240Y0007700D02*
X0130240Y0011537D01*
X0131007Y0012304D01*
X0133309Y0011537D02*
X0134077Y0012304D01*
X0140215Y0010769D02*
X0140215Y0007700D01*
X0140215Y0009235D02*
X0141750Y0010769D01*
X0142517Y0010769D01*
X0144052Y0010002D02*
X0144819Y0010769D01*
X0147121Y0010769D01*
X0147121Y0012304D02*
X0147121Y0007700D01*
X0144819Y0007700D01*
X0144052Y0008467D01*
X0144052Y0010002D01*
X0149423Y0008467D02*
X0149423Y0007700D01*
X0150190Y0007700D01*
X0150190Y0008467D01*
X0149423Y0008467D01*
X0150190Y0007700D02*
X0148656Y0006165D01*
X0156329Y0008467D02*
X0157096Y0007700D01*
X0158631Y0007700D01*
X0159398Y0008467D01*
X0159398Y0009235D01*
X0158631Y0010002D01*
X0157096Y0010002D01*
X0156329Y0010769D01*
X0156329Y0011537D01*
X0157096Y0012304D01*
X0158631Y0012304D01*
X0159398Y0011537D01*
X0160933Y0008467D02*
X0161700Y0008467D01*
X0161700Y0007700D01*
X0160933Y0007700D01*
X0160933Y0008467D01*
X0164769Y0007700D02*
X0164769Y0012304D01*
X0163235Y0012304D02*
X0166304Y0012304D01*
X0168606Y0010769D02*
X0170141Y0010769D01*
X0170908Y0010002D01*
X0170908Y0007700D01*
X0168606Y0007700D01*
X0167839Y0008467D01*
X0168606Y0009235D01*
X0170908Y0009235D01*
X0172443Y0010769D02*
X0173210Y0010769D01*
X0173977Y0010002D01*
X0174744Y0010769D01*
X0175512Y0010002D01*
X0175512Y0007700D01*
X0177046Y0007700D02*
X0177046Y0012304D01*
X0179348Y0010769D02*
X0177046Y0009235D01*
X0179348Y0007700D01*
X0180883Y0008467D02*
X0180883Y0010002D01*
X0181650Y0010769D01*
X0183185Y0010769D01*
X0183952Y0010002D01*
X0183952Y0009235D01*
X0180883Y0009235D01*
X0180883Y0008467D02*
X0181650Y0007700D01*
X0183185Y0007700D01*
X0185487Y0006165D02*
X0187022Y0007700D01*
X0186254Y0007700D01*
X0186254Y0008467D01*
X0187022Y0008467D01*
X0187022Y0007700D01*
X0193160Y0008467D02*
X0193160Y0011537D01*
X0193927Y0012304D01*
X0195462Y0012304D01*
X0196229Y0011537D01*
X0196229Y0010002D02*
X0194695Y0010002D01*
X0196229Y0010002D02*
X0196229Y0008467D01*
X0195462Y0007700D01*
X0193927Y0007700D01*
X0193160Y0008467D01*
X0197764Y0008467D02*
X0197764Y0007700D01*
X0198531Y0007700D01*
X0198531Y0008467D01*
X0197764Y0008467D01*
X0200066Y0007700D02*
X0200066Y0012304D01*
X0201601Y0010769D01*
X0203135Y0012304D01*
X0203135Y0007700D01*
X0204670Y0007700D02*
X0206205Y0007700D01*
X0205437Y0007700D02*
X0205437Y0010769D01*
X0204670Y0010769D01*
X0205437Y0012304D02*
X0205437Y0013071D01*
X0207739Y0012304D02*
X0208507Y0012304D01*
X0208507Y0007700D01*
X0209274Y0007700D02*
X0207739Y0007700D01*
X0210809Y0007700D02*
X0210809Y0012304D01*
X0211576Y0010769D02*
X0213111Y0010769D01*
X0213878Y0010002D01*
X0213878Y0007700D01*
X0215412Y0008467D02*
X0215412Y0010002D01*
X0216180Y0010769D01*
X0217714Y0010769D01*
X0218482Y0010002D01*
X0218482Y0009235D01*
X0215412Y0009235D01*
X0215412Y0008467D02*
X0216180Y0007700D01*
X0217714Y0007700D01*
X0220016Y0007700D02*
X0221551Y0007700D01*
X0220784Y0007700D02*
X0220784Y0010769D01*
X0220016Y0010769D01*
X0220784Y0012304D02*
X0220784Y0013071D01*
X0223086Y0010769D02*
X0223853Y0010769D01*
X0224620Y0010002D01*
X0225388Y0010769D01*
X0226155Y0010002D01*
X0226155Y0007700D01*
X0224620Y0007700D02*
X0224620Y0010002D01*
X0223086Y0010769D02*
X0223086Y0007700D01*
X0211576Y0010769D02*
X0210809Y0010002D01*
X0223300Y0018967D02*
X0224067Y0018200D01*
X0225602Y0018200D01*
X0226369Y0018967D01*
X0227904Y0018200D02*
X0230973Y0018200D01*
X0229439Y0018200D02*
X0229439Y0022804D01*
X0227904Y0021269D01*
X0226369Y0022037D02*
X0225602Y0022804D01*
X0224067Y0022804D01*
X0223300Y0022037D01*
X0223300Y0018967D01*
X0232508Y0018967D02*
X0233275Y0018200D01*
X0234810Y0018200D01*
X0235577Y0018967D01*
X0235577Y0019735D01*
X0234810Y0020502D01*
X0232508Y0020502D01*
X0232508Y0018967D01*
X0232508Y0020502D02*
X0234042Y0022037D01*
X0235577Y0022804D01*
X0213431Y0036763D02*
X0213431Y0039832D01*
X0213431Y0038297D02*
X0208827Y0038297D01*
X0210362Y0036763D01*
X0223300Y0043967D02*
X0223300Y0047037D01*
X0224067Y0047804D01*
X0225602Y0047804D01*
X0226369Y0047037D01*
X0227904Y0046269D02*
X0229439Y0047804D01*
X0229439Y0043200D01*
X0230973Y0043200D02*
X0227904Y0043200D01*
X0226369Y0043967D02*
X0225602Y0043200D01*
X0224067Y0043200D01*
X0223300Y0043967D01*
X0232508Y0045502D02*
X0235577Y0045502D01*
X0234810Y0043200D02*
X0234810Y0047804D01*
X0232508Y0045502D01*
X0220586Y0054957D02*
X0220586Y0056491D01*
X0219818Y0057259D01*
X0219818Y0058793D02*
X0220586Y0059561D01*
X0220586Y0061095D01*
X0219818Y0061863D01*
X0216749Y0061863D01*
X0215982Y0061095D01*
X0215982Y0059561D01*
X0216749Y0058793D01*
X0219818Y0058793D01*
X0216749Y0057259D02*
X0215982Y0056491D01*
X0215982Y0054957D01*
X0216749Y0054190D01*
X0219818Y0054190D01*
X0220586Y0054957D01*
X0220586Y0063397D02*
X0215982Y0063397D01*
X0220586Y0066467D01*
X0215982Y0066467D01*
X0216749Y0068001D02*
X0217516Y0068001D01*
X0218284Y0068769D01*
X0218284Y0070303D01*
X0219051Y0071071D01*
X0219818Y0071071D01*
X0220586Y0070303D01*
X0220586Y0068769D01*
X0219818Y0068001D01*
X0219051Y0068001D01*
X0218284Y0068769D01*
X0218284Y0070303D02*
X0217516Y0071071D01*
X0216749Y0071071D01*
X0215982Y0070303D01*
X0215982Y0068769D01*
X0216749Y0068001D01*
X0174994Y0068749D02*
X0170390Y0068749D01*
X0171924Y0067214D01*
X0170390Y0065680D01*
X0174994Y0065680D01*
X0172692Y0070284D02*
X0172692Y0073353D01*
X0174994Y0072586D02*
X0170390Y0072586D01*
X0172692Y0070284D01*
X0122241Y0036054D02*
X0122241Y0031450D01*
X0120706Y0031450D02*
X0123776Y0031450D01*
X0120706Y0034519D02*
X0122241Y0036054D01*
X0123588Y0022023D02*
X0122820Y0021255D01*
X0123588Y0022023D02*
X0125122Y0022023D01*
X0125890Y0021255D01*
X0125890Y0020488D01*
X0125122Y0019721D01*
X0125890Y0018953D01*
X0125890Y0018186D01*
X0125122Y0017419D01*
X0123588Y0017419D01*
X0122820Y0018186D01*
X0121286Y0017419D02*
X0118216Y0017419D01*
X0119751Y0017419D02*
X0119751Y0022023D01*
X0118216Y0020488D01*
X0116682Y0021255D02*
X0115914Y0022023D01*
X0114380Y0022023D01*
X0113612Y0021255D01*
X0113612Y0018186D01*
X0114380Y0017419D01*
X0115914Y0017419D01*
X0116682Y0018186D01*
X0124355Y0019721D02*
X0125122Y0019721D01*
X0143144Y0018342D02*
X0143911Y0017575D01*
X0145446Y0017575D01*
X0146213Y0018342D01*
X0147748Y0017575D02*
X0150817Y0017575D01*
X0149282Y0017575D02*
X0149282Y0022179D01*
X0147748Y0020644D01*
X0146213Y0021412D02*
X0145446Y0022179D01*
X0143911Y0022179D01*
X0143144Y0021412D01*
X0143144Y0018342D01*
X0152352Y0018342D02*
X0153119Y0017575D01*
X0154654Y0017575D01*
X0155421Y0018342D01*
X0155421Y0019877D01*
X0154654Y0020644D01*
X0153886Y0020644D01*
X0152352Y0019877D01*
X0152352Y0022179D01*
X0155421Y0022179D01*
X0154654Y0024296D02*
X0153119Y0024296D01*
X0152352Y0025063D01*
X0152352Y0028132D01*
X0153119Y0028900D01*
X0154654Y0028900D01*
X0155421Y0028132D01*
X0156956Y0028132D02*
X0156956Y0025063D01*
X0157723Y0024296D01*
X0159258Y0024296D01*
X0160025Y0025063D01*
X0160025Y0028132D01*
X0159258Y0028900D01*
X0157723Y0028900D01*
X0156956Y0028132D01*
X0155421Y0025063D02*
X0154654Y0024296D01*
X0161560Y0024296D02*
X0161560Y0028900D01*
X0164629Y0024296D01*
X0164629Y0028900D01*
X0166164Y0028900D02*
X0169233Y0028900D01*
X0169233Y0028132D01*
X0166164Y0025063D01*
X0166164Y0024296D01*
X0172443Y0010769D02*
X0172443Y0007700D01*
X0173977Y0007700D02*
X0173977Y0010002D01*
X0084389Y0024126D02*
X0084389Y0024893D01*
X0083622Y0025660D01*
X0081320Y0025660D01*
X0081320Y0024126D01*
X0082087Y0023358D01*
X0083622Y0023358D01*
X0084389Y0024126D01*
X0082855Y0027195D02*
X0081320Y0025660D01*
X0082855Y0027195D02*
X0084389Y0027962D01*
X0079785Y0027962D02*
X0079785Y0023358D01*
X0076716Y0027962D01*
X0076716Y0023358D01*
X0075181Y0024126D02*
X0075181Y0027195D01*
X0074414Y0027962D01*
X0072880Y0027962D01*
X0072112Y0027195D01*
X0072112Y0024126D01*
X0072880Y0023358D01*
X0074414Y0023358D01*
X0075181Y0024126D01*
X0070578Y0024126D02*
X0069810Y0023358D01*
X0068276Y0023358D01*
X0067508Y0024126D01*
X0067508Y0027195D01*
X0068276Y0027962D01*
X0069810Y0027962D01*
X0070578Y0027195D01*
X0069341Y0021710D02*
X0067806Y0021710D01*
X0067039Y0020943D01*
X0069341Y0021710D02*
X0070108Y0020943D01*
X0070108Y0020176D01*
X0067039Y0017106D01*
X0070108Y0017106D01*
X0065504Y0017106D02*
X0062435Y0017106D01*
X0063970Y0017106D02*
X0063970Y0021710D01*
X0062435Y0020176D01*
X0060901Y0020943D02*
X0060133Y0021710D01*
X0058599Y0021710D01*
X0057831Y0020943D01*
X0057831Y0017874D01*
X0058599Y0017106D01*
X0060133Y0017106D01*
X0060901Y0017874D01*
X0051973Y0010769D02*
X0049671Y0010769D01*
X0048904Y0010002D01*
X0073458Y0010769D02*
X0076527Y0007700D01*
X0068092Y0057700D02*
X0066557Y0057700D01*
X0065790Y0058467D01*
X0064255Y0057700D02*
X0064255Y0062304D01*
X0062721Y0060769D01*
X0061186Y0062304D01*
X0061186Y0057700D01*
X0065790Y0061537D02*
X0066557Y0062304D01*
X0068092Y0062304D01*
X0068859Y0061537D01*
X0068859Y0060769D01*
X0068092Y0060002D01*
X0068859Y0059235D01*
X0068859Y0058467D01*
X0068092Y0057700D01*
X0068092Y0060002D02*
X0067324Y0060002D01*
X0106186Y0083638D02*
X0106186Y0088241D01*
X0107721Y0086707D01*
X0109255Y0088241D01*
X0109255Y0083638D01*
X0110790Y0084405D02*
X0111557Y0083638D01*
X0113092Y0083638D01*
X0113859Y0084405D01*
X0113859Y0085172D01*
X0113092Y0085939D01*
X0110790Y0085939D01*
X0110790Y0084405D01*
X0110790Y0085939D02*
X0112324Y0087474D01*
X0113859Y0088241D01*
X0164609Y0109586D02*
X0166143Y0111121D01*
X0164609Y0112655D01*
X0169213Y0112655D01*
X0169213Y0114190D02*
X0168445Y0114190D01*
X0165376Y0117259D01*
X0164609Y0117259D01*
X0164609Y0114190D01*
X0164609Y0109586D02*
X0169213Y0109586D01*
X0099994Y0129887D02*
X0095390Y0129887D01*
X0096924Y0131422D01*
X0095390Y0132957D01*
X0099994Y0132957D01*
X0099226Y0134491D02*
X0099994Y0135259D01*
X0099994Y0136793D01*
X0099226Y0137561D01*
X0097692Y0137561D01*
X0096924Y0136793D01*
X0096924Y0136026D01*
X0097692Y0134491D01*
X0095390Y0134491D01*
X0095390Y0137561D01*
X0017494Y0189659D02*
X0017494Y0192728D01*
X0017494Y0191193D02*
X0012890Y0191193D01*
X0014424Y0189659D01*
X0006788Y0170301D02*
X0006788Y0167232D01*
X0004486Y0169533D01*
X0009089Y0169533D01*
X0009089Y0165697D02*
X0004486Y0165697D01*
X0004486Y0162628D02*
X0009089Y0165697D01*
X0009089Y0162628D02*
X0004486Y0162628D01*
X0005253Y0161093D02*
X0004486Y0160326D01*
X0004486Y0158791D01*
X0005253Y0158024D01*
X0008322Y0158024D01*
X0009089Y0158791D01*
X0009089Y0160326D01*
X0008322Y0161093D01*
X0005253Y0161093D01*
X0005253Y0156489D02*
X0004486Y0155722D01*
X0004486Y0154187D01*
X0005253Y0153420D01*
X0008322Y0153420D01*
X0009089Y0154187D01*
X0009089Y0155722D01*
X0008322Y0156489D01*
X0302796Y0125006D02*
X0304331Y0123471D01*
X0305098Y0121936D02*
X0303563Y0121936D01*
X0302796Y0121169D01*
X0302796Y0118867D01*
X0307400Y0118867D01*
X0305865Y0118867D02*
X0305865Y0121169D01*
X0305098Y0121936D01*
X0305865Y0120402D02*
X0307400Y0121936D01*
X0307400Y0123471D02*
X0307400Y0126540D01*
X0307400Y0125006D02*
X0302796Y0125006D01*
X0317734Y0130680D02*
X0322338Y0133749D01*
X0322338Y0135284D02*
X0322338Y0138353D01*
X0322338Y0136818D02*
X0317734Y0136818D01*
X0319268Y0135284D01*
X0317734Y0133749D02*
X0322338Y0130680D01*
X0320789Y0149731D02*
X0317720Y0149731D01*
X0316952Y0150499D01*
X0316952Y0152033D01*
X0317720Y0152801D01*
X0320789Y0152801D01*
X0321556Y0152033D01*
X0321556Y0150499D01*
X0320789Y0149731D01*
X0320022Y0151266D02*
X0321556Y0152801D01*
X0321556Y0154335D02*
X0321556Y0157404D01*
X0321556Y0155870D02*
X0316952Y0155870D01*
X0318487Y0154335D01*
D12*
X0321238Y0147247D02*
X0321238Y0142128D01*
X0323276Y0135924D02*
X0334299Y0135924D01*
X0334299Y0119389D01*
X0323276Y0119389D01*
X0323276Y0135924D01*
X0328000Y0131987D02*
X0329575Y0131987D01*
X0329670Y0131985D01*
X0329765Y0131979D01*
X0329860Y0131970D01*
X0329954Y0131956D01*
X0330047Y0131939D01*
X0330140Y0131918D01*
X0330232Y0131894D01*
X0330323Y0131865D01*
X0330413Y0131834D01*
X0330501Y0131798D01*
X0330588Y0131759D01*
X0330673Y0131716D01*
X0330756Y0131671D01*
X0330837Y0131621D01*
X0330917Y0131569D01*
X0330994Y0131513D01*
X0331069Y0131455D01*
X0331141Y0131393D01*
X0331211Y0131328D01*
X0331278Y0131261D01*
X0331343Y0131191D01*
X0331405Y0131119D01*
X0331463Y0131044D01*
X0331519Y0130967D01*
X0331571Y0130887D01*
X0331621Y0130806D01*
X0331666Y0130723D01*
X0331709Y0130638D01*
X0331748Y0130551D01*
X0331784Y0130463D01*
X0331815Y0130373D01*
X0331844Y0130282D01*
X0331868Y0130190D01*
X0331889Y0130097D01*
X0331906Y0130004D01*
X0331920Y0129910D01*
X0331929Y0129815D01*
X0331935Y0129720D01*
X0331937Y0129625D01*
X0331937Y0125688D01*
X0331935Y0125593D01*
X0331929Y0125498D01*
X0331920Y0125403D01*
X0331906Y0125309D01*
X0331889Y0125216D01*
X0331868Y0125123D01*
X0331844Y0125031D01*
X0331815Y0124940D01*
X0331784Y0124850D01*
X0331748Y0124762D01*
X0331709Y0124675D01*
X0331666Y0124590D01*
X0331621Y0124507D01*
X0331571Y0124426D01*
X0331519Y0124346D01*
X0331463Y0124269D01*
X0331405Y0124194D01*
X0331343Y0124122D01*
X0331278Y0124052D01*
X0331211Y0123985D01*
X0331141Y0123920D01*
X0331069Y0123858D01*
X0330994Y0123800D01*
X0330917Y0123744D01*
X0330837Y0123692D01*
X0330756Y0123642D01*
X0330673Y0123597D01*
X0330588Y0123554D01*
X0330501Y0123515D01*
X0330413Y0123479D01*
X0330323Y0123448D01*
X0330232Y0123419D01*
X0330140Y0123395D01*
X0330047Y0123374D01*
X0329954Y0123357D01*
X0329860Y0123343D01*
X0329765Y0123334D01*
X0329670Y0123328D01*
X0329575Y0123326D01*
X0328000Y0123326D01*
X0327905Y0123328D01*
X0327810Y0123334D01*
X0327715Y0123343D01*
X0327621Y0123357D01*
X0327528Y0123374D01*
X0327435Y0123395D01*
X0327343Y0123419D01*
X0327252Y0123448D01*
X0327162Y0123479D01*
X0327074Y0123515D01*
X0326987Y0123554D01*
X0326902Y0123597D01*
X0326819Y0123642D01*
X0326738Y0123692D01*
X0326658Y0123744D01*
X0326581Y0123800D01*
X0326506Y0123858D01*
X0326434Y0123920D01*
X0326364Y0123985D01*
X0326297Y0124052D01*
X0326232Y0124122D01*
X0326170Y0124194D01*
X0326112Y0124269D01*
X0326056Y0124346D01*
X0326004Y0124426D01*
X0325954Y0124507D01*
X0325909Y0124590D01*
X0325866Y0124675D01*
X0325827Y0124762D01*
X0325791Y0124850D01*
X0325760Y0124940D01*
X0325731Y0125031D01*
X0325707Y0125123D01*
X0325686Y0125216D01*
X0325669Y0125309D01*
X0325655Y0125403D01*
X0325646Y0125498D01*
X0325640Y0125593D01*
X0325638Y0125688D01*
X0325638Y0129625D01*
X0325640Y0129720D01*
X0325646Y0129815D01*
X0325655Y0129910D01*
X0325669Y0130004D01*
X0325686Y0130097D01*
X0325707Y0130190D01*
X0325731Y0130282D01*
X0325760Y0130373D01*
X0325791Y0130463D01*
X0325827Y0130551D01*
X0325866Y0130638D01*
X0325909Y0130723D01*
X0325954Y0130806D01*
X0326004Y0130887D01*
X0326056Y0130967D01*
X0326112Y0131044D01*
X0326170Y0131119D01*
X0326232Y0131191D01*
X0326297Y0131261D01*
X0326364Y0131328D01*
X0326434Y0131393D01*
X0326506Y0131455D01*
X0326581Y0131513D01*
X0326658Y0131569D01*
X0326738Y0131621D01*
X0326819Y0131671D01*
X0326902Y0131716D01*
X0326987Y0131759D01*
X0327074Y0131798D01*
X0327162Y0131834D01*
X0327252Y0131865D01*
X0327343Y0131894D01*
X0327435Y0131918D01*
X0327528Y0131939D01*
X0327621Y0131956D01*
X0327715Y0131970D01*
X0327810Y0131979D01*
X0327905Y0131985D01*
X0328000Y0131987D01*
X0333837Y0142128D02*
X0333837Y0147247D01*
X0305788Y0176094D02*
X0300788Y0176094D01*
X0298788Y0178094D01*
X0296788Y0176094D01*
X0290788Y0176094D01*
X0288788Y0178094D01*
X0286788Y0176094D01*
X0281788Y0176094D01*
X0278788Y0179094D01*
X0278788Y0193094D01*
X0281788Y0196094D01*
X0286788Y0196094D01*
X0288788Y0194094D01*
X0290788Y0196094D01*
X0296788Y0196094D01*
X0298788Y0194094D01*
X0300788Y0196094D01*
X0305788Y0196094D01*
X0308788Y0193094D01*
X0308788Y0179094D01*
X0305788Y0176094D01*
X0332006Y0199636D02*
X0332756Y0200387D01*
X0332756Y0201137D01*
X0332006Y0201888D01*
X0328252Y0201888D01*
X0328252Y0202638D02*
X0328252Y0201137D01*
X0329003Y0204240D02*
X0328252Y0204990D01*
X0328252Y0206492D01*
X0329003Y0207242D01*
X0329754Y0207242D01*
X0330504Y0206492D01*
X0331255Y0207242D01*
X0332006Y0207242D01*
X0332756Y0206492D01*
X0332756Y0204990D01*
X0332006Y0204240D01*
X0330504Y0205741D02*
X0330504Y0206492D01*
X0336246Y0211850D02*
X0336246Y0115236D01*
X0245694Y0115236D01*
X0245694Y0005000D01*
X0020340Y0005000D01*
X0019872Y0005021D01*
X0019405Y0005053D01*
X0018939Y0005097D01*
X0018474Y0005151D01*
X0018010Y0005217D01*
X0017548Y0005295D01*
X0017088Y0005383D01*
X0016630Y0005482D01*
X0016175Y0005592D01*
X0015723Y0005714D01*
X0015274Y0005846D01*
X0014828Y0005989D01*
X0014385Y0006143D01*
X0013947Y0006307D01*
X0013512Y0006482D01*
X0013082Y0006668D01*
X0012657Y0006864D01*
X0012236Y0007070D01*
X0011821Y0007286D01*
X0011411Y0007512D01*
X0011006Y0007748D01*
X0010607Y0007993D01*
X0010215Y0008248D01*
X0009828Y0008513D01*
X0009448Y0008787D01*
X0009075Y0009070D01*
X0008709Y0009362D01*
X0008350Y0009662D01*
X0007998Y0009972D01*
X0007654Y0010289D01*
X0007318Y0010615D01*
X0006989Y0010949D01*
X0006669Y0011291D01*
X0006357Y0011640D01*
X0006054Y0011997D01*
X0005759Y0012361D01*
X0005473Y0012732D01*
X0005197Y0013110D01*
X0004929Y0013494D01*
X0004671Y0013885D01*
X0004423Y0014282D01*
X0004184Y0014685D01*
X0003955Y0015093D01*
X0003735Y0015507D01*
X0003526Y0015926D01*
X0003327Y0016350D01*
X0003139Y0016779D01*
X0002960Y0017212D01*
X0002793Y0017649D01*
X0002636Y0018090D01*
X0002489Y0018535D01*
X0002354Y0018983D01*
X0002229Y0019435D01*
X0002115Y0019889D01*
X0002012Y0020346D01*
X0001921Y0020805D01*
X0001840Y0021267D01*
X0001771Y0021730D01*
X0001712Y0022195D01*
X0001666Y0022661D01*
X0001630Y0023128D01*
X0001605Y0023595D01*
X0001592Y0024063D01*
X0001591Y0024532D01*
X0001600Y0025000D01*
X0001600Y0215000D01*
X0006846Y0215501D02*
X0006846Y0217003D01*
X0006846Y0216252D02*
X0010599Y0216252D01*
X0011350Y0215501D01*
X0011350Y0214751D01*
X0010599Y0214000D01*
X0011350Y0218604D02*
X0008347Y0221606D01*
X0007597Y0221606D01*
X0006846Y0220856D01*
X0006846Y0219355D01*
X0007597Y0218604D01*
X0011350Y0218604D02*
X0011350Y0221606D01*
X0001600Y0215000D02*
X0001644Y0215413D01*
X0001699Y0215824D01*
X0001763Y0216235D01*
X0001837Y0216643D01*
X0001922Y0217050D01*
X0002015Y0217454D01*
X0002119Y0217856D01*
X0002232Y0218256D01*
X0002355Y0218653D01*
X0002488Y0219046D01*
X0002630Y0219436D01*
X0002781Y0219823D01*
X0002942Y0220206D01*
X0003112Y0220585D01*
X0003291Y0220960D01*
X0003479Y0221330D01*
X0003676Y0221695D01*
X0003881Y0222056D01*
X0004096Y0222412D01*
X0004319Y0222762D01*
X0004550Y0223107D01*
X0004789Y0223446D01*
X0005037Y0223780D01*
X0005293Y0224107D01*
X0005556Y0224428D01*
X0005827Y0224743D01*
X0006106Y0225050D01*
X0006392Y0225351D01*
X0006685Y0225646D01*
X0006985Y0225932D01*
X0007292Y0226212D01*
X0007606Y0226484D01*
X0007926Y0226748D01*
X0008253Y0227005D01*
X0008585Y0227254D01*
X0008924Y0227494D01*
X0009268Y0227726D01*
X0009618Y0227950D01*
X0009973Y0228166D01*
X0010333Y0228372D01*
X0010698Y0228570D01*
X0011068Y0228759D01*
X0011442Y0228939D01*
X0011821Y0229110D01*
X0012203Y0229272D01*
X0012589Y0229425D01*
X0012979Y0229568D01*
X0013372Y0229701D01*
X0013769Y0229825D01*
X0014168Y0229940D01*
X0014570Y0230045D01*
X0014974Y0230140D01*
X0015380Y0230225D01*
X0015789Y0230301D01*
X0016199Y0230366D01*
X0016610Y0230422D01*
X0017023Y0230467D01*
X0017437Y0230503D01*
X0017851Y0230529D01*
X0018266Y0230544D01*
X0018681Y0230550D01*
X0019096Y0230546D01*
X0019511Y0230531D01*
X0019926Y0230507D01*
X0020340Y0230472D01*
X0316561Y0230472D01*
X0316561Y0230473D02*
X0317031Y0230480D01*
X0317501Y0230476D01*
X0317971Y0230460D01*
X0318440Y0230432D01*
X0318909Y0230394D01*
X0319377Y0230343D01*
X0319843Y0230282D01*
X0320307Y0230208D01*
X0320770Y0230124D01*
X0321230Y0230028D01*
X0321688Y0229921D01*
X0322143Y0229802D01*
X0322595Y0229673D01*
X0323044Y0229532D01*
X0323489Y0229380D01*
X0323931Y0229218D01*
X0324368Y0229045D01*
X0324801Y0228861D01*
X0325229Y0228666D01*
X0325652Y0228462D01*
X0326070Y0228246D01*
X0326483Y0228021D01*
X0326890Y0227785D01*
X0327291Y0227540D01*
X0327686Y0227285D01*
X0328075Y0227020D01*
X0328457Y0226746D01*
X0328832Y0226462D01*
X0329200Y0226169D01*
X0329561Y0225868D01*
X0329914Y0225557D01*
X0330260Y0225238D01*
X0330597Y0224911D01*
X0330927Y0224576D01*
X0331248Y0224232D01*
X0331561Y0223881D01*
X0331865Y0223522D01*
X0332160Y0223156D01*
X0332446Y0222782D01*
X0332722Y0222402D01*
X0332990Y0222015D01*
X0333247Y0221622D01*
X0333495Y0221222D01*
X0333733Y0220817D01*
X0333962Y0220405D01*
X0334179Y0219989D01*
X0334387Y0219567D01*
X0334584Y0219140D01*
X0334771Y0218708D01*
X0334947Y0218272D01*
X0335112Y0217832D01*
X0335267Y0217388D01*
X0335410Y0216940D01*
X0335542Y0216489D01*
X0335664Y0216034D01*
X0335774Y0215577D01*
X0335873Y0215117D01*
X0335960Y0214655D01*
X0336037Y0214191D01*
X0336101Y0213725D01*
X0336155Y0213258D01*
X0336196Y0212790D01*
X0336227Y0212320D01*
X0336246Y0211850D01*
X0252615Y0141250D02*
X0252617Y0141308D01*
X0252623Y0141366D01*
X0252633Y0141423D01*
X0252646Y0141480D01*
X0252664Y0141535D01*
X0252685Y0141589D01*
X0252709Y0141642D01*
X0252738Y0141693D01*
X0252769Y0141741D01*
X0252804Y0141788D01*
X0252842Y0141832D01*
X0252882Y0141873D01*
X0252926Y0141912D01*
X0252972Y0141947D01*
X0253020Y0141980D01*
X0253070Y0142009D01*
X0253123Y0142034D01*
X0253176Y0142056D01*
X0253231Y0142075D01*
X0253288Y0142089D01*
X0253345Y0142100D01*
X0253402Y0142107D01*
X0253460Y0142110D01*
X0253519Y0142109D01*
X0253576Y0142104D01*
X0253634Y0142095D01*
X0253691Y0142083D01*
X0253746Y0142066D01*
X0253801Y0142046D01*
X0253854Y0142022D01*
X0253905Y0141995D01*
X0253954Y0141964D01*
X0254001Y0141930D01*
X0254046Y0141893D01*
X0254088Y0141853D01*
X0254128Y0141810D01*
X0254164Y0141765D01*
X0254197Y0141717D01*
X0254227Y0141667D01*
X0254253Y0141616D01*
X0254276Y0141562D01*
X0254296Y0141507D01*
X0254311Y0141451D01*
X0254323Y0141395D01*
X0254331Y0141337D01*
X0254335Y0141279D01*
X0254335Y0141221D01*
X0254331Y0141163D01*
X0254323Y0141105D01*
X0254311Y0141049D01*
X0254296Y0140993D01*
X0254276Y0140938D01*
X0254253Y0140884D01*
X0254227Y0140833D01*
X0254197Y0140783D01*
X0254164Y0140735D01*
X0254128Y0140690D01*
X0254088Y0140647D01*
X0254046Y0140607D01*
X0254001Y0140570D01*
X0253954Y0140536D01*
X0253905Y0140505D01*
X0253854Y0140478D01*
X0253801Y0140454D01*
X0253746Y0140434D01*
X0253691Y0140417D01*
X0253634Y0140405D01*
X0253576Y0140396D01*
X0253519Y0140391D01*
X0253460Y0140390D01*
X0253402Y0140393D01*
X0253345Y0140400D01*
X0253288Y0140411D01*
X0253231Y0140425D01*
X0253176Y0140444D01*
X0253123Y0140466D01*
X0253070Y0140491D01*
X0253020Y0140520D01*
X0252972Y0140553D01*
X0252926Y0140588D01*
X0252882Y0140627D01*
X0252842Y0140668D01*
X0252804Y0140712D01*
X0252769Y0140759D01*
X0252738Y0140807D01*
X0252709Y0140858D01*
X0252685Y0140911D01*
X0252664Y0140965D01*
X0252646Y0141020D01*
X0252633Y0141077D01*
X0252623Y0141134D01*
X0252617Y0141192D01*
X0252615Y0141250D01*
X0253375Y0141250D02*
X0253377Y0141270D01*
X0253383Y0141288D01*
X0253392Y0141306D01*
X0253404Y0141321D01*
X0253419Y0141333D01*
X0253437Y0141342D01*
X0253455Y0141348D01*
X0253475Y0141350D01*
X0253495Y0141348D01*
X0253513Y0141342D01*
X0253531Y0141333D01*
X0253546Y0141321D01*
X0253558Y0141306D01*
X0253567Y0141288D01*
X0253573Y0141270D01*
X0253575Y0141250D01*
X0253573Y0141230D01*
X0253567Y0141212D01*
X0253558Y0141194D01*
X0253546Y0141179D01*
X0253531Y0141167D01*
X0253513Y0141158D01*
X0253495Y0141152D01*
X0253475Y0141150D01*
X0253455Y0141152D01*
X0253437Y0141158D01*
X0253419Y0141167D01*
X0253404Y0141179D01*
X0253392Y0141194D01*
X0253383Y0141212D01*
X0253377Y0141230D01*
X0253375Y0141250D01*
X0252975Y0141250D02*
X0252977Y0141294D01*
X0252983Y0141338D01*
X0252993Y0141381D01*
X0253006Y0141423D01*
X0253023Y0141464D01*
X0253044Y0141503D01*
X0253068Y0141540D01*
X0253095Y0141575D01*
X0253125Y0141607D01*
X0253158Y0141637D01*
X0253194Y0141663D01*
X0253231Y0141687D01*
X0253271Y0141706D01*
X0253312Y0141723D01*
X0253355Y0141735D01*
X0253398Y0141744D01*
X0253442Y0141749D01*
X0253486Y0141750D01*
X0253530Y0141747D01*
X0253574Y0141740D01*
X0253617Y0141729D01*
X0253659Y0141715D01*
X0253699Y0141697D01*
X0253738Y0141675D01*
X0253774Y0141651D01*
X0253808Y0141623D01*
X0253840Y0141592D01*
X0253869Y0141558D01*
X0253895Y0141522D01*
X0253917Y0141484D01*
X0253936Y0141444D01*
X0253951Y0141402D01*
X0253963Y0141360D01*
X0253971Y0141316D01*
X0253975Y0141272D01*
X0253975Y0141228D01*
X0253971Y0141184D01*
X0253963Y0141140D01*
X0253951Y0141098D01*
X0253936Y0141056D01*
X0253917Y0141016D01*
X0253895Y0140978D01*
X0253869Y0140942D01*
X0253840Y0140908D01*
X0253808Y0140877D01*
X0253774Y0140849D01*
X0253738Y0140825D01*
X0253699Y0140803D01*
X0253659Y0140785D01*
X0253617Y0140771D01*
X0253574Y0140760D01*
X0253530Y0140753D01*
X0253486Y0140750D01*
X0253442Y0140751D01*
X0253398Y0140756D01*
X0253355Y0140765D01*
X0253312Y0140777D01*
X0253271Y0140794D01*
X0253231Y0140813D01*
X0253194Y0140837D01*
X0253158Y0140863D01*
X0253125Y0140893D01*
X0253095Y0140925D01*
X0253068Y0140960D01*
X0253044Y0140997D01*
X0253023Y0141036D01*
X0253006Y0141077D01*
X0252993Y0141119D01*
X0252983Y0141162D01*
X0252977Y0141206D01*
X0252975Y0141250D01*
X0240243Y0156986D02*
X0225519Y0156986D01*
X0225519Y0073521D01*
X0240243Y0073521D01*
X0240243Y0156986D01*
X0196867Y0186201D02*
X0196867Y0200925D01*
X0113402Y0200925D01*
X0113402Y0186201D01*
X0196867Y0186201D01*
X0199832Y0200854D02*
X0199832Y0117389D01*
X0214556Y0117389D01*
X0214556Y0200854D01*
X0199832Y0200854D01*
X0165115Y0166380D02*
X0155272Y0166380D01*
X0155272Y0152995D01*
X0165115Y0152995D01*
X0165115Y0166380D01*
X0116887Y0139609D02*
X0116887Y0129766D01*
X0103501Y0129766D01*
X0103501Y0139609D01*
X0116887Y0139609D01*
X0150272Y0121380D02*
X0160115Y0121380D01*
X0160115Y0107995D01*
X0150272Y0107995D01*
X0150272Y0121380D01*
X0115115Y0107630D02*
X0105272Y0107630D01*
X0105272Y0094245D01*
X0115115Y0094245D01*
X0115115Y0107630D01*
X0070115Y0079193D02*
X0060272Y0079193D01*
X0060272Y0065807D01*
X0070115Y0065807D01*
X0070115Y0079193D01*
X0026493Y0113861D02*
X0011769Y0113861D01*
X0011769Y0030396D01*
X0026493Y0030396D01*
X0026493Y0113861D01*
X0026493Y0117271D02*
X0026493Y0200736D01*
X0011769Y0200736D01*
X0011769Y0117271D01*
X0026493Y0117271D01*
X0058501Y0149766D02*
X0058501Y0159609D01*
X0071887Y0159609D01*
X0071887Y0149766D01*
X0058501Y0149766D01*
X0028402Y0186201D02*
X0111867Y0186201D01*
X0111867Y0200925D01*
X0028402Y0200925D01*
X0028402Y0186201D01*
X0081690Y0213783D02*
X0081690Y0215284D01*
X0081690Y0214533D02*
X0085443Y0214533D01*
X0086194Y0213783D01*
X0086194Y0213032D01*
X0085443Y0212281D01*
X0086194Y0216885D02*
X0086194Y0219888D01*
X0086194Y0218386D02*
X0081690Y0218386D01*
X0083191Y0216885D01*
X0199832Y0113354D02*
X0199832Y0029889D01*
X0214556Y0029889D01*
X0214556Y0113354D01*
X0199832Y0113354D01*
X0166887Y0074609D02*
X0153501Y0074609D01*
X0153501Y0064766D01*
X0166887Y0064766D01*
X0166887Y0074609D01*
X0197298Y0045049D02*
X0113833Y0045049D01*
X0113833Y0030325D01*
X0197298Y0030325D01*
X0197298Y0045049D01*
X0112298Y0045049D02*
X0112298Y0030325D01*
X0028833Y0030325D01*
X0028833Y0045049D01*
X0112298Y0045049D01*
D13*
X0065194Y0069875D03*
X0110194Y0098312D03*
X0155194Y0112062D03*
X0160194Y0162313D03*
D14*
X0079100Y0202500D02*
X0079100Y0220000D01*
X0059100Y0220000D01*
X0059100Y0227500D01*
X0079100Y0227500D01*
X0079100Y0220000D01*
X0059100Y0220000D02*
X0059100Y0202500D01*
X0079100Y0202500D01*
X0052850Y0202500D02*
X0052850Y0220000D01*
X0012850Y0220000D01*
X0012850Y0227500D01*
X0052850Y0227500D01*
X0052850Y0220000D01*
X0052850Y0202500D02*
X0012850Y0202500D01*
X0012850Y0220000D01*
X0310506Y0198594D02*
X0310506Y0168594D01*
X0328006Y0168594D01*
X0328006Y0198594D01*
X0335506Y0198594D01*
X0335506Y0168594D01*
X0328006Y0168594D01*
X0328006Y0198594D02*
X0310506Y0198594D01*
D15*
X0297163Y0173906D02*
X0297163Y0169906D01*
X0297163Y0173906D01*
X0297163Y0169906D01*
X0297163Y0173906D01*
X0308963Y0162906D02*
X0309663Y0162906D01*
X0309663Y0162206D01*
X0282363Y0162906D02*
X0281663Y0162906D01*
X0281663Y0162206D01*
X0274763Y0144206D02*
X0270763Y0144206D01*
X0283163Y0138506D02*
X0285263Y0136406D01*
X0282363Y0134906D02*
X0281663Y0134906D01*
X0281663Y0135606D01*
X0308963Y0134906D02*
X0309663Y0134906D01*
X0309663Y0135606D01*
X0316563Y0140906D02*
X0320563Y0140906D01*
X0316563Y0140906D01*
X0320563Y0140906D01*
X0253100Y0160000D02*
X0253100Y0170000D01*
X0253098Y0170060D01*
X0253093Y0170121D01*
X0253084Y0170180D01*
X0253071Y0170239D01*
X0253055Y0170298D01*
X0253035Y0170355D01*
X0253012Y0170410D01*
X0252985Y0170465D01*
X0252956Y0170517D01*
X0252923Y0170568D01*
X0252887Y0170617D01*
X0252849Y0170663D01*
X0252807Y0170707D01*
X0252763Y0170749D01*
X0252717Y0170787D01*
X0252668Y0170823D01*
X0252617Y0170856D01*
X0252565Y0170885D01*
X0252510Y0170912D01*
X0252455Y0170935D01*
X0252398Y0170955D01*
X0252339Y0170971D01*
X0252280Y0170984D01*
X0252221Y0170993D01*
X0252160Y0170998D01*
X0252100Y0171000D01*
X0246100Y0171000D01*
X0246100Y0171500D02*
X0252100Y0171500D01*
X0252160Y0171502D01*
X0252221Y0171507D01*
X0252280Y0171516D01*
X0252339Y0171529D01*
X0252398Y0171545D01*
X0252455Y0171565D01*
X0252510Y0171588D01*
X0252565Y0171615D01*
X0252617Y0171644D01*
X0252668Y0171677D01*
X0252717Y0171713D01*
X0252763Y0171751D01*
X0252807Y0171793D01*
X0252849Y0171837D01*
X0252887Y0171883D01*
X0252923Y0171932D01*
X0252956Y0171983D01*
X0252985Y0172035D01*
X0253012Y0172090D01*
X0253035Y0172145D01*
X0253055Y0172202D01*
X0253071Y0172261D01*
X0253084Y0172320D01*
X0253093Y0172379D01*
X0253098Y0172440D01*
X0253100Y0172500D01*
X0253100Y0182500D01*
X0253098Y0182560D01*
X0253093Y0182621D01*
X0253084Y0182680D01*
X0253071Y0182739D01*
X0253055Y0182798D01*
X0253035Y0182855D01*
X0253012Y0182910D01*
X0252985Y0182965D01*
X0252956Y0183017D01*
X0252923Y0183068D01*
X0252887Y0183117D01*
X0252849Y0183163D01*
X0252807Y0183207D01*
X0252763Y0183249D01*
X0252717Y0183287D01*
X0252668Y0183323D01*
X0252617Y0183356D01*
X0252565Y0183385D01*
X0252510Y0183412D01*
X0252455Y0183435D01*
X0252398Y0183455D01*
X0252339Y0183471D01*
X0252280Y0183484D01*
X0252221Y0183493D01*
X0252160Y0183498D01*
X0252100Y0183500D01*
X0246100Y0183500D01*
X0246100Y0184000D02*
X0252100Y0184000D01*
X0252160Y0184002D01*
X0252221Y0184007D01*
X0252280Y0184016D01*
X0252339Y0184029D01*
X0252398Y0184045D01*
X0252455Y0184065D01*
X0252510Y0184088D01*
X0252565Y0184115D01*
X0252617Y0184144D01*
X0252668Y0184177D01*
X0252717Y0184213D01*
X0252763Y0184251D01*
X0252807Y0184293D01*
X0252849Y0184337D01*
X0252887Y0184383D01*
X0252923Y0184432D01*
X0252956Y0184483D01*
X0252985Y0184535D01*
X0253012Y0184590D01*
X0253035Y0184645D01*
X0253055Y0184702D01*
X0253071Y0184761D01*
X0253084Y0184820D01*
X0253093Y0184879D01*
X0253098Y0184940D01*
X0253100Y0185000D01*
X0253100Y0195000D01*
X0253098Y0195060D01*
X0253093Y0195121D01*
X0253084Y0195180D01*
X0253071Y0195239D01*
X0253055Y0195298D01*
X0253035Y0195355D01*
X0253012Y0195410D01*
X0252985Y0195465D01*
X0252956Y0195517D01*
X0252923Y0195568D01*
X0252887Y0195617D01*
X0252849Y0195663D01*
X0252807Y0195707D01*
X0252763Y0195749D01*
X0252717Y0195787D01*
X0252668Y0195823D01*
X0252617Y0195856D01*
X0252565Y0195885D01*
X0252510Y0195912D01*
X0252455Y0195935D01*
X0252398Y0195955D01*
X0252339Y0195971D01*
X0252280Y0195984D01*
X0252221Y0195993D01*
X0252160Y0195998D01*
X0252100Y0196000D01*
X0246100Y0196000D01*
X0246040Y0195998D01*
X0245979Y0195993D01*
X0245920Y0195984D01*
X0245861Y0195971D01*
X0245802Y0195955D01*
X0245745Y0195935D01*
X0245690Y0195912D01*
X0245635Y0195885D01*
X0245583Y0195856D01*
X0245532Y0195823D01*
X0245483Y0195787D01*
X0245437Y0195749D01*
X0245393Y0195707D01*
X0245351Y0195663D01*
X0245313Y0195617D01*
X0245277Y0195568D01*
X0245244Y0195517D01*
X0245215Y0195465D01*
X0245188Y0195410D01*
X0245165Y0195355D01*
X0245145Y0195298D01*
X0245129Y0195239D01*
X0245116Y0195180D01*
X0245107Y0195121D01*
X0245102Y0195060D01*
X0245100Y0195000D01*
X0245100Y0185000D01*
X0245102Y0184940D01*
X0245107Y0184879D01*
X0245116Y0184820D01*
X0245129Y0184761D01*
X0245145Y0184702D01*
X0245165Y0184645D01*
X0245188Y0184590D01*
X0245215Y0184535D01*
X0245244Y0184483D01*
X0245277Y0184432D01*
X0245313Y0184383D01*
X0245351Y0184337D01*
X0245393Y0184293D01*
X0245437Y0184251D01*
X0245483Y0184213D01*
X0245532Y0184177D01*
X0245583Y0184144D01*
X0245635Y0184115D01*
X0245690Y0184088D01*
X0245745Y0184065D01*
X0245802Y0184045D01*
X0245861Y0184029D01*
X0245920Y0184016D01*
X0245979Y0184007D01*
X0246040Y0184002D01*
X0246100Y0184000D01*
X0246100Y0183500D02*
X0246040Y0183498D01*
X0245979Y0183493D01*
X0245920Y0183484D01*
X0245861Y0183471D01*
X0245802Y0183455D01*
X0245745Y0183435D01*
X0245690Y0183412D01*
X0245635Y0183385D01*
X0245583Y0183356D01*
X0245532Y0183323D01*
X0245483Y0183287D01*
X0245437Y0183249D01*
X0245393Y0183207D01*
X0245351Y0183163D01*
X0245313Y0183117D01*
X0245277Y0183068D01*
X0245244Y0183017D01*
X0245215Y0182965D01*
X0245188Y0182910D01*
X0245165Y0182855D01*
X0245145Y0182798D01*
X0245129Y0182739D01*
X0245116Y0182680D01*
X0245107Y0182621D01*
X0245102Y0182560D01*
X0245100Y0182500D01*
X0245100Y0172500D01*
X0245102Y0172440D01*
X0245107Y0172379D01*
X0245116Y0172320D01*
X0245129Y0172261D01*
X0245145Y0172202D01*
X0245165Y0172145D01*
X0245188Y0172090D01*
X0245215Y0172035D01*
X0245244Y0171983D01*
X0245277Y0171932D01*
X0245313Y0171883D01*
X0245351Y0171837D01*
X0245393Y0171793D01*
X0245437Y0171751D01*
X0245483Y0171713D01*
X0245532Y0171677D01*
X0245583Y0171644D01*
X0245635Y0171615D01*
X0245690Y0171588D01*
X0245745Y0171565D01*
X0245802Y0171545D01*
X0245861Y0171529D01*
X0245920Y0171516D01*
X0245979Y0171507D01*
X0246040Y0171502D01*
X0246100Y0171500D01*
X0246100Y0171000D02*
X0246040Y0170998D01*
X0245979Y0170993D01*
X0245920Y0170984D01*
X0245861Y0170971D01*
X0245802Y0170955D01*
X0245745Y0170935D01*
X0245690Y0170912D01*
X0245635Y0170885D01*
X0245583Y0170856D01*
X0245532Y0170823D01*
X0245483Y0170787D01*
X0245437Y0170749D01*
X0245393Y0170707D01*
X0245351Y0170663D01*
X0245313Y0170617D01*
X0245277Y0170568D01*
X0245244Y0170517D01*
X0245215Y0170465D01*
X0245188Y0170410D01*
X0245165Y0170355D01*
X0245145Y0170298D01*
X0245129Y0170239D01*
X0245116Y0170180D01*
X0245107Y0170121D01*
X0245102Y0170060D01*
X0245100Y0170000D01*
X0245100Y0160000D01*
X0245102Y0159940D01*
X0245107Y0159879D01*
X0245116Y0159820D01*
X0245129Y0159761D01*
X0245145Y0159702D01*
X0245165Y0159645D01*
X0245188Y0159590D01*
X0245215Y0159535D01*
X0245244Y0159483D01*
X0245277Y0159432D01*
X0245313Y0159383D01*
X0245351Y0159337D01*
X0245393Y0159293D01*
X0245437Y0159251D01*
X0245483Y0159213D01*
X0245532Y0159177D01*
X0245583Y0159144D01*
X0245635Y0159115D01*
X0245690Y0159088D01*
X0245745Y0159065D01*
X0245802Y0159045D01*
X0245861Y0159029D01*
X0245920Y0159016D01*
X0245979Y0159007D01*
X0246040Y0159002D01*
X0246100Y0159000D01*
X0252100Y0159000D01*
X0252160Y0159002D01*
X0252221Y0159007D01*
X0252280Y0159016D01*
X0252339Y0159029D01*
X0252398Y0159045D01*
X0252455Y0159065D01*
X0252510Y0159088D01*
X0252565Y0159115D01*
X0252617Y0159144D01*
X0252668Y0159177D01*
X0252717Y0159213D01*
X0252763Y0159251D01*
X0252807Y0159293D01*
X0252849Y0159337D01*
X0252887Y0159383D01*
X0252923Y0159432D01*
X0252956Y0159483D01*
X0252985Y0159535D01*
X0253012Y0159590D01*
X0253035Y0159645D01*
X0253055Y0159702D01*
X0253071Y0159761D01*
X0253084Y0159820D01*
X0253093Y0159879D01*
X0253098Y0159940D01*
X0253100Y0160000D01*
D16*
X0279992Y0127792D02*
X0283129Y0124656D01*
X0283129Y0126224D02*
X0279992Y0126224D01*
X0279992Y0124656D02*
X0283129Y0127792D01*
X0281560Y0127792D02*
X0281560Y0124656D01*
X0309169Y0194561D02*
X0307934Y0195795D01*
X0311638Y0195795D01*
X0311638Y0194561D02*
X0311638Y0197029D01*
D17*
X0162819Y0069688D03*
X0107569Y0134688D03*
X0062569Y0154688D03*
M02*
