G75*
%MOIN*%
%OFA0B0*%
%FSLAX25Y25*%
%IPPOS*%
%LPD*%
%AMOC8*
5,1,8,0,0,1.08239X$1,22.5*
%
%ADD10R,0.04737X0.05131*%
%ADD11C,0.05950*%
%ADD12C,0.11824*%
%ADD13C,0.08400*%
%ADD14C,0.13398*%
%ADD15C,0.06737*%
%ADD16R,0.05131X0.04737*%
%ADD17C,0.07200*%
%ADD18R,0.03800X0.08595*%
%ADD19C,0.15800*%
%ADD20C,0.04400*%
%ADD21C,0.06706*%
%ADD22C,0.04762*%
D10*
X0114100Y0159154D03*
X0114100Y0165846D03*
X0189881Y0190404D03*
X0189881Y0197096D03*
X0198631Y0197096D03*
X0198631Y0190404D03*
D11*
X0043006Y0033750D03*
X0050880Y0033750D03*
X0058754Y0033750D03*
X0066628Y0033750D03*
X0074502Y0033750D03*
X0082376Y0033750D03*
X0090250Y0033750D03*
X0098124Y0033750D03*
X0094187Y0041624D03*
X0086313Y0041624D03*
X0078439Y0041624D03*
X0070565Y0041624D03*
X0062691Y0041624D03*
X0054817Y0041624D03*
X0046943Y0041624D03*
X0023068Y0048506D03*
X0023068Y0056380D03*
X0015194Y0052443D03*
X0015194Y0044569D03*
X0015194Y0060317D03*
X0023068Y0064254D03*
X0015194Y0068191D03*
X0015194Y0076065D03*
X0023068Y0072128D03*
X0023068Y0080002D03*
X0015194Y0083939D03*
X0023068Y0087876D03*
X0023068Y0095750D03*
X0015194Y0091813D03*
X0015194Y0099687D03*
X0015194Y0131444D03*
X0023068Y0135381D03*
X0023068Y0143255D03*
X0015194Y0139318D03*
X0015194Y0147192D03*
X0023068Y0151129D03*
X0015194Y0155066D03*
X0015194Y0162940D03*
X0023068Y0159003D03*
X0023068Y0166877D03*
X0023068Y0174751D03*
X0015194Y0170814D03*
X0015194Y0178688D03*
X0023068Y0182625D03*
X0015194Y0186562D03*
X0042576Y0197500D03*
X0050450Y0197500D03*
X0058324Y0197500D03*
X0066198Y0197500D03*
X0074072Y0197500D03*
X0081946Y0197500D03*
X0089820Y0197500D03*
X0097694Y0197500D03*
X0093757Y0189626D03*
X0085883Y0189626D03*
X0078009Y0189626D03*
X0070135Y0189626D03*
X0062261Y0189626D03*
X0054387Y0189626D03*
X0046513Y0189626D03*
X0112340Y0207598D03*
X0122340Y0207598D03*
X0132340Y0207598D03*
X0142340Y0207598D03*
X0152340Y0207598D03*
X0162340Y0207598D03*
X0172340Y0207598D03*
X0182340Y0207598D03*
X0192340Y0207598D03*
X0202340Y0207598D03*
X0212340Y0207598D03*
X0222340Y0207598D03*
X0232340Y0207598D03*
X0242340Y0207598D03*
X0252340Y0207598D03*
X0262340Y0207598D03*
X0272340Y0207598D03*
X0282340Y0207598D03*
X0292340Y0207598D03*
X0302340Y0207598D03*
X0302340Y0217598D03*
X0292340Y0217598D03*
X0282340Y0217598D03*
X0272340Y0217598D03*
X0262340Y0217598D03*
X0252340Y0217598D03*
X0242340Y0217598D03*
X0232340Y0217598D03*
X0222340Y0217598D03*
X0212340Y0217598D03*
X0202340Y0217598D03*
X0192340Y0217598D03*
X0182340Y0217598D03*
X0172340Y0217598D03*
X0162340Y0217598D03*
X0152340Y0217598D03*
X0142340Y0217598D03*
X0132340Y0217598D03*
X0122340Y0217598D03*
X0112340Y0217598D03*
X0127576Y0197500D03*
X0135450Y0197500D03*
X0143324Y0197500D03*
X0151198Y0197500D03*
X0159072Y0197500D03*
X0166946Y0197500D03*
X0174820Y0197500D03*
X0182694Y0197500D03*
X0178757Y0189626D03*
X0170883Y0189626D03*
X0163009Y0189626D03*
X0155135Y0189626D03*
X0147261Y0189626D03*
X0139387Y0189626D03*
X0131513Y0189626D03*
X0203257Y0182744D03*
X0203257Y0174870D03*
X0211131Y0178807D03*
X0211131Y0186681D03*
X0211131Y0170933D03*
X0203257Y0166996D03*
X0211131Y0163059D03*
X0211131Y0155185D03*
X0203257Y0159122D03*
X0203257Y0151248D03*
X0211131Y0147311D03*
X0203257Y0143374D03*
X0203257Y0135500D03*
X0211131Y0139437D03*
X0211131Y0131563D03*
X0228944Y0134938D03*
X0228944Y0127064D03*
X0236818Y0123127D03*
X0228944Y0119190D03*
X0236818Y0115253D03*
X0236818Y0107379D03*
X0228944Y0103442D03*
X0236818Y0099505D03*
X0228944Y0095568D03*
X0228944Y0087694D03*
X0236818Y0091631D03*
X0228944Y0111316D03*
X0211131Y0099181D03*
X0203257Y0095244D03*
X0211131Y0091307D03*
X0203257Y0087370D03*
X0203257Y0079496D03*
X0211131Y0083433D03*
X0211131Y0075559D03*
X0211131Y0067685D03*
X0203257Y0071622D03*
X0203257Y0063748D03*
X0211131Y0059811D03*
X0203257Y0055874D03*
X0203257Y0048000D03*
X0211131Y0051937D03*
X0211131Y0044062D03*
X0183124Y0033750D03*
X0175250Y0033750D03*
X0167376Y0033750D03*
X0159502Y0033750D03*
X0151628Y0033750D03*
X0143754Y0033750D03*
X0135880Y0033750D03*
X0128006Y0033750D03*
X0131943Y0041624D03*
X0139817Y0041624D03*
X0147691Y0041624D03*
X0155565Y0041624D03*
X0163439Y0041624D03*
X0171313Y0041624D03*
X0179187Y0041624D03*
X0236818Y0131001D03*
X0236818Y0138875D03*
X0228944Y0142813D03*
D12*
X0322466Y0211693D03*
X0094120Y0211693D03*
X0094120Y0018780D03*
D13*
X0034881Y0090000D03*
X0034881Y0100000D03*
X0034881Y0110000D03*
X0034881Y0120000D03*
X0034881Y0130000D03*
X0034881Y0140000D03*
D14*
X0099881Y0157500D03*
X0099881Y0072500D03*
D15*
X0074100Y0212031D02*
X0074100Y0217969D01*
X0064100Y0217969D02*
X0064100Y0212031D01*
X0047850Y0212031D02*
X0047850Y0217969D01*
X0037850Y0217969D02*
X0037850Y0212031D01*
X0027850Y0212031D02*
X0027850Y0217969D01*
X0017850Y0217969D02*
X0017850Y0212031D01*
X0320038Y0193594D02*
X0325975Y0193594D01*
X0325975Y0183594D02*
X0320038Y0183594D01*
X0320038Y0173594D02*
X0325975Y0173594D01*
D16*
X0022446Y0118594D03*
X0015754Y0118594D03*
X0015754Y0110000D03*
X0022446Y0110000D03*
X0014946Y0195000D03*
X0008254Y0195000D03*
X0008254Y0205000D03*
X0014946Y0205000D03*
D17*
X0283788Y0191094D03*
X0293788Y0191094D03*
X0303788Y0191094D03*
X0303788Y0181094D03*
X0293788Y0181094D03*
X0283788Y0181094D03*
D18*
X0118162Y0174375D03*
X0113162Y0174375D03*
X0108162Y0174375D03*
X0103162Y0174375D03*
X0103162Y0193784D03*
X0108162Y0193784D03*
X0113162Y0193784D03*
X0118162Y0193784D03*
D19*
X0174412Y0140156D03*
X0174412Y0100786D03*
D20*
X0159413Y0098594D03*
X0152850Y0097656D03*
X0150038Y0102969D03*
X0155194Y0114687D03*
X0141600Y0130000D03*
X0131131Y0141250D03*
X0126600Y0142500D03*
X0121756Y0133125D03*
X0110194Y0134688D03*
X0089100Y0132500D03*
X0084725Y0134219D03*
X0084725Y0140000D03*
X0089100Y0126850D03*
X0091600Y0122500D03*
X0096600Y0118125D03*
X0104100Y0117500D03*
X0104100Y0112187D03*
X0112225Y0111562D03*
X0121444Y0094062D03*
X0121444Y0087969D03*
X0126131Y0087656D03*
X0126131Y0082031D03*
X0139100Y0072500D03*
X0126600Y0055000D03*
X0121600Y0037500D03*
X0151756Y0050625D03*
X0189725Y0091250D03*
X0189725Y0107187D03*
X0210506Y0123906D03*
X0199100Y0127500D03*
X0213631Y0109375D03*
X0246600Y0124687D03*
X0273163Y0141094D03*
X0272850Y0145781D03*
X0269725Y0150469D03*
X0266600Y0153594D03*
X0254725Y0168125D03*
X0243475Y0165000D03*
X0230350Y0164844D03*
X0236600Y0177500D03*
X0236600Y0190000D03*
X0211131Y0192969D03*
X0206600Y0197500D03*
X0187225Y0185000D03*
X0178787Y0172188D03*
X0177694Y0165938D03*
X0194569Y0152500D03*
X0222381Y0148750D03*
X0275038Y0119844D03*
X0286444Y0121562D03*
X0291131Y0138750D03*
X0286444Y0142969D03*
X0286600Y0149063D03*
X0305819Y0149844D03*
X0306756Y0156875D03*
X0320038Y0167188D03*
X0327538Y0152188D03*
X0328788Y0127656D03*
X0231600Y0065000D03*
X0156756Y0135781D03*
X0163944Y0142500D03*
X0158631Y0146875D03*
X0144100Y0150000D03*
X0144100Y0170000D03*
X0131600Y0175000D03*
X0125194Y0176250D03*
X0105350Y0205312D03*
X0082069Y0183125D03*
X0073631Y0182187D03*
X0046600Y0170000D03*
X0032069Y0178437D03*
X0030194Y0165938D03*
X0065194Y0154688D03*
X0077694Y0153125D03*
X0081600Y0155000D03*
X0071600Y0115000D03*
X0066756Y0089375D03*
X0056600Y0085000D03*
X0049100Y0082500D03*
X0030194Y0079063D03*
X0010506Y0095469D03*
X0006600Y0085000D03*
X0033631Y0048281D03*
X0066444Y0052500D03*
X0166756Y0183750D03*
D21*
X0297069Y0123750D03*
D22*
X0291913Y0148594D03*
X0291756Y0153438D03*
X0268631Y0164531D03*
X0264256Y0166563D03*
X0254569Y0180781D03*
X0251131Y0198750D03*
X0284100Y0172500D03*
M02*
